  0
SECTION
  2
HEADER
  9
$ACADVER
  1
AC1014
  9
$HANDSEED
  5
FFFF
  9
$MEASUREMENT
 70
     1
  0
ENDSEC
  0
SECTION
  2
TABLES
  0
TABLE
  2
VPORT
  5
8
330
0
100
AcDbSymbolTable
 70
     4
  0
VPORT
  5
2E
330
8
100
AcDbSymbolTableRecord
100
AcDbViewportTableRecord
  2
*ACTIVE
 70
     0
 10
0.0
 20
0.0
 11
1.0
 21
1.0
 12
210.0
 22
148.5
 13
0.0
 23
0.0
 14
10.0
 24
10.0
 15
10.0
 25
10.0
 16
0.0
 26
0.0
 36
1.0
 17
0.0
 27
0.0
 37
0.0
 40
341.0
 41
1.24
 42
50.0
 43
0.0
 44
0.0
 50
0.0
 51
0.0
 71
     0
 72
   100
 73
     1
 74
     3
 75
     0
 76
     0
 77
     0
 78
     0
  0
ENDTAB
  0
TABLE
  2
LTYPE
  5
5
330
0
100
AcDbSymbolTable
 70
     1
  0
LTYPE
  5
14
330
5
100
AcDbSymbolTableRecord
100
AcDbLinetypeTableRecord
  2
BYBLOCK
 70
     0
  3

 72
    65
 73
     0
 40
0.0
  0
LTYPE
  5
15
330
5
100
AcDbSymbolTableRecord
100
AcDbLinetypeTableRecord
  2
BYLAYER
 70
     0
  3

 72
    65
 73
     0
 40
0.0
  0
LTYPE
  5
16
330
5
100
AcDbSymbolTableRecord
100
AcDbLinetypeTableRecord
  2
CONTINUOUS
 70
     0
  3
Solid line
 72
    65
 73
     0
 40
0.0
  0
ENDTAB
  0
TABLE
  2
LAYER
  5
2
100
AcDbSymbolTable
 70
10
  0
LAYER
  5
50
100
AcDbSymbolTableRecord
100
AcDbLayerTableRecord
  2
0
 70
0
  6
CONTINUOUS
  0
LAYER
  5
51
100
AcDbSymbolTableRecord
100
AcDbLayerTableRecord
  2
origin
 70
0
  6
CONTINUOUS
  0
LAYER
  5
52
100
AcDbSymbolTableRecord
100
AcDbLayerTableRecord
  2
woodIn
 70
0
  6
CONTINUOUS
  0
LAYER
  5
53
100
AcDbSymbolTableRecord
100
AcDbLayerTableRecord
  2
woodOut
 70
0
  6
CONTINUOUS
  0
LAYER
  5
54
100
AcDbSymbolTableRecord
100
AcDbLayerTableRecord
  2
outerShellOut2
 70
0
  6
CONTINUOUS
  0
LAYER
  5
55
100
AcDbSymbolTableRecord
100
AcDbLayerTableRecord
  2
outerShellOut
 70
0
  6
CONTINUOUS
  0
LAYER
  5
56
100
AcDbSymbolTableRecord
100
AcDbLayerTableRecord
  2
outerShellIn
 70
0
  6
CONTINUOUS
  0
LAYER
  5
57
100
AcDbSymbolTableRecord
100
AcDbLayerTableRecord
  2
innerShellOut2
 70
0
  6
CONTINUOUS
  0
LAYER
  5
58
100
AcDbSymbolTableRecord
100
AcDbLayerTableRecord
  2
innerShellOut
 70
0
  6
CONTINUOUS
  0
LAYER
  5
59
100
AcDbSymbolTableRecord
100
AcDbLayerTableRecord
  2
innerShellIn
 70
0
  6
CONTINUOUS
  0
ENDTAB
  0
TABLE
  2
STYLE
  5
3
330
0
100
AcDbSymbolTable
 70
     1
  0
STYLE
  5
11
330
3
100
AcDbSymbolTableRecord
100
AcDbTextStyleTableRecord
  2
STANDARD
 70
     0
 40
0.0
 41
1.0
 50
0.0
 71
     0
 42
2.5
  3
txt
  4

  0
ENDTAB
  0
TABLE
  2
VIEW
  5
6
330
0
100
AcDbSymbolTable
 70
     0
  0
ENDTAB
  0
TABLE
  2
UCS
  5
7
330
0
100
AcDbSymbolTable
 70
     0
  0
ENDTAB
  0
TABLE
  2
APPID
  5
9
330
0
100
AcDbSymbolTable
 70
     2
  0
APPID
  5
12
330
9
100
AcDbSymbolTableRecord
100
AcDbRegAppTableRecord
  2
ACAD
 70
     0
  0
ENDTAB
  0
TABLE
  2
DIMSTYLE
  5
A
330
0
100
AcDbSymbolTable
 70
     1
  0
DIMSTYLE
105
27
330
A
100
AcDbSymbolTableRecord
100
AcDbDimStyleTableRecord
  2
ISO-25
 70
     0
  3

  4

  5

  6

  7

 40
1.0
 41
2.5
 42
0.625
 43
3.75
 44
1.25
 45
0.0
 46
0.0
 47
0.0
 48
0.0
140
2.5
141
2.5
142
0.0
143
0.03937007874016
144
1.0
145
0.0
146
1.0
147
0.625
 71
     0
 72
     0
 73
     0
 74
     0
 75
     0
 76
     0
 77
     1
 78
     8
170
     0
171
     3
172
     1
173
     0
174
     0
175
     0
176
     0
177
     0
178
     0
270
     2
271
     2
272
     2
273
     2
274
     3
340
11
275
     0
280
     0
281
     0
282
     0
283
     0
284
     8
285
     0
286
     0
287
     3
288
     0
  0
ENDTAB
  0
TABLE
  2
BLOCK_RECORD
  5
1
330
0
100
AcDbSymbolTable
 70
     1
  0
BLOCK_RECORD
  5
1F
330
1
100
AcDbSymbolTableRecord
100
AcDbBlockTableRecord
  2
*MODEL_SPACE
  0
BLOCK_RECORD
  5
1B
330
1
100
AcDbSymbolTableRecord
100
AcDbBlockTableRecord
  2
*PAPER_SPACE
  0
ENDTAB
  0
ENDSEC
  0
SECTION
  2
BLOCKS
  0
BLOCK
  5
20
330
1F
100
AcDbEntity
  8
0
100
AcDbBlockBegin
  2
*MODEL_SPACE
 70
     0
 10
0.0
 20
0.0
 30
0.0
  3
*MODEL_SPACE
  1

  0
ENDBLK
  5
21
330
1F
100
AcDbEntity
  8
0
100
AcDbBlockEnd
  0
BLOCK
  5
1C
330
1B
100
AcDbEntity
 67
     1
  8
0
100
AcDbBlockBegin
  2
*PAPER_SPACE
  1

  0
ENDBLK
  5
1D
330
1B
100
AcDbEntity
 67
     1
  8
0
100
AcDbBlockEnd
  0
ENDSEC
  0
SECTION
  2
ENTITIES
  0
LINE
  5
100
100
AcDbEntity
  8
innerShellOut2
 62
7
100
AcDbLine
 10
205.500000
 20
244.000000
 30
0.0
 11
207.511400
 21
243.992300
 31
0.0
  0
LINE
  5
101
100
AcDbEntity
  8
innerShellOut2
 62
7
100
AcDbLine
 10
207.511400
 20
243.992300
 30
0.0
 11
209.780770
 21
243.958950
 31
0.0
  0
LINE
  5
102
100
AcDbEntity
  8
innerShellOut2
 62
7
100
AcDbLine
 10
209.780770
 20
243.958950
 30
0.0
 11
212.285870
 21
243.884650
 31
0.0
  0
LINE
  5
103
100
AcDbEntity
  8
innerShellOut2
 62
7
100
AcDbLine
 10
212.285870
 20
243.884650
 30
0.0
 11
215.004440
 21
243.754090
 31
0.0
  0
LINE
  5
104
100
AcDbEntity
  8
innerShellOut2
 62
7
100
AcDbLine
 10
215.004440
 20
243.754090
 30
0.0
 11
217.914230
 21
243.551963
 31
0.0
  0
LINE
  5
105
100
AcDbEntity
  8
innerShellOut2
 62
7
100
AcDbLine
 10
217.914230
 20
243.551963
 30
0.0
 11
220.993000
 21
243.262959
 31
0.0
  0
LINE
  5
106
100
AcDbEntity
  8
innerShellOut2
 62
7
100
AcDbLine
 10
220.993000
 20
243.262959
 30
0.0
 11
224.218490
 21
242.871769
 31
0.0
  0
LINE
  5
107
100
AcDbEntity
  8
innerShellOut2
 62
7
100
AcDbLine
 10
224.218490
 20
242.871769
 30
0.0
 11
227.568470
 21
242.363083
 31
0.0
  0
LINE
  5
108
100
AcDbEntity
  8
innerShellOut2
 62
7
100
AcDbLine
 10
227.568470
 20
242.363083
 30
0.0
 11
231.020670
 21
241.721591
 31
0.0
  0
LINE
  5
109
100
AcDbEntity
  8
innerShellOut2
 62
7
100
AcDbLine
 10
231.020670
 20
241.721591
 30
0.0
 11
234.552860
 21
240.931984
 31
0.0
  0
LINE
  5
10a
100
AcDbEntity
  8
innerShellOut2
 62
7
100
AcDbLine
 10
234.552860
 20
240.931984
 30
0.0
 11
238.142780
 21
239.978952
 31
0.0
  0
LINE
  5
10b
100
AcDbEntity
  8
innerShellOut2
 62
7
100
AcDbLine
 10
238.142780
 20
239.978952
 30
0.0
 11
241.768190
 21
238.847186
 31
0.0
  0
LINE
  5
10c
100
AcDbEntity
  8
innerShellOut2
 62
7
100
AcDbLine
 10
241.768190
 20
238.847186
 30
0.0
 11
245.406830
 21
237.521376
 31
0.0
  0
LINE
  5
10d
100
AcDbEntity
  8
innerShellOut2
 62
7
100
AcDbLine
 10
245.406830
 20
237.521376
 30
0.0
 11
249.036460
 21
235.986212
 31
0.0
  0
LINE
  5
10e
100
AcDbEntity
  8
innerShellOut2
 62
7
100
AcDbLine
 10
249.036460
 20
235.986212
 30
0.0
 11
252.634830
 21
234.226384
 31
0.0
  0
LINE
  5
10f
100
AcDbEntity
  8
innerShellOut2
 62
7
100
AcDbLine
 10
252.634830
 20
234.226384
 30
0.0
 11
256.179690
 21
232.226584
 31
0.0
  0
LINE
  5
110
100
AcDbEntity
  8
innerShellOut2
 62
7
100
AcDbLine
 10
256.179690
 20
232.226584
 30
0.0
 11
259.673150
 21
229.984863
 31
0.0
  0
LINE
  5
111
100
AcDbEntity
  8
innerShellOut2
 62
7
100
AcDbLine
 10
259.673150
 20
229.984863
 30
0.0
 11
263.116070
 21
227.487272
 31
0.0
  0
LINE
  5
112
100
AcDbEntity
  8
innerShellOut2
 62
7
100
AcDbLine
 10
263.116070
 20
227.487272
 30
0.0
 11
266.484320
 21
224.700498
 31
0.0
  0
LINE
  5
113
100
AcDbEntity
  8
innerShellOut2
 62
7
100
AcDbLine
 10
266.484320
 20
224.700498
 30
0.0
 11
269.753780
 21
221.591229
 31
0.0
  0
LINE
  5
114
100
AcDbEntity
  8
innerShellOut2
 62
7
100
AcDbLine
 10
269.753780
 20
221.591229
 30
0.0
 11
272.900330
 21
218.126155
 31
0.0
  0
LINE
  5
115
100
AcDbEntity
  8
innerShellOut2
 62
7
100
AcDbLine
 10
272.900330
 20
218.126155
 30
0.0
 11
275.899830
 21
214.271964
 31
0.0
  0
LINE
  5
116
100
AcDbEntity
  8
innerShellOut2
 62
7
100
AcDbLine
 10
275.899830
 20
214.271964
 30
0.0
 11
278.728170
 21
209.995343
 31
0.0
  0
LINE
  5
117
100
AcDbEntity
  8
innerShellOut2
 62
7
100
AcDbLine
 10
278.728170
 20
209.995343
 30
0.0
 11
281.361220
 21
205.262981
 31
0.0
  0
LINE
  5
118
100
AcDbEntity
  8
innerShellOut2
 62
7
100
AcDbLine
 10
281.361220
 20
205.262981
 30
0.0
 11
283.774850
 21
200.041567
 31
0.0
  0
LINE
  5
119
100
AcDbEntity
  8
innerShellOut2
 62
7
100
AcDbLine
 10
283.774850
 20
200.041567
 30
0.0
 11
285.944930
 21
194.297792
 31
0.0
  0
LINE
  5
11a
100
AcDbEntity
  8
innerShellOut2
 62
7
100
AcDbLine
 10
285.944930
 20
194.297792
 30
0.0
 11
287.847350
 21
187.998332
 31
0.0
  0
LINE
  5
11b
100
AcDbEntity
  8
innerShellOut2
 62
7
100
AcDbLine
 10
287.847350
 20
187.998332
 30
0.0
 11
289.457970
 21
181.109892
 31
0.0
  0
LINE
  5
11c
100
AcDbEntity
  8
innerShellOut2
 62
7
100
AcDbLine
 10
289.457970
 20
181.109892
 30
0.0
 11
290.752670
 21
173.599152
 31
0.0
  0
LINE
  5
11d
100
AcDbEntity
  8
innerShellOut2
 62
7
100
AcDbLine
 10
290.752670
 20
173.599152
 30
0.0
 11
291.707320
 21
165.432802
 31
0.0
  0
LINE
  5
11e
100
AcDbEntity
  8
innerShellOut2
 62
7
100
AcDbLine
 10
291.707320
 20
165.432802
 30
0.0
 11
292.297810
 21
156.577532
 31
0.0
  0
LINE
  5
11f
100
AcDbEntity
  8
innerShellOut2
 62
7
100
AcDbLine
 10
292.297810
 20
156.577532
 30
0.0
 11
292.500000
 21
147.000000
 31
0.0
  0
LINE
  5
120
100
AcDbEntity
  8
innerShellOut2
 62
7
100
AcDbLine
 10
292.500000
 20
147.000000
 30
0.0
 11
292.297810
 21
137.422490
 31
0.0
  0
LINE
  5
121
100
AcDbEntity
  8
innerShellOut2
 62
7
100
AcDbLine
 10
292.297810
 20
137.422490
 30
0.0
 11
291.707320
 21
128.567220
 31
0.0
  0
LINE
  5
122
100
AcDbEntity
  8
innerShellOut2
 62
7
100
AcDbLine
 10
291.707320
 20
128.567220
 30
0.0
 11
290.752670
 21
120.400870
 31
0.0
  0
LINE
  5
123
100
AcDbEntity
  8
innerShellOut2
 62
7
100
AcDbLine
 10
290.752670
 20
120.400870
 30
0.0
 11
289.457970
 21
112.890130
 31
0.0
  0
LINE
  5
124
100
AcDbEntity
  8
innerShellOut2
 62
7
100
AcDbLine
 10
289.457970
 20
112.890130
 30
0.0
 11
287.847340
 21
106.001690
 31
0.0
  0
LINE
  5
125
100
AcDbEntity
  8
innerShellOut2
 62
7
100
AcDbLine
 10
287.847340
 20
106.001690
 30
0.0
 11
285.944930
 21
99.702230
 31
0.0
  0
LINE
  5
126
100
AcDbEntity
  8
innerShellOut2
 62
7
100
AcDbLine
 10
285.944930
 20
99.702230
 30
0.0
 11
283.774850
 21
93.958450
 31
0.0
  0
LINE
  5
127
100
AcDbEntity
  8
innerShellOut2
 62
7
100
AcDbLine
 10
283.774850
 20
93.958450
 30
0.0
 11
281.361220
 21
88.737040
 31
0.0
  0
LINE
  5
128
100
AcDbEntity
  8
innerShellOut2
 62
7
100
AcDbLine
 10
281.361220
 20
88.737040
 30
0.0
 11
278.728170
 21
84.004680
 31
0.0
  0
LINE
  5
129
100
AcDbEntity
  8
innerShellOut2
 62
7
100
AcDbLine
 10
278.728170
 20
84.004680
 30
0.0
 11
275.899830
 21
79.728060
 31
0.0
  0
LINE
  5
12a
100
AcDbEntity
  8
innerShellOut2
 62
7
100
AcDbLine
 10
275.899830
 20
79.728060
 30
0.0
 11
272.900330
 21
75.873870
 31
0.0
  0
LINE
  5
12b
100
AcDbEntity
  8
innerShellOut2
 62
7
100
AcDbLine
 10
272.900330
 20
75.873870
 30
0.0
 11
269.753780
 21
72.408790
 31
0.0
  0
LINE
  5
12c
100
AcDbEntity
  8
innerShellOut2
 62
7
100
AcDbLine
 10
269.753780
 20
72.408790
 30
0.0
 11
266.484320
 21
69.299530
 31
0.0
  0
LINE
  5
12d
100
AcDbEntity
  8
innerShellOut2
 62
7
100
AcDbLine
 10
266.484320
 20
69.299530
 30
0.0
 11
263.116070
 21
66.512750
 31
0.0
  0
LINE
  5
12e
100
AcDbEntity
  8
innerShellOut2
 62
7
100
AcDbLine
 10
263.116070
 20
66.512750
 30
0.0
 11
259.673150
 21
64.015160
 31
0.0
  0
LINE
  5
12f
100
AcDbEntity
  8
innerShellOut2
 62
7
100
AcDbLine
 10
259.673150
 20
64.015160
 30
0.0
 11
256.179690
 21
61.773440
 31
0.0
  0
LINE
  5
130
100
AcDbEntity
  8
innerShellOut2
 62
7
100
AcDbLine
 10
256.179690
 20
61.773440
 30
0.0
 11
252.634830
 21
59.773640
 31
0.0
  0
LINE
  5
131
100
AcDbEntity
  8
innerShellOut2
 62
7
100
AcDbLine
 10
252.634830
 20
59.773640
 30
0.0
 11
249.036460
 21
58.013810
 31
0.0
  0
LINE
  5
132
100
AcDbEntity
  8
innerShellOut2
 62
7
100
AcDbLine
 10
249.036460
 20
58.013810
 30
0.0
 11
245.406830
 21
56.478650
 31
0.0
  0
LINE
  5
133
100
AcDbEntity
  8
innerShellOut2
 62
7
100
AcDbLine
 10
245.406830
 20
56.478650
 30
0.0
 11
241.768190
 21
55.152840
 31
0.0
  0
LINE
  5
134
100
AcDbEntity
  8
innerShellOut2
 62
7
100
AcDbLine
 10
241.768190
 20
55.152840
 30
0.0
 11
238.142780
 21
54.021070
 31
0.0
  0
LINE
  5
135
100
AcDbEntity
  8
innerShellOut2
 62
7
100
AcDbLine
 10
238.142780
 20
54.021070
 30
0.0
 11
234.552860
 21
53.068040
 31
0.0
  0
LINE
  5
136
100
AcDbEntity
  8
innerShellOut2
 62
7
100
AcDbLine
 10
234.552860
 20
53.068040
 30
0.0
 11
231.020670
 21
52.278430
 31
0.0
  0
LINE
  5
137
100
AcDbEntity
  8
innerShellOut2
 62
7
100
AcDbLine
 10
231.020670
 20
52.278430
 30
0.0
 11
227.568470
 21
51.636940
 31
0.0
  0
LINE
  5
138
100
AcDbEntity
  8
innerShellOut2
 62
7
100
AcDbLine
 10
227.568470
 20
51.636940
 30
0.0
 11
224.218490
 21
51.128250
 31
0.0
  0
LINE
  5
139
100
AcDbEntity
  8
innerShellOut2
 62
7
100
AcDbLine
 10
224.218490
 20
51.128250
 30
0.0
 11
220.993000
 21
50.737060
 31
0.0
  0
LINE
  5
13a
100
AcDbEntity
  8
innerShellOut2
 62
7
100
AcDbLine
 10
220.993000
 20
50.737060
 30
0.0
 11
217.914230
 21
50.448060
 31
0.0
  0
LINE
  5
13b
100
AcDbEntity
  8
innerShellOut2
 62
7
100
AcDbLine
 10
217.914230
 20
50.448060
 30
0.0
 11
215.004440
 21
50.245930
 31
0.0
  0
LINE
  5
13c
100
AcDbEntity
  8
innerShellOut2
 62
7
100
AcDbLine
 10
215.004440
 20
50.245930
 30
0.0
 11
212.285870
 21
50.115370
 31
0.0
  0
LINE
  5
13d
100
AcDbEntity
  8
innerShellOut2
 62
7
100
AcDbLine
 10
212.285870
 20
50.115370
 30
0.0
 11
209.780770
 21
50.041070
 31
0.0
  0
LINE
  5
13e
100
AcDbEntity
  8
innerShellOut2
 62
7
100
AcDbLine
 10
209.780770
 20
50.041070
 30
0.0
 11
207.511400
 21
50.007770
 31
0.0
  0
LINE
  5
13f
100
AcDbEntity
  8
innerShellOut2
 62
7
100
AcDbLine
 10
207.511400
 20
50.007770
 30
0.0
 11
205.500000
 21
49.999770
 31
0.0
  0
LINE
  5
140
100
AcDbEntity
  8
innerShellOut2
 62
7
100
AcDbLine
 10
205.500000
 20
49.999770
 30
0.0
 11
202.707760
 21
50.080270
 31
0.0
  0
LINE
  5
141
100
AcDbEntity
  8
innerShellOut2
 62
7
100
AcDbLine
 10
202.707760
 20
50.080270
 30
0.0
 11
199.879520
 21
50.316460
 31
0.0
  0
LINE
  5
142
100
AcDbEntity
  8
innerShellOut2
 62
7
100
AcDbLine
 10
199.879520
 20
50.316460
 30
0.0
 11
197.015100
 21
50.700580
 31
0.0
  0
LINE
  5
143
100
AcDbEntity
  8
innerShellOut2
 62
7
100
AcDbLine
 10
197.015100
 20
50.700580
 30
0.0
 11
194.114330
 21
51.224790
 31
0.0
  0
LINE
  5
144
100
AcDbEntity
  8
innerShellOut2
 62
7
100
AcDbLine
 10
194.114330
 20
51.224790
 30
0.0
 11
191.177050
 21
51.881290
 31
0.0
  0
LINE
  5
145
100
AcDbEntity
  8
innerShellOut2
 62
7
100
AcDbLine
 10
191.177050
 20
51.881290
 30
0.0
 11
188.203080
 21
52.662270
 31
0.0
  0
LINE
  5
146
100
AcDbEntity
  8
innerShellOut2
 62
7
100
AcDbLine
 10
188.203080
 20
52.662270
 30
0.0
 11
185.192260
 21
53.559910
 31
0.0
  0
LINE
  5
147
100
AcDbEntity
  8
innerShellOut2
 62
7
100
AcDbLine
 10
185.192260
 20
53.559910
 30
0.0
 11
182.144410
 21
54.566410
 31
0.0
  0
LINE
  5
148
100
AcDbEntity
  8
innerShellOut2
 62
7
100
AcDbLine
 10
182.144410
 20
54.566410
 30
0.0
 11
179.059360
 21
55.673940
 31
0.0
  0
LINE
  5
149
100
AcDbEntity
  8
innerShellOut2
 62
7
100
AcDbLine
 10
179.059360
 20
55.673940
 30
0.0
 11
175.936940
 21
56.874690
 31
0.0
  0
LINE
  5
14a
100
AcDbEntity
  8
innerShellOut2
 62
7
100
AcDbLine
 10
175.936940
 20
56.874690
 30
0.0
 11
172.776990
 21
58.160860
 31
0.0
  0
LINE
  5
14b
100
AcDbEntity
  8
innerShellOut2
 62
7
100
AcDbLine
 10
172.776990
 20
58.160860
 30
0.0
 11
169.579330
 21
59.524620
 31
0.0
  0
LINE
  5
14c
100
AcDbEntity
  8
innerShellOut2
 62
7
100
AcDbLine
 10
169.579330
 20
59.524620
 30
0.0
 11
166.343790
 21
60.958170
 31
0.0
  0
LINE
  5
14d
100
AcDbEntity
  8
innerShellOut2
 62
7
100
AcDbLine
 10
166.343790
 20
60.958170
 30
0.0
 11
163.070200
 21
62.453700
 31
0.0
  0
LINE
  5
14e
100
AcDbEntity
  8
innerShellOut2
 62
7
100
AcDbLine
 10
163.070200
 20
62.453700
 30
0.0
 11
159.758400
 21
64.003380
 31
0.0
  0
LINE
  5
14f
100
AcDbEntity
  8
innerShellOut2
 62
7
100
AcDbLine
 10
159.758400
 20
64.003380
 30
0.0
 11
156.408200
 21
65.599410
 31
0.0
  0
LINE
  5
150
100
AcDbEntity
  8
innerShellOut2
 62
7
100
AcDbLine
 10
156.408200
 20
65.599410
 30
0.0
 11
153.020960
 21
67.235410
 31
0.0
  0
LINE
  5
151
100
AcDbEntity
  8
innerShellOut2
 62
7
100
AcDbLine
 10
153.020960
 20
67.235410
 30
0.0
 11
149.595660
 21
68.898200
 31
0.0
  0
LINE
  5
152
100
AcDbEntity
  8
innerShellOut2
 62
7
100
AcDbLine
 10
149.595660
 20
68.898200
 30
0.0
 11
146.128630
 21
70.569720
 31
0.0
  0
LINE
  5
153
100
AcDbEntity
  8
innerShellOut2
 62
7
100
AcDbLine
 10
146.128630
 20
70.569720
 30
0.0
 11
142.616180
 21
72.231940
 31
0.0
  0
LINE
  5
154
100
AcDbEntity
  8
innerShellOut2
 62
7
100
AcDbLine
 10
142.616180
 20
72.231940
 30
0.0
 11
139.054620
 21
73.866800
 31
0.0
  0
LINE
  5
155
100
AcDbEntity
  8
innerShellOut2
 62
7
100
AcDbLine
 10
139.054620
 20
73.866800
 30
0.0
 11
135.440260
 21
75.456270
 31
0.0
  0
LINE
  5
156
100
AcDbEntity
  8
innerShellOut2
 62
7
100
AcDbLine
 10
135.440260
 20
75.456270
 30
0.0
 11
131.769420
 21
76.982310
 31
0.0
  0
LINE
  5
157
100
AcDbEntity
  8
innerShellOut2
 62
7
100
AcDbLine
 10
131.769420
 20
76.982310
 30
0.0
 11
128.038420
 21
78.426850
 31
0.0
  0
LINE
  5
158
100
AcDbEntity
  8
innerShellOut2
 62
7
100
AcDbLine
 10
128.038420
 20
78.426850
 30
0.0
 11
124.243560
 21
79.771880
 31
0.0
  0
LINE
  5
159
100
AcDbEntity
  8
innerShellOut2
 62
7
100
AcDbLine
 10
124.243560
 20
79.771880
 30
0.0
 11
120.381160
 21
80.999330
 31
0.0
  0
LINE
  5
15a
100
AcDbEntity
  8
innerShellOut2
 62
7
100
AcDbLine
 10
120.381160
 20
80.999330
 30
0.0
 11
116.447540
 21
82.091160
 31
0.0
  0
LINE
  5
15b
100
AcDbEntity
  8
innerShellOut2
 62
7
100
AcDbLine
 10
116.447540
 20
82.091160
 30
0.0
 11
112.439000
 21
83.029340
 31
0.0
  0
LINE
  5
15c
100
AcDbEntity
  8
innerShellOut2
 62
7
100
AcDbLine
 10
112.439000
 20
83.029340
 30
0.0
 11
108.351870
 21
83.795810
 31
0.0
  0
LINE
  5
15d
100
AcDbEntity
  8
innerShellOut2
 62
7
100
AcDbLine
 10
108.351870
 20
83.795810
 30
0.0
 11
104.182450
 21
84.372540
 31
0.0
  0
LINE
  5
15e
100
AcDbEntity
  8
innerShellOut2
 62
7
100
AcDbLine
 10
104.182450
 20
84.372540
 30
0.0
 11
99.927071
 21
84.741470
 31
0.0
  0
LINE
  5
15f
100
AcDbEntity
  8
innerShellOut2
 62
7
100
AcDbLine
 10
99.927071
 20
84.741470
 30
0.0
 11
95.582031
 21
84.884570
 31
0.0
  0
LINE
  5
160
100
AcDbEntity
  8
innerShellOut2
 62
7
100
AcDbLine
 10
95.582031
 20
84.884570
 30
0.0
 11
92.861329
 21
84.829570
 31
0.0
  0
LINE
  5
161
100
AcDbEntity
  8
innerShellOut2
 62
7
100
AcDbLine
 10
92.861329
 20
84.829570
 30
0.0
 11
90.228369
 21
84.642740
 31
0.0
  0
LINE
  5
162
100
AcDbEntity
  8
innerShellOut2
 62
7
100
AcDbLine
 10
90.228369
 20
84.642740
 30
0.0
 11
87.684491
 21
84.336820
 31
0.0
  0
LINE
  5
163
100
AcDbEntity
  8
innerShellOut2
 62
7
100
AcDbLine
 10
87.684491
 20
84.336820
 30
0.0
 11
85.231033
 21
83.924590
 31
0.0
  0
LINE
  5
164
100
AcDbEntity
  8
innerShellOut2
 62
7
100
AcDbLine
 10
85.231033
 20
83.924590
 30
0.0
 11
82.869337
 21
83.418850
 31
0.0
  0
LINE
  5
165
100
AcDbEntity
  8
innerShellOut2
 62
7
100
AcDbLine
 10
82.869337
 20
83.418850
 30
0.0
 11
80.600741
 21
82.832350
 31
0.0
  0
LINE
  5
166
100
AcDbEntity
  8
innerShellOut2
 62
7
100
AcDbLine
 10
80.600741
 20
82.832350
 30
0.0
 11
78.426586
 21
82.177890
 31
0.0
  0
LINE
  5
167
100
AcDbEntity
  8
innerShellOut2
 62
7
100
AcDbLine
 10
78.426586
 20
82.177890
 30
0.0
 11
76.348211
 21
81.468240
 31
0.0
  0
LINE
  5
168
100
AcDbEntity
  8
innerShellOut2
 62
7
100
AcDbLine
 10
76.348211
 20
81.468240
 30
0.0
 11
74.366956
 21
80.716180
 31
0.0
  0
LINE
  5
169
100
AcDbEntity
  8
innerShellOut2
 62
7
100
AcDbLine
 10
74.366956
 20
80.716180
 30
0.0
 11
72.484161
 21
79.934490
 31
0.0
  0
LINE
  5
16a
100
AcDbEntity
  8
innerShellOut2
 62
7
100
AcDbLine
 10
72.484161
 20
79.934490
 30
0.0
 11
70.701166
 21
79.135950
 31
0.0
  0
LINE
  5
16b
100
AcDbEntity
  8
innerShellOut2
 62
7
100
AcDbLine
 10
70.701166
 20
79.135950
 30
0.0
 11
69.019310
 21
78.333330
 31
0.0
  0
LINE
  5
16c
100
AcDbEntity
  8
innerShellOut2
 62
7
100
AcDbLine
 10
69.019310
 20
78.333330
 30
0.0
 11
67.439934
 21
77.539410
 31
0.0
  0
LINE
  5
16d
100
AcDbEntity
  8
innerShellOut2
 62
7
100
AcDbLine
 10
67.439934
 20
77.539410
 30
0.0
 11
65.964377
 21
76.766980
 31
0.0
  0
LINE
  5
16e
100
AcDbEntity
  8
innerShellOut2
 62
7
100
AcDbLine
 10
65.964377
 20
76.766980
 30
0.0
 11
64.593978
 21
76.028800
 31
0.0
  0
LINE
  5
16f
100
AcDbEntity
  8
innerShellOut2
 62
7
100
AcDbLine
 10
64.593978
 20
76.028800
 30
0.0
 11
63.330078
 21
75.337670
 31
0.0
  0
LINE
  5
170
100
AcDbEntity
  8
innerShellOut2
 62
7
100
AcDbLine
 10
63.330078
 20
75.337670
 30
0.0
 11
62.163195
 21
74.695830
 31
0.0
  0
LINE
  5
171
100
AcDbEntity
  8
innerShellOut2
 62
7
100
AcDbLine
 10
62.163195
 20
74.695830
 30
0.0
 11
61.072807
 21
74.096860
 31
0.0
  0
LINE
  5
172
100
AcDbEntity
  8
innerShellOut2
 62
7
100
AcDbLine
 10
61.072807
 20
74.096860
 30
0.0
 11
60.043689
 21
73.540500
 31
0.0
  0
LINE
  5
173
100
AcDbEntity
  8
innerShellOut2
 62
7
100
AcDbLine
 10
60.043689
 20
73.540500
 30
0.0
 11
59.060620
 21
73.026500
 31
0.0
  0
LINE
  5
174
100
AcDbEntity
  8
innerShellOut2
 62
7
100
AcDbLine
 10
59.060620
 20
73.026500
 30
0.0
 11
58.108377
 21
72.554600
 31
0.0
  0
LINE
  5
175
100
AcDbEntity
  8
innerShellOut2
 62
7
100
AcDbLine
 10
58.108377
 20
72.554600
 30
0.0
 11
57.171737
 21
72.124550
 31
0.0
  0
LINE
  5
176
100
AcDbEntity
  8
innerShellOut2
 62
7
100
AcDbLine
 10
57.171737
 20
72.124550
 30
0.0
 11
56.235476
 21
71.736100
 31
0.0
  0
LINE
  5
177
100
AcDbEntity
  8
innerShellOut2
 62
7
100
AcDbLine
 10
56.235476
 20
71.736100
 30
0.0
 11
55.284372
 21
71.388990
 31
0.0
  0
LINE
  5
178
100
AcDbEntity
  8
innerShellOut2
 62
7
100
AcDbLine
 10
55.284372
 20
71.388990
 30
0.0
 11
54.303203
 21
71.082980
 31
0.0
  0
LINE
  5
179
100
AcDbEntity
  8
innerShellOut2
 62
7
100
AcDbLine
 10
54.303203
 20
71.082980
 30
0.0
 11
53.276745
 21
70.817800
 31
0.0
  0
LINE
  5
17a
100
AcDbEntity
  8
innerShellOut2
 62
7
100
AcDbLine
 10
53.276745
 20
70.817800
 30
0.0
 11
52.189775
 21
70.593200
 31
0.0
  0
LINE
  5
17b
100
AcDbEntity
  8
innerShellOut2
 62
7
100
AcDbLine
 10
52.189775
 20
70.593200
 30
0.0
 11
51.027071
 21
70.408940
 31
0.0
  0
LINE
  5
17c
100
AcDbEntity
  8
innerShellOut2
 62
7
100
AcDbLine
 10
51.027071
 20
70.408940
 30
0.0
 11
49.773409
 21
70.264740
 31
0.0
  0
LINE
  5
17d
100
AcDbEntity
  8
innerShellOut2
 62
7
100
AcDbLine
 10
49.773409
 20
70.264740
 30
0.0
 11
48.413568
 21
70.160380
 31
0.0
  0
LINE
  5
17e
100
AcDbEntity
  8
innerShellOut2
 62
7
100
AcDbLine
 10
48.413568
 20
70.160380
 30
0.0
 11
46.932323
 21
70.095580
 31
0.0
  0
LINE
  5
17f
100
AcDbEntity
  8
innerShellOut2
 62
7
100
AcDbLine
 10
46.932323
 20
70.095580
 30
0.0
 11
45.314453
 21
70.070080
 31
0.0
  0
LINE
  5
180
100
AcDbEntity
  8
innerShellOut2
 62
7
100
AcDbLine
 10
45.314453
 20
70.070080
 30
0.0
 11
43.347506
 21
70.133180
 31
0.0
  0
LINE
  5
181
100
AcDbEntity
  8
innerShellOut2
 62
7
100
AcDbLine
 10
43.347506
 20
70.133180
 30
0.0
 11
41.494090
 21
70.335570
 31
0.0
  0
LINE
  5
182
100
AcDbEntity
  8
innerShellOut2
 62
7
100
AcDbLine
 10
41.494090
 20
70.335570
 30
0.0
 11
39.756048
 21
70.675850
 31
0.0
  0
LINE
  5
183
100
AcDbEntity
  8
innerShellOut2
 62
7
100
AcDbLine
 10
39.756048
 20
70.675850
 30
0.0
 11
38.135227
 21
71.152600
 31
0.0
  0
LINE
  5
184
100
AcDbEntity
  8
innerShellOut2
 62
7
100
AcDbLine
 10
38.135227
 20
71.152600
 30
0.0
 11
36.633470
 21
71.764390
 31
0.0
  0
LINE
  5
185
100
AcDbEntity
  8
innerShellOut2
 62
7
100
AcDbLine
 10
36.633470
 20
71.764390
 30
0.0
 11
35.252622
 21
72.509810
 31
0.0
  0
LINE
  5
186
100
AcDbEntity
  8
innerShellOut2
 62
7
100
AcDbLine
 10
35.252622
 20
72.509810
 30
0.0
 11
33.994528
 21
73.387430
 31
0.0
  0
LINE
  5
187
100
AcDbEntity
  8
innerShellOut2
 62
7
100
AcDbLine
 10
33.994528
 20
73.387430
 30
0.0
 11
32.861033
 21
74.395820
 31
0.0
  0
LINE
  5
188
100
AcDbEntity
  8
innerShellOut2
 62
7
100
AcDbLine
 10
32.861033
 20
74.395820
 30
0.0
 11
31.853981
 21
75.533560
 31
0.0
  0
LINE
  5
189
100
AcDbEntity
  8
innerShellOut2
 62
7
100
AcDbLine
 10
31.853981
 20
75.533560
 30
0.0
 11
30.975218
 21
76.799220
 31
0.0
  0
LINE
  5
18a
100
AcDbEntity
  8
innerShellOut2
 62
7
100
AcDbLine
 10
30.975218
 20
76.799220
 30
0.0
 11
30.226588
 21
78.191380
 31
0.0
  0
LINE
  5
18b
100
AcDbEntity
  8
innerShellOut2
 62
7
100
AcDbLine
 10
30.226588
 20
78.191380
 30
0.0
 11
29.609936
 21
79.708620
 31
0.0
  0
LINE
  5
18c
100
AcDbEntity
  8
innerShellOut2
 62
7
100
AcDbLine
 10
29.609936
 20
79.708620
 30
0.0
 11
29.127106
 21
81.349500
 31
0.0
  0
LINE
  5
18d
100
AcDbEntity
  8
innerShellOut2
 62
7
100
AcDbLine
 10
29.127106
 20
81.349500
 30
0.0
 11
28.779944
 21
83.112610
 31
0.0
  0
LINE
  5
18e
100
AcDbEntity
  8
innerShellOut2
 62
7
100
AcDbLine
 10
28.779944
 20
83.112610
 30
0.0
 11
28.570293
 21
84.996520
 31
0.0
  0
LINE
  5
18f
100
AcDbEntity
  8
innerShellOut2
 62
7
100
AcDbLine
 10
28.570293
 20
84.996520
 30
0.0
 11
28.500000
 21
87.000000
 31
0.0
  0
LINE
  5
190
100
AcDbEntity
  8
innerShellOut2
 62
7
100
AcDbLine
 10
28.500000
 20
87.000000
 30
0.0
 11
28.500000
 21
89.187500
 31
0.0
  0
LINE
  5
191
100
AcDbEntity
  8
innerShellOut2
 62
7
100
AcDbLine
 10
28.500000
 20
89.187500
 30
0.0
 11
28.500000
 21
91.375000
 31
0.0
  0
LINE
  5
192
100
AcDbEntity
  8
innerShellOut2
 62
7
100
AcDbLine
 10
28.500000
 20
91.375000
 30
0.0
 11
28.500000
 21
93.562500
 31
0.0
  0
LINE
  5
193
100
AcDbEntity
  8
innerShellOut2
 62
7
100
AcDbLine
 10
28.500000
 20
93.562500
 30
0.0
 11
28.500000
 21
95.750000
 31
0.0
  0
LINE
  5
194
100
AcDbEntity
  8
innerShellOut2
 62
7
100
AcDbLine
 10
28.500000
 20
95.750000
 30
0.0
 11
28.500000
 21
97.937500
 31
0.0
  0
LINE
  5
195
100
AcDbEntity
  8
innerShellOut2
 62
7
100
AcDbLine
 10
28.500000
 20
97.937500
 30
0.0
 11
28.500000
 21
100.125000
 31
0.0
  0
LINE
  5
196
100
AcDbEntity
  8
innerShellOut2
 62
7
100
AcDbLine
 10
28.500000
 20
100.125000
 30
0.0
 11
28.500000
 21
102.312500
 31
0.0
  0
LINE
  5
197
100
AcDbEntity
  8
innerShellOut2
 62
7
100
AcDbLine
 10
28.500000
 20
102.312500
 30
0.0
 11
28.500000
 21
104.500000
 31
0.0
  0
LINE
  5
198
100
AcDbEntity
  8
innerShellOut2
 62
7
100
AcDbLine
 10
28.500000
 20
104.500000
 30
0.0
 11
28.500000
 21
106.687500
 31
0.0
  0
LINE
  5
199
100
AcDbEntity
  8
innerShellOut2
 62
7
100
AcDbLine
 10
28.500000
 20
106.687500
 30
0.0
 11
28.500000
 21
108.875000
 31
0.0
  0
LINE
  5
19a
100
AcDbEntity
  8
innerShellOut2
 62
7
100
AcDbLine
 10
28.500000
 20
108.875000
 30
0.0
 11
28.500000
 21
111.062500
 31
0.0
  0
LINE
  5
19b
100
AcDbEntity
  8
innerShellOut2
 62
7
100
AcDbLine
 10
28.500000
 20
111.062500
 30
0.0
 11
28.500000
 21
113.250000
 31
0.0
  0
LINE
  5
19c
100
AcDbEntity
  8
innerShellOut2
 62
7
100
AcDbLine
 10
28.500000
 20
113.250000
 30
0.0
 11
28.500000
 21
115.437500
 31
0.0
  0
LINE
  5
19d
100
AcDbEntity
  8
innerShellOut2
 62
7
100
AcDbLine
 10
28.500000
 20
115.437500
 30
0.0
 11
28.500000
 21
117.625000
 31
0.0
  0
LINE
  5
19e
100
AcDbEntity
  8
innerShellOut2
 62
7
100
AcDbLine
 10
28.500000
 20
117.625000
 30
0.0
 11
28.500000
 21
119.812500
 31
0.0
  0
LINE
  5
19f
100
AcDbEntity
  8
innerShellOut2
 62
7
100
AcDbLine
 10
28.500000
 20
119.812500
 30
0.0
 11
28.500000
 21
122.000000
 31
0.0
  0
LINE
  5
1a0
100
AcDbEntity
  8
innerShellOut2
 62
7
100
AcDbLine
 10
28.500000
 20
122.000000
 30
0.0
 11
28.500000
 21
124.000000
 31
0.0
  0
LINE
  5
1a1
100
AcDbEntity
  8
innerShellOut2
 62
7
100
AcDbLine
 10
28.500000
 20
124.000000
 30
0.0
 11
28.500000
 21
126.000000
 31
0.0
  0
LINE
  5
1a2
100
AcDbEntity
  8
innerShellOut2
 62
7
100
AcDbLine
 10
28.500000
 20
126.000000
 30
0.0
 11
28.500000
 21
128.000000
 31
0.0
  0
LINE
  5
1a3
100
AcDbEntity
  8
innerShellOut2
 62
7
100
AcDbLine
 10
28.500000
 20
128.000000
 30
0.0
 11
28.500000
 21
130.000000
 31
0.0
  0
LINE
  5
1a4
100
AcDbEntity
  8
innerShellOut2
 62
7
100
AcDbLine
 10
28.500000
 20
130.000000
 30
0.0
 11
28.500000
 21
132.000000
 31
0.0
  0
LINE
  5
1a5
100
AcDbEntity
  8
innerShellOut2
 62
7
100
AcDbLine
 10
28.500000
 20
132.000000
 30
0.0
 11
28.500000
 21
134.000000
 31
0.0
  0
LINE
  5
1a6
100
AcDbEntity
  8
innerShellOut2
 62
7
100
AcDbLine
 10
28.500000
 20
134.000000
 30
0.0
 11
28.500000
 21
136.000000
 31
0.0
  0
LINE
  5
1a7
100
AcDbEntity
  8
innerShellOut2
 62
7
100
AcDbLine
 10
28.500000
 20
136.000000
 30
0.0
 11
28.500000
 21
138.000000
 31
0.0
  0
LINE
  5
1a8
100
AcDbEntity
  8
innerShellOut2
 62
7
100
AcDbLine
 10
28.500000
 20
138.000000
 30
0.0
 11
28.500000
 21
140.000000
 31
0.0
  0
LINE
  5
1a9
100
AcDbEntity
  8
innerShellOut2
 62
7
100
AcDbLine
 10
28.500000
 20
140.000000
 30
0.0
 11
28.500000
 21
142.000000
 31
0.0
  0
LINE
  5
1aa
100
AcDbEntity
  8
innerShellOut2
 62
7
100
AcDbLine
 10
28.500000
 20
142.000000
 30
0.0
 11
28.500000
 21
144.000000
 31
0.0
  0
LINE
  5
1ab
100
AcDbEntity
  8
innerShellOut2
 62
7
100
AcDbLine
 10
28.500000
 20
144.000000
 30
0.0
 11
28.500000
 21
146.000000
 31
0.0
  0
LINE
  5
1ac
100
AcDbEntity
  8
innerShellOut2
 62
7
100
AcDbLine
 10
28.500000
 20
146.000000
 30
0.0
 11
28.500000
 21
148.000000
 31
0.0
  0
LINE
  5
1ad
100
AcDbEntity
  8
innerShellOut2
 62
7
100
AcDbLine
 10
28.500000
 20
148.000000
 30
0.0
 11
28.500000
 21
150.000000
 31
0.0
  0
LINE
  5
1ae
100
AcDbEntity
  8
innerShellOut2
 62
7
100
AcDbLine
 10
28.500000
 20
150.000000
 30
0.0
 11
28.500000
 21
152.000000
 31
0.0
  0
LINE
  5
1af
100
AcDbEntity
  8
innerShellOut2
 62
7
100
AcDbLine
 10
28.500000
 20
152.000000
 30
0.0
 11
28.500000
 21
154.000000
 31
0.0
  0
LINE
  5
1b0
100
AcDbEntity
  8
innerShellOut2
 62
7
100
AcDbLine
 10
28.500000
 20
154.000000
 30
0.0
 11
29.562500
 21
154.000000
 31
0.0
  0
LINE
  5
1b1
100
AcDbEntity
  8
innerShellOut2
 62
7
100
AcDbLine
 10
29.562500
 20
154.000000
 30
0.0
 11
30.625000
 21
154.000000
 31
0.0
  0
LINE
  5
1b2
100
AcDbEntity
  8
innerShellOut2
 62
7
100
AcDbLine
 10
30.625000
 20
154.000000
 30
0.0
 11
31.687500
 21
154.000000
 31
0.0
  0
LINE
  5
1b3
100
AcDbEntity
  8
innerShellOut2
 62
7
100
AcDbLine
 10
31.687500
 20
154.000000
 30
0.0
 11
32.750000
 21
154.000000
 31
0.0
  0
LINE
  5
1b4
100
AcDbEntity
  8
innerShellOut2
 62
7
100
AcDbLine
 10
32.750000
 20
154.000000
 30
0.0
 11
33.812500
 21
154.000000
 31
0.0
  0
LINE
  5
1b5
100
AcDbEntity
  8
innerShellOut2
 62
7
100
AcDbLine
 10
33.812500
 20
154.000000
 30
0.0
 11
34.875000
 21
154.000000
 31
0.0
  0
LINE
  5
1b6
100
AcDbEntity
  8
innerShellOut2
 62
7
100
AcDbLine
 10
34.875000
 20
154.000000
 30
0.0
 11
35.937500
 21
154.000000
 31
0.0
  0
LINE
  5
1b7
100
AcDbEntity
  8
innerShellOut2
 62
7
100
AcDbLine
 10
35.937500
 20
154.000000
 30
0.0
 11
37.000000
 21
154.000000
 31
0.0
  0
LINE
  5
1b8
100
AcDbEntity
  8
innerShellOut2
 62
7
100
AcDbLine
 10
37.000000
 20
154.000000
 30
0.0
 11
38.062500
 21
154.000000
 31
0.0
  0
LINE
  5
1b9
100
AcDbEntity
  8
innerShellOut2
 62
7
100
AcDbLine
 10
38.062500
 20
154.000000
 30
0.0
 11
39.125000
 21
154.000000
 31
0.0
  0
LINE
  5
1ba
100
AcDbEntity
  8
innerShellOut2
 62
7
100
AcDbLine
 10
39.125000
 20
154.000000
 30
0.0
 11
40.187500
 21
154.000000
 31
0.0
  0
LINE
  5
1bb
100
AcDbEntity
  8
innerShellOut2
 62
7
100
AcDbLine
 10
40.187500
 20
154.000000
 30
0.0
 11
41.250000
 21
154.000000
 31
0.0
  0
LINE
  5
1bc
100
AcDbEntity
  8
innerShellOut2
 62
7
100
AcDbLine
 10
41.250000
 20
154.000000
 30
0.0
 11
42.312500
 21
154.000000
 31
0.0
  0
LINE
  5
1bd
100
AcDbEntity
  8
innerShellOut2
 62
7
100
AcDbLine
 10
42.312500
 20
154.000000
 30
0.0
 11
43.375000
 21
154.000000
 31
0.0
  0
LINE
  5
1be
100
AcDbEntity
  8
innerShellOut2
 62
7
100
AcDbLine
 10
43.375000
 20
154.000000
 30
0.0
 11
44.437500
 21
154.000000
 31
0.0
  0
LINE
  5
1bf
100
AcDbEntity
  8
innerShellOut2
 62
7
100
AcDbLine
 10
44.437500
 20
154.000000
 30
0.0
 11
45.500000
 21
154.000000
 31
0.0
  0
LINE
  5
1c0
100
AcDbEntity
  8
innerShellOut2
 62
7
100
AcDbLine
 10
45.500000
 20
154.000000
 30
0.0
 11
47.297991
 21
154.063800
 31
0.0
  0
LINE
  5
1c1
100
AcDbEntity
  8
innerShellOut2
 62
7
100
AcDbLine
 10
47.297991
 20
154.063800
 30
0.0
 11
49.121782
 21
154.252600
 31
0.0
  0
LINE
  5
1c2
100
AcDbEntity
  8
innerShellOut2
 62
7
100
AcDbLine
 10
49.121782
 20
154.252600
 30
0.0
 11
50.959849
 21
154.562410
 31
0.0
  0
LINE
  5
1c3
100
AcDbEntity
  8
innerShellOut2
 62
7
100
AcDbLine
 10
50.959849
 20
154.562410
 30
0.0
 11
52.800666
 21
154.989280
 31
0.0
  0
LINE
  5
1c4
100
AcDbEntity
  8
innerShellOut2
 62
7
100
AcDbLine
 10
52.800666
 20
154.989280
 30
0.0
 11
54.632710
 21
155.529220
 31
0.0
  0
LINE
  5
1c5
100
AcDbEntity
  8
innerShellOut2
 62
7
100
AcDbLine
 10
54.632710
 20
155.529220
 30
0.0
 11
56.444456
 21
156.178280
 31
0.0
  0
LINE
  5
1c6
100
AcDbEntity
  8
innerShellOut2
 62
7
100
AcDbLine
 10
56.444456
 20
156.178280
 30
0.0
 11
58.224380
 21
156.932480
 31
0.0
  0
LINE
  5
1c7
100
AcDbEntity
  8
innerShellOut2
 62
7
100
AcDbLine
 10
58.224380
 20
156.932480
 30
0.0
 11
59.960957
 21
157.787850
 31
0.0
  0
LINE
  5
1c8
100
AcDbEntity
  8
innerShellOut2
 62
7
100
AcDbLine
 10
59.960957
 20
157.787850
 30
0.0
 11
61.642662
 21
158.740430
 31
0.0
  0
LINE
  5
1c9
100
AcDbEntity
  8
innerShellOut2
 62
7
100
AcDbLine
 10
61.642662
 20
158.740430
 30
0.0
 11
63.257972
 21
159.786240
 31
0.0
  0
LINE
  5
1ca
100
AcDbEntity
  8
innerShellOut2
 62
7
100
AcDbLine
 10
63.257972
 20
159.786240
 30
0.0
 11
64.795362
 21
160.921330
 31
0.0
  0
LINE
  5
1cb
100
AcDbEntity
  8
innerShellOut2
 62
7
100
AcDbLine
 10
64.795362
 20
160.921330
 30
0.0
 11
66.243308
 21
162.141710
 31
0.0
  0
LINE
  5
1cc
100
AcDbEntity
  8
innerShellOut2
 62
7
100
AcDbLine
 10
66.243308
 20
162.141710
 30
0.0
 11
67.590284
 21
163.443420
 31
0.0
  0
LINE
  5
1cd
100
AcDbEntity
  8
innerShellOut2
 62
7
100
AcDbLine
 10
67.590284
 20
163.443420
 30
0.0
 11
68.824767
 21
164.822500
 31
0.0
  0
LINE
  5
1ce
100
AcDbEntity
  8
innerShellOut2
 62
7
100
AcDbLine
 10
68.824767
 20
164.822500
 30
0.0
 11
69.935233
 21
166.274970
 31
0.0
  0
LINE
  5
1cf
100
AcDbEntity
  8
innerShellOut2
 62
7
100
AcDbLine
 10
69.935233
 20
166.274970
 30
0.0
 11
70.910156
 21
167.796860
 31
0.0
  0
LINE
  5
1d0
100
AcDbEntity
  8
innerShellOut2
 62
7
100
AcDbLine
 10
70.910156
 20
167.796860
 30
0.0
 11
71.755870
 21
169.347340
 31
0.0
  0
LINE
  5
1d1
100
AcDbEntity
  8
innerShellOut2
 62
7
100
AcDbLine
 10
71.755870
 20
169.347340
 30
0.0
 11
72.490526
 21
170.887470
 31
0.0
  0
LINE
  5
1d2
100
AcDbEntity
  8
innerShellOut2
 62
7
100
AcDbLine
 10
72.490526
 20
170.887470
 30
0.0
 11
73.120328
 21
172.416100
 31
0.0
  0
LINE
  5
1d3
100
AcDbEntity
  8
innerShellOut2
 62
7
100
AcDbLine
 10
73.120328
 20
172.416100
 30
0.0
 11
73.651476
 21
173.932120
 31
0.0
  0
LINE
  5
1d4
100
AcDbEntity
  8
innerShellOut2
 62
7
100
AcDbLine
 10
73.651476
 20
173.932120
 30
0.0
 11
74.090173
 21
175.434390
 31
0.0
  0
LINE
  5
1d5
100
AcDbEntity
  8
innerShellOut2
 62
7
100
AcDbLine
 10
74.090173
 20
175.434390
 30
0.0
 11
74.442622
 21
176.921780
 31
0.0
  0
LINE
  5
1d6
100
AcDbEntity
  8
innerShellOut2
 62
7
100
AcDbLine
 10
74.442622
 20
176.921780
 30
0.0
 11
74.715023
 21
178.393160
 31
0.0
  0
LINE
  5
1d7
100
AcDbEntity
  8
innerShellOut2
 62
7
100
AcDbLine
 10
74.715023
 20
178.393160
 30
0.0
 11
74.913581
 21
179.847400
 31
0.0
  0
LINE
  5
1d8
100
AcDbEntity
  8
innerShellOut2
 62
7
100
AcDbLine
 10
74.913581
 20
179.847400
 30
0.0
 11
75.044496
 21
181.283360
 31
0.0
  0
LINE
  5
1d9
100
AcDbEntity
  8
innerShellOut2
 62
7
100
AcDbLine
 10
75.044496
 20
181.283360
 30
0.0
 11
75.113966
 21
182.699930
 31
0.0
  0
LINE
  5
1da
100
AcDbEntity
  8
innerShellOut2
 62
7
100
AcDbLine
 10
75.113966
 20
182.699930
 30
0.0
 11
75.128206
 21
184.095950
 31
0.0
  0
LINE
  5
1db
100
AcDbEntity
  8
innerShellOut2
 62
7
100
AcDbLine
 10
75.128206
 20
184.095950
 30
0.0
 11
75.093406
 21
185.470320
 31
0.0
  0
LINE
  5
1dc
100
AcDbEntity
  8
innerShellOut2
 62
7
100
AcDbLine
 10
75.093406
 20
185.470320
 30
0.0
 11
75.015776
 21
186.821880
 31
0.0
  0
LINE
  5
1dd
100
AcDbEntity
  8
innerShellOut2
 62
7
100
AcDbLine
 10
75.015776
 20
186.821880
 30
0.0
 11
74.901510
 21
188.149520
 31
0.0
  0
LINE
  5
1de
100
AcDbEntity
  8
innerShellOut2
 62
7
100
AcDbLine
 10
74.901510
 20
188.149520
 30
0.0
 11
74.756815
 21
189.452110
 31
0.0
  0
LINE
  5
1df
100
AcDbEntity
  8
innerShellOut2
 62
7
100
AcDbLine
 10
74.756815
 20
189.452110
 30
0.0
 11
74.587893
 21
190.728500
 31
0.0
  0
LINE
  5
1e0
100
AcDbEntity
  8
innerShellOut2
 62
7
100
AcDbLine
 10
74.587893
 20
190.728500
 30
0.0
 11
74.268459
 21
192.776620
 31
0.0
  0
LINE
  5
1e1
100
AcDbEntity
  8
innerShellOut2
 62
7
100
AcDbLine
 10
74.268459
 20
192.776620
 30
0.0
 11
73.895754
 21
194.786280
 31
0.0
  0
LINE
  5
1e2
100
AcDbEntity
  8
innerShellOut2
 62
7
100
AcDbLine
 10
73.895754
 20
194.786280
 30
0.0
 11
73.469196
 21
196.758100
 31
0.0
  0
LINE
  5
1e3
100
AcDbEntity
  8
innerShellOut2
 62
7
100
AcDbLine
 10
73.469196
 20
196.758100
 30
0.0
 11
72.988201
 21
198.692703
 31
0.0
  0
LINE
  5
1e4
100
AcDbEntity
  8
innerShellOut2
 62
7
100
AcDbLine
 10
72.988201
 20
198.692703
 30
0.0
 11
72.452185
 21
200.590705
 31
0.0
  0
LINE
  5
1e5
100
AcDbEntity
  8
innerShellOut2
 62
7
100
AcDbLine
 10
72.452185
 20
200.590705
 30
0.0
 11
71.860565
 21
202.452728
 31
0.0
  0
LINE
  5
1e6
100
AcDbEntity
  8
innerShellOut2
 62
7
100
AcDbLine
 10
71.860565
 20
202.452728
 30
0.0
 11
71.212757
 21
204.279390
 31
0.0
  0
LINE
  5
1e7
100
AcDbEntity
  8
innerShellOut2
 62
7
100
AcDbLine
 10
71.212757
 20
204.279390
 30
0.0
 11
70.508180
 21
206.071313
 31
0.0
  0
LINE
  5
1e8
100
AcDbEntity
  8
innerShellOut2
 62
7
100
AcDbLine
 10
70.508180
 20
206.071313
 30
0.0
 11
69.746248
 21
207.829115
 31
0.0
  0
LINE
  5
1e9
100
AcDbEntity
  8
innerShellOut2
 62
7
100
AcDbLine
 10
69.746248
 20
207.829115
 30
0.0
 11
68.926379
 21
209.553418
 31
0.0
  0
LINE
  5
1ea
100
AcDbEntity
  8
innerShellOut2
 62
7
100
AcDbLine
 10
68.926379
 20
209.553418
 30
0.0
 11
68.047989
 21
211.244840
 31
0.0
  0
LINE
  5
1eb
100
AcDbEntity
  8
innerShellOut2
 62
7
100
AcDbLine
 10
68.047989
 20
211.244840
 30
0.0
 11
67.110496
 21
212.904003
 31
0.0
  0
LINE
  5
1ec
100
AcDbEntity
  8
innerShellOut2
 62
7
100
AcDbLine
 10
67.110496
 20
212.904003
 30
0.0
 11
66.113315
 21
214.531525
 31
0.0
  0
LINE
  5
1ed
100
AcDbEntity
  8
innerShellOut2
 62
7
100
AcDbLine
 10
66.113315
 20
214.531525
 30
0.0
 11
65.055863
 21
216.128027
 31
0.0
  0
LINE
  5
1ee
100
AcDbEntity
  8
innerShellOut2
 62
7
100
AcDbLine
 10
65.055863
 20
216.128027
 30
0.0
 11
63.937557
 21
217.694128
 31
0.0
  0
LINE
  5
1ef
100
AcDbEntity
  8
innerShellOut2
 62
7
100
AcDbLine
 10
63.937557
 20
217.694128
 30
0.0
 11
62.757814
 21
219.230449
 31
0.0
  0
LINE
  5
1f0
100
AcDbEntity
  8
innerShellOut2
 62
7
100
AcDbLine
 10
62.757814
 20
219.230449
 30
0.0
 11
62.822724
 21
219.195119
 31
0.0
  0
LINE
  5
1f1
100
AcDbEntity
  8
innerShellOut2
 62
7
100
AcDbLine
 10
62.822724
 20
219.195119
 30
0.0
 11
62.886104
 21
219.160869
 31
0.0
  0
LINE
  5
1f2
100
AcDbEntity
  8
innerShellOut2
 62
7
100
AcDbLine
 10
62.886104
 20
219.160869
 30
0.0
 11
62.948214
 21
219.127519
 31
0.0
  0
LINE
  5
1f3
100
AcDbEntity
  8
innerShellOut2
 62
7
100
AcDbLine
 10
62.948214
 20
219.127519
 30
0.0
 11
63.009304
 21
219.094899
 31
0.0
  0
LINE
  5
1f4
100
AcDbEntity
  8
innerShellOut2
 62
7
100
AcDbLine
 10
63.009304
 20
219.094899
 30
0.0
 11
63.069634
 21
219.062829
 31
0.0
  0
LINE
  5
1f5
100
AcDbEntity
  8
innerShellOut2
 62
7
100
AcDbLine
 10
63.069634
 20
219.062829
 30
0.0
 11
63.129454
 21
219.031139
 31
0.0
  0
LINE
  5
1f6
100
AcDbEntity
  8
innerShellOut2
 62
7
100
AcDbLine
 10
63.129454
 20
219.031139
 30
0.0
 11
63.189024
 21
218.999659
 31
0.0
  0
LINE
  5
1f7
100
AcDbEntity
  8
innerShellOut2
 62
7
100
AcDbLine
 10
63.189024
 20
218.999659
 30
0.0
 11
63.248594
 21
218.968219
 31
0.0
  0
LINE
  5
1f8
100
AcDbEntity
  8
innerShellOut2
 62
7
100
AcDbLine
 10
63.248594
 20
218.968219
 30
0.0
 11
63.308424
 21
218.936639
 31
0.0
  0
LINE
  5
1f9
100
AcDbEntity
  8
innerShellOut2
 62
7
100
AcDbLine
 10
63.308424
 20
218.936639
 30
0.0
 11
63.368764
 21
218.904749
 31
0.0
  0
LINE
  5
1fa
100
AcDbEntity
  8
innerShellOut2
 62
7
100
AcDbLine
 10
63.368764
 20
218.904749
 30
0.0
 11
63.429874
 21
218.872379
 31
0.0
  0
LINE
  5
1fb
100
AcDbEntity
  8
innerShellOut2
 62
7
100
AcDbLine
 10
63.429874
 20
218.872379
 30
0.0
 11
63.492004
 21
218.839359
 31
0.0
  0
LINE
  5
1fc
100
AcDbEntity
  8
innerShellOut2
 62
7
100
AcDbLine
 10
63.492004
 20
218.839359
 30
0.0
 11
63.555414
 21
218.805509
 31
0.0
  0
LINE
  5
1fd
100
AcDbEntity
  8
innerShellOut2
 62
7
100
AcDbLine
 10
63.555414
 20
218.805509
 30
0.0
 11
63.620354
 21
218.770649
 31
0.0
  0
LINE
  5
1fe
100
AcDbEntity
  8
innerShellOut2
 62
7
100
AcDbLine
 10
63.620354
 20
218.770649
 30
0.0
 11
63.687084
 21
218.734619
 31
0.0
  0
LINE
  5
1ff
100
AcDbEntity
  8
innerShellOut2
 62
7
100
AcDbLine
 10
63.687084
 20
218.734619
 30
0.0
 11
63.755854
 21
218.697239
 31
0.0
  0
LINE
  5
200
100
AcDbEntity
  8
innerShellOut2
 62
7
100
AcDbLine
 10
63.755854
 20
218.697239
 30
0.0
 11
65.019672
 21
218.006542
 31
0.0
  0
LINE
  5
201
100
AcDbEntity
  8
innerShellOut2
 62
7
100
AcDbLine
 10
65.019672
 20
218.006542
 30
0.0
 11
66.383420
 21
217.266949
 31
0.0
  0
LINE
  5
202
100
AcDbEntity
  8
innerShellOut2
 62
7
100
AcDbLine
 10
66.383420
 20
217.266949
 30
0.0
 11
67.846260
 21
216.491354
 31
0.0
  0
LINE
  5
203
100
AcDbEntity
  8
innerShellOut2
 62
7
100
AcDbLine
 10
67.846260
 20
216.491354
 30
0.0
 11
69.407357
 21
215.692654
 31
0.0
  0
LINE
  5
204
100
AcDbEntity
  8
innerShellOut2
 62
7
100
AcDbLine
 10
69.407357
 20
215.692654
 30
0.0
 11
71.065873
 21
214.883744
 31
0.0
  0
LINE
  5
205
100
AcDbEntity
  8
innerShellOut2
 62
7
100
AcDbLine
 10
71.065873
 20
214.883744
 30
0.0
 11
72.820973
 21
214.077518
 31
0.0
  0
LINE
  5
206
100
AcDbEntity
  8
innerShellOut2
 62
7
100
AcDbLine
 10
72.820973
 20
214.077518
 30
0.0
 11
74.671819
 21
213.286874
 31
0.0
  0
LINE
  5
207
100
AcDbEntity
  8
innerShellOut2
 62
7
100
AcDbLine
 10
74.671819
 20
213.286874
 30
0.0
 11
76.617574
 21
212.524706
 31
0.0
  0
LINE
  5
208
100
AcDbEntity
  8
innerShellOut2
 62
7
100
AcDbLine
 10
76.617574
 20
212.524706
 30
0.0
 11
78.657404
 21
211.803910
 31
0.0
  0
LINE
  5
209
100
AcDbEntity
  8
innerShellOut2
 62
7
100
AcDbLine
 10
78.657404
 20
211.803910
 30
0.0
 11
80.790470
 21
211.137382
 31
0.0
  0
LINE
  5
20a
100
AcDbEntity
  8
innerShellOut2
 62
7
100
AcDbLine
 10
80.790470
 20
211.137382
 30
0.0
 11
83.015937
 21
210.538016
 31
0.0
  0
LINE
  5
20b
100
AcDbEntity
  8
innerShellOut2
 62
7
100
AcDbLine
 10
83.015937
 20
210.538016
 30
0.0
 11
85.332967
 21
210.018708
 31
0.0
  0
LINE
  5
20c
100
AcDbEntity
  8
innerShellOut2
 62
7
100
AcDbLine
 10
85.332967
 20
210.018708
 30
0.0
 11
87.740725
 21
209.592355
 31
0.0
  0
LINE
  5
20d
100
AcDbEntity
  8
innerShellOut2
 62
7
100
AcDbLine
 10
87.740725
 20
209.592355
 30
0.0
 11
90.238373
 21
209.271851
 31
0.0
  0
LINE
  5
20e
100
AcDbEntity
  8
innerShellOut2
 62
7
100
AcDbLine
 10
90.238373
 20
209.271851
 30
0.0
 11
92.825075
 21
209.070092
 31
0.0
  0
LINE
  5
20f
100
AcDbEntity
  8
innerShellOut2
 62
7
100
AcDbLine
 10
92.825075
 20
209.070092
 30
0.0
 11
95.500000
 21
209.000000
 31
0.0
  0
LINE
  5
210
100
AcDbEntity
  8
innerShellOut2
 62
7
100
AcDbLine
 10
95.500000
 20
209.000000
 30
0.0
 11
99.859667
 21
209.121291
 31
0.0
  0
LINE
  5
211
100
AcDbEntity
  8
innerShellOut2
 62
7
100
AcDbLine
 10
99.859667
 20
209.121291
 30
0.0
 11
104.128640
 21
209.472913
 31
0.0
  0
LINE
  5
212
100
AcDbEntity
  8
innerShellOut2
 62
7
100
AcDbLine
 10
104.128640
 20
209.472913
 30
0.0
 11
108.310640
 21
210.036493
 31
0.0
  0
LINE
  5
213
100
AcDbEntity
  8
innerShellOut2
 62
7
100
AcDbLine
 10
108.310640
 20
210.036493
 30
0.0
 11
112.409370
 21
210.793657
 31
0.0
  0
LINE
  5
214
100
AcDbEntity
  8
innerShellOut2
 62
7
100
AcDbLine
 10
112.409370
 20
210.793657
 30
0.0
 11
116.428550
 21
211.726031
 31
0.0
  0
LINE
  5
215
100
AcDbEntity
  8
innerShellOut2
 62
7
100
AcDbLine
 10
116.428550
 20
211.726031
 30
0.0
 11
120.371900
 21
212.815240
 31
0.0
  0
LINE
  5
216
100
AcDbEntity
  8
innerShellOut2
 62
7
100
AcDbLine
 10
120.371900
 20
212.815240
 30
0.0
 11
124.243120
 21
214.042911
 31
0.0
  0
LINE
  5
217
100
AcDbEntity
  8
innerShellOut2
 62
7
100
AcDbLine
 10
124.243120
 20
214.042911
 30
0.0
 11
128.045920
 21
215.390670
 31
0.0
  0
LINE
  5
218
100
AcDbEntity
  8
innerShellOut2
 62
7
100
AcDbLine
 10
128.045920
 20
215.390670
 30
0.0
 11
131.784030
 21
216.840143
 31
0.0
  0
LINE
  5
219
100
AcDbEntity
  8
innerShellOut2
 62
7
100
AcDbLine
 10
131.784030
 20
216.840143
 30
0.0
 11
135.461160
 21
218.372955
 31
0.0
  0
LINE
  5
21a
100
AcDbEntity
  8
innerShellOut2
 62
7
100
AcDbLine
 10
135.461160
 20
218.372955
 30
0.0
 11
139.081010
 21
219.970733
 31
0.0
  0
LINE
  5
21b
100
AcDbEntity
  8
innerShellOut2
 62
7
100
AcDbLine
 10
139.081010
 20
219.970733
 30
0.0
 11
142.647300
 21
221.615102
 31
0.0
  0
LINE
  5
21c
100
AcDbEntity
  8
innerShellOut2
 62
7
100
AcDbLine
 10
142.647300
 20
221.615102
 30
0.0
 11
146.163750
 21
223.287689
 31
0.0
  0
LINE
  5
21d
100
AcDbEntity
  8
innerShellOut2
 62
7
100
AcDbLine
 10
146.163750
 20
223.287689
 30
0.0
 11
149.634070
 21
224.970120
 31
0.0
  0
LINE
  5
21e
100
AcDbEntity
  8
innerShellOut2
 62
7
100
AcDbLine
 10
149.634070
 20
224.970120
 30
0.0
 11
153.061970
 21
226.644020
 31
0.0
  0
LINE
  5
21f
100
AcDbEntity
  8
innerShellOut2
 62
7
100
AcDbLine
 10
153.061970
 20
226.644020
 30
0.0
 11
156.451170
 21
228.291016
 31
0.0
  0
LINE
  5
220
100
AcDbEntity
  8
innerShellOut2
 62
7
100
AcDbLine
 10
156.451170
 20
228.291016
 30
0.0
 11
159.802830
 21
229.897785
 31
0.0
  0
LINE
  5
221
100
AcDbEntity
  8
innerShellOut2
 62
7
100
AcDbLine
 10
159.802830
 20
229.897785
 30
0.0
 11
163.115730
 21
231.457998
 31
0.0
  0
LINE
  5
222
100
AcDbEntity
  8
innerShellOut2
 62
7
100
AcDbLine
 10
163.115730
 20
231.457998
 30
0.0
 11
166.390000
 21
232.963776
 31
0.0
  0
LINE
  5
223
100
AcDbEntity
  8
innerShellOut2
 62
7
100
AcDbLine
 10
166.390000
 20
232.963776
 30
0.0
 11
169.625770
 21
234.407239
 31
0.0
  0
LINE
  5
224
100
AcDbEntity
  8
innerShellOut2
 62
7
100
AcDbLine
 10
169.625770
 20
234.407239
 30
0.0
 11
172.823170
 21
235.780508
 31
0.0
  0
LINE
  5
225
100
AcDbEntity
  8
innerShellOut2
 62
7
100
AcDbLine
 10
172.823170
 20
235.780508
 30
0.0
 11
175.982340
 21
237.075702
 31
0.0
  0
LINE
  5
226
100
AcDbEntity
  8
innerShellOut2
 62
7
100
AcDbLine
 10
175.982340
 20
237.075702
 30
0.0
 11
179.103410
 21
238.284942
 31
0.0
  0
LINE
  5
227
100
AcDbEntity
  8
innerShellOut2
 62
7
100
AcDbLine
 10
179.103410
 20
238.284942
 30
0.0
 11
182.186500
 21
239.400347
 31
0.0
  0
LINE
  5
228
100
AcDbEntity
  8
innerShellOut2
 62
7
100
AcDbLine
 10
182.186500
 20
239.400347
 30
0.0
 11
185.231750
 21
240.414040
 31
0.0
  0
LINE
  5
229
100
AcDbEntity
  8
innerShellOut2
 62
7
100
AcDbLine
 10
185.231750
 20
240.414040
 30
0.0
 11
188.239300
 21
241.318138
 31
0.0
  0
LINE
  5
22a
100
AcDbEntity
  8
innerShellOut2
 62
7
100
AcDbLine
 10
188.239300
 20
241.318138
 30
0.0
 11
191.209260
 21
242.104764
 31
0.0
  0
LINE
  5
22b
100
AcDbEntity
  8
innerShellOut2
 62
7
100
AcDbLine
 10
191.209260
 20
242.104764
 30
0.0
 11
194.141780
 21
242.766036
 31
0.0
  0
LINE
  5
22c
100
AcDbEntity
  8
innerShellOut2
 62
7
100
AcDbLine
 10
194.141780
 20
242.766036
 30
0.0
 11
197.036980
 21
243.294076
 31
0.0
  0
LINE
  5
22d
100
AcDbEntity
  8
innerShellOut2
 62
7
100
AcDbLine
 10
197.036980
 20
243.294076
 30
0.0
 11
199.894990
 21
243.681003
 31
0.0
  0
LINE
  5
22e
100
AcDbEntity
  8
innerShellOut2
 62
7
100
AcDbLine
 10
199.894990
 20
243.681003
 30
0.0
 11
202.715960
 21
243.918937
 31
0.0
  0
LINE
  5
22f
100
AcDbEntity
  8
innerShellOut2
 62
7
100
AcDbLine
 10
202.715960
 20
243.918937
 30
0.0
 11
205.500000
 21
244.000000
 31
0.0
  0
ENDSEC
  0
SECTION
  2
OBJECTS
  0
DICTIONARY
  5
C
330
0
100
AcDbDictionary
  3
ACAD_GROUP
350
D
  3
ACAD_MLINESTYLE
350
17
  0
DICTIONARY
  5
D
330
C
100
AcDbDictionary
  0
DICTIONARY
  5
1A
330
C
100
AcDbDictionary
  0
DICTIONARY
  5
17
330
C
100
AcDbDictionary
  3
STANDARD
350
18
  0
DICTIONARY
  5
19
330
C
100
AcDbDictionary
  0
ENDSEC
  0
EOF
