  0
SECTION
  2
HEADER
  9
$ACADVER
  1
AC1014
  9
$HANDSEED
  5
FFFF
  9
$MEASUREMENT
 70
     1
  0
ENDSEC
  0
SECTION
  2
TABLES
  0
TABLE
  2
VPORT
  5
8
330
0
100
AcDbSymbolTable
 70
     4
  0
VPORT
  5
2E
330
8
100
AcDbSymbolTableRecord
100
AcDbViewportTableRecord
  2
*ACTIVE
 70
     0
 10
0.0
 20
0.0
 11
1.0
 21
1.0
 12
210.0
 22
148.5
 13
0.0
 23
0.0
 14
10.0
 24
10.0
 15
10.0
 25
10.0
 16
0.0
 26
0.0
 36
1.0
 17
0.0
 27
0.0
 37
0.0
 40
341.0
 41
1.24
 42
50.0
 43
0.0
 44
0.0
 50
0.0
 51
0.0
 71
     0
 72
   100
 73
     1
 74
     3
 75
     0
 76
     0
 77
     0
 78
     0
  0
ENDTAB
  0
TABLE
  2
LTYPE
  5
5
330
0
100
AcDbSymbolTable
 70
     1
  0
LTYPE
  5
14
330
5
100
AcDbSymbolTableRecord
100
AcDbLinetypeTableRecord
  2
BYBLOCK
 70
     0
  3

 72
    65
 73
     0
 40
0.0
  0
LTYPE
  5
15
330
5
100
AcDbSymbolTableRecord
100
AcDbLinetypeTableRecord
  2
BYLAYER
 70
     0
  3

 72
    65
 73
     0
 40
0.0
  0
LTYPE
  5
16
330
5
100
AcDbSymbolTableRecord
100
AcDbLinetypeTableRecord
  2
CONTINUOUS
 70
     0
  3
Solid line
 72
    65
 73
     0
 40
0.0
  0
ENDTAB
  0
TABLE
  2
LAYER
  5
2
100
AcDbSymbolTable
 70
10
  0
LAYER
  5
50
100
AcDbSymbolTableRecord
100
AcDbLayerTableRecord
  2
0
 70
0
  6
CONTINUOUS
  0
LAYER
  5
51
100
AcDbSymbolTableRecord
100
AcDbLayerTableRecord
  2
origin
 70
0
  6
CONTINUOUS
  0
LAYER
  5
52
100
AcDbSymbolTableRecord
100
AcDbLayerTableRecord
  2
woodIn
 70
0
  6
CONTINUOUS
  0
LAYER
  5
53
100
AcDbSymbolTableRecord
100
AcDbLayerTableRecord
  2
woodOut
 70
0
  6
CONTINUOUS
  0
LAYER
  5
54
100
AcDbSymbolTableRecord
100
AcDbLayerTableRecord
  2
outerShellOut2
 70
0
  6
CONTINUOUS
  0
LAYER
  5
55
100
AcDbSymbolTableRecord
100
AcDbLayerTableRecord
  2
outerShellOut
 70
0
  6
CONTINUOUS
  0
LAYER
  5
56
100
AcDbSymbolTableRecord
100
AcDbLayerTableRecord
  2
outerShellIn
 70
0
  6
CONTINUOUS
  0
LAYER
  5
57
100
AcDbSymbolTableRecord
100
AcDbLayerTableRecord
  2
innerShellOut2
 70
0
  6
CONTINUOUS
  0
LAYER
  5
58
100
AcDbSymbolTableRecord
100
AcDbLayerTableRecord
  2
innerShellOut
 70
0
  6
CONTINUOUS
  0
LAYER
  5
59
100
AcDbSymbolTableRecord
100
AcDbLayerTableRecord
  2
innerShellIn
 70
0
  6
CONTINUOUS
  0
ENDTAB
  0
TABLE
  2
STYLE
  5
3
330
0
100
AcDbSymbolTable
 70
     1
  0
STYLE
  5
11
330
3
100
AcDbSymbolTableRecord
100
AcDbTextStyleTableRecord
  2
STANDARD
 70
     0
 40
0.0
 41
1.0
 50
0.0
 71
     0
 42
2.5
  3
txt
  4

  0
ENDTAB
  0
TABLE
  2
VIEW
  5
6
330
0
100
AcDbSymbolTable
 70
     0
  0
ENDTAB
  0
TABLE
  2
UCS
  5
7
330
0
100
AcDbSymbolTable
 70
     0
  0
ENDTAB
  0
TABLE
  2
APPID
  5
9
330
0
100
AcDbSymbolTable
 70
     2
  0
APPID
  5
12
330
9
100
AcDbSymbolTableRecord
100
AcDbRegAppTableRecord
  2
ACAD
 70
     0
  0
ENDTAB
  0
TABLE
  2
DIMSTYLE
  5
A
330
0
100
AcDbSymbolTable
 70
     1
  0
DIMSTYLE
105
27
330
A
100
AcDbSymbolTableRecord
100
AcDbDimStyleTableRecord
  2
ISO-25
 70
     0
  3

  4

  5

  6

  7

 40
1.0
 41
2.5
 42
0.625
 43
3.75
 44
1.25
 45
0.0
 46
0.0
 47
0.0
 48
0.0
140
2.5
141
2.5
142
0.0
143
0.03937007874016
144
1.0
145
0.0
146
1.0
147
0.625
 71
     0
 72
     0
 73
     0
 74
     0
 75
     0
 76
     0
 77
     1
 78
     8
170
     0
171
     3
172
     1
173
     0
174
     0
175
     0
176
     0
177
     0
178
     0
270
     2
271
     2
272
     2
273
     2
274
     3
340
11
275
     0
280
     0
281
     0
282
     0
283
     0
284
     8
285
     0
286
     0
287
     3
288
     0
  0
ENDTAB
  0
TABLE
  2
BLOCK_RECORD
  5
1
330
0
100
AcDbSymbolTable
 70
     1
  0
BLOCK_RECORD
  5
1F
330
1
100
AcDbSymbolTableRecord
100
AcDbBlockTableRecord
  2
*MODEL_SPACE
  0
BLOCK_RECORD
  5
1B
330
1
100
AcDbSymbolTableRecord
100
AcDbBlockTableRecord
  2
*PAPER_SPACE
  0
ENDTAB
  0
ENDSEC
  0
SECTION
  2
BLOCKS
  0
BLOCK
  5
20
330
1F
100
AcDbEntity
  8
0
100
AcDbBlockBegin
  2
*MODEL_SPACE
 70
     0
 10
0.0
 20
0.0
 30
0.0
  3
*MODEL_SPACE
  1

  0
ENDBLK
  5
21
330
1F
100
AcDbEntity
  8
0
100
AcDbBlockEnd
  0
BLOCK
  5
1C
330
1B
100
AcDbEntity
 67
     1
  8
0
100
AcDbBlockBegin
  2
*PAPER_SPACE
  1

  0
ENDBLK
  5
1D
330
1B
100
AcDbEntity
 67
     1
  8
0
100
AcDbBlockEnd
  0
ENDSEC
  0
SECTION
  2
ENTITIES
  0
LINE
  5
100
100
AcDbEntity
  8
outerShellOut2
 62
7
100
AcDbLine
 10
205.500000
 20
279.999992
 30
0.0
 11
200.813030
 21
279.880249
 31
0.0
  0
LINE
  5
101
100
AcDbEntity
  8
outerShellOut2
 62
7
100
AcDbLine
 10
200.813030
 20
279.880249
 30
0.0
 11
196.219750
 21
279.532857
 31
0.0
  0
LINE
  5
102
100
AcDbEntity
  8
outerShellOut2
 62
7
100
AcDbLine
 10
196.219750
 20
279.532857
 30
0.0
 11
191.718450
 21
278.975570
 31
0.0
  0
LINE
  5
103
100
AcDbEntity
  8
outerShellOut2
 62
7
100
AcDbLine
 10
191.718450
 20
278.975570
 30
0.0
 11
187.307440
 21
278.226144
 31
0.0
  0
LINE
  5
104
100
AcDbEntity
  8
outerShellOut2
 62
7
100
AcDbLine
 10
187.307440
 20
278.226144
 30
0.0
 11
182.985020
 21
277.302333
 31
0.0
  0
LINE
  5
105
100
AcDbEntity
  8
outerShellOut2
 62
7
100
AcDbLine
 10
182.985020
 20
277.302333
 30
0.0
 11
178.749470
 21
276.221893
 31
0.0
  0
LINE
  5
106
100
AcDbEntity
  8
outerShellOut2
 62
7
100
AcDbLine
 10
178.749470
 20
276.221893
 30
0.0
 11
174.599120
 21
275.002579
 31
0.0
  0
LINE
  5
107
100
AcDbEntity
  8
outerShellOut2
 62
7
100
AcDbLine
 10
174.599120
 20
275.002579
 30
0.0
 11
170.532250
 21
273.662145
 31
0.0
  0
LINE
  5
108
100
AcDbEntity
  8
outerShellOut2
 62
7
100
AcDbLine
 10
170.532250
 20
273.662145
 30
0.0
 11
166.547170
 21
272.218347
 31
0.0
  0
LINE
  5
109
100
AcDbEntity
  8
outerShellOut2
 62
7
100
AcDbLine
 10
166.547170
 20
272.218347
 30
0.0
 11
162.642170
 21
270.688940
 31
0.0
  0
LINE
  5
10a
100
AcDbEntity
  8
outerShellOut2
 62
7
100
AcDbLine
 10
162.642170
 20
270.688940
 30
0.0
 11
158.815560
 21
269.091678
 31
0.0
  0
LINE
  5
10b
100
AcDbEntity
  8
outerShellOut2
 62
7
100
AcDbLine
 10
158.815560
 20
269.091678
 30
0.0
 11
155.065640
 21
267.444316
 31
0.0
  0
LINE
  5
10c
100
AcDbEntity
  8
outerShellOut2
 62
7
100
AcDbLine
 10
155.065640
 20
267.444316
 30
0.0
 11
151.390700
 21
265.764610
 31
0.0
  0
LINE
  5
10d
100
AcDbEntity
  8
outerShellOut2
 62
7
100
AcDbLine
 10
151.390700
 20
265.764610
 30
0.0
 11
147.789060
 21
264.070315
 31
0.0
  0
LINE
  5
10e
100
AcDbEntity
  8
outerShellOut2
 62
7
100
AcDbLine
 10
147.789060
 20
264.070315
 30
0.0
 11
144.259000
 21
262.379185
 31
0.0
  0
LINE
  5
10f
100
AcDbEntity
  8
outerShellOut2
 62
7
100
AcDbLine
 10
144.259000
 20
262.379185
 30
0.0
 11
140.798830
 21
260.708975
 31
0.0
  0
LINE
  5
110
100
AcDbEntity
  8
outerShellOut2
 62
7
100
AcDbLine
 10
140.798830
 20
260.708975
 30
0.0
 11
137.405490
 21
259.078993
 31
0.0
  0
LINE
  5
111
100
AcDbEntity
  8
outerShellOut2
 62
7
100
AcDbLine
 10
137.405490
 20
259.078993
 30
0.0
 11
134.078330
 21
257.501550
 31
0.0
  0
LINE
  5
112
100
AcDbEntity
  8
outerShellOut2
 62
7
100
AcDbLine
 10
134.078330
 20
257.501550
 30
0.0
 11
130.819220
 21
255.983907
 31
0.0
  0
LINE
  5
113
100
AcDbEntity
  8
outerShellOut2
 62
7
100
AcDbLine
 10
130.819220
 20
255.983907
 30
0.0
 11
127.630040
 21
254.533325
 31
0.0
  0
LINE
  5
114
100
AcDbEntity
  8
outerShellOut2
 62
7
100
AcDbLine
 10
127.630040
 20
254.533325
 30
0.0
 11
124.512680
 21
253.157065
 31
0.0
  0
LINE
  5
115
100
AcDbEntity
  8
outerShellOut2
 62
7
100
AcDbLine
 10
124.512680
 20
253.157065
 30
0.0
 11
121.469020
 21
251.862386
 31
0.0
  0
LINE
  5
116
100
AcDbEntity
  8
outerShellOut2
 62
7
100
AcDbLine
 10
121.469020
 20
251.862386
 30
0.0
 11
118.500940
 21
250.656551
 31
0.0
  0
LINE
  5
117
100
AcDbEntity
  8
outerShellOut2
 62
7
100
AcDbLine
 10
118.500940
 20
250.656551
 30
0.0
 11
115.610330
 21
249.546820
 31
0.0
  0
LINE
  5
118
100
AcDbEntity
  8
outerShellOut2
 62
7
100
AcDbLine
 10
115.610330
 20
249.546820
 30
0.0
 11
112.799060
 21
248.540453
 31
0.0
  0
LINE
  5
119
100
AcDbEntity
  8
outerShellOut2
 62
7
100
AcDbLine
 10
112.799060
 20
248.540453
 30
0.0
 11
110.069020
 21
247.644711
 31
0.0
  0
LINE
  5
11a
100
AcDbEntity
  8
outerShellOut2
 62
7
100
AcDbLine
 10
110.069020
 20
247.644711
 30
0.0
 11
107.422090
 21
246.866855
 31
0.0
  0
LINE
  5
11b
100
AcDbEntity
  8
outerShellOut2
 62
7
100
AcDbLine
 10
107.422090
 20
246.866855
 30
0.0
 11
104.860160
 21
246.214146
 31
0.0
  0
LINE
  5
11c
100
AcDbEntity
  8
outerShellOut2
 62
7
100
AcDbLine
 10
104.860160
 20
246.214146
 30
0.0
 11
102.385100
 21
245.693844
 31
0.0
  0
LINE
  5
11d
100
AcDbEntity
  8
outerShellOut2
 62
7
100
AcDbLine
 10
102.385100
 20
245.693844
 30
0.0
 11
99.998800
 21
245.313211
 31
0.0
  0
LINE
  5
11e
100
AcDbEntity
  8
outerShellOut2
 62
7
100
AcDbLine
 10
99.998800
 20
245.313211
 30
0.0
 11
97.703139
 21
245.079506
 31
0.0
  0
LINE
  5
11f
100
AcDbEntity
  8
outerShellOut2
 62
7
100
AcDbLine
 10
97.703139
 20
245.079506
 30
0.0
 11
95.500000
 21
244.999986
 31
0.0
  0
LINE
  5
120
100
AcDbEntity
  8
outerShellOut2
 62
7
100
AcDbLine
 10
95.500000
 20
244.999986
 30
0.0
 11
94.510674
 21
245.015926
 31
0.0
  0
LINE
  5
121
100
AcDbEntity
  8
outerShellOut2
 62
7
100
AcDbLine
 10
94.510674
 20
245.015926
 30
0.0
 11
93.596095
 21
245.065026
 31
0.0
  0
LINE
  5
122
100
AcDbEntity
  8
outerShellOut2
 62
7
100
AcDbLine
 10
93.596095
 20
245.065026
 30
0.0
 11
92.742608
 21
245.149186
 31
0.0
  0
LINE
  5
123
100
AcDbEntity
  8
outerShellOut2
 62
7
100
AcDbLine
 10
92.742608
 20
245.149186
 30
0.0
 11
91.936559
 21
245.270318
 31
0.0
  0
LINE
  5
124
100
AcDbEntity
  8
outerShellOut2
 62
7
100
AcDbLine
 10
91.936559
 20
245.270318
 30
0.0
 11
91.164295
 21
245.430332
 31
0.0
  0
LINE
  5
125
100
AcDbEntity
  8
outerShellOut2
 62
7
100
AcDbLine
 10
91.164295
 20
245.430332
 30
0.0
 11
90.412162
 21
245.631138
 31
0.0
  0
LINE
  5
126
100
AcDbEntity
  8
outerShellOut2
 62
7
100
AcDbLine
 10
90.412162
 20
245.631138
 30
0.0
 11
89.666505
 21
245.874643
 31
0.0
  0
LINE
  5
127
100
AcDbEntity
  8
outerShellOut2
 62
7
100
AcDbLine
 10
89.666505
 20
245.874643
 30
0.0
 11
88.913671
 21
246.162758
 31
0.0
  0
LINE
  5
128
100
AcDbEntity
  8
outerShellOut2
 62
7
100
AcDbLine
 10
88.913671
 20
246.162758
 30
0.0
 11
88.140005
 21
246.497392
 31
0.0
  0
LINE
  5
129
100
AcDbEntity
  8
outerShellOut2
 62
7
100
AcDbLine
 10
88.140005
 20
246.497392
 30
0.0
 11
87.331855
 21
246.880454
 31
0.0
  0
LINE
  5
12a
100
AcDbEntity
  8
outerShellOut2
 62
7
100
AcDbLine
 10
87.331855
 20
246.880454
 30
0.0
 11
86.475565
 21
247.313853
 31
0.0
  0
LINE
  5
12b
100
AcDbEntity
  8
outerShellOut2
 62
7
100
AcDbLine
 10
86.475565
 20
247.313853
 30
0.0
 11
85.557482
 21
247.799498
 31
0.0
  0
LINE
  5
12c
100
AcDbEntity
  8
outerShellOut2
 62
7
100
AcDbLine
 10
85.557482
 20
247.799498
 30
0.0
 11
84.563952
 21
248.339299
 31
0.0
  0
LINE
  5
12d
100
AcDbEntity
  8
outerShellOut2
 62
7
100
AcDbLine
 10
84.563952
 20
248.339299
 30
0.0
 11
83.481321
 21
248.935164
 31
0.0
  0
LINE
  5
12e
100
AcDbEntity
  8
outerShellOut2
 62
7
100
AcDbLine
 10
83.481321
 20
248.935164
 30
0.0
 11
82.295936
 21
249.589003
 31
0.0
  0
LINE
  5
12f
100
AcDbEntity
  8
outerShellOut2
 62
7
100
AcDbLine
 10
82.295936
 20
249.589003
 30
0.0
 11
80.994141
 21
250.302725
 31
0.0
  0
LINE
  5
130
100
AcDbEntity
  8
outerShellOut2
 62
7
100
AcDbLine
 10
80.994141
 20
250.302725
 30
0.0
 11
79.573093
 21
251.065800
 31
0.0
  0
LINE
  5
131
100
AcDbEntity
  8
outerShellOut2
 62
7
100
AcDbLine
 10
79.573093
 20
251.065800
 30
0.0
 11
78.039886
 21
251.859113
 31
0.0
  0
LINE
  5
132
100
AcDbEntity
  8
outerShellOut2
 62
7
100
AcDbLine
 10
78.039886
 20
251.859113
 30
0.0
 11
76.395773
 21
252.671701
 31
0.0
  0
LINE
  5
133
100
AcDbEntity
  8
outerShellOut2
 62
7
100
AcDbLine
 10
76.395773
 20
252.671701
 30
0.0
 11
74.642006
 21
253.492597
 31
0.0
  0
LINE
  5
134
100
AcDbEntity
  8
outerShellOut2
 62
7
100
AcDbLine
 10
74.642006
 20
253.492597
 30
0.0
 11
72.779839
 21
254.310836
 31
0.0
  0
LINE
  5
135
100
AcDbEntity
  8
outerShellOut2
 62
7
100
AcDbLine
 10
72.779839
 20
254.310836
 30
0.0
 11
70.810526
 21
255.115453
 31
0.0
  0
LINE
  5
136
100
AcDbEntity
  8
outerShellOut2
 62
7
100
AcDbLine
 10
70.810526
 20
255.115453
 30
0.0
 11
68.735318
 21
255.895482
 31
0.0
  0
LINE
  5
137
100
AcDbEntity
  8
outerShellOut2
 62
7
100
AcDbLine
 10
68.735318
 20
255.895482
 30
0.0
 11
66.555470
 21
256.639957
 31
0.0
  0
LINE
  5
138
100
AcDbEntity
  8
outerShellOut2
 62
7
100
AcDbLine
 10
66.555470
 20
256.639957
 30
0.0
 11
64.272235
 21
257.337914
 31
0.0
  0
LINE
  5
139
100
AcDbEntity
  8
outerShellOut2
 62
7
100
AcDbLine
 10
64.272235
 20
257.337914
 30
0.0
 11
61.886865
 21
257.978387
 31
0.0
  0
LINE
  5
13a
100
AcDbEntity
  8
outerShellOut2
 62
7
100
AcDbLine
 10
61.886865
 20
257.978387
 30
0.0
 11
59.400614
 21
258.550410
 31
0.0
  0
LINE
  5
13b
100
AcDbEntity
  8
outerShellOut2
 62
7
100
AcDbLine
 10
59.400614
 20
258.550410
 30
0.0
 11
56.814735
 21
259.043018
 31
0.0
  0
LINE
  5
13c
100
AcDbEntity
  8
outerShellOut2
 62
7
100
AcDbLine
 10
56.814735
 20
259.043018
 30
0.0
 11
54.130481
 21
259.445246
 31
0.0
  0
LINE
  5
13d
100
AcDbEntity
  8
outerShellOut2
 62
7
100
AcDbLine
 10
54.130481
 20
259.445246
 30
0.0
 11
51.349105
 21
259.746127
 31
0.0
  0
LINE
  5
13e
100
AcDbEntity
  8
outerShellOut2
 62
7
100
AcDbLine
 10
51.349105
 20
259.746127
 30
0.0
 11
48.471861
 21
259.934697
 31
0.0
  0
LINE
  5
13f
100
AcDbEntity
  8
outerShellOut2
 62
7
100
AcDbLine
 10
48.471861
 20
259.934697
 30
0.0
 11
45.500001
 21
259.999987
 31
0.0
  0
LINE
  5
140
100
AcDbEntity
  8
outerShellOut2
 62
7
100
AcDbLine
 10
45.500001
 20
259.999987
 30
0.0
 11
43.825784
 21
259.979647
 31
0.0
  0
LINE
  5
141
100
AcDbEntity
  8
outerShellOut2
 62
7
100
AcDbLine
 10
43.825784
 20
259.979647
 30
0.0
 11
42.138786
 21
259.913617
 31
0.0
  0
LINE
  5
142
100
AcDbEntity
  8
outerShellOut2
 62
7
100
AcDbLine
 10
42.138786
 20
259.913617
 30
0.0
 11
40.443964
 21
259.794379
 31
0.0
  0
LINE
  5
143
100
AcDbEntity
  8
outerShellOut2
 62
7
100
AcDbLine
 10
40.443964
 20
259.794379
 30
0.0
 11
38.746276
 21
259.614423
 31
0.0
  0
LINE
  5
144
100
AcDbEntity
  8
outerShellOut2
 62
7
100
AcDbLine
 10
38.746276
 20
259.614423
 30
0.0
 11
37.050679
 21
259.366238
 31
0.0
  0
LINE
  5
145
100
AcDbEntity
  8
outerShellOut2
 62
7
100
AcDbLine
 10
37.050679
 20
259.366238
 30
0.0
 11
35.362132
 21
259.042309
 31
0.0
  0
LINE
  5
146
100
AcDbEntity
  8
outerShellOut2
 62
7
100
AcDbLine
 10
35.362132
 20
259.042309
 30
0.0
 11
33.685592
 21
258.635125
 31
0.0
  0
LINE
  5
147
100
AcDbEntity
  8
outerShellOut2
 62
7
100
AcDbLine
 10
33.685592
 20
258.635125
 30
0.0
 11
32.026017
 21
258.137173
 31
0.0
  0
LINE
  5
148
100
AcDbEntity
  8
outerShellOut2
 62
7
100
AcDbLine
 10
32.026017
 20
258.137173
 30
0.0
 11
30.388365
 21
257.540940
 31
0.0
  0
LINE
  5
149
100
AcDbEntity
  8
outerShellOut2
 62
7
100
AcDbLine
 10
30.388365
 20
257.540940
 30
0.0
 11
28.777593
 21
256.838913
 31
0.0
  0
LINE
  5
14a
100
AcDbEntity
  8
outerShellOut2
 62
7
100
AcDbLine
 10
28.777593
 20
256.838913
 30
0.0
 11
27.198658
 21
256.023579
 31
0.0
  0
LINE
  5
14b
100
AcDbEntity
  8
outerShellOut2
 62
7
100
AcDbLine
 10
27.198658
 20
256.023579
 30
0.0
 11
25.656520
 21
255.087426
 31
0.0
  0
LINE
  5
14c
100
AcDbEntity
  8
outerShellOut2
 62
7
100
AcDbLine
 10
25.656520
 20
255.087426
 30
0.0
 11
24.156135
 21
254.022941
 31
0.0
  0
LINE
  5
14d
100
AcDbEntity
  8
outerShellOut2
 62
7
100
AcDbLine
 10
24.156135
 20
254.022941
 30
0.0
 11
22.702461
 21
252.822611
 31
0.0
  0
LINE
  5
14e
100
AcDbEntity
  8
outerShellOut2
 62
7
100
AcDbLine
 10
22.702461
 20
252.822611
 30
0.0
 11
21.300456
 21
251.478924
 31
0.0
  0
LINE
  5
14f
100
AcDbEntity
  8
outerShellOut2
 62
7
100
AcDbLine
 10
21.300456
 20
251.478924
 30
0.0
 11
19.955078
 21
249.984366
 31
0.0
  0
LINE
  5
150
100
AcDbEntity
  8
outerShellOut2
 62
7
100
AcDbLine
 10
19.955078
 20
249.984366
 30
0.0
 11
18.730208
 21
248.385865
 31
0.0
  0
LINE
  5
151
100
AcDbEntity
  8
outerShellOut2
 62
7
100
AcDbLine
 10
18.730208
 20
248.385865
 30
0.0
 11
17.679880
 21
246.741963
 31
0.0
  0
LINE
  5
152
100
AcDbEntity
  8
outerShellOut2
 62
7
100
AcDbLine
 10
17.679880
 20
246.741963
 30
0.0
 11
16.794281
 21
245.062568
 31
0.0
  0
LINE
  5
153
100
AcDbEntity
  8
outerShellOut2
 62
7
100
AcDbLine
 10
16.794281
 20
245.062568
 30
0.0
 11
16.063597
 21
243.357592
 31
0.0
  0
LINE
  5
154
100
AcDbEntity
  8
outerShellOut2
 62
7
100
AcDbLine
 10
16.063597
 20
243.357592
 30
0.0
 11
15.478015
 21
241.636945
 31
0.0
  0
LINE
  5
155
100
AcDbEntity
  8
outerShellOut2
 62
7
100
AcDbLine
 10
15.478015
 20
241.636945
 30
0.0
 11
15.027721
 21
239.910536
 31
0.0
  0
LINE
  5
156
100
AcDbEntity
  8
outerShellOut2
 62
7
100
AcDbLine
 10
15.027721
 20
239.910536
 30
0.0
 11
14.702901
 21
238.188275
 31
0.0
  0
LINE
  5
157
100
AcDbEntity
  8
outerShellOut2
 62
7
100
AcDbLine
 10
14.702901
 20
238.188275
 30
0.0
 11
14.493742
 21
236.480072
 31
0.0
  0
LINE
  5
158
100
AcDbEntity
  8
outerShellOut2
 62
7
100
AcDbLine
 10
14.493742
 20
236.480072
 30
0.0
 11
14.390430
 21
234.795838
 31
0.0
  0
LINE
  5
159
100
AcDbEntity
  8
outerShellOut2
 62
7
100
AcDbLine
 10
14.390430
 20
234.795838
 30
0.0
 11
14.383130
 21
233.145483
 31
0.0
  0
LINE
  5
15a
100
AcDbEntity
  8
outerShellOut2
 62
7
100
AcDbLine
 10
14.383130
 20
233.145483
 30
0.0
 11
14.462070
 21
231.538915
 31
0.0
  0
LINE
  5
15b
100
AcDbEntity
  8
outerShellOut2
 62
7
100
AcDbLine
 10
14.462070
 20
231.538915
 30
0.0
 11
14.617419
 21
229.986047
 31
0.0
  0
LINE
  5
15c
100
AcDbEntity
  8
outerShellOut2
 62
7
100
AcDbLine
 10
14.617419
 20
229.986047
 30
0.0
 11
14.839362
 21
228.496786
 31
0.0
  0
LINE
  5
15d
100
AcDbEntity
  8
outerShellOut2
 62
7
100
AcDbLine
 10
14.839362
 20
228.496786
 30
0.0
 11
15.118085
 21
227.081044
 31
0.0
  0
LINE
  5
15e
100
AcDbEntity
  8
outerShellOut2
 62
7
100
AcDbLine
 10
15.118085
 20
227.081044
 30
0.0
 11
15.443774
 21
225.748731
 31
0.0
  0
LINE
  5
15f
100
AcDbEntity
  8
outerShellOut2
 62
7
100
AcDbLine
 10
15.443774
 20
225.748731
 30
0.0
 11
15.806615
 21
224.509756
 31
0.0
  0
LINE
  5
160
100
AcDbEntity
  8
outerShellOut2
 62
7
100
AcDbLine
 10
15.806615
 20
224.509756
 30
0.0
 11
16.601348
 21
222.192509
 31
0.0
  0
LINE
  5
161
100
AcDbEntity
  8
outerShellOut2
 62
7
100
AcDbLine
 10
16.601348
 20
222.192509
 30
0.0
 11
17.468082
 21
219.993364
 31
0.0
  0
LINE
  5
162
100
AcDbEntity
  8
outerShellOut2
 62
7
100
AcDbLine
 10
17.468082
 20
219.993364
 30
0.0
 11
18.399498
 21
217.907199
 31
0.0
  0
LINE
  5
163
100
AcDbEntity
  8
outerShellOut2
 62
7
100
AcDbLine
 10
18.399498
 20
217.907199
 30
0.0
 11
19.388280
 21
215.928893
 31
0.0
  0
LINE
  5
164
100
AcDbEntity
  8
outerShellOut2
 62
7
100
AcDbLine
 10
19.388280
 20
215.928893
 30
0.0
 11
20.427109
 21
214.053326
 31
0.0
  0
LINE
  5
165
100
AcDbEntity
  8
outerShellOut2
 62
7
100
AcDbLine
 10
20.427109
 20
214.053326
 30
0.0
 11
21.508668
 21
212.275377
 31
0.0
  0
LINE
  5
166
100
AcDbEntity
  8
outerShellOut2
 62
7
100
AcDbLine
 10
21.508668
 20
212.275377
 30
0.0
 11
22.625638
 21
210.589925
 31
0.0
  0
LINE
  5
167
100
AcDbEntity
  8
outerShellOut2
 62
7
100
AcDbLine
 10
22.625638
 20
210.589925
 30
0.0
 11
23.770701
 21
208.991849
 31
0.0
  0
LINE
  5
168
100
AcDbEntity
  8
outerShellOut2
 62
7
100
AcDbLine
 10
23.770701
 20
208.991849
 30
0.0
 11
24.936540
 21
207.476028
 31
0.0
  0
LINE
  5
169
100
AcDbEntity
  8
outerShellOut2
 62
7
100
AcDbLine
 10
24.936540
 20
207.476028
 30
0.0
 11
26.115837
 21
206.037341
 31
0.0
  0
LINE
  5
16a
100
AcDbEntity
  8
outerShellOut2
 62
7
100
AcDbLine
 10
26.115837
 20
206.037341
 30
0.0
 11
27.301273
 21
204.670668
 31
0.0
  0
LINE
  5
16b
100
AcDbEntity
  8
outerShellOut2
 62
7
100
AcDbLine
 10
27.301273
 20
204.670668
 30
0.0
 11
28.485532
 21
203.370888
 31
0.0
  0
LINE
  5
16c
100
AcDbEntity
  8
outerShellOut2
 62
7
100
AcDbLine
 10
28.485532
 20
203.370888
 30
0.0
 11
29.661295
 21
202.132879
 31
0.0
  0
LINE
  5
16d
100
AcDbEntity
  8
outerShellOut2
 62
7
100
AcDbLine
 10
29.661295
 20
202.132879
 30
0.0
 11
30.821243
 21
200.951521
 31
0.0
  0
LINE
  5
16e
100
AcDbEntity
  8
outerShellOut2
 62
7
100
AcDbLine
 10
30.821243
 20
200.951521
 30
0.0
 11
31.958061
 21
199.821693
 31
0.0
  0
LINE
  5
16f
100
AcDbEntity
  8
outerShellOut2
 62
7
100
AcDbLine
 10
31.958061
 20
199.821693
 30
0.0
 11
33.064428
 21
198.738274
 31
0.0
  0
LINE
  5
170
100
AcDbEntity
  8
outerShellOut2
 62
7
100
AcDbLine
 10
33.064428
 20
198.738274
 30
0.0
 11
33.145218
 21
198.636352
 31
0.0
  0
LINE
  5
171
100
AcDbEntity
  8
outerShellOut2
 62
7
100
AcDbLine
 10
33.145218
 20
198.636352
 30
0.0
 11
33.273707
 21
198.443276
 31
0.0
  0
LINE
  5
172
100
AcDbEntity
  8
outerShellOut2
 62
7
100
AcDbLine
 10
33.273707
 20
198.443276
 30
0.0
 11
33.445362
 21
198.165888
 31
0.0
  0
LINE
  5
173
100
AcDbEntity
  8
outerShellOut2
 62
7
100
AcDbLine
 10
33.445362
 20
198.165888
 30
0.0
 11
33.655652
 21
197.811029
 31
0.0
  0
LINE
  5
174
100
AcDbEntity
  8
outerShellOut2
 62
7
100
AcDbLine
 10
33.655652
 20
197.811029
 30
0.0
 11
33.900044
 21
197.385539
 31
0.0
  0
LINE
  5
175
100
AcDbEntity
  8
outerShellOut2
 62
7
100
AcDbLine
 10
33.900044
 20
197.385539
 30
0.0
 11
34.174007
 21
196.896260
 31
0.0
  0
LINE
  5
176
100
AcDbEntity
  8
outerShellOut2
 62
7
100
AcDbLine
 10
34.174007
 20
196.896260
 30
0.0
 11
34.473009
 21
196.350030
 31
0.0
  0
LINE
  5
177
100
AcDbEntity
  8
outerShellOut2
 62
7
100
AcDbLine
 10
34.473009
 20
196.350030
 30
0.0
 11
34.792516
 21
195.753690
 31
0.0
  0
LINE
  5
178
100
AcDbEntity
  8
outerShellOut2
 62
7
100
AcDbLine
 10
34.792516
 20
195.753690
 30
0.0
 11
35.127998
 21
195.114090
 31
0.0
  0
LINE
  5
179
100
AcDbEntity
  8
outerShellOut2
 62
7
100
AcDbLine
 10
35.127998
 20
195.114090
 30
0.0
 11
35.474921
 21
194.438060
 31
0.0
  0
LINE
  5
17a
100
AcDbEntity
  8
outerShellOut2
 62
7
100
AcDbLine
 10
35.474921
 20
194.438060
 30
0.0
 11
35.828754
 21
193.732440
 31
0.0
  0
LINE
  5
17b
100
AcDbEntity
  8
outerShellOut2
 62
7
100
AcDbLine
 10
35.828754
 20
193.732440
 30
0.0
 11
36.184965
 21
193.004080
 31
0.0
  0
LINE
  5
17c
100
AcDbEntity
  8
outerShellOut2
 62
7
100
AcDbLine
 10
36.184965
 20
193.004080
 30
0.0
 11
36.539022
 21
192.259810
 31
0.0
  0
LINE
  5
17d
100
AcDbEntity
  8
outerShellOut2
 62
7
100
AcDbLine
 10
36.539022
 20
192.259810
 30
0.0
 11
36.886392
 21
191.506480
 31
0.0
  0
LINE
  5
17e
100
AcDbEntity
  8
outerShellOut2
 62
7
100
AcDbLine
 10
36.886392
 20
191.506480
 30
0.0
 11
37.222543
 21
190.750920
 31
0.0
  0
LINE
  5
17f
100
AcDbEntity
  8
outerShellOut2
 62
7
100
AcDbLine
 10
37.222543
 20
190.750920
 30
0.0
 11
37.542944
 21
189.999990
 31
0.0
  0
LINE
  5
180
100
AcDbEntity
  8
outerShellOut2
 62
7
100
AcDbLine
 10
37.542944
 20
189.999990
 30
0.0
 11
34.727783
 21
189.999990
 31
0.0
  0
LINE
  5
181
100
AcDbEntity
  8
outerShellOut2
 62
7
100
AcDbLine
 10
34.727783
 20
189.999990
 30
0.0
 11
31.912598
 21
189.999990
 31
0.0
  0
LINE
  5
182
100
AcDbEntity
  8
outerShellOut2
 62
7
100
AcDbLine
 10
31.912598
 20
189.999990
 30
0.0
 11
29.097412
 21
189.999990
 31
0.0
  0
LINE
  5
183
100
AcDbEntity
  8
outerShellOut2
 62
7
100
AcDbLine
 10
29.097412
 20
189.999990
 30
0.0
 11
26.282227
 21
189.999990
 31
0.0
  0
LINE
  5
184
100
AcDbEntity
  8
outerShellOut2
 62
7
100
AcDbLine
 10
26.282227
 20
189.999990
 30
0.0
 11
23.467041
 21
189.999990
 31
0.0
  0
LINE
  5
185
100
AcDbEntity
  8
outerShellOut2
 62
7
100
AcDbLine
 10
23.467041
 20
189.999990
 30
0.0
 11
20.651856
 21
189.999990
 31
0.0
  0
LINE
  5
186
100
AcDbEntity
  8
outerShellOut2
 62
7
100
AcDbLine
 10
20.651856
 20
189.999990
 30
0.0
 11
17.836670
 21
189.999990
 31
0.0
  0
LINE
  5
187
100
AcDbEntity
  8
outerShellOut2
 62
7
100
AcDbLine
 10
17.836670
 20
189.999990
 30
0.0
 11
15.021485
 21
189.999990
 31
0.0
  0
LINE
  5
188
100
AcDbEntity
  8
outerShellOut2
 62
7
100
AcDbLine
 10
15.021485
 20
189.999990
 30
0.0
 11
12.206299
 21
189.999990
 31
0.0
  0
LINE
  5
189
100
AcDbEntity
  8
outerShellOut2
 62
7
100
AcDbLine
 10
12.206299
 20
189.999990
 30
0.0
 11
9.391113
 21
189.999990
 31
0.0
  0
LINE
  5
18a
100
AcDbEntity
  8
outerShellOut2
 62
7
100
AcDbLine
 10
9.391113
 20
189.999990
 30
0.0
 11
6.575928
 21
189.999990
 31
0.0
  0
LINE
  5
18b
100
AcDbEntity
  8
outerShellOut2
 62
7
100
AcDbLine
 10
6.575928
 20
189.999990
 30
0.0
 11
3.760742
 21
189.999990
 31
0.0
  0
LINE
  5
18c
100
AcDbEntity
  8
outerShellOut2
 62
7
100
AcDbLine
 10
3.760742
 20
189.999990
 30
0.0
 11
0.945557
 21
189.999990
 31
0.0
  0
LINE
  5
18d
100
AcDbEntity
  8
outerShellOut2
 62
7
100
AcDbLine
 10
0.945557
 20
189.999990
 30
0.0
 11
-1.869629
 21
189.999990
 31
0.0
  0
LINE
  5
18e
100
AcDbEntity
  8
outerShellOut2
 62
7
100
AcDbLine
 10
-1.869629
 20
189.999990
 30
0.0
 11
-4.684814
 21
189.999990
 31
0.0
  0
LINE
  5
18f
100
AcDbEntity
  8
outerShellOut2
 62
7
100
AcDbLine
 10
-4.684814
 20
189.999990
 30
0.0
 11
-7.500000
 21
189.999990
 31
0.0
  0
LINE
  5
190
100
AcDbEntity
  8
outerShellOut2
 62
7
100
AcDbLine
 10
-7.500000
 20
189.999990
 30
0.0
 11
-7.500000
 21
185.749990
 31
0.0
  0
LINE
  5
191
100
AcDbEntity
  8
outerShellOut2
 62
7
100
AcDbLine
 10
-7.500000
 20
185.749990
 30
0.0
 11
-7.500000
 21
181.499990
 31
0.0
  0
LINE
  5
192
100
AcDbEntity
  8
outerShellOut2
 62
7
100
AcDbLine
 10
-7.500000
 20
181.499990
 30
0.0
 11
-7.500000
 21
177.249990
 31
0.0
  0
LINE
  5
193
100
AcDbEntity
  8
outerShellOut2
 62
7
100
AcDbLine
 10
-7.500000
 20
177.249990
 30
0.0
 11
-7.500000
 21
172.999990
 31
0.0
  0
LINE
  5
194
100
AcDbEntity
  8
outerShellOut2
 62
7
100
AcDbLine
 10
-7.500000
 20
172.999990
 30
0.0
 11
-7.500000
 21
168.749990
 31
0.0
  0
LINE
  5
195
100
AcDbEntity
  8
outerShellOut2
 62
7
100
AcDbLine
 10
-7.500000
 20
168.749990
 30
0.0
 11
-7.500000
 21
164.499990
 31
0.0
  0
LINE
  5
196
100
AcDbEntity
  8
outerShellOut2
 62
7
100
AcDbLine
 10
-7.500000
 20
164.499990
 30
0.0
 11
-7.500000
 21
160.249990
 31
0.0
  0
LINE
  5
197
100
AcDbEntity
  8
outerShellOut2
 62
7
100
AcDbLine
 10
-7.500000
 20
160.249990
 30
0.0
 11
-7.500000
 21
155.999990
 31
0.0
  0
LINE
  5
198
100
AcDbEntity
  8
outerShellOut2
 62
7
100
AcDbLine
 10
-7.500000
 20
155.999990
 30
0.0
 11
-7.500000
 21
151.749990
 31
0.0
  0
LINE
  5
199
100
AcDbEntity
  8
outerShellOut2
 62
7
100
AcDbLine
 10
-7.500000
 20
151.749990
 30
0.0
 11
-7.500000
 21
147.499990
 31
0.0
  0
LINE
  5
19a
100
AcDbEntity
  8
outerShellOut2
 62
7
100
AcDbLine
 10
-7.500000
 20
147.499990
 30
0.0
 11
-7.500000
 21
143.249990
 31
0.0
  0
LINE
  5
19b
100
AcDbEntity
  8
outerShellOut2
 62
7
100
AcDbLine
 10
-7.500000
 20
143.249990
 30
0.0
 11
-7.500000
 21
138.999990
 31
0.0
  0
LINE
  5
19c
100
AcDbEntity
  8
outerShellOut2
 62
7
100
AcDbLine
 10
-7.500000
 20
138.999990
 30
0.0
 11
-7.500000
 21
134.749990
 31
0.0
  0
LINE
  5
19d
100
AcDbEntity
  8
outerShellOut2
 62
7
100
AcDbLine
 10
-7.500000
 20
134.749990
 30
0.0
 11
-7.500000
 21
130.499990
 31
0.0
  0
LINE
  5
19e
100
AcDbEntity
  8
outerShellOut2
 62
7
100
AcDbLine
 10
-7.500000
 20
130.499990
 30
0.0
 11
-7.500000
 21
126.249990
 31
0.0
  0
LINE
  5
19f
100
AcDbEntity
  8
outerShellOut2
 62
7
100
AcDbLine
 10
-7.500000
 20
126.249990
 30
0.0
 11
-7.500000
 21
121.999990
 31
0.0
  0
LINE
  5
1a0
100
AcDbEntity
  8
outerShellOut2
 62
7
100
AcDbLine
 10
-7.500000
 20
121.999990
 30
0.0
 11
-7.500000
 21
119.812490
 31
0.0
  0
LINE
  5
1a1
100
AcDbEntity
  8
outerShellOut2
 62
7
100
AcDbLine
 10
-7.500000
 20
119.812490
 30
0.0
 11
-7.500000
 21
117.624990
 31
0.0
  0
LINE
  5
1a2
100
AcDbEntity
  8
outerShellOut2
 62
7
100
AcDbLine
 10
-7.500000
 20
117.624990
 30
0.0
 11
-7.500000
 21
115.437490
 31
0.0
  0
LINE
  5
1a3
100
AcDbEntity
  8
outerShellOut2
 62
7
100
AcDbLine
 10
-7.500000
 20
115.437490
 30
0.0
 11
-7.500000
 21
113.249990
 31
0.0
  0
LINE
  5
1a4
100
AcDbEntity
  8
outerShellOut2
 62
7
100
AcDbLine
 10
-7.500000
 20
113.249990
 30
0.0
 11
-7.500000
 21
111.062490
 31
0.0
  0
LINE
  5
1a5
100
AcDbEntity
  8
outerShellOut2
 62
7
100
AcDbLine
 10
-7.500000
 20
111.062490
 30
0.0
 11
-7.500000
 21
108.874990
 31
0.0
  0
LINE
  5
1a6
100
AcDbEntity
  8
outerShellOut2
 62
7
100
AcDbLine
 10
-7.500000
 20
108.874990
 30
0.0
 11
-7.500000
 21
106.687490
 31
0.0
  0
LINE
  5
1a7
100
AcDbEntity
  8
outerShellOut2
 62
7
100
AcDbLine
 10
-7.500000
 20
106.687490
 30
0.0
 11
-7.500000
 21
104.499990
 31
0.0
  0
LINE
  5
1a8
100
AcDbEntity
  8
outerShellOut2
 62
7
100
AcDbLine
 10
-7.500000
 20
104.499990
 30
0.0
 11
-7.500000
 21
102.312490
 31
0.0
  0
LINE
  5
1a9
100
AcDbEntity
  8
outerShellOut2
 62
7
100
AcDbLine
 10
-7.500000
 20
102.312490
 30
0.0
 11
-7.500000
 21
100.124990
 31
0.0
  0
LINE
  5
1aa
100
AcDbEntity
  8
outerShellOut2
 62
7
100
AcDbLine
 10
-7.500000
 20
100.124990
 30
0.0
 11
-7.500000
 21
97.937490
 31
0.0
  0
LINE
  5
1ab
100
AcDbEntity
  8
outerShellOut2
 62
7
100
AcDbLine
 10
-7.500000
 20
97.937490
 30
0.0
 11
-7.500000
 21
95.749990
 31
0.0
  0
LINE
  5
1ac
100
AcDbEntity
  8
outerShellOut2
 62
7
100
AcDbLine
 10
-7.500000
 20
95.749990
 30
0.0
 11
-7.500000
 21
93.562490
 31
0.0
  0
LINE
  5
1ad
100
AcDbEntity
  8
outerShellOut2
 62
7
100
AcDbLine
 10
-7.500000
 20
93.562490
 30
0.0
 11
-7.500000
 21
91.374990
 31
0.0
  0
LINE
  5
1ae
100
AcDbEntity
  8
outerShellOut2
 62
7
100
AcDbLine
 10
-7.500000
 20
91.374990
 30
0.0
 11
-7.500000
 21
89.187490
 31
0.0
  0
LINE
  5
1af
100
AcDbEntity
  8
outerShellOut2
 62
7
100
AcDbLine
 10
-7.500000
 20
89.187490
 30
0.0
 11
-7.500000
 21
86.999990
 31
0.0
  0
LINE
  5
1b0
100
AcDbEntity
  8
outerShellOut2
 62
7
100
AcDbLine
 10
-7.500000
 20
86.999990
 30
0.0
 11
-7.223675
 21
81.625400
 31
0.0
  0
LINE
  5
1b1
100
AcDbEntity
  8
outerShellOut2
 62
7
100
AcDbLine
 10
-7.223675
 20
81.625400
 30
0.0
 11
-6.413242
 21
76.395340
 31
0.0
  0
LINE
  5
1b2
100
AcDbEntity
  8
outerShellOut2
 62
7
100
AcDbLine
 10
-6.413242
 20
76.395340
 30
0.0
 11
-5.096513
 21
71.337890
 31
0.0
  0
LINE
  5
1b3
100
AcDbEntity
  8
outerShellOut2
 62
7
100
AcDbLine
 10
-5.096513
 20
71.337890
 30
0.0
 11
-3.301300
 21
66.481110
 31
0.0
  0
LINE
  5
1b4
100
AcDbEntity
  8
outerShellOut2
 62
7
100
AcDbLine
 10
-3.301300
 20
66.481110
 30
0.0
 11
-1.055414
 21
61.853080
 31
0.0
  0
LINE
  5
1b5
100
AcDbEntity
  8
outerShellOut2
 62
7
100
AcDbLine
 10
-1.055414
 20
61.853080
 30
0.0
 11
1.613331
 21
57.481870
 31
0.0
  0
LINE
  5
1b6
100
AcDbEntity
  8
outerShellOut2
 62
7
100
AcDbLine
 10
1.613331
 20
57.481870
 30
0.0
 11
4.677125
 21
53.395550
 31
0.0
  0
LINE
  5
1b7
100
AcDbEntity
  8
outerShellOut2
 62
7
100
AcDbLine
 10
4.677125
 20
53.395550
 30
0.0
 11
8.108155
 21
49.622180
 31
0.0
  0
LINE
  5
1b8
100
AcDbEntity
  8
outerShellOut2
 62
7
100
AcDbLine
 10
8.108155
 20
49.622180
 30
0.0
 11
11.878609
 21
46.189840
 31
0.0
  0
LINE
  5
1b9
100
AcDbEntity
  8
outerShellOut2
 62
7
100
AcDbLine
 10
11.878609
 20
46.189840
 30
0.0
 11
15.960675
 21
43.126610
 31
0.0
  0
LINE
  5
1ba
100
AcDbEntity
  8
outerShellOut2
 62
7
100
AcDbLine
 10
15.960675
 20
43.126610
 30
0.0
 11
20.326541
 21
40.460550
 31
0.0
  0
LINE
  5
1bb
100
AcDbEntity
  8
outerShellOut2
 62
7
100
AcDbLine
 10
20.326541
 20
40.460550
 30
0.0
 11
24.948396
 21
38.219730
 31
0.0
  0
LINE
  5
1bc
100
AcDbEntity
  8
outerShellOut2
 62
7
100
AcDbLine
 10
24.948396
 20
38.219730
 30
0.0
 11
29.798426
 21
36.432220
 31
0.0
  0
LINE
  5
1bd
100
AcDbEntity
  8
outerShellOut2
 62
7
100
AcDbLine
 10
29.798426
 20
36.432220
 30
0.0
 11
34.848821
 21
35.126100
 31
0.0
  0
LINE
  5
1be
100
AcDbEntity
  8
outerShellOut2
 62
7
100
AcDbLine
 10
34.848821
 20
35.126100
 30
0.0
 11
40.071767
 21
34.329440
 31
0.0
  0
LINE
  5
1bf
100
AcDbEntity
  8
outerShellOut2
 62
7
100
AcDbLine
 10
40.071767
 20
34.329440
 30
0.0
 11
45.439454
 21
34.070300
 31
0.0
  0
LINE
  5
1c0
100
AcDbEntity
  8
outerShellOut2
 62
7
100
AcDbLine
 10
45.439454
 20
34.070300
 30
0.0
 11
48.410689
 21
34.145900
 31
0.0
  0
LINE
  5
1c1
100
AcDbEntity
  8
outerShellOut2
 62
7
100
AcDbLine
 10
48.410689
 20
34.145900
 30
0.0
 11
51.284968
 21
34.344210
 31
0.0
  0
LINE
  5
1c2
100
AcDbEntity
  8
outerShellOut2
 62
7
100
AcDbLine
 10
51.284968
 20
34.344210
 30
0.0
 11
54.061024
 21
34.654090
 31
0.0
  0
LINE
  5
1c3
100
AcDbEntity
  8
outerShellOut2
 62
7
100
AcDbLine
 10
54.061024
 20
34.654090
 30
0.0
 11
56.737589
 21
35.064400
 31
0.0
  0
LINE
  5
1c4
100
AcDbEntity
  8
outerShellOut2
 62
7
100
AcDbLine
 10
56.737589
 20
35.064400
 30
0.0
 11
59.313397
 21
35.564010
 31
0.0
  0
LINE
  5
1c5
100
AcDbEntity
  8
outerShellOut2
 62
7
100
AcDbLine
 10
59.313397
 20
35.564010
 30
0.0
 11
61.787179
 21
36.141780
 31
0.0
  0
LINE
  5
1c6
100
AcDbEntity
  8
outerShellOut2
 62
7
100
AcDbLine
 10
61.787179
 20
36.141780
 30
0.0
 11
64.157669
 21
36.786590
 31
0.0
  0
LINE
  5
1c7
100
AcDbEntity
  8
outerShellOut2
 62
7
100
AcDbLine
 10
64.157669
 20
36.786590
 30
0.0
 11
66.423598
 21
37.487300
 31
0.0
  0
LINE
  5
1c8
100
AcDbEntity
  8
outerShellOut2
 62
7
100
AcDbLine
 10
66.423598
 20
37.487300
 30
0.0
 11
68.583699
 21
38.232780
 31
0.0
  0
LINE
  5
1c9
100
AcDbEntity
  8
outerShellOut2
 62
7
100
AcDbLine
 10
68.583699
 20
38.232780
 30
0.0
 11
70.636705
 21
39.011900
 31
0.0
  0
LINE
  5
1ca
100
AcDbEntity
  8
outerShellOut2
 62
7
100
AcDbLine
 10
70.636705
 20
39.011900
 30
0.0
 11
72.581349
 21
39.813520
 31
0.0
  0
LINE
  5
1cb
100
AcDbEntity
  8
outerShellOut2
 62
7
100
AcDbLine
 10
72.581349
 20
39.813520
 30
0.0
 11
74.416363
 21
40.626510
 31
0.0
  0
LINE
  5
1cc
100
AcDbEntity
  8
outerShellOut2
 62
7
100
AcDbLine
 10
74.416363
 20
40.626510
 30
0.0
 11
76.140479
 21
41.439730
 31
0.0
  0
LINE
  5
1cd
100
AcDbEntity
  8
outerShellOut2
 62
7
100
AcDbLine
 10
76.140479
 20
41.439730
 30
0.0
 11
77.752430
 21
42.242060
 31
0.0
  0
LINE
  5
1ce
100
AcDbEntity
  8
outerShellOut2
 62
7
100
AcDbLine
 10
77.752430
 20
42.242060
 30
0.0
 11
79.250949
 21
43.022370
 31
0.0
  0
LINE
  5
1cf
100
AcDbEntity
  8
outerShellOut2
 62
7
100
AcDbLine
 10
79.250949
 20
43.022370
 30
0.0
 11
80.634768
 21
43.769510
 31
0.0
  0
LINE
  5
1d0
100
AcDbEntity
  8
outerShellOut2
 62
7
100
AcDbLine
 10
80.634768
 20
43.769510
 30
0.0
 11
81.897316
 21
44.466170
 31
0.0
  0
LINE
  5
1d1
100
AcDbEntity
  8
outerShellOut2
 62
7
100
AcDbLine
 10
81.897316
 20
44.466170
 30
0.0
 11
83.043062
 21
45.103710
 31
0.0
  0
LINE
  5
1d2
100
AcDbEntity
  8
outerShellOut2
 62
7
100
AcDbLine
 10
83.043062
 20
45.103710
 30
0.0
 11
84.087302
 21
45.684020
 31
0.0
  0
LINE
  5
1d3
100
AcDbEntity
  8
outerShellOut2
 62
7
100
AcDbLine
 10
84.087302
 20
45.684020
 30
0.0
 11
85.045331
 21
46.209010
 31
0.0
  0
LINE
  5
1d4
100
AcDbEntity
  8
outerShellOut2
 62
7
100
AcDbLine
 10
85.045331
 20
46.209010
 30
0.0
 11
85.932445
 21
46.680580
 31
0.0
  0
LINE
  5
1d5
100
AcDbEntity
  8
outerShellOut2
 62
7
100
AcDbLine
 10
85.932445
 20
46.680580
 30
0.0
 11
86.763939
 21
47.100620
 31
0.0
  0
LINE
  5
1d6
100
AcDbEntity
  8
outerShellOut2
 62
7
100
AcDbLine
 10
86.763939
 20
47.100620
 30
0.0
 11
87.555108
 21
47.471030
 31
0.0
  0
LINE
  5
1d7
100
AcDbEntity
  8
outerShellOut2
 62
7
100
AcDbLine
 10
87.555108
 20
47.471030
 30
0.0
 11
88.321248
 21
47.793710
 31
0.0
  0
LINE
  5
1d8
100
AcDbEntity
  8
outerShellOut2
 62
7
100
AcDbLine
 10
88.321248
 20
47.793710
 30
0.0
 11
89.077655
 21
48.070570
 31
0.0
  0
LINE
  5
1d9
100
AcDbEntity
  8
outerShellOut2
 62
7
100
AcDbLine
 10
89.077655
 20
48.070570
 30
0.0
 11
89.839623
 21
48.303490
 31
0.0
  0
LINE
  5
1da
100
AcDbEntity
  8
outerShellOut2
 62
7
100
AcDbLine
 10
89.839623
 20
48.303490
 30
0.0
 11
90.622448
 21
48.494370
 31
0.0
  0
LINE
  5
1db
100
AcDbEntity
  8
outerShellOut2
 62
7
100
AcDbLine
 10
90.622448
 20
48.494370
 30
0.0
 11
91.441426
 21
48.645120
 31
0.0
  0
LINE
  5
1dc
100
AcDbEntity
  8
outerShellOut2
 62
7
100
AcDbLine
 10
91.441426
 20
48.645120
 30
0.0
 11
92.311851
 21
48.757640
 31
0.0
  0
LINE
  5
1dd
100
AcDbEntity
  8
outerShellOut2
 62
7
100
AcDbLine
 10
92.311851
 20
48.757640
 30
0.0
 11
93.249020
 21
48.833840
 31
0.0
  0
LINE
  5
1de
100
AcDbEntity
  8
outerShellOut2
 62
7
100
AcDbLine
 10
93.249020
 20
48.833840
 30
0.0
 11
94.268228
 21
48.875540
 31
0.0
  0
LINE
  5
1df
100
AcDbEntity
  8
outerShellOut2
 62
7
100
AcDbLine
 10
94.268228
 20
48.875540
 30
0.0
 11
95.384770
 21
48.884540
 31
0.0
  0
LINE
  5
1e0
100
AcDbEntity
  8
outerShellOut2
 62
7
100
AcDbLine
 10
95.384770
 20
48.884540
 30
0.0
 11
97.605435
 21
48.793540
 31
0.0
  0
LINE
  5
1e1
100
AcDbEntity
  8
outerShellOut2
 62
7
100
AcDbLine
 10
97.605435
 20
48.793540
 30
0.0
 11
99.917387
 21
48.549470
 31
0.0
  0
LINE
  5
1e2
100
AcDbEntity
  8
outerShellOut2
 62
7
100
AcDbLine
 10
99.917387
 20
48.549470
 30
0.0
 11
102.318780
 21
48.159570
 31
0.0
  0
LINE
  5
1e3
100
AcDbEntity
  8
outerShellOut2
 62
7
100
AcDbLine
 10
102.318780
 20
48.159570
 30
0.0
 11
104.807770
 21
47.631150
 31
0.0
  0
LINE
  5
1e4
100
AcDbEntity
  8
outerShellOut2
 62
7
100
AcDbLine
 10
104.807770
 20
47.631150
 30
0.0
 11
107.382510
 21
46.971490
 31
0.0
  0
LINE
  5
1e5
100
AcDbEntity
  8
outerShellOut2
 62
7
100
AcDbLine
 10
107.382510
 20
46.971490
 30
0.0
 11
110.041140
 21
46.187900
 31
0.0
  0
LINE
  5
1e6
100
AcDbEntity
  8
outerShellOut2
 62
7
100
AcDbLine
 10
110.041140
 20
46.187900
 30
0.0
 11
112.781840
 21
45.287660
 31
0.0
  0
LINE
  5
1e7
100
AcDbEntity
  8
outerShellOut2
 62
7
100
AcDbLine
 10
112.781840
 20
45.287660
 30
0.0
 11
115.602740
 21
44.278080
 31
0.0
  0
LINE
  5
1e8
100
AcDbEntity
  8
outerShellOut2
 62
7
100
AcDbLine
 10
115.602740
 20
44.278080
 30
0.0
 11
118.502010
 21
43.166440
 31
0.0
  0
LINE
  5
1e9
100
AcDbEntity
  8
outerShellOut2
 62
7
100
AcDbLine
 10
118.502010
 20
43.166440
 30
0.0
 11
121.477790
 21
41.960050
 31
0.0
  0
LINE
  5
1ea
100
AcDbEntity
  8
outerShellOut2
 62
7
100
AcDbLine
 10
121.477790
 20
41.960050
 30
0.0
 11
124.528240
 21
40.666200
 31
0.0
  0
LINE
  5
1eb
100
AcDbEntity
  8
outerShellOut2
 62
7
100
AcDbLine
 10
124.528240
 20
40.666200
 30
0.0
 11
127.651520
 21
39.292180
 31
0.0
  0
LINE
  5
1ec
100
AcDbEntity
  8
outerShellOut2
 62
7
100
AcDbLine
 10
127.651520
 20
39.292180
 30
0.0
 11
130.845780
 21
37.845290
 31
0.0
  0
LINE
  5
1ed
100
AcDbEntity
  8
outerShellOut2
 62
7
100
AcDbLine
 10
130.845780
 20
37.845290
 30
0.0
 11
134.109160
 21
36.332830
 31
0.0
  0
LINE
  5
1ee
100
AcDbEntity
  8
outerShellOut2
 62
7
100
AcDbLine
 10
134.109160
 20
36.332830
 30
0.0
 11
137.439830
 21
34.762080
 31
0.0
  0
LINE
  5
1ef
100
AcDbEntity
  8
outerShellOut2
 62
7
100
AcDbLine
 10
137.439830
 20
34.762080
 30
0.0
 11
140.835940
 21
33.140350
 31
0.0
  0
LINE
  5
1f0
100
AcDbEntity
  8
outerShellOut2
 62
7
100
AcDbLine
 10
140.835940
 20
33.140350
 30
0.0
 11
144.298330
 21
31.479770
 31
0.0
  0
LINE
  5
1f1
100
AcDbEntity
  8
outerShellOut2
 62
7
100
AcDbLine
 10
144.298330
 20
31.479770
 30
0.0
 11
147.830170
 21
29.799310
 31
0.0
  0
LINE
  5
1f2
100
AcDbEntity
  8
outerShellOut2
 62
7
100
AcDbLine
 10
147.830170
 20
29.799310
 30
0.0
 11
151.433140
 21
28.116500
 31
0.0
  0
LINE
  5
1f3
100
AcDbEntity
  8
outerShellOut2
 62
7
100
AcDbLine
 10
151.433140
 20
28.116500
 30
0.0
 11
155.108890
 21
26.448850
 31
0.0
  0
LINE
  5
1f4
100
AcDbEntity
  8
outerShellOut2
 62
7
100
AcDbLine
 10
155.108890
 20
26.448850
 30
0.0
 11
158.859090
 21
24.813890
 31
0.0
  0
LINE
  5
1f5
100
AcDbEntity
  8
outerShellOut2
 62
7
100
AcDbLine
 10
158.859090
 20
24.813890
 30
0.0
 11
162.685400
 21
23.229160
 31
0.0
  0
LINE
  5
1f6
100
AcDbEntity
  8
outerShellOut2
 62
7
100
AcDbLine
 10
162.685400
 20
23.229160
 30
0.0
 11
166.589470
 21
21.712170
 31
0.0
  0
LINE
  5
1f7
100
AcDbEntity
  8
outerShellOut2
 62
7
100
AcDbLine
 10
166.589470
 20
21.712170
 30
0.0
 11
170.572980
 21
20.280460
 31
0.0
  0
LINE
  5
1f8
100
AcDbEntity
  8
outerShellOut2
 62
7
100
AcDbLine
 10
170.572980
 20
20.280460
 30
0.0
 11
174.637580
 21
18.951540
 31
0.0
  0
LINE
  5
1f9
100
AcDbEntity
  8
outerShellOut2
 62
7
100
AcDbLine
 10
174.637580
 20
18.951540
 30
0.0
 11
178.784930
 21
17.742950
 31
0.0
  0
LINE
  5
1fa
100
AcDbEntity
  8
outerShellOut2
 62
7
100
AcDbLine
 10
178.784930
 20
17.742950
 30
0.0
 11
183.016710
 21
16.672220
 31
0.0
  0
LINE
  5
1fb
100
AcDbEntity
  8
outerShellOut2
 62
7
100
AcDbLine
 10
183.016710
 20
16.672220
 30
0.0
 11
187.334560
 21
15.756860
 31
0.0
  0
LINE
  5
1fc
100
AcDbEntity
  8
outerShellOut2
 62
7
100
AcDbLine
 10
187.334560
 20
15.756860
 30
0.0
 11
191.740150
 21
15.014400
 31
0.0
  0
LINE
  5
1fd
100
AcDbEntity
  8
outerShellOut2
 62
7
100
AcDbLine
 10
191.740150
 20
15.014400
 30
0.0
 11
196.235150
 21
14.462380
 31
0.0
  0
LINE
  5
1fe
100
AcDbEntity
  8
outerShellOut2
 62
7
100
AcDbLine
 10
196.235150
 20
14.462380
 30
0.0
 11
200.821210
 21
14.118310
 31
0.0
  0
LINE
  5
1ff
100
AcDbEntity
  8
outerShellOut2
 62
7
100
AcDbLine
 10
200.821210
 20
14.118310
 30
0.0
 11
205.500000
 21
13.999730
 31
0.0
  0
LINE
  5
200
100
AcDbEntity
  8
outerShellOut2
 62
7
100
AcDbLine
 10
205.500000
 20
13.999730
 30
0.0
 11
207.610300
 21
13.999030
 31
0.0
  0
LINE
  5
201
100
AcDbEntity
  8
outerShellOut2
 62
7
100
AcDbLine
 10
207.610300
 20
13.999030
 30
0.0
 11
210.169420
 21
14.014830
 31
0.0
  0
LINE
  5
202
100
AcDbEntity
  8
outerShellOut2
 62
7
100
AcDbLine
 10
210.169420
 20
14.014830
 30
0.0
 11
213.144670
 21
14.073930
 31
0.0
  0
LINE
  5
203
100
AcDbEntity
  8
outerShellOut2
 62
7
100
AcDbLine
 10
213.144670
 20
14.073930
 30
0.0
 11
216.503380
 21
14.203080
 31
0.0
  0
LINE
  5
204
100
AcDbEntity
  8
outerShellOut2
 62
7
100
AcDbLine
 10
216.503380
 20
14.203080
 30
0.0
 11
220.212850
 21
14.429110
 31
0.0
  0
LINE
  5
205
100
AcDbEntity
  8
outerShellOut2
 62
7
100
AcDbLine
 10
220.212850
 20
14.429110
 30
0.0
 11
224.240400
 21
14.778840
 31
0.0
  0
LINE
  5
206
100
AcDbEntity
  8
outerShellOut2
 62
7
100
AcDbLine
 10
224.240400
 20
14.778840
 30
0.0
 11
228.553360
 21
15.279070
 31
0.0
  0
LINE
  5
207
100
AcDbEntity
  8
outerShellOut2
 62
7
100
AcDbLine
 10
228.553360
 20
15.279070
 30
0.0
 11
233.119030
 21
15.956600
 31
0.0
  0
LINE
  5
208
100
AcDbEntity
  8
outerShellOut2
 62
7
100
AcDbLine
 10
233.119030
 20
15.956600
 30
0.0
 11
237.904740
 21
16.838240
 31
0.0
  0
LINE
  5
209
100
AcDbEntity
  8
outerShellOut2
 62
7
100
AcDbLine
 10
237.904740
 20
16.838240
 30
0.0
 11
242.877800
 21
17.950800
 31
0.0
  0
LINE
  5
20a
100
AcDbEntity
  8
outerShellOut2
 62
7
100
AcDbLine
 10
242.877800
 20
17.950800
 30
0.0
 11
248.005530
 21
19.321070
 31
0.0
  0
LINE
  5
20b
100
AcDbEntity
  8
outerShellOut2
 62
7
100
AcDbLine
 10
248.005530
 20
19.321070
 30
0.0
 11
253.255250
 21
20.975860
 31
0.0
  0
LINE
  5
20c
100
AcDbEntity
  8
outerShellOut2
 62
7
100
AcDbLine
 10
253.255250
 20
20.975860
 30
0.0
 11
258.594270
 21
22.941980
 31
0.0
  0
LINE
  5
20d
100
AcDbEntity
  8
outerShellOut2
 62
7
100
AcDbLine
 10
258.594270
 20
22.941980
 30
0.0
 11
263.989910
 21
25.246230
 31
0.0
  0
LINE
  5
20e
100
AcDbEntity
  8
outerShellOut2
 62
7
100
AcDbLine
 10
263.989910
 20
25.246230
 30
0.0
 11
269.409490
 21
27.915420
 31
0.0
  0
LINE
  5
20f
100
AcDbEntity
  8
outerShellOut2
 62
7
100
AcDbLine
 10
269.409490
 20
27.915420
 30
0.0
 11
274.820320
 21
30.976350
 31
0.0
  0
LINE
  5
210
100
AcDbEntity
  8
outerShellOut2
 62
7
100
AcDbLine
 10
274.820320
 20
30.976350
 30
0.0
 11
280.165360
 21
34.469190
 31
0.0
  0
LINE
  5
211
100
AcDbEntity
  8
outerShellOut2
 62
7
100
AcDbLine
 10
280.165360
 20
34.469190
 30
0.0
 11
285.388830
 21
38.422100
 31
0.0
  0
LINE
  5
212
100
AcDbEntity
  8
outerShellOut2
 62
7
100
AcDbLine
 10
285.388830
 20
38.422100
 30
0.0
 11
290.459910
 21
42.843880
 31
0.0
  0
LINE
  5
213
100
AcDbEntity
  8
outerShellOut2
 62
7
100
AcDbLine
 10
290.459910
 20
42.843880
 30
0.0
 11
295.347790
 21
47.743340
 31
0.0
  0
LINE
  5
214
100
AcDbEntity
  8
outerShellOut2
 62
7
100
AcDbLine
 10
295.347790
 20
47.743340
 30
0.0
 11
300.021680
 21
53.129280
 31
0.0
  0
LINE
  5
215
100
AcDbEntity
  8
outerShellOut2
 62
7
100
AcDbLine
 10
300.021680
 20
53.129280
 30
0.0
 11
304.450760
 21
59.010500
 31
0.0
  0
LINE
  5
216
100
AcDbEntity
  8
outerShellOut2
 62
7
100
AcDbLine
 10
304.450760
 20
59.010500
 30
0.0
 11
308.604230
 21
65.395810
 31
0.0
  0
LINE
  5
217
100
AcDbEntity
  8
outerShellOut2
 62
7
100
AcDbLine
 10
308.604230
 20
65.395810
 30
0.0
 11
312.451290
 21
72.294000
 31
0.0
  0
LINE
  5
218
100
AcDbEntity
  8
outerShellOut2
 62
7
100
AcDbLine
 10
312.451290
 20
72.294000
 30
0.0
 11
315.961120
 21
79.713880
 31
0.0
  0
LINE
  5
219
100
AcDbEntity
  8
outerShellOut2
 62
7
100
AcDbLine
 10
315.961120
 20
79.713880
 30
0.0
 11
319.102920
 21
87.664260
 31
0.0
  0
LINE
  5
21a
100
AcDbEntity
  8
outerShellOut2
 62
7
100
AcDbLine
 10
319.102920
 20
87.664260
 30
0.0
 11
321.845890
 21
96.153930
 31
0.0
  0
LINE
  5
21b
100
AcDbEntity
  8
outerShellOut2
 62
7
100
AcDbLine
 10
321.845890
 20
96.153930
 30
0.0
 11
324.159220
 21
105.191690
 31
0.0
  0
LINE
  5
21c
100
AcDbEntity
  8
outerShellOut2
 62
7
100
AcDbLine
 10
324.159220
 20
105.191690
 30
0.0
 11
326.012100
 21
114.786360
 31
0.0
  0
LINE
  5
21d
100
AcDbEntity
  8
outerShellOut2
 62
7
100
AcDbLine
 10
326.012100
 20
114.786360
 30
0.0
 11
327.373720
 21
124.946730
 31
0.0
  0
LINE
  5
21e
100
AcDbEntity
  8
outerShellOut2
 62
7
100
AcDbLine
 10
327.373720
 20
124.946730
 30
0.0
 11
328.213290
 21
135.681610
 31
0.0
  0
LINE
  5
21f
100
AcDbEntity
  8
outerShellOut2
 62
7
100
AcDbLine
 10
328.213290
 20
135.681610
 30
0.0
 11
328.499990
 21
146.999790
 31
0.0
  0
LINE
  5
220
100
AcDbEntity
  8
outerShellOut2
 62
7
100
AcDbLine
 10
328.499990
 20
146.999790
 30
0.0
 11
328.213290
 21
158.317970
 31
0.0
  0
LINE
  5
221
100
AcDbEntity
  8
outerShellOut2
 62
7
100
AcDbLine
 10
328.213290
 20
158.317970
 30
0.0
 11
327.373720
 21
169.052850
 31
0.0
  0
LINE
  5
222
100
AcDbEntity
  8
outerShellOut2
 62
7
100
AcDbLine
 10
327.373720
 20
169.052850
 30
0.0
 11
326.012100
 21
179.213220
 31
0.0
  0
LINE
  5
223
100
AcDbEntity
  8
outerShellOut2
 62
7
100
AcDbLine
 10
326.012100
 20
179.213220
 30
0.0
 11
324.159220
 21
188.807890
 31
0.0
  0
LINE
  5
224
100
AcDbEntity
  8
outerShellOut2
 62
7
100
AcDbLine
 10
324.159220
 20
188.807890
 30
0.0
 11
321.845890
 21
197.845656
 31
0.0
  0
LINE
  5
225
100
AcDbEntity
  8
outerShellOut2
 62
7
100
AcDbLine
 10
321.845890
 20
197.845656
 30
0.0
 11
319.102920
 21
206.335326
 31
0.0
  0
LINE
  5
226
100
AcDbEntity
  8
outerShellOut2
 62
7
100
AcDbLine
 10
319.102920
 20
206.335326
 30
0.0
 11
315.961120
 21
214.285701
 31
0.0
  0
LINE
  5
227
100
AcDbEntity
  8
outerShellOut2
 62
7
100
AcDbLine
 10
315.961120
 20
214.285701
 30
0.0
 11
312.451290
 21
221.705584
 31
0.0
  0
LINE
  5
228
100
AcDbEntity
  8
outerShellOut2
 62
7
100
AcDbLine
 10
312.451290
 20
221.705584
 30
0.0
 11
308.604230
 21
228.603776
 31
0.0
  0
LINE
  5
229
100
AcDbEntity
  8
outerShellOut2
 62
7
100
AcDbLine
 10
308.604230
 20
228.603776
 30
0.0
 11
304.450760
 21
234.989082
 31
0.0
  0
LINE
  5
22a
100
AcDbEntity
  8
outerShellOut2
 62
7
100
AcDbLine
 10
304.450760
 20
234.989082
 30
0.0
 11
300.021680
 21
240.870303
 31
0.0
  0
LINE
  5
22b
100
AcDbEntity
  8
outerShellOut2
 62
7
100
AcDbLine
 10
300.021680
 20
240.870303
 30
0.0
 11
295.347790
 21
246.256242
 31
0.0
  0
LINE
  5
22c
100
AcDbEntity
  8
outerShellOut2
 62
7
100
AcDbLine
 10
295.347790
 20
246.256242
 30
0.0
 11
290.459910
 21
251.155702
 31
0.0
  0
LINE
  5
22d
100
AcDbEntity
  8
outerShellOut2
 62
7
100
AcDbLine
 10
290.459910
 20
251.155702
 30
0.0
 11
285.388830
 21
255.577485
 31
0.0
  0
LINE
  5
22e
100
AcDbEntity
  8
outerShellOut2
 62
7
100
AcDbLine
 10
285.388830
 20
255.577485
 30
0.0
 11
280.165360
 21
259.530393
 31
0.0
  0
LINE
  5
22f
100
AcDbEntity
  8
outerShellOut2
 62
7
100
AcDbLine
 10
280.165360
 20
259.530393
 30
0.0
 11
274.820320
 21
263.023230
 31
0.0
  0
LINE
  5
230
100
AcDbEntity
  8
outerShellOut2
 62
7
100
AcDbLine
 10
274.820320
 20
263.023230
 30
0.0
 11
269.409490
 21
266.084159
 31
0.0
  0
LINE
  5
231
100
AcDbEntity
  8
outerShellOut2
 62
7
100
AcDbLine
 10
269.409490
 20
266.084159
 30
0.0
 11
263.989910
 21
268.753347
 31
0.0
  0
LINE
  5
232
100
AcDbEntity
  8
outerShellOut2
 62
7
100
AcDbLine
 10
263.989910
 20
268.753347
 30
0.0
 11
258.594270
 21
271.057600
 31
0.0
  0
LINE
  5
233
100
AcDbEntity
  8
outerShellOut2
 62
7
100
AcDbLine
 10
258.594270
 20
271.057600
 30
0.0
 11
253.255250
 21
273.023720
 31
0.0
  0
LINE
  5
234
100
AcDbEntity
  8
outerShellOut2
 62
7
100
AcDbLine
 10
253.255250
 20
273.023720
 30
0.0
 11
248.005530
 21
274.678514
 31
0.0
  0
LINE
  5
235
100
AcDbEntity
  8
outerShellOut2
 62
7
100
AcDbLine
 10
248.005530
 20
274.678514
 30
0.0
 11
242.877800
 21
276.048786
 31
0.0
  0
LINE
  5
236
100
AcDbEntity
  8
outerShellOut2
 62
7
100
AcDbLine
 10
242.877800
 20
276.048786
 30
0.0
 11
237.904740
 21
277.161339
 31
0.0
  0
LINE
  5
237
100
AcDbEntity
  8
outerShellOut2
 62
7
100
AcDbLine
 10
237.904740
 20
277.161339
 30
0.0
 11
233.119030
 21
278.042980
 31
0.0
  0
LINE
  5
238
100
AcDbEntity
  8
outerShellOut2
 62
7
100
AcDbLine
 10
233.119030
 20
278.042980
 30
0.0
 11
228.553360
 21
278.720513
 31
0.0
  0
LINE
  5
239
100
AcDbEntity
  8
outerShellOut2
 62
7
100
AcDbLine
 10
228.553360
 20
278.720513
 30
0.0
 11
224.240400
 21
279.220741
 31
0.0
  0
LINE
  5
23a
100
AcDbEntity
  8
outerShellOut2
 62
7
100
AcDbLine
 10
224.240400
 20
279.220741
 30
0.0
 11
220.212850
 21
279.570471
 31
0.0
  0
LINE
  5
23b
100
AcDbEntity
  8
outerShellOut2
 62
7
100
AcDbLine
 10
220.212850
 20
279.570471
 30
0.0
 11
216.503380
 21
279.796506
 31
0.0
  0
LINE
  5
23c
100
AcDbEntity
  8
outerShellOut2
 62
7
100
AcDbLine
 10
216.503380
 20
279.796506
 30
0.0
 11
213.144670
 21
279.925651
 31
0.0
  0
LINE
  5
23d
100
AcDbEntity
  8
outerShellOut2
 62
7
100
AcDbLine
 10
213.144670
 20
279.925651
 30
0.0
 11
210.169420
 21
279.984711
 31
0.0
  0
LINE
  5
23e
100
AcDbEntity
  8
outerShellOut2
 62
7
100
AcDbLine
 10
210.169420
 20
279.984711
 30
0.0
 11
207.610300
 21
280.000491
 31
0.0
  0
LINE
  5
23f
100
AcDbEntity
  8
outerShellOut2
 62
7
100
AcDbLine
 10
207.610300
 20
280.000491
 30
0.0
 11
205.500000
 21
279.999992
 31
0.0
  0
ENDSEC
  0
SECTION
  2
OBJECTS
  0
DICTIONARY
  5
C
330
0
100
AcDbDictionary
  3
ACAD_GROUP
350
D
  3
ACAD_MLINESTYLE
350
17
  0
DICTIONARY
  5
D
330
C
100
AcDbDictionary
  0
DICTIONARY
  5
1A
330
C
100
AcDbDictionary
  0
DICTIONARY
  5
17
330
C
100
AcDbDictionary
  3
STANDARD
350
18
  0
DICTIONARY
  5
19
330
C
100
AcDbDictionary
  0
ENDSEC
  0
EOF
