  0
SECTION
  2
HEADER
  9
$ACADVER
  1
AC1014
  9
$HANDSEED
  5
FFFF
  9
$MEASUREMENT
 70
     1
  0
ENDSEC
  0
SECTION
  2
TABLES
  0
TABLE
  2
VPORT
  5
8
330
0
100
AcDbSymbolTable
 70
     4
  0
VPORT
  5
2E
330
8
100
AcDbSymbolTableRecord
100
AcDbViewportTableRecord
  2
*ACTIVE
 70
     0
 10
0.0
 20
0.0
 11
1.0
 21
1.0
 12
210.0
 22
148.5
 13
0.0
 23
0.0
 14
10.0
 24
10.0
 15
10.0
 25
10.0
 16
0.0
 26
0.0
 36
1.0
 17
0.0
 27
0.0
 37
0.0
 40
341.0
 41
1.24
 42
50.0
 43
0.0
 44
0.0
 50
0.0
 51
0.0
 71
     0
 72
   100
 73
     1
 74
     3
 75
     0
 76
     0
 77
     0
 78
     0
  0
ENDTAB
  0
TABLE
  2
LTYPE
  5
5
330
0
100
AcDbSymbolTable
 70
     1
  0
LTYPE
  5
14
330
5
100
AcDbSymbolTableRecord
100
AcDbLinetypeTableRecord
  2
BYBLOCK
 70
     0
  3

 72
    65
 73
     0
 40
0.0
  0
LTYPE
  5
15
330
5
100
AcDbSymbolTableRecord
100
AcDbLinetypeTableRecord
  2
BYLAYER
 70
     0
  3

 72
    65
 73
     0
 40
0.0
  0
LTYPE
  5
16
330
5
100
AcDbSymbolTableRecord
100
AcDbLinetypeTableRecord
  2
CONTINUOUS
 70
     0
  3
Solid line
 72
    65
 73
     0
 40
0.0
  0
ENDTAB
  0
TABLE
  2
LAYER
  5
2
100
AcDbSymbolTable
 70
7
  0
LAYER
  5
50
100
AcDbSymbolTableRecord
100
AcDbLayerTableRecord
  2
0
 70
0
  6
CONTINUOUS
  0
LAYER
  5
51
100
AcDbSymbolTableRecord
100
AcDbLayerTableRecord
  2
woodIn
 70
0
  6
CONTINUOUS
  0
LAYER
  5
52
100
AcDbSymbolTableRecord
100
AcDbLayerTableRecord
  2
woodOut
 70
0
  6
CONTINUOUS
  0
LAYER
  5
53
100
AcDbSymbolTableRecord
100
AcDbLayerTableRecord
  2
outerShellIn
 70
0
  6
CONTINUOUS
  0
LAYER
  5
54
100
AcDbSymbolTableRecord
100
AcDbLayerTableRecord
  2
outerShellOut
 70
0
  6
CONTINUOUS
  0
LAYER
  5
55
100
AcDbSymbolTableRecord
100
AcDbLayerTableRecord
  2
innerShellOut
 70
0
  6
CONTINUOUS
  0
LAYER
  5
56
100
AcDbSymbolTableRecord
100
AcDbLayerTableRecord
  2
innerShellIn
 70
0
  6
CONTINUOUS
  0
ENDTAB
  0
TABLE
  2
STYLE
  5
3
330
0
100
AcDbSymbolTable
 70
     1
  0
STYLE
  5
11
330
3
100
AcDbSymbolTableRecord
100
AcDbTextStyleTableRecord
  2
STANDARD
 70
     0
 40
0.0
 41
1.0
 50
0.0
 71
     0
 42
2.5
  3
txt
  4

  0
ENDTAB
  0
TABLE
  2
VIEW
  5
6
330
0
100
AcDbSymbolTable
 70
     0
  0
ENDTAB
  0
TABLE
  2
UCS
  5
7
330
0
100
AcDbSymbolTable
 70
     0
  0
ENDTAB
  0
TABLE
  2
APPID
  5
9
330
0
100
AcDbSymbolTable
 70
     2
  0
APPID
  5
12
330
9
100
AcDbSymbolTableRecord
100
AcDbRegAppTableRecord
  2
ACAD
 70
     0
  0
ENDTAB
  0
TABLE
  2
DIMSTYLE
  5
A
330
0
100
AcDbSymbolTable
 70
     1
  0
DIMSTYLE
105
27
330
A
100
AcDbSymbolTableRecord
100
AcDbDimStyleTableRecord
  2
ISO-25
 70
     0
  3

  4

  5

  6

  7

 40
1.0
 41
2.5
 42
0.625
 43
3.75
 44
1.25
 45
0.0
 46
0.0
 47
0.0
 48
0.0
140
2.5
141
2.5
142
0.0
143
0.03937007874016
144
1.0
145
0.0
146
1.0
147
0.625
 71
     0
 72
     0
 73
     0
 74
     0
 75
     0
 76
     0
 77
     1
 78
     8
170
     0
171
     3
172
     1
173
     0
174
     0
175
     0
176
     0
177
     0
178
     0
270
     2
271
     2
272
     2
273
     2
274
     3
340
11
275
     0
280
     0
281
     0
282
     0
283
     0
284
     8
285
     0
286
     0
287
     3
288
     0
  0
ENDTAB
  0
TABLE
  2
BLOCK_RECORD
  5
1
330
0
100
AcDbSymbolTable
 70
     1
  0
BLOCK_RECORD
  5
1F
330
1
100
AcDbSymbolTableRecord
100
AcDbBlockTableRecord
  2
*MODEL_SPACE
  0
BLOCK_RECORD
  5
1B
330
1
100
AcDbSymbolTableRecord
100
AcDbBlockTableRecord
  2
*PAPER_SPACE
  0
ENDTAB
  0
ENDSEC
  0
SECTION
  2
BLOCKS
  0
BLOCK
  5
20
330
1F
100
AcDbEntity
  8
0
100
AcDbBlockBegin
  2
*MODEL_SPACE
 70
     0
 10
0.0
 20
0.0
 30
0.0
  3
*MODEL_SPACE
  1

  0
ENDBLK
  5
21
330
1F
100
AcDbEntity
  8
0
100
AcDbBlockEnd
  0
BLOCK
  5
1C
330
1B
100
AcDbEntity
 67
     1
  8
0
100
AcDbBlockBegin
  2
*PAPER_SPACE
  1

  0
ENDBLK
  5
1D
330
1B
100
AcDbEntity
 67
     1
  8
0
100
AcDbBlockEnd
  0
ENDSEC
  0
SECTION
  2
ENTITIES
  0
LINE
  5
100
100
AcDbEntity
  8
innerShellIn
 62
7
100
AcDbLine
 10
18.500000
 20
164.000000
 30
0.0
 11
20.187500
 21
164.000000
 31
0.0
  0
LINE
  5
101
100
AcDbEntity
  8
innerShellIn
 62
7
100
AcDbLine
 10
20.187500
 20
164.000000
 30
0.0
 11
21.875000
 21
164.000000
 31
0.0
  0
LINE
  5
102
100
AcDbEntity
  8
innerShellIn
 62
7
100
AcDbLine
 10
21.875000
 20
164.000000
 30
0.0
 11
23.562500
 21
164.000000
 31
0.0
  0
LINE
  5
103
100
AcDbEntity
  8
innerShellIn
 62
7
100
AcDbLine
 10
23.562500
 20
164.000000
 30
0.0
 11
25.250000
 21
164.000000
 31
0.0
  0
LINE
  5
104
100
AcDbEntity
  8
innerShellIn
 62
7
100
AcDbLine
 10
25.250000
 20
164.000000
 30
0.0
 11
26.937500
 21
164.000000
 31
0.0
  0
LINE
  5
105
100
AcDbEntity
  8
innerShellIn
 62
7
100
AcDbLine
 10
26.937500
 20
164.000000
 30
0.0
 11
28.625000
 21
164.000000
 31
0.0
  0
LINE
  5
106
100
AcDbEntity
  8
innerShellIn
 62
7
100
AcDbLine
 10
28.625000
 20
164.000000
 30
0.0
 11
30.312500
 21
164.000000
 31
0.0
  0
LINE
  5
107
100
AcDbEntity
  8
innerShellIn
 62
7
100
AcDbLine
 10
30.312500
 20
164.000000
 30
0.0
 11
32.000000
 21
164.000000
 31
0.0
  0
LINE
  5
108
100
AcDbEntity
  8
innerShellIn
 62
7
100
AcDbLine
 10
32.000000
 20
164.000000
 30
0.0
 11
33.687500
 21
164.000000
 31
0.0
  0
LINE
  5
109
100
AcDbEntity
  8
innerShellIn
 62
7
100
AcDbLine
 10
33.687500
 20
164.000000
 30
0.0
 11
35.375000
 21
164.000000
 31
0.0
  0
LINE
  5
10a
100
AcDbEntity
  8
innerShellIn
 62
7
100
AcDbLine
 10
35.375000
 20
164.000000
 30
0.0
 11
37.062500
 21
164.000000
 31
0.0
  0
LINE
  5
10b
100
AcDbEntity
  8
innerShellIn
 62
7
100
AcDbLine
 10
37.062500
 20
164.000000
 30
0.0
 11
38.750000
 21
164.000000
 31
0.0
  0
LINE
  5
10c
100
AcDbEntity
  8
innerShellIn
 62
7
100
AcDbLine
 10
38.750000
 20
164.000000
 30
0.0
 11
40.437500
 21
164.000000
 31
0.0
  0
LINE
  5
10d
100
AcDbEntity
  8
innerShellIn
 62
7
100
AcDbLine
 10
40.437500
 20
164.000000
 30
0.0
 11
42.125000
 21
164.000000
 31
0.0
  0
LINE
  5
10e
100
AcDbEntity
  8
innerShellIn
 62
7
100
AcDbLine
 10
42.125000
 20
164.000000
 30
0.0
 11
43.812500
 21
164.000000
 31
0.0
  0
LINE
  5
10f
100
AcDbEntity
  8
innerShellIn
 62
7
100
AcDbLine
 10
43.812500
 20
164.000000
 30
0.0
 11
45.500000
 21
164.000000
 31
0.0
  0
LINE
  5
110
100
AcDbEntity
  8
innerShellIn
 62
7
100
AcDbLine
 10
45.500000
 20
164.000000
 30
0.0
 11
46.807802
 21
164.040500
 31
0.0
  0
LINE
  5
111
100
AcDbEntity
  8
innerShellIn
 62
7
100
AcDbLine
 10
46.807802
 20
164.040500
 30
0.0
 11
48.103047
 21
164.160310
 31
0.0
  0
LINE
  5
112
100
AcDbEntity
  8
innerShellIn
 62
7
100
AcDbLine
 10
48.103047
 20
164.160310
 30
0.0
 11
49.380994
 21
164.357040
 31
0.0
  0
LINE
  5
113
100
AcDbEntity
  8
innerShellIn
 62
7
100
AcDbLine
 10
49.380994
 20
164.357040
 30
0.0
 11
50.636906
 21
164.628300
 31
0.0
  0
LINE
  5
114
100
AcDbEntity
  8
innerShellIn
 62
7
100
AcDbLine
 10
50.636906
 20
164.628300
 30
0.0
 11
51.866040
 21
164.971680
 31
0.0
  0
LINE
  5
115
100
AcDbEntity
  8
innerShellIn
 62
7
100
AcDbLine
 10
51.866040
 20
164.971680
 30
0.0
 11
53.063658
 21
165.384770
 31
0.0
  0
LINE
  5
116
100
AcDbEntity
  8
innerShellIn
 62
7
100
AcDbLine
 10
53.063658
 20
165.384770
 30
0.0
 11
54.225020
 21
165.865160
 31
0.0
  0
LINE
  5
117
100
AcDbEntity
  8
innerShellIn
 62
7
100
AcDbLine
 10
54.225020
 20
165.865160
 30
0.0
 11
55.345386
 21
166.410450
 31
0.0
  0
LINE
  5
118
100
AcDbEntity
  8
innerShellIn
 62
7
100
AcDbLine
 10
55.345386
 20
166.410450
 30
0.0
 11
56.420016
 21
167.018230
 31
0.0
  0
LINE
  5
119
100
AcDbEntity
  8
innerShellIn
 62
7
100
AcDbLine
 10
56.420016
 20
167.018230
 30
0.0
 11
57.444170
 21
167.686100
 31
0.0
  0
LINE
  5
11a
100
AcDbEntity
  8
innerShellIn
 62
7
100
AcDbLine
 10
57.444170
 20
167.686100
 30
0.0
 11
58.413108
 21
168.411640
 31
0.0
  0
LINE
  5
11b
100
AcDbEntity
  8
innerShellIn
 62
7
100
AcDbLine
 10
58.413108
 20
168.411640
 30
0.0
 11
59.322091
 21
169.192460
 31
0.0
  0
LINE
  5
11c
100
AcDbEntity
  8
innerShellIn
 62
7
100
AcDbLine
 10
59.322091
 20
169.192460
 30
0.0
 11
60.166379
 21
170.026150
 31
0.0
  0
LINE
  5
11d
100
AcDbEntity
  8
innerShellIn
 62
7
100
AcDbLine
 10
60.166379
 20
170.026150
 30
0.0
 11
60.941232
 21
170.910290
 31
0.0
  0
LINE
  5
11e
100
AcDbEntity
  8
innerShellIn
 62
7
100
AcDbLine
 10
60.941232
 20
170.910290
 30
0.0
 11
61.641909
 21
171.842490
 31
0.0
  0
LINE
  5
11f
100
AcDbEntity
  8
innerShellIn
 62
7
100
AcDbLine
 10
61.641909
 20
171.842490
 30
0.0
 11
62.263672
 21
172.820340
 31
0.0
  0
LINE
  5
120
100
AcDbEntity
  8
innerShellIn
 62
7
100
AcDbLine
 10
62.263672
 20
172.820340
 30
0.0
 11
62.809721
 21
173.825050
 31
0.0
  0
LINE
  5
121
100
AcDbEntity
  8
innerShellIn
 62
7
100
AcDbLine
 10
62.809721
 20
173.825050
 30
0.0
 11
63.288509
 21
174.838690
 31
0.0
  0
LINE
  5
122
100
AcDbEntity
  8
innerShellIn
 62
7
100
AcDbLine
 10
63.288509
 20
174.838690
 30
0.0
 11
63.703176
 21
175.860100
 31
0.0
  0
LINE
  5
123
100
AcDbEntity
  8
innerShellIn
 62
7
100
AcDbLine
 10
63.703176
 20
175.860100
 30
0.0
 11
64.056861
 21
176.888150
 31
0.0
  0
LINE
  5
124
100
AcDbEntity
  8
innerShellIn
 62
7
100
AcDbLine
 10
64.056861
 20
176.888150
 30
0.0
 11
64.352705
 21
177.921700
 31
0.0
  0
LINE
  5
125
100
AcDbEntity
  8
innerShellIn
 62
7
100
AcDbLine
 10
64.352705
 20
177.921700
 30
0.0
 11
64.593849
 21
178.959590
 31
0.0
  0
LINE
  5
126
100
AcDbEntity
  8
innerShellIn
 62
7
100
AcDbLine
 10
64.593849
 20
178.959590
 30
0.0
 11
64.783430
 21
180.000690
 31
0.0
  0
LINE
  5
127
100
AcDbEntity
  8
innerShellIn
 62
7
100
AcDbLine
 10
64.783430
 20
180.000690
 30
0.0
 11
64.924591
 21
181.043850
 31
0.0
  0
LINE
  5
128
100
AcDbEntity
  8
innerShellIn
 62
7
100
AcDbLine
 10
64.924591
 20
181.043850
 30
0.0
 11
65.020471
 21
182.087940
 31
0.0
  0
LINE
  5
129
100
AcDbEntity
  8
innerShellIn
 62
7
100
AcDbLine
 10
65.020471
 20
182.087940
 30
0.0
 11
65.074211
 21
183.131790
 31
0.0
  0
LINE
  5
12a
100
AcDbEntity
  8
innerShellIn
 62
7
100
AcDbLine
 10
65.074211
 20
183.131790
 30
0.0
 11
65.088951
 21
184.174280
 31
0.0
  0
LINE
  5
12b
100
AcDbEntity
  8
innerShellIn
 62
7
100
AcDbLine
 10
65.088951
 20
184.174280
 30
0.0
 11
65.067821
 21
185.214260
 31
0.0
  0
LINE
  5
12c
100
AcDbEntity
  8
innerShellIn
 62
7
100
AcDbLine
 10
65.067821
 20
185.214260
 30
0.0
 11
65.013971
 21
186.250590
 31
0.0
  0
LINE
  5
12d
100
AcDbEntity
  8
innerShellIn
 62
7
100
AcDbLine
 10
65.013971
 20
186.250590
 30
0.0
 11
64.930541
 21
187.282110
 31
0.0
  0
LINE
  5
12e
100
AcDbEntity
  8
innerShellIn
 62
7
100
AcDbLine
 10
64.930541
 20
187.282110
 30
0.0
 11
64.820671
 21
188.307700
 31
0.0
  0
LINE
  5
12f
100
AcDbEntity
  8
innerShellIn
 62
7
100
AcDbLine
 10
64.820671
 20
188.307700
 30
0.0
 11
64.687499
 21
189.326200
 31
0.0
  0
LINE
  5
130
100
AcDbEntity
  8
innerShellIn
 62
7
100
AcDbLine
 10
64.687499
 20
189.326200
 30
0.0
 11
64.359759
 21
191.349980
 31
0.0
  0
LINE
  5
131
100
AcDbEntity
  8
innerShellIn
 62
7
100
AcDbLine
 10
64.359759
 20
191.349980
 30
0.0
 11
63.953121
 21
193.359810
 31
0.0
  0
LINE
  5
132
100
AcDbEntity
  8
innerShellIn
 62
7
100
AcDbLine
 10
63.953121
 20
193.359810
 30
0.0
 11
63.469806
 21
195.350900
 31
0.0
  0
LINE
  5
133
100
AcDbEntity
  8
innerShellIn
 62
7
100
AcDbLine
 10
63.469806
 20
195.350900
 30
0.0
 11
62.912032
 21
197.318457
 31
0.0
  0
LINE
  5
134
100
AcDbEntity
  8
innerShellIn
 62
7
100
AcDbLine
 10
62.912032
 20
197.318457
 30
0.0
 11
62.282018
 21
199.257693
 31
0.0
  0
LINE
  5
135
100
AcDbEntity
  8
innerShellIn
 62
7
100
AcDbLine
 10
62.282018
 20
199.257693
 30
0.0
 11
61.581984
 21
201.163814
 31
0.0
  0
LINE
  5
136
100
AcDbEntity
  8
innerShellIn
 62
7
100
AcDbLine
 10
61.581984
 20
201.163814
 30
0.0
 11
60.814149
 21
203.032029
 31
0.0
  0
LINE
  5
137
100
AcDbEntity
  8
innerShellIn
 62
7
100
AcDbLine
 10
60.814149
 20
203.032029
 30
0.0
 11
59.980732
 21
204.857548
 31
0.0
  0
LINE
  5
138
100
AcDbEntity
  8
innerShellIn
 62
7
100
AcDbLine
 10
59.980732
 20
204.857548
 30
0.0
 11
59.083952
 21
206.635578
 31
0.0
  0
LINE
  5
139
100
AcDbEntity
  8
innerShellIn
 62
7
100
AcDbLine
 10
59.083952
 20
206.635578
 30
0.0
 11
58.126028
 21
208.361328
 31
0.0
  0
LINE
  5
13a
100
AcDbEntity
  8
innerShellIn
 62
7
100
AcDbLine
 10
58.126028
 20
208.361328
 30
0.0
 11
57.109181
 21
210.030007
 31
0.0
  0
LINE
  5
13b
100
AcDbEntity
  8
innerShellIn
 62
7
100
AcDbLine
 10
57.109181
 20
210.030007
 30
0.0
 11
56.035628
 21
211.636824
 31
0.0
  0
LINE
  5
13c
100
AcDbEntity
  8
innerShellIn
 62
7
100
AcDbLine
 10
56.035628
 20
211.636824
 30
0.0
 11
54.907589
 21
213.176987
 31
0.0
  0
LINE
  5
13d
100
AcDbEntity
  8
innerShellIn
 62
7
100
AcDbLine
 10
54.907589
 20
213.176987
 30
0.0
 11
53.727284
 21
214.645705
 31
0.0
  0
LINE
  5
13e
100
AcDbEntity
  8
innerShellIn
 62
7
100
AcDbLine
 10
53.727284
 20
214.645705
 30
0.0
 11
52.496931
 21
216.038186
 31
0.0
  0
LINE
  5
13f
100
AcDbEntity
  8
innerShellIn
 62
7
100
AcDbLine
 10
52.496931
 20
216.038186
 30
0.0
 11
51.218750
 21
217.349639
 31
0.0
  0
LINE
  5
140
100
AcDbEntity
  8
innerShellIn
 62
7
100
AcDbLine
 10
51.218750
 20
217.349639
 30
0.0
 11
50.512030
 21
218.062467
 31
0.0
  0
LINE
  5
141
100
AcDbEntity
  8
innerShellIn
 62
7
100
AcDbLine
 10
50.512030
 20
218.062467
 30
0.0
 11
49.765142
 21
218.860058
 31
0.0
  0
LINE
  5
142
100
AcDbEntity
  8
innerShellIn
 62
7
100
AcDbLine
 10
49.765142
 20
218.860058
 30
0.0
 11
48.987893
 21
219.730738
 31
0.0
  0
LINE
  5
143
100
AcDbEntity
  8
innerShellIn
 62
7
100
AcDbLine
 10
48.987893
 20
219.730738
 30
0.0
 11
48.190093
 21
220.662833
 31
0.0
  0
LINE
  5
144
100
AcDbEntity
  8
innerShellIn
 62
7
100
AcDbLine
 10
48.190093
 20
220.662833
 30
0.0
 11
47.381551
 21
221.644666
 31
0.0
  0
LINE
  5
145
100
AcDbEntity
  8
innerShellIn
 62
7
100
AcDbLine
 10
47.381551
 20
221.644666
 30
0.0
 11
46.572076
 21
222.664565
 31
0.0
  0
LINE
  5
146
100
AcDbEntity
  8
innerShellIn
 62
7
100
AcDbLine
 10
46.572076
 20
222.664565
 30
0.0
 11
45.771477
 21
223.710854
 31
0.0
  0
LINE
  5
147
100
AcDbEntity
  8
innerShellIn
 62
7
100
AcDbLine
 10
45.771477
 20
223.710854
 30
0.0
 11
44.989562
 21
224.771858
 31
0.0
  0
LINE
  5
148
100
AcDbEntity
  8
innerShellIn
 62
7
100
AcDbLine
 10
44.989562
 20
224.771858
 30
0.0
 11
44.236142
 21
225.835904
 31
0.0
  0
LINE
  5
149
100
AcDbEntity
  8
innerShellIn
 62
7
100
AcDbLine
 10
44.236142
 20
225.835904
 30
0.0
 11
43.521024
 21
226.891316
 31
0.0
  0
LINE
  5
14a
100
AcDbEntity
  8
innerShellIn
 62
7
100
AcDbLine
 10
43.521024
 20
226.891316
 30
0.0
 11
42.854018
 21
227.926420
 31
0.0
  0
LINE
  5
14b
100
AcDbEntity
  8
innerShellIn
 62
7
100
AcDbLine
 10
42.854018
 20
227.926420
 30
0.0
 11
42.244933
 21
228.929540
 31
0.0
  0
LINE
  5
14c
100
AcDbEntity
  8
innerShellIn
 62
7
100
AcDbLine
 10
42.244933
 20
228.929540
 30
0.0
 11
41.703578
 21
229.889004
 31
0.0
  0
LINE
  5
14d
100
AcDbEntity
  8
innerShellIn
 62
7
100
AcDbLine
 10
41.703578
 20
229.889004
 30
0.0
 11
41.239762
 21
230.793135
 31
0.0
  0
LINE
  5
14e
100
AcDbEntity
  8
innerShellIn
 62
7
100
AcDbLine
 10
41.239762
 20
230.793135
 30
0.0
 11
40.863294
 21
231.630259
 31
0.0
  0
LINE
  5
14f
100
AcDbEntity
  8
innerShellIn
 62
7
100
AcDbLine
 10
40.863294
 20
231.630259
 30
0.0
 11
40.583982
 21
232.388702
 31
0.0
  0
LINE
  5
150
100
AcDbEntity
  8
innerShellIn
 62
7
100
AcDbLine
 10
40.583982
 20
232.388702
 30
0.0
 11
40.545452
 21
232.510582
 31
0.0
  0
LINE
  5
151
100
AcDbEntity
  8
innerShellIn
 62
7
100
AcDbLine
 10
40.545452
 20
232.510582
 30
0.0
 11
40.511242
 21
232.620233
 31
0.0
  0
LINE
  5
152
100
AcDbEntity
  8
innerShellIn
 62
7
100
AcDbLine
 10
40.511242
 20
232.620233
 30
0.0
 11
40.481022
 21
232.718563
 31
0.0
  0
LINE
  5
153
100
AcDbEntity
  8
innerShellIn
 62
7
100
AcDbLine
 10
40.481022
 20
232.718563
 30
0.0
 11
40.454462
 21
232.806483
 31
0.0
  0
LINE
  5
154
100
AcDbEntity
  8
innerShellIn
 62
7
100
AcDbLine
 10
40.454462
 20
232.806483
 30
0.0
 11
40.431232
 21
232.884903
 31
0.0
  0
LINE
  5
155
100
AcDbEntity
  8
innerShellIn
 62
7
100
AcDbLine
 10
40.431232
 20
232.884903
 30
0.0
 11
40.411002
 21
232.954743
 31
0.0
  0
LINE
  5
156
100
AcDbEntity
  8
innerShellIn
 62
7
100
AcDbLine
 10
40.411002
 20
232.954743
 30
0.0
 11
40.393432
 21
233.016903
 31
0.0
  0
LINE
  5
157
100
AcDbEntity
  8
innerShellIn
 62
7
100
AcDbLine
 10
40.393432
 20
233.016903
 30
0.0
 11
40.378202
 21
233.072293
 31
0.0
  0
LINE
  5
158
100
AcDbEntity
  8
innerShellIn
 62
7
100
AcDbLine
 10
40.378202
 20
233.072293
 30
0.0
 11
40.364982
 21
233.121823
 31
0.0
  0
LINE
  5
159
100
AcDbEntity
  8
innerShellIn
 62
7
100
AcDbLine
 10
40.364982
 20
233.121823
 30
0.0
 11
40.353432
 21
233.166403
 31
0.0
  0
LINE
  5
15a
100
AcDbEntity
  8
innerShellIn
 62
7
100
AcDbLine
 10
40.353432
 20
233.166403
 30
0.0
 11
40.343232
 21
233.206943
 31
0.0
  0
LINE
  5
15b
100
AcDbEntity
  8
innerShellIn
 62
7
100
AcDbLine
 10
40.343232
 20
233.206943
 30
0.0
 11
40.334032
 21
233.244353
 31
0.0
  0
LINE
  5
15c
100
AcDbEntity
  8
innerShellIn
 62
7
100
AcDbLine
 10
40.334032
 20
233.244353
 30
0.0
 11
40.325532
 21
233.279543
 31
0.0
  0
LINE
  5
15d
100
AcDbEntity
  8
innerShellIn
 62
7
100
AcDbLine
 10
40.325532
 20
233.279543
 30
0.0
 11
40.317332
 21
233.313423
 31
0.0
  0
LINE
  5
15e
100
AcDbEntity
  8
innerShellIn
 62
7
100
AcDbLine
 10
40.317332
 20
233.313423
 30
0.0
 11
40.309232
 21
233.346903
 31
0.0
  0
LINE
  5
15f
100
AcDbEntity
  8
innerShellIn
 62
7
100
AcDbLine
 10
40.309232
 20
233.346903
 30
0.0
 11
40.300732
 21
233.380893
 31
0.0
  0
LINE
  5
160
100
AcDbEntity
  8
innerShellIn
 62
7
100
AcDbLine
 10
40.300732
 20
233.380893
 30
0.0
 11
40.384782
 21
233.413493
 31
0.0
  0
LINE
  5
161
100
AcDbEntity
  8
innerShellIn
 62
7
100
AcDbLine
 10
40.384782
 20
233.413493
 30
0.0
 11
40.488857
 21
233.452173
 31
0.0
  0
LINE
  5
162
100
AcDbEntity
  8
innerShellIn
 62
7
100
AcDbLine
 10
40.488857
 20
233.452173
 30
0.0
 11
40.615545
 21
233.495813
 31
0.0
  0
LINE
  5
163
100
AcDbEntity
  8
innerShellIn
 62
7
100
AcDbLine
 10
40.615545
 20
233.495813
 30
0.0
 11
40.767438
 21
233.543283
 31
0.0
  0
LINE
  5
164
100
AcDbEntity
  8
innerShellIn
 62
7
100
AcDbLine
 10
40.767438
 20
233.543283
 30
0.0
 11
40.947129
 21
233.593443
 31
0.0
  0
LINE
  5
165
100
AcDbEntity
  8
innerShellIn
 62
7
100
AcDbLine
 10
40.947129
 20
233.593443
 30
0.0
 11
41.157212
 21
233.645173
 31
0.0
  0
LINE
  5
166
100
AcDbEntity
  8
innerShellIn
 62
7
100
AcDbLine
 10
41.157212
 20
233.645173
 30
0.0
 11
41.400279
 21
233.697343
 31
0.0
  0
LINE
  5
167
100
AcDbEntity
  8
innerShellIn
 62
7
100
AcDbLine
 10
41.400279
 20
233.697343
 30
0.0
 11
41.678921
 21
233.748813
 31
0.0
  0
LINE
  5
168
100
AcDbEntity
  8
innerShellIn
 62
7
100
AcDbLine
 10
41.678921
 20
233.748813
 30
0.0
 11
41.995733
 21
233.798463
 31
0.0
  0
LINE
  5
169
100
AcDbEntity
  8
innerShellIn
 62
7
100
AcDbLine
 10
41.995733
 20
233.798463
 30
0.0
 11
42.353308
 21
233.845163
 31
0.0
  0
LINE
  5
16a
100
AcDbEntity
  8
innerShellIn
 62
7
100
AcDbLine
 10
42.353308
 20
233.845163
 30
0.0
 11
42.754236
 21
233.887773
 31
0.0
  0
LINE
  5
16b
100
AcDbEntity
  8
innerShellIn
 62
7
100
AcDbLine
 10
42.754236
 20
233.887773
 30
0.0
 11
43.201112
 21
233.925173
 31
0.0
  0
LINE
  5
16c
100
AcDbEntity
  8
innerShellIn
 62
7
100
AcDbLine
 10
43.201112
 20
233.925173
 30
0.0
 11
43.696529
 21
233.956233
 31
0.0
  0
LINE
  5
16d
100
AcDbEntity
  8
innerShellIn
 62
7
100
AcDbLine
 10
43.696529
 20
233.956233
 30
0.0
 11
44.243078
 21
233.979813
 31
0.0
  0
LINE
  5
16e
100
AcDbEntity
  8
innerShellIn
 62
7
100
AcDbLine
 10
44.243078
 20
233.979813
 30
0.0
 11
44.843353
 21
233.994793
 31
0.0
  0
LINE
  5
16f
100
AcDbEntity
  8
innerShellIn
 62
7
100
AcDbLine
 10
44.843353
 20
233.994793
 30
0.0
 11
45.500000
 21
234.000000
 31
0.0
  0
LINE
  5
170
100
AcDbEntity
  8
innerShellIn
 62
7
100
AcDbLine
 10
45.500000
 20
234.000000
 30
0.0
 11
47.481505
 21
233.966860
 31
0.0
  0
LINE
  5
171
100
AcDbEntity
  8
innerShellIn
 62
7
100
AcDbLine
 10
47.481505
 20
233.966860
 30
0.0
 11
49.345061
 21
233.869500
 31
0.0
  0
LINE
  5
172
100
AcDbEntity
  8
innerShellIn
 62
7
100
AcDbLine
 10
49.345061
 20
233.869500
 30
0.0
 11
51.100480
 21
233.710969
 31
0.0
  0
LINE
  5
173
100
AcDbEntity
  8
innerShellIn
 62
7
100
AcDbLine
 10
51.100480
 20
233.710969
 30
0.0
 11
52.757573
 21
233.494330
 31
0.0
  0
LINE
  5
174
100
AcDbEntity
  8
innerShellIn
 62
7
100
AcDbLine
 10
52.757573
 20
233.494330
 30
0.0
 11
54.326153
 21
233.222646
 31
0.0
  0
LINE
  5
175
100
AcDbEntity
  8
innerShellIn
 62
7
100
AcDbLine
 10
54.326153
 20
233.222646
 30
0.0
 11
55.816033
 21
232.898977
 31
0.0
  0
LINE
  5
176
100
AcDbEntity
  8
innerShellIn
 62
7
100
AcDbLine
 10
55.816033
 20
232.898977
 30
0.0
 11
57.237023
 21
232.526385
 31
0.0
  0
LINE
  5
177
100
AcDbEntity
  8
innerShellIn
 62
7
100
AcDbLine
 10
57.237023
 20
232.526385
 30
0.0
 11
58.598937
 21
232.107930
 31
0.0
  0
LINE
  5
178
100
AcDbEntity
  8
innerShellIn
 62
7
100
AcDbLine
 10
58.598937
 20
232.107930
 30
0.0
 11
59.911585
 21
231.646673
 31
0.0
  0
LINE
  5
179
100
AcDbEntity
  8
innerShellIn
 62
7
100
AcDbLine
 10
59.911585
 20
231.646673
 30
0.0
 11
61.184781
 21
231.145676
 31
0.0
  0
LINE
  5
17a
100
AcDbEntity
  8
innerShellIn
 62
7
100
AcDbLine
 10
61.184781
 20
231.145676
 30
0.0
 11
62.428336
 21
230.607999
 31
0.0
  0
LINE
  5
17b
100
AcDbEntity
  8
innerShellIn
 62
7
100
AcDbLine
 10
62.428336
 20
230.607999
 30
0.0
 11
63.652062
 21
230.036704
 31
0.0
  0
LINE
  5
17c
100
AcDbEntity
  8
innerShellIn
 62
7
100
AcDbLine
 10
63.652062
 20
230.036704
 30
0.0
 11
64.865772
 21
229.434852
 31
0.0
  0
LINE
  5
17d
100
AcDbEntity
  8
innerShellIn
 62
7
100
AcDbLine
 10
64.865772
 20
229.434852
 30
0.0
 11
66.079277
 21
228.805503
 31
0.0
  0
LINE
  5
17e
100
AcDbEntity
  8
innerShellIn
 62
7
100
AcDbLine
 10
66.079277
 20
228.805503
 30
0.0
 11
67.302390
 21
228.151719
 31
0.0
  0
LINE
  5
17f
100
AcDbEntity
  8
innerShellIn
 62
7
100
AcDbLine
 10
67.302390
 20
228.151719
 30
0.0
 11
68.544922
 21
227.476561
 31
0.0
  0
LINE
  5
180
100
AcDbEntity
  8
innerShellIn
 62
7
100
AcDbLine
 10
68.544922
 20
227.476561
 30
0.0
 11
69.819282
 21
226.779468
 31
0.0
  0
LINE
  5
181
100
AcDbEntity
  8
innerShellIn
 62
7
100
AcDbLine
 10
69.819282
 20
226.779468
 30
0.0
 11
71.133464
 21
226.063696
 31
0.0
  0
LINE
  5
182
100
AcDbEntity
  8
innerShellIn
 62
7
100
AcDbLine
 10
71.133464
 20
226.063696
 30
0.0
 11
72.490659
 21
225.338026
 31
0.0
  0
LINE
  5
183
100
AcDbEntity
  8
innerShellIn
 62
7
100
AcDbLine
 10
72.490659
 20
225.338026
 30
0.0
 11
73.894056
 21
224.611242
 31
0.0
  0
LINE
  5
184
100
AcDbEntity
  8
innerShellIn
 62
7
100
AcDbLine
 10
73.894056
 20
224.611242
 30
0.0
 11
75.346848
 21
223.892128
 31
0.0
  0
LINE
  5
185
100
AcDbEntity
  8
innerShellIn
 62
7
100
AcDbLine
 10
75.346848
 20
223.892128
 30
0.0
 11
76.852223
 21
223.189466
 31
0.0
  0
LINE
  5
186
100
AcDbEntity
  8
innerShellIn
 62
7
100
AcDbLine
 10
76.852223
 20
223.189466
 30
0.0
 11
78.413372
 21
222.512039
 31
0.0
  0
LINE
  5
187
100
AcDbEntity
  8
innerShellIn
 62
7
100
AcDbLine
 10
78.413372
 20
222.512039
 30
0.0
 11
80.033487
 21
221.868630
 31
0.0
  0
LINE
  5
188
100
AcDbEntity
  8
innerShellIn
 62
7
100
AcDbLine
 10
80.033487
 20
221.868630
 30
0.0
 11
81.715757
 21
221.268023
 31
0.0
  0
LINE
  5
189
100
AcDbEntity
  8
innerShellIn
 62
7
100
AcDbLine
 10
81.715757
 20
221.268023
 30
0.0
 11
83.463372
 21
220.719001
 31
0.0
  0
LINE
  5
18a
100
AcDbEntity
  8
innerShellIn
 62
7
100
AcDbLine
 10
83.463372
 20
220.719001
 30
0.0
 11
85.279525
 21
220.230347
 31
0.0
  0
LINE
  5
18b
100
AcDbEntity
  8
innerShellIn
 62
7
100
AcDbLine
 10
85.279525
 20
220.230347
 30
0.0
 11
87.167404
 21
219.810843
 31
0.0
  0
LINE
  5
18c
100
AcDbEntity
  8
innerShellIn
 62
7
100
AcDbLine
 10
87.167404
 20
219.810843
 30
0.0
 11
89.130201
 21
219.469273
 31
0.0
  0
LINE
  5
18d
100
AcDbEntity
  8
innerShellIn
 62
7
100
AcDbLine
 10
89.130201
 20
219.469273
 30
0.0
 11
91.171105
 21
219.214421
 31
0.0
  0
LINE
  5
18e
100
AcDbEntity
  8
innerShellIn
 62
7
100
AcDbLine
 10
91.171105
 20
219.214421
 30
0.0
 11
93.293308
 21
219.055068
 31
0.0
  0
LINE
  5
18f
100
AcDbEntity
  8
innerShellIn
 62
7
100
AcDbLine
 10
93.293308
 20
219.055068
 30
0.0
 11
95.500000
 21
219.000000
 31
0.0
  0
LINE
  5
190
100
AcDbEntity
  8
innerShellIn
 62
7
100
AcDbLine
 10
95.500000
 20
219.000000
 30
0.0
 11
99.260634
 21
219.109674
 31
0.0
  0
LINE
  5
191
100
AcDbEntity
  8
innerShellIn
 62
7
100
AcDbLine
 10
99.260634
 20
219.109674
 30
0.0
 11
102.981470
 21
219.428507
 31
0.0
  0
LINE
  5
192
100
AcDbEntity
  8
innerShellIn
 62
7
100
AcDbLine
 10
102.981470
 20
219.428507
 30
0.0
 11
106.664680
 21
219.941215
 31
0.0
  0
LINE
  5
193
100
AcDbEntity
  8
innerShellIn
 62
7
100
AcDbLine
 10
106.664680
 20
219.941215
 30
0.0
 11
110.312400
 21
220.632515
 31
0.0
  0
LINE
  5
194
100
AcDbEntity
  8
innerShellIn
 62
7
100
AcDbLine
 10
110.312400
 20
220.632515
 30
0.0
 11
113.926810
 21
221.487122
 31
0.0
  0
LINE
  5
195
100
AcDbEntity
  8
innerShellIn
 62
7
100
AcDbLine
 10
113.926810
 20
221.487122
 30
0.0
 11
117.510060
 21
222.489752
 31
0.0
  0
LINE
  5
196
100
AcDbEntity
  8
innerShellIn
 62
7
100
AcDbLine
 10
117.510060
 20
222.489752
 30
0.0
 11
121.064300
 21
223.625123
 31
0.0
  0
LINE
  5
197
100
AcDbEntity
  8
innerShellIn
 62
7
100
AcDbLine
 10
121.064300
 20
223.625123
 30
0.0
 11
124.591700
 21
224.877950
 31
0.0
  0
LINE
  5
198
100
AcDbEntity
  8
innerShellIn
 62
7
100
AcDbLine
 10
124.591700
 20
224.877950
 30
0.0
 11
128.094420
 21
226.232948
 31
0.0
  0
LINE
  5
199
100
AcDbEntity
  8
innerShellIn
 62
7
100
AcDbLine
 10
128.094420
 20
226.232948
 30
0.0
 11
131.574600
 21
227.674836
 31
0.0
  0
LINE
  5
19a
100
AcDbEntity
  8
innerShellIn
 62
7
100
AcDbLine
 10
131.574600
 20
227.674836
 30
0.0
 11
135.034420
 21
229.188328
 31
0.0
  0
LINE
  5
19b
100
AcDbEntity
  8
innerShellIn
 62
7
100
AcDbLine
 10
135.034420
 20
229.188328
 30
0.0
 11
138.476030
 21
230.758140
 31
0.0
  0
LINE
  5
19c
100
AcDbEntity
  8
innerShellIn
 62
7
100
AcDbLine
 10
138.476030
 20
230.758140
 30
0.0
 11
141.901580
 21
232.368990
 31
0.0
  0
LINE
  5
19d
100
AcDbEntity
  8
innerShellIn
 62
7
100
AcDbLine
 10
141.901580
 20
232.368990
 30
0.0
 11
145.313240
 21
234.005592
 31
0.0
  0
LINE
  5
19e
100
AcDbEntity
  8
innerShellIn
 62
7
100
AcDbLine
 10
145.313240
 20
234.005592
 30
0.0
 11
148.713170
 21
235.652664
 31
0.0
  0
LINE
  5
19f
100
AcDbEntity
  8
innerShellIn
 62
7
100
AcDbLine
 10
148.713170
 20
235.652664
 30
0.0
 11
152.103520
 21
237.294922
 31
0.0
  0
LINE
  5
1a0
100
AcDbEntity
  8
innerShellIn
 62
7
100
AcDbLine
 10
152.103520
 20
237.294922
 30
0.0
 11
155.485320
 21
238.919324
 31
0.0
  0
LINE
  5
1a1
100
AcDbEntity
  8
innerShellIn
 62
7
100
AcDbLine
 10
155.485320
 20
238.919324
 30
0.0
 11
158.858530
 21
240.515937
 31
0.0
  0
LINE
  5
1a2
100
AcDbEntity
  8
innerShellIn
 62
7
100
AcDbLine
 10
158.858530
 20
240.515937
 30
0.0
 11
162.223720
 21
242.074134
 31
0.0
  0
LINE
  5
1a3
100
AcDbEntity
  8
innerShellIn
 62
7
100
AcDbLine
 10
162.223720
 20
242.074134
 30
0.0
 11
165.581470
 21
243.583289
 31
0.0
  0
LINE
  5
1a4
100
AcDbEntity
  8
innerShellIn
 62
7
100
AcDbLine
 10
165.581470
 20
243.583289
 30
0.0
 11
168.932340
 21
245.032776
 31
0.0
  0
LINE
  5
1a5
100
AcDbEntity
  8
innerShellIn
 62
7
100
AcDbLine
 10
168.932340
 20
245.032776
 30
0.0
 11
172.276890
 21
246.411970
 31
0.0
  0
LINE
  5
1a6
100
AcDbEntity
  8
innerShellIn
 62
7
100
AcDbLine
 10
172.276890
 20
246.411970
 30
0.0
 11
175.615690
 21
247.710243
 31
0.0
  0
LINE
  5
1a7
100
AcDbEntity
  8
innerShellIn
 62
7
100
AcDbLine
 10
175.615690
 20
247.710243
 30
0.0
 11
178.949320
 21
248.916971
 31
0.0
  0
LINE
  5
1a8
100
AcDbEntity
  8
innerShellIn
 62
7
100
AcDbLine
 10
178.949320
 20
248.916971
 30
0.0
 11
182.278330
 21
250.021526
 31
0.0
  0
LINE
  5
1a9
100
AcDbEntity
  8
innerShellIn
 62
7
100
AcDbLine
 10
182.278330
 20
250.021526
 30
0.0
 11
185.603300
 21
251.013283
 31
0.0
  0
LINE
  5
1aa
100
AcDbEntity
  8
innerShellIn
 62
7
100
AcDbLine
 10
185.603300
 20
251.013283
 30
0.0
 11
188.924800
 21
251.881616
 31
0.0
  0
LINE
  5
1ab
100
AcDbEntity
  8
innerShellIn
 62
7
100
AcDbLine
 10
188.924800
 20
251.881616
 30
0.0
 11
192.243380
 21
252.615898
 31
0.0
  0
LINE
  5
1ac
100
AcDbEntity
  8
innerShellIn
 62
7
100
AcDbLine
 10
192.243380
 20
252.615898
 30
0.0
 11
195.559630
 21
253.205503
 31
0.0
  0
LINE
  5
1ad
100
AcDbEntity
  8
innerShellIn
 62
7
100
AcDbLine
 10
195.559630
 20
253.205503
 30
0.0
 11
198.874100
 21
253.639806
 31
0.0
  0
LINE
  5
1ae
100
AcDbEntity
  8
innerShellIn
 62
7
100
AcDbLine
 10
198.874100
 20
253.639806
 30
0.0
 11
202.187370
 21
253.908181
 31
0.0
  0
LINE
  5
1af
100
AcDbEntity
  8
innerShellIn
 62
7
100
AcDbLine
 10
202.187370
 20
253.908181
 30
0.0
 11
205.500000
 21
254.000000
 31
0.0
  0
LINE
  5
1b0
100
AcDbEntity
  8
innerShellIn
 62
7
100
AcDbLine
 10
205.500000
 20
254.000000
 30
0.0
 11
207.538870
 21
253.994600
 31
0.0
  0
LINE
  5
1b1
100
AcDbEntity
  8
innerShellIn
 62
7
100
AcDbLine
 10
207.538870
 20
253.994600
 30
0.0
 11
209.888720
 21
253.966130
 31
0.0
  0
LINE
  5
1b2
100
AcDbEntity
  8
innerShellIn
 62
7
100
AcDbLine
 10
209.888720
 20
253.966130
 30
0.0
 11
212.524410
 21
253.896060
 31
0.0
  0
LINE
  5
1b3
100
AcDbEntity
  8
innerShellIn
 62
7
100
AcDbLine
 10
212.524410
 20
253.896060
 30
0.0
 11
215.420770
 21
253.765893
 31
0.0
  0
LINE
  5
1b4
100
AcDbEntity
  8
innerShellIn
 62
7
100
AcDbLine
 10
215.420770
 20
253.765893
 30
0.0
 11
218.552680
 21
253.557125
 31
0.0
  0
LINE
  5
1b5
100
AcDbEntity
  8
innerShellIn
 62
7
100
AcDbLine
 10
218.552680
 20
253.557125
 30
0.0
 11
221.894990
 21
253.251253
 31
0.0
  0
LINE
  5
1b6
100
AcDbEntity
  8
innerShellIn
 62
7
100
AcDbLine
 10
221.894990
 20
253.251253
 30
0.0
 11
225.422530
 21
252.829774
 31
0.0
  0
LINE
  5
1b7
100
AcDbEntity
  8
innerShellIn
 62
7
100
AcDbLine
 10
225.422530
 20
252.829774
 30
0.0
 11
229.110180
 21
252.274187
 31
0.0
  0
LINE
  5
1b8
100
AcDbEntity
  8
innerShellIn
 62
7
100
AcDbLine
 10
229.110180
 20
252.274187
 30
0.0
 11
232.932790
 21
251.565987
 31
0.0
  0
LINE
  5
1b9
100
AcDbEntity
  8
innerShellIn
 62
7
100
AcDbLine
 10
232.932790
 20
251.565987
 30
0.0
 11
236.865200
 21
250.686673
 31
0.0
  0
LINE
  5
1ba
100
AcDbEntity
  8
innerShellIn
 62
7
100
AcDbLine
 10
236.865200
 20
250.686673
 30
0.0
 11
240.882270
 21
249.617741
 31
0.0
  0
LINE
  5
1bb
100
AcDbEntity
  8
innerShellIn
 62
7
100
AcDbLine
 10
240.882270
 20
249.617741
 30
0.0
 11
244.958860
 21
248.340689
 31
0.0
  0
LINE
  5
1bc
100
AcDbEntity
  8
innerShellIn
 62
7
100
AcDbLine
 10
244.958860
 20
248.340689
 30
0.0
 11
249.069810
 21
246.837015
 31
0.0
  0
LINE
  5
1bd
100
AcDbEntity
  8
innerShellIn
 62
7
100
AcDbLine
 10
249.069810
 20
246.837015
 30
0.0
 11
253.189990
 21
245.088215
 31
0.0
  0
LINE
  5
1be
100
AcDbEntity
  8
innerShellIn
 62
7
100
AcDbLine
 10
253.189990
 20
245.088215
 30
0.0
 11
257.294240
 21
243.075787
 31
0.0
  0
LINE
  5
1bf
100
AcDbEntity
  8
innerShellIn
 62
7
100
AcDbLine
 10
257.294240
 20
243.075787
 30
0.0
 11
261.357420
 21
240.781229
 31
0.0
  0
LINE
  5
1c0
100
AcDbEntity
  8
innerShellIn
 62
7
100
AcDbLine
 10
261.357420
 20
240.781229
 30
0.0
 11
265.365210
 21
238.191975
 31
0.0
  0
LINE
  5
1c1
100
AcDbEntity
  8
innerShellIn
 62
7
100
AcDbLine
 10
265.365210
 20
238.191975
 30
0.0
 11
269.302730
 21
235.290128
 31
0.0
  0
LINE
  5
1c2
100
AcDbEntity
  8
innerShellIn
 62
7
100
AcDbLine
 10
269.302730
 20
235.290128
 30
0.0
 11
273.144000
 21
232.049184
 31
0.0
  0
LINE
  5
1c3
100
AcDbEntity
  8
innerShellIn
 62
7
100
AcDbLine
 10
273.144000
 20
232.049184
 30
0.0
 11
276.863040
 21
228.442640
 31
0.0
  0
LINE
  5
1c4
100
AcDbEntity
  8
innerShellIn
 62
7
100
AcDbLine
 10
276.863040
 20
228.442640
 30
0.0
 11
280.433870
 21
224.443992
 31
0.0
  0
LINE
  5
1c5
100
AcDbEntity
  8
innerShellIn
 62
7
100
AcDbLine
 10
280.433870
 20
224.443992
 30
0.0
 11
283.830500
 21
220.026737
 31
0.0
  0
LINE
  5
1c6
100
AcDbEntity
  8
innerShellIn
 62
7
100
AcDbLine
 10
283.830500
 20
220.026737
 30
0.0
 11
287.026950
 21
215.164371
 31
0.0
  0
LINE
  5
1c7
100
AcDbEntity
  8
innerShellIn
 62
7
100
AcDbLine
 10
287.026950
 20
215.164371
 30
0.0
 11
289.997240
 21
209.830390
 31
0.0
  0
LINE
  5
1c8
100
AcDbEntity
  8
innerShellIn
 62
7
100
AcDbLine
 10
289.997240
 20
209.830390
 30
0.0
 11
292.715390
 21
203.998291
 31
0.0
  0
LINE
  5
1c9
100
AcDbEntity
  8
innerShellIn
 62
7
100
AcDbLine
 10
292.715390
 20
203.998291
 30
0.0
 11
295.155410
 21
197.641569
 31
0.0
  0
LINE
  5
1ca
100
AcDbEntity
  8
innerShellIn
 62
7
100
AcDbLine
 10
295.155410
 20
197.641569
 30
0.0
 11
297.291340
 21
190.733719
 31
0.0
  0
LINE
  5
1cb
100
AcDbEntity
  8
innerShellIn
 62
7
100
AcDbLine
 10
297.291340
 20
190.733719
 30
0.0
 11
299.097170
 21
183.248249
 31
0.0
  0
LINE
  5
1cc
100
AcDbEntity
  8
innerShellIn
 62
7
100
AcDbLine
 10
299.097170
 20
183.248249
 30
0.0
 11
300.546940
 21
175.158639
 31
0.0
  0
LINE
  5
1cd
100
AcDbEntity
  8
innerShellIn
 62
7
100
AcDbLine
 10
300.546940
 20
175.158639
 30
0.0
 11
301.614650
 21
166.438389
 31
0.0
  0
LINE
  5
1ce
100
AcDbEntity
  8
innerShellIn
 62
7
100
AcDbLine
 10
301.614650
 20
166.438389
 30
0.0
 11
302.274330
 21
157.061009
 31
0.0
  0
LINE
  5
1cf
100
AcDbEntity
  8
innerShellIn
 62
7
100
AcDbLine
 10
302.274330
 20
157.061009
 30
0.0
 11
302.500000
 21
147.000000
 31
0.0
  0
LINE
  5
1d0
100
AcDbEntity
  8
innerShellIn
 62
7
100
AcDbLine
 10
302.500000
 20
147.000000
 30
0.0
 11
302.274330
 21
136.938970
 31
0.0
  0
LINE
  5
1d1
100
AcDbEntity
  8
innerShellIn
 62
7
100
AcDbLine
 10
302.274330
 20
136.938970
 30
0.0
 11
301.614650
 21
127.561590
 31
0.0
  0
LINE
  5
1d2
100
AcDbEntity
  8
innerShellIn
 62
7
100
AcDbLine
 10
301.614650
 20
127.561590
 30
0.0
 11
300.546940
 21
118.841340
 31
0.0
  0
LINE
  5
1d3
100
AcDbEntity
  8
innerShellIn
 62
7
100
AcDbLine
 10
300.546940
 20
118.841340
 30
0.0
 11
299.097170
 21
110.751730
 31
0.0
  0
LINE
  5
1d4
100
AcDbEntity
  8
innerShellIn
 62
7
100
AcDbLine
 10
299.097170
 20
110.751730
 30
0.0
 11
297.291340
 21
103.266250
 31
0.0
  0
LINE
  5
1d5
100
AcDbEntity
  8
innerShellIn
 62
7
100
AcDbLine
 10
297.291340
 20
103.266250
 30
0.0
 11
295.155420
 21
96.358410
 31
0.0
  0
LINE
  5
1d6
100
AcDbEntity
  8
innerShellIn
 62
7
100
AcDbLine
 10
295.155420
 20
96.358410
 30
0.0
 11
292.715390
 21
90.001690
 31
0.0
  0
LINE
  5
1d7
100
AcDbEntity
  8
innerShellIn
 62
7
100
AcDbLine
 10
292.715390
 20
90.001690
 30
0.0
 11
289.997240
 21
84.169590
 31
0.0
  0
LINE
  5
1d8
100
AcDbEntity
  8
innerShellIn
 62
7
100
AcDbLine
 10
289.997240
 20
84.169590
 30
0.0
 11
287.026950
 21
78.835610
 31
0.0
  0
LINE
  5
1d9
100
AcDbEntity
  8
innerShellIn
 62
7
100
AcDbLine
 10
287.026950
 20
78.835610
 30
0.0
 11
283.830500
 21
73.973240
 31
0.0
  0
LINE
  5
1da
100
AcDbEntity
  8
innerShellIn
 62
7
100
AcDbLine
 10
283.830500
 20
73.973240
 30
0.0
 11
280.433870
 21
69.555990
 31
0.0
  0
LINE
  5
1db
100
AcDbEntity
  8
innerShellIn
 62
7
100
AcDbLine
 10
280.433870
 20
69.555990
 30
0.0
 11
276.863040
 21
65.557340
 31
0.0
  0
LINE
  5
1dc
100
AcDbEntity
  8
innerShellIn
 62
7
100
AcDbLine
 10
276.863040
 20
65.557340
 30
0.0
 11
273.144010
 21
61.950790
 31
0.0
  0
LINE
  5
1dd
100
AcDbEntity
  8
innerShellIn
 62
7
100
AcDbLine
 10
273.144010
 20
61.950790
 30
0.0
 11
269.302730
 21
58.709850
 31
0.0
  0
LINE
  5
1de
100
AcDbEntity
  8
innerShellIn
 62
7
100
AcDbLine
 10
269.302730
 20
58.709850
 30
0.0
 11
265.365210
 21
55.808000
 31
0.0
  0
LINE
  5
1df
100
AcDbEntity
  8
innerShellIn
 62
7
100
AcDbLine
 10
265.365210
 20
55.808000
 30
0.0
 11
261.357420
 21
53.218750
 31
0.0
  0
LINE
  5
1e0
100
AcDbEntity
  8
innerShellIn
 62
7
100
AcDbLine
 10
261.357420
 20
53.218750
 30
0.0
 11
257.294240
 21
50.924190
 31
0.0
  0
LINE
  5
1e1
100
AcDbEntity
  8
innerShellIn
 62
7
100
AcDbLine
 10
257.294240
 20
50.924190
 30
0.0
 11
253.189990
 21
48.911760
 31
0.0
  0
LINE
  5
1e2
100
AcDbEntity
  8
innerShellIn
 62
7
100
AcDbLine
 10
253.189990
 20
48.911760
 30
0.0
 11
249.069810
 21
47.162960
 31
0.0
  0
LINE
  5
1e3
100
AcDbEntity
  8
innerShellIn
 62
7
100
AcDbLine
 10
249.069810
 20
47.162960
 30
0.0
 11
244.958850
 21
45.659290
 31
0.0
  0
LINE
  5
1e4
100
AcDbEntity
  8
innerShellIn
 62
7
100
AcDbLine
 10
244.958850
 20
45.659290
 30
0.0
 11
240.882270
 21
44.382240
 31
0.0
  0
LINE
  5
1e5
100
AcDbEntity
  8
innerShellIn
 62
7
100
AcDbLine
 10
240.882270
 20
44.382240
 30
0.0
 11
236.865200
 21
43.313310
 31
0.0
  0
LINE
  5
1e6
100
AcDbEntity
  8
innerShellIn
 62
7
100
AcDbLine
 10
236.865200
 20
43.313310
 30
0.0
 11
232.932790
 21
42.433990
 31
0.0
  0
LINE
  5
1e7
100
AcDbEntity
  8
innerShellIn
 62
7
100
AcDbLine
 10
232.932790
 20
42.433990
 30
0.0
 11
229.110180
 21
41.725790
 31
0.0
  0
LINE
  5
1e8
100
AcDbEntity
  8
innerShellIn
 62
7
100
AcDbLine
 10
229.110180
 20
41.725790
 30
0.0
 11
225.422530
 21
41.170210
 31
0.0
  0
LINE
  5
1e9
100
AcDbEntity
  8
innerShellIn
 62
7
100
AcDbLine
 10
225.422530
 20
41.170210
 30
0.0
 11
221.894980
 21
40.748730
 31
0.0
  0
LINE
  5
1ea
100
AcDbEntity
  8
innerShellIn
 62
7
100
AcDbLine
 10
221.894980
 20
40.748730
 30
0.0
 11
218.552680
 21
40.442850
 31
0.0
  0
LINE
  5
1eb
100
AcDbEntity
  8
innerShellIn
 62
7
100
AcDbLine
 10
218.552680
 20
40.442850
 30
0.0
 11
215.420770
 21
40.234090
 31
0.0
  0
LINE
  5
1ec
100
AcDbEntity
  8
innerShellIn
 62
7
100
AcDbLine
 10
215.420770
 20
40.234090
 30
0.0
 11
212.524410
 21
40.103920
 31
0.0
  0
LINE
  5
1ed
100
AcDbEntity
  8
innerShellIn
 62
7
100
AcDbLine
 10
212.524410
 20
40.103920
 30
0.0
 11
209.888720
 21
40.033820
 31
0.0
  0
LINE
  5
1ee
100
AcDbEntity
  8
innerShellIn
 62
7
100
AcDbLine
 10
209.888720
 20
40.033820
 30
0.0
 11
207.538870
 21
40.005320
 31
0.0
  0
LINE
  5
1ef
100
AcDbEntity
  8
innerShellIn
 62
7
100
AcDbLine
 10
207.538870
 20
40.005320
 30
0.0
 11
205.500000
 21
40.000000
 31
0.0
  0
LINE
  5
1f0
100
AcDbEntity
  8
innerShellIn
 62
7
100
AcDbLine
 10
205.500000
 20
40.000000
 30
0.0
 11
202.183740
 21
40.091000
 31
0.0
  0
LINE
  5
1f1
100
AcDbEntity
  8
innerShellIn
 62
7
100
AcDbLine
 10
202.183740
 20
40.091000
 30
0.0
 11
198.867250
 21
40.357130
 31
0.0
  0
LINE
  5
1f2
100
AcDbEntity
  8
innerShellIn
 62
7
100
AcDbLine
 10
198.867250
 20
40.357130
 30
0.0
 11
195.549970
 21
40.787820
 31
0.0
  0
LINE
  5
1f3
100
AcDbEntity
  8
innerShellIn
 62
7
100
AcDbLine
 10
195.549970
 20
40.787820
 30
0.0
 11
192.231280
 21
41.372580
 31
0.0
  0
LINE
  5
1f4
100
AcDbEntity
  8
innerShellIn
 62
7
100
AcDbLine
 10
192.231280
 20
41.372580
 30
0.0
 11
188.910620
 21
42.100900
 31
0.0
  0
LINE
  5
1f5
100
AcDbEntity
  8
innerShellIn
 62
7
100
AcDbLine
 10
188.910620
 20
42.100900
 30
0.0
 11
185.587380
 21
42.962260
 31
0.0
  0
LINE
  5
1f6
100
AcDbEntity
  8
innerShellIn
 62
7
100
AcDbLine
 10
185.587380
 20
42.962260
 30
0.0
 11
182.260980
 21
43.946170
 31
0.0
  0
LINE
  5
1f7
100
AcDbEntity
  8
innerShellIn
 62
7
100
AcDbLine
 10
182.260980
 20
43.946170
 30
0.0
 11
178.930830
 21
45.042120
 31
0.0
  0
LINE
  5
1f8
100
AcDbEntity
  8
innerShellIn
 62
7
100
AcDbLine
 10
178.930830
 20
45.042120
 30
0.0
 11
175.596340
 21
46.239590
 31
0.0
  0
LINE
  5
1f9
100
AcDbEntity
  8
innerShellIn
 62
7
100
AcDbLine
 10
175.596340
 20
46.239590
 30
0.0
 11
172.256920
 21
47.528080
 31
0.0
  0
LINE
  5
1fa
100
AcDbEntity
  8
innerShellIn
 62
7
100
AcDbLine
 10
172.256920
 20
47.528080
 30
0.0
 11
168.911990
 21
48.897080
 31
0.0
  0
LINE
  5
1fb
100
AcDbEntity
  8
innerShellIn
 62
7
100
AcDbLine
 10
168.911990
 20
48.897080
 30
0.0
 11
165.560950
 21
50.336080
 31
0.0
  0
LINE
  5
1fc
100
AcDbEntity
  8
innerShellIn
 62
7
100
AcDbLine
 10
165.560950
 20
50.336080
 30
0.0
 11
162.203220
 21
51.834580
 31
0.0
  0
LINE
  5
1fd
100
AcDbEntity
  8
innerShellIn
 62
7
100
AcDbLine
 10
162.203220
 20
51.834580
 30
0.0
 11
158.838210
 21
53.382070
 31
0.0
  0
LINE
  5
1fe
100
AcDbEntity
  8
innerShellIn
 62
7
100
AcDbLine
 10
158.838210
 20
53.382070
 30
0.0
 11
155.465320
 21
54.968050
 31
0.0
  0
LINE
  5
1ff
100
AcDbEntity
  8
innerShellIn
 62
7
100
AcDbLine
 10
155.465320
 20
54.968050
 30
0.0
 11
152.083980
 21
56.581990
 31
0.0
  0
LINE
  5
200
100
AcDbEntity
  8
innerShellIn
 62
7
100
AcDbLine
 10
152.083980
 20
56.581990
 30
0.0
 11
148.694260
 21
58.214040
 31
0.0
  0
LINE
  5
201
100
AcDbEntity
  8
innerShellIn
 62
7
100
AcDbLine
 10
148.694260
 20
58.214040
 30
0.0
 11
145.295210
 21
59.851300
 31
0.0
  0
LINE
  5
202
100
AcDbEntity
  8
innerShellIn
 62
7
100
AcDbLine
 10
145.295210
 20
59.851300
 30
0.0
 11
141.884680
 21
61.478700
 31
0.0
  0
LINE
  5
203
100
AcDbEntity
  8
innerShellIn
 62
7
100
AcDbLine
 10
141.884680
 20
61.478700
 30
0.0
 11
138.460530
 21
63.081170
 31
0.0
  0
LINE
  5
204
100
AcDbEntity
  8
innerShellIn
 62
7
100
AcDbLine
 10
138.460530
 20
63.081170
 30
0.0
 11
135.020620
 21
64.643670
 31
0.0
  0
LINE
  5
205
100
AcDbEntity
  8
innerShellIn
 62
7
100
AcDbLine
 10
135.020620
 20
64.643670
 30
0.0
 11
131.562790
 21
66.151130
 31
0.0
  0
LINE
  5
206
100
AcDbEntity
  8
innerShellIn
 62
7
100
AcDbLine
 10
131.562790
 20
66.151130
 30
0.0
 11
128.084910
 21
67.588480
 31
0.0
  0
LINE
  5
207
100
AcDbEntity
  8
innerShellIn
 62
7
100
AcDbLine
 10
128.084910
 20
67.588480
 30
0.0
 11
124.584820
 21
68.940660
 31
0.0
  0
LINE
  5
208
100
AcDbEntity
  8
innerShellIn
 62
7
100
AcDbLine
 10
124.584820
 20
68.940660
 30
0.0
 11
121.060380
 21
70.192620
 31
0.0
  0
LINE
  5
209
100
AcDbEntity
  8
innerShellIn
 62
7
100
AcDbLine
 10
121.060380
 20
70.192620
 30
0.0
 11
117.509450
 21
71.329280
 31
0.0
  0
LINE
  5
20a
100
AcDbEntity
  8
innerShellIn
 62
7
100
AcDbLine
 10
117.509450
 20
71.329280
 30
0.0
 11
113.929880
 21
72.335600
 31
0.0
  0
LINE
  5
20b
100
AcDbEntity
  8
innerShellIn
 62
7
100
AcDbLine
 10
113.929880
 20
72.335600
 30
0.0
 11
110.319530
 21
73.196500
 31
0.0
  0
LINE
  5
20c
100
AcDbEntity
  8
innerShellIn
 62
7
100
AcDbLine
 10
110.319530
 20
73.196500
 30
0.0
 11
106.676240
 21
73.896920
 31
0.0
  0
LINE
  5
20d
100
AcDbEntity
  8
innerShellIn
 62
7
100
AcDbLine
 10
106.676240
 20
73.896920
 30
0.0
 11
102.997880
 21
74.421810
 31
0.0
  0
LINE
  5
20e
100
AcDbEntity
  8
innerShellIn
 62
7
100
AcDbLine
 10
102.997880
 20
74.421810
 30
0.0
 11
99.282295
 21
74.756100
 31
0.0
  0
LINE
  5
20f
100
AcDbEntity
  8
innerShellIn
 62
7
100
AcDbLine
 10
99.282295
 20
74.756100
 30
0.0
 11
95.527345
 21
74.884730
 31
0.0
  0
LINE
  5
210
100
AcDbEntity
  8
innerShellIn
 62
7
100
AcDbLine
 10
95.527345
 20
74.884730
 30
0.0
 11
93.252240
 21
74.842430
 31
0.0
  0
LINE
  5
211
100
AcDbEntity
  8
innerShellIn
 62
7
100
AcDbLine
 10
93.252240
 20
74.842430
 30
0.0
 11
91.067534
 21
74.695890
 31
0.0
  0
LINE
  5
212
100
AcDbEntity
  8
innerShellIn
 62
7
100
AcDbLine
 10
91.067534
 20
74.695890
 30
0.0
 11
88.969947
 21
74.453760
 31
0.0
  0
LINE
  5
213
100
AcDbEntity
  8
innerShellIn
 62
7
100
AcDbLine
 10
88.969947
 20
74.453760
 30
0.0
 11
86.956200
 21
74.124750
 31
0.0
  0
LINE
  5
214
100
AcDbEntity
  8
innerShellIn
 62
7
100
AcDbLine
 10
86.956200
 20
74.124750
 30
0.0
 11
85.023012
 21
73.717570
 31
0.0
  0
LINE
  5
215
100
AcDbEntity
  8
innerShellIn
 62
7
100
AcDbLine
 10
85.023012
 20
73.717570
 30
0.0
 11
83.167102
 21
73.240930
 31
0.0
  0
LINE
  5
216
100
AcDbEntity
  8
innerShellIn
 62
7
100
AcDbLine
 10
83.167102
 20
73.240930
 30
0.0
 11
81.385192
 21
72.703510
 31
0.0
  0
LINE
  5
217
100
AcDbEntity
  8
innerShellIn
 62
7
100
AcDbLine
 10
81.385192
 20
72.703510
 30
0.0
 11
79.674000
 21
72.114030
 31
0.0
  0
LINE
  5
218
100
AcDbEntity
  8
innerShellIn
 62
7
100
AcDbLine
 10
79.674000
 20
72.114030
 30
0.0
 11
78.030247
 21
71.481190
 31
0.0
  0
LINE
  5
219
100
AcDbEntity
  8
innerShellIn
 62
7
100
AcDbLine
 10
78.030247
 20
71.481190
 30
0.0
 11
76.450652
 21
70.813700
 31
0.0
  0
LINE
  5
21a
100
AcDbEntity
  8
innerShellIn
 62
7
100
AcDbLine
 10
76.450652
 20
70.813700
 30
0.0
 11
74.931936
 21
70.120250
 31
0.0
  0
LINE
  5
21b
100
AcDbEntity
  8
innerShellIn
 62
7
100
AcDbLine
 10
74.931936
 20
70.120250
 30
0.0
 11
73.470817
 21
69.409540
 31
0.0
  0
LINE
  5
21c
100
AcDbEntity
  8
innerShellIn
 62
7
100
AcDbLine
 10
73.470817
 20
69.409540
 30
0.0
 11
72.064017
 21
68.690290
 31
0.0
  0
LINE
  5
21d
100
AcDbEntity
  8
innerShellIn
 62
7
100
AcDbLine
 10
72.064017
 20
68.690290
 30
0.0
 11
70.708254
 21
67.971200
 31
0.0
  0
LINE
  5
21e
100
AcDbEntity
  8
innerShellIn
 62
7
100
AcDbLine
 10
70.708254
 20
67.971200
 30
0.0
 11
69.400249
 21
67.260960
 31
0.0
  0
LINE
  5
21f
100
AcDbEntity
  8
innerShellIn
 62
7
100
AcDbLine
 10
69.400249
 20
67.260960
 30
0.0
 11
68.136721
 21
66.568290
 31
0.0
  0
LINE
  5
220
100
AcDbEntity
  8
innerShellIn
 62
7
100
AcDbLine
 10
68.136721
 20
66.568290
 30
0.0
 11
66.909585
 21
65.897210
 31
0.0
  0
LINE
  5
221
100
AcDbEntity
  8
innerShellIn
 62
7
100
AcDbLine
 10
66.909585
 20
65.897210
 30
0.0
 11
65.705848
 21
65.247880
 31
0.0
  0
LINE
  5
222
100
AcDbEntity
  8
innerShellIn
 62
7
100
AcDbLine
 10
65.705848
 20
65.247880
 30
0.0
 11
64.514864
 21
64.623220
 31
0.0
  0
LINE
  5
223
100
AcDbEntity
  8
innerShellIn
 62
7
100
AcDbLine
 10
64.514864
 20
64.623220
 30
0.0
 11
63.325990
 21
64.026140
 31
0.0
  0
LINE
  5
224
100
AcDbEntity
  8
innerShellIn
 62
7
100
AcDbLine
 10
63.325990
 20
64.026140
 30
0.0
 11
62.128582
 21
63.459530
 31
0.0
  0
LINE
  5
225
100
AcDbEntity
  8
innerShellIn
 62
7
100
AcDbLine
 10
62.128582
 20
63.459530
 30
0.0
 11
60.911995
 21
62.926310
 31
0.0
  0
LINE
  5
226
100
AcDbEntity
  8
innerShellIn
 62
7
100
AcDbLine
 10
60.911995
 20
62.926310
 30
0.0
 11
59.665586
 21
62.429390
 31
0.0
  0
LINE
  5
227
100
AcDbEntity
  8
innerShellIn
 62
7
100
AcDbLine
 10
59.665586
 20
62.429390
 30
0.0
 11
58.378710
 21
61.971680
 31
0.0
  0
LINE
  5
228
100
AcDbEntity
  8
innerShellIn
 62
7
100
AcDbLine
 10
58.378710
 20
61.971680
 30
0.0
 11
57.040724
 21
61.556080
 31
0.0
  0
LINE
  5
229
100
AcDbEntity
  8
innerShellIn
 62
7
100
AcDbLine
 10
57.040724
 20
61.556080
 30
0.0
 11
55.640982
 21
61.185490
 31
0.0
  0
LINE
  5
22a
100
AcDbEntity
  8
innerShellIn
 62
7
100
AcDbLine
 10
55.640982
 20
61.185490
 30
0.0
 11
54.168842
 21
60.862840
 31
0.0
  0
LINE
  5
22b
100
AcDbEntity
  8
innerShellIn
 62
7
100
AcDbLine
 10
54.168842
 20
60.862840
 30
0.0
 11
52.613658
 21
60.591020
 31
0.0
  0
LINE
  5
22c
100
AcDbEntity
  8
innerShellIn
 62
7
100
AcDbLine
 10
52.613658
 20
60.591020
 30
0.0
 11
50.964787
 21
60.372940
 31
0.0
  0
LINE
  5
22d
100
AcDbEntity
  8
innerShellIn
 62
7
100
AcDbLine
 10
50.964787
 20
60.372940
 30
0.0
 11
49.211584
 21
60.211510
 31
0.0
  0
LINE
  5
22e
100
AcDbEntity
  8
innerShellIn
 62
7
100
AcDbLine
 10
49.211584
 20
60.211510
 30
0.0
 11
47.343406
 21
60.109640
 31
0.0
  0
LINE
  5
22f
100
AcDbEntity
  8
innerShellIn
 62
7
100
AcDbLine
 10
47.343406
 20
60.109640
 30
0.0
 11
45.349608
 21
60.070240
 31
0.0
  0
LINE
  5
230
100
AcDbEntity
  8
innerShellIn
 62
7
100
AcDbLine
 10
45.349608
 20
60.070240
 30
0.0
 11
42.438007
 21
60.187770
 31
0.0
  0
LINE
  5
231
100
AcDbEntity
  8
innerShellIn
 62
7
100
AcDbLine
 10
42.438007
 20
60.187770
 30
0.0
 11
39.648596
 21
60.555230
 31
0.0
  0
LINE
  5
232
100
AcDbEntity
  8
innerShellIn
 62
7
100
AcDbLine
 10
39.648596
 20
60.555230
 30
0.0
 11
36.990436
 21
61.163800
 31
0.0
  0
LINE
  5
233
100
AcDbEntity
  8
innerShellIn
 62
7
100
AcDbLine
 10
36.990436
 20
61.163800
 30
0.0
 11
34.472584
 21
62.004650
 31
0.0
  0
LINE
  5
234
100
AcDbEntity
  8
innerShellIn
 62
7
100
AcDbLine
 10
34.472584
 20
62.004650
 30
0.0
 11
32.104101
 21
63.068960
 31
0.0
  0
LINE
  5
235
100
AcDbEntity
  8
innerShellIn
 62
7
100
AcDbLine
 10
32.104101
 20
63.068960
 30
0.0
 11
29.894044
 21
64.347890
 31
0.0
  0
LINE
  5
236
100
AcDbEntity
  8
innerShellIn
 62
7
100
AcDbLine
 10
29.894044
 20
64.347890
 30
0.0
 11
27.851475
 21
65.832620
 31
0.0
  0
LINE
  5
237
100
AcDbEntity
  8
innerShellIn
 62
7
100
AcDbLine
 10
27.851475
 20
65.832620
 30
0.0
 11
25.985450
 21
67.514330
 31
0.0
  0
LINE
  5
238
100
AcDbEntity
  8
innerShellIn
 62
7
100
AcDbLine
 10
25.985450
 20
67.514330
 30
0.0
 11
24.305031
 21
69.384180
 31
0.0
  0
LINE
  5
239
100
AcDbEntity
  8
innerShellIn
 62
7
100
AcDbLine
 10
24.305031
 20
69.384180
 30
0.0
 11
22.819276
 21
71.433360
 31
0.0
  0
LINE
  5
23a
100
AcDbEntity
  8
innerShellIn
 62
7
100
AcDbLine
 10
22.819276
 20
71.433360
 30
0.0
 11
21.537244
 21
73.653040
 31
0.0
  0
LINE
  5
23b
100
AcDbEntity
  8
innerShellIn
 62
7
100
AcDbLine
 10
21.537244
 20
73.653040
 30
0.0
 11
20.467994
 21
76.034380
 31
0.0
  0
LINE
  5
23c
100
AcDbEntity
  8
innerShellIn
 62
7
100
AcDbLine
 10
20.467994
 20
76.034380
 30
0.0
 11
19.620585
 21
78.568570
 31
0.0
  0
LINE
  5
23d
100
AcDbEntity
  8
innerShellIn
 62
7
100
AcDbLine
 10
19.620585
 20
78.568570
 30
0.0
 11
19.004077
 21
81.246770
 31
0.0
  0
LINE
  5
23e
100
AcDbEntity
  8
innerShellIn
 62
7
100
AcDbLine
 10
19.004077
 20
81.246770
 30
0.0
 11
18.627529
 21
84.060170
 31
0.0
  0
LINE
  5
23f
100
AcDbEntity
  8
innerShellIn
 62
7
100
AcDbLine
 10
18.627529
 20
84.060170
 30
0.0
 11
18.500000
 21
87.000000
 31
0.0
  0
LINE
  5
240
100
AcDbEntity
  8
innerShellIn
 62
7
100
AcDbLine
 10
18.500000
 20
87.000000
 30
0.0
 11
18.500000
 21
89.187500
 31
0.0
  0
LINE
  5
241
100
AcDbEntity
  8
innerShellIn
 62
7
100
AcDbLine
 10
18.500000
 20
89.187500
 30
0.0
 11
18.500000
 21
91.375000
 31
0.0
  0
LINE
  5
242
100
AcDbEntity
  8
innerShellIn
 62
7
100
AcDbLine
 10
18.500000
 20
91.375000
 30
0.0
 11
18.500000
 21
93.562500
 31
0.0
  0
LINE
  5
243
100
AcDbEntity
  8
innerShellIn
 62
7
100
AcDbLine
 10
18.500000
 20
93.562500
 30
0.0
 11
18.500000
 21
95.750000
 31
0.0
  0
LINE
  5
244
100
AcDbEntity
  8
innerShellIn
 62
7
100
AcDbLine
 10
18.500000
 20
95.750000
 30
0.0
 11
18.500000
 21
97.937500
 31
0.0
  0
LINE
  5
245
100
AcDbEntity
  8
innerShellIn
 62
7
100
AcDbLine
 10
18.500000
 20
97.937500
 30
0.0
 11
18.500000
 21
100.125000
 31
0.0
  0
LINE
  5
246
100
AcDbEntity
  8
innerShellIn
 62
7
100
AcDbLine
 10
18.500000
 20
100.125000
 30
0.0
 11
18.500000
 21
102.312500
 31
0.0
  0
LINE
  5
247
100
AcDbEntity
  8
innerShellIn
 62
7
100
AcDbLine
 10
18.500000
 20
102.312500
 30
0.0
 11
18.500000
 21
104.500000
 31
0.0
  0
LINE
  5
248
100
AcDbEntity
  8
innerShellIn
 62
7
100
AcDbLine
 10
18.500000
 20
104.500000
 30
0.0
 11
18.500000
 21
106.687500
 31
0.0
  0
LINE
  5
249
100
AcDbEntity
  8
innerShellIn
 62
7
100
AcDbLine
 10
18.500000
 20
106.687500
 30
0.0
 11
18.500000
 21
108.875000
 31
0.0
  0
LINE
  5
24a
100
AcDbEntity
  8
innerShellIn
 62
7
100
AcDbLine
 10
18.500000
 20
108.875000
 30
0.0
 11
18.500000
 21
111.062500
 31
0.0
  0
LINE
  5
24b
100
AcDbEntity
  8
innerShellIn
 62
7
100
AcDbLine
 10
18.500000
 20
111.062500
 30
0.0
 11
18.500000
 21
113.250000
 31
0.0
  0
LINE
  5
24c
100
AcDbEntity
  8
innerShellIn
 62
7
100
AcDbLine
 10
18.500000
 20
113.250000
 30
0.0
 11
18.500000
 21
115.437500
 31
0.0
  0
LINE
  5
24d
100
AcDbEntity
  8
innerShellIn
 62
7
100
AcDbLine
 10
18.500000
 20
115.437500
 30
0.0
 11
18.500000
 21
117.625000
 31
0.0
  0
LINE
  5
24e
100
AcDbEntity
  8
innerShellIn
 62
7
100
AcDbLine
 10
18.500000
 20
117.625000
 30
0.0
 11
18.500000
 21
119.812500
 31
0.0
  0
LINE
  5
24f
100
AcDbEntity
  8
innerShellIn
 62
7
100
AcDbLine
 10
18.500000
 20
119.812500
 30
0.0
 11
18.500000
 21
122.000000
 31
0.0
  0
LINE
  5
250
100
AcDbEntity
  8
innerShellIn
 62
7
100
AcDbLine
 10
18.500000
 20
122.000000
 30
0.0
 11
18.500000
 21
124.625000
 31
0.0
  0
LINE
  5
251
100
AcDbEntity
  8
innerShellIn
 62
7
100
AcDbLine
 10
18.500000
 20
124.625000
 30
0.0
 11
18.500000
 21
127.250000
 31
0.0
  0
LINE
  5
252
100
AcDbEntity
  8
innerShellIn
 62
7
100
AcDbLine
 10
18.500000
 20
127.250000
 30
0.0
 11
18.500000
 21
129.875000
 31
0.0
  0
LINE
  5
253
100
AcDbEntity
  8
innerShellIn
 62
7
100
AcDbLine
 10
18.500000
 20
129.875000
 30
0.0
 11
18.500000
 21
132.500000
 31
0.0
  0
LINE
  5
254
100
AcDbEntity
  8
innerShellIn
 62
7
100
AcDbLine
 10
18.500000
 20
132.500000
 30
0.0
 11
18.500000
 21
135.125000
 31
0.0
  0
LINE
  5
255
100
AcDbEntity
  8
innerShellIn
 62
7
100
AcDbLine
 10
18.500000
 20
135.125000
 30
0.0
 11
18.500000
 21
137.750000
 31
0.0
  0
LINE
  5
256
100
AcDbEntity
  8
innerShellIn
 62
7
100
AcDbLine
 10
18.500000
 20
137.750000
 30
0.0
 11
18.500000
 21
140.375000
 31
0.0
  0
LINE
  5
257
100
AcDbEntity
  8
innerShellIn
 62
7
100
AcDbLine
 10
18.500000
 20
140.375000
 30
0.0
 11
18.500000
 21
143.000000
 31
0.0
  0
LINE
  5
258
100
AcDbEntity
  8
innerShellIn
 62
7
100
AcDbLine
 10
18.500000
 20
143.000000
 30
0.0
 11
18.500000
 21
145.625000
 31
0.0
  0
LINE
  5
259
100
AcDbEntity
  8
innerShellIn
 62
7
100
AcDbLine
 10
18.500000
 20
145.625000
 30
0.0
 11
18.500000
 21
148.250000
 31
0.0
  0
LINE
  5
25a
100
AcDbEntity
  8
innerShellIn
 62
7
100
AcDbLine
 10
18.500000
 20
148.250000
 30
0.0
 11
18.500000
 21
150.875000
 31
0.0
  0
LINE
  5
25b
100
AcDbEntity
  8
innerShellIn
 62
7
100
AcDbLine
 10
18.500000
 20
150.875000
 30
0.0
 11
18.500000
 21
153.500000
 31
0.0
  0
LINE
  5
25c
100
AcDbEntity
  8
innerShellIn
 62
7
100
AcDbLine
 10
18.500000
 20
153.500000
 30
0.0
 11
18.500000
 21
156.125000
 31
0.0
  0
LINE
  5
25d
100
AcDbEntity
  8
innerShellIn
 62
7
100
AcDbLine
 10
18.500000
 20
156.125000
 30
0.0
 11
18.500000
 21
158.750000
 31
0.0
  0
LINE
  5
25e
100
AcDbEntity
  8
innerShellIn
 62
7
100
AcDbLine
 10
18.500000
 20
158.750000
 30
0.0
 11
18.500000
 21
161.375000
 31
0.0
  0
LINE
  5
25f
100
AcDbEntity
  8
innerShellIn
 62
7
100
AcDbLine
 10
18.500000
 20
161.375000
 30
0.0
 11
18.500000
 21
164.000000
 31
0.0
  0
ENDSEC
  0
SECTION
  2
OBJECTS
  0
DICTIONARY
  5
C
330
0
100
AcDbDictionary
  3
ACAD_GROUP
350
D
  3
ACAD_MLINESTYLE
350
17
  0
DICTIONARY
  5
D
330
C
100
AcDbDictionary
  0
DICTIONARY
  5
1A
330
C
100
AcDbDictionary
  0
DICTIONARY
  5
17
330
C
100
AcDbDictionary
  3
STANDARD
350
18
  0
DICTIONARY
  5
19
330
C
100
AcDbDictionary
  0
ENDSEC
  0
EOF
