  0
SECTION
  2
HEADER
  9
$ACADVER
  1
AC1014
  9
$HANDSEED
  5
FFFF
  9
$MEASUREMENT
 70
     1
  0
ENDSEC
  0
SECTION
  2
TABLES
  0
TABLE
  2
VPORT
  5
8
330
0
100
AcDbSymbolTable
 70
     4
  0
VPORT
  5
2E
330
8
100
AcDbSymbolTableRecord
100
AcDbViewportTableRecord
  2
*ACTIVE
 70
     0
 10
0.0
 20
0.0
 11
1.0
 21
1.0
 12
210.0
 22
148.5
 13
0.0
 23
0.0
 14
10.0
 24
10.0
 15
10.0
 25
10.0
 16
0.0
 26
0.0
 36
1.0
 17
0.0
 27
0.0
 37
0.0
 40
341.0
 41
1.24
 42
50.0
 43
0.0
 44
0.0
 50
0.0
 51
0.0
 71
     0
 72
   100
 73
     1
 74
     3
 75
     0
 76
     0
 77
     0
 78
     0
  0
ENDTAB
  0
TABLE
  2
LTYPE
  5
5
330
0
100
AcDbSymbolTable
 70
     1
  0
LTYPE
  5
14
330
5
100
AcDbSymbolTableRecord
100
AcDbLinetypeTableRecord
  2
BYBLOCK
 70
     0
  3

 72
    65
 73
     0
 40
0.0
  0
LTYPE
  5
15
330
5
100
AcDbSymbolTableRecord
100
AcDbLinetypeTableRecord
  2
BYLAYER
 70
     0
  3

 72
    65
 73
     0
 40
0.0
  0
LTYPE
  5
16
330
5
100
AcDbSymbolTableRecord
100
AcDbLinetypeTableRecord
  2
CONTINUOUS
 70
     0
  3
Solid line
 72
    65
 73
     0
 40
0.0
  0
ENDTAB
  0
TABLE
  2
LAYER
  5
2
100
AcDbSymbolTable
 70
7
  0
LAYER
  5
50
100
AcDbSymbolTableRecord
100
AcDbLayerTableRecord
  2
0
 70
0
  6
CONTINUOUS
  0
LAYER
  5
51
100
AcDbSymbolTableRecord
100
AcDbLayerTableRecord
  2
woodIn
 70
0
  6
CONTINUOUS
  0
LAYER
  5
52
100
AcDbSymbolTableRecord
100
AcDbLayerTableRecord
  2
woodOut
 70
0
  6
CONTINUOUS
  0
LAYER
  5
53
100
AcDbSymbolTableRecord
100
AcDbLayerTableRecord
  2
outerShellIn
 70
0
  6
CONTINUOUS
  0
LAYER
  5
54
100
AcDbSymbolTableRecord
100
AcDbLayerTableRecord
  2
outerShellOut
 70
0
  6
CONTINUOUS
  0
LAYER
  5
55
100
AcDbSymbolTableRecord
100
AcDbLayerTableRecord
  2
innerShellOut
 70
0
  6
CONTINUOUS
  0
LAYER
  5
56
100
AcDbSymbolTableRecord
100
AcDbLayerTableRecord
  2
innerShellIn
 70
0
  6
CONTINUOUS
  0
ENDTAB
  0
TABLE
  2
STYLE
  5
3
330
0
100
AcDbSymbolTable
 70
     1
  0
STYLE
  5
11
330
3
100
AcDbSymbolTableRecord
100
AcDbTextStyleTableRecord
  2
STANDARD
 70
     0
 40
0.0
 41
1.0
 50
0.0
 71
     0
 42
2.5
  3
txt
  4

  0
ENDTAB
  0
TABLE
  2
VIEW
  5
6
330
0
100
AcDbSymbolTable
 70
     0
  0
ENDTAB
  0
TABLE
  2
UCS
  5
7
330
0
100
AcDbSymbolTable
 70
     0
  0
ENDTAB
  0
TABLE
  2
APPID
  5
9
330
0
100
AcDbSymbolTable
 70
     2
  0
APPID
  5
12
330
9
100
AcDbSymbolTableRecord
100
AcDbRegAppTableRecord
  2
ACAD
 70
     0
  0
ENDTAB
  0
TABLE
  2
DIMSTYLE
  5
A
330
0
100
AcDbSymbolTable
 70
     1
  0
DIMSTYLE
105
27
330
A
100
AcDbSymbolTableRecord
100
AcDbDimStyleTableRecord
  2
ISO-25
 70
     0
  3

  4

  5

  6

  7

 40
1.0
 41
2.5
 42
0.625
 43
3.75
 44
1.25
 45
0.0
 46
0.0
 47
0.0
 48
0.0
140
2.5
141
2.5
142
0.0
143
0.03937007874016
144
1.0
145
0.0
146
1.0
147
0.625
 71
     0
 72
     0
 73
     0
 74
     0
 75
     0
 76
     0
 77
     1
 78
     8
170
     0
171
     3
172
     1
173
     0
174
     0
175
     0
176
     0
177
     0
178
     0
270
     2
271
     2
272
     2
273
     2
274
     3
340
11
275
     0
280
     0
281
     0
282
     0
283
     0
284
     8
285
     0
286
     0
287
     3
288
     0
  0
ENDTAB
  0
TABLE
  2
BLOCK_RECORD
  5
1
330
0
100
AcDbSymbolTable
 70
     1
  0
BLOCK_RECORD
  5
1F
330
1
100
AcDbSymbolTableRecord
100
AcDbBlockTableRecord
  2
*MODEL_SPACE
  0
BLOCK_RECORD
  5
1B
330
1
100
AcDbSymbolTableRecord
100
AcDbBlockTableRecord
  2
*PAPER_SPACE
  0
ENDTAB
  0
ENDSEC
  0
SECTION
  2
BLOCKS
  0
BLOCK
  5
20
330
1F
100
AcDbEntity
  8
0
100
AcDbBlockBegin
  2
*MODEL_SPACE
 70
     0
 10
0.0
 20
0.0
 30
0.0
  3
*MODEL_SPACE
  1

  0
ENDBLK
  5
21
330
1F
100
AcDbEntity
  8
0
100
AcDbBlockEnd
  0
BLOCK
  5
1C
330
1B
100
AcDbEntity
 67
     1
  8
0
100
AcDbBlockBegin
  2
*PAPER_SPACE
  1

  0
ENDBLK
  5
1D
330
1B
100
AcDbEntity
 67
     1
  8
0
100
AcDbBlockEnd
  0
ENDSEC
  0
SECTION
  2
ENTITIES
  0
LINE
  5
100
100
AcDbEntity
  8
innerShellOut
 62
7
100
AcDbLine
 10
205.500000
 20
257.000000
 30
0.0
 11
207.547110
 21
256.995300
 31
0.0
  0
LINE
  5
101
100
AcDbEntity
  8
innerShellOut
 62
7
100
AcDbLine
 10
207.547110
 20
256.995300
 30
0.0
 11
209.921080
 21
256.968290
 31
0.0
  0
LINE
  5
102
100
AcDbEntity
  8
innerShellOut
 62
7
100
AcDbLine
 10
209.921080
 20
256.968290
 30
0.0
 11
212.595910
 21
256.899490
 31
0.0
  0
LINE
  5
103
100
AcDbEntity
  8
innerShellOut
 62
7
100
AcDbLine
 10
212.595910
 20
256.899490
 30
0.0
 11
215.545580
 21
256.769442
 31
0.0
  0
LINE
  5
104
100
AcDbEntity
  8
innerShellOut
 62
7
100
AcDbLine
 10
215.545580
 20
256.769442
 30
0.0
 11
218.744080
 21
256.558681
 31
0.0
  0
LINE
  5
105
100
AcDbEntity
  8
innerShellOut
 62
7
100
AcDbLine
 10
218.744080
 20
256.558681
 30
0.0
 11
222.165400
 21
256.247749
 31
0.0
  0
LINE
  5
106
100
AcDbEntity
  8
innerShellOut
 62
7
100
AcDbLine
 10
222.165400
 20
256.247749
 30
0.0
 11
225.783510
 21
255.817184
 31
0.0
  0
LINE
  5
107
100
AcDbEntity
  8
innerShellOut
 62
7
100
AcDbLine
 10
225.783510
 20
255.817184
 30
0.0
 11
229.572400
 21
255.247525
 31
0.0
  0
LINE
  5
108
100
AcDbEntity
  8
innerShellOut
 62
7
100
AcDbLine
 10
229.572400
 20
255.247525
 30
0.0
 11
233.506070
 21
254.519313
 31
0.0
  0
LINE
  5
109
100
AcDbEntity
  8
innerShellOut
 62
7
100
AcDbLine
 10
233.506070
 20
254.519313
 30
0.0
 11
237.558500
 21
253.613087
 31
0.0
  0
LINE
  5
10a
100
AcDbEntity
  8
innerShellOut
 62
7
100
AcDbLine
 10
237.558500
 20
253.613087
 30
0.0
 11
241.703670
 21
252.509385
 31
0.0
  0
LINE
  5
10b
100
AcDbEntity
  8
innerShellOut
 62
7
100
AcDbLine
 10
241.703670
 20
252.509385
 30
0.0
 11
245.915560
 21
251.188748
 31
0.0
  0
LINE
  5
10c
100
AcDbEntity
  8
innerShellOut
 62
7
100
AcDbLine
 10
245.915560
 20
251.188748
 30
0.0
 11
250.168180
 21
249.631714
 31
0.0
  0
LINE
  5
10d
100
AcDbEntity
  8
innerShellOut
 62
7
100
AcDbLine
 10
250.168180
 20
249.631714
 30
0.0
 11
254.435490
 21
247.818824
 31
0.0
  0
LINE
  5
10e
100
AcDbEntity
  8
innerShellOut
 62
7
100
AcDbLine
 10
254.435490
 20
247.818824
 30
0.0
 11
258.691490
 21
245.730616
 31
0.0
  0
LINE
  5
10f
100
AcDbEntity
  8
innerShellOut
 62
7
100
AcDbLine
 10
258.691490
 20
245.730616
 30
0.0
 11
262.910160
 21
243.347630
 31
0.0
  0
LINE
  5
110
100
AcDbEntity
  8
innerShellOut
 62
7
100
AcDbLine
 10
262.910160
 20
243.347630
 30
0.0
 11
267.072260
 21
240.654117
 31
0.0
  0
LINE
  5
111
100
AcDbEntity
  8
innerShellOut
 62
7
100
AcDbLine
 10
267.072260
 20
240.654117
 30
0.0
 11
271.158180
 21
237.630994
 31
0.0
  0
LINE
  5
112
100
AcDbEntity
  8
innerShellOut
 62
7
100
AcDbLine
 10
271.158180
 20
237.630994
 30
0.0
 11
275.141380
 21
234.253800
 31
0.0
  0
LINE
  5
113
100
AcDbEntity
  8
innerShellOut
 62
7
100
AcDbLine
 10
275.141380
 20
234.253800
 30
0.0
 11
278.995330
 21
230.498073
 31
0.0
  0
LINE
  5
114
100
AcDbEntity
  8
innerShellOut
 62
7
100
AcDbLine
 10
278.995330
 20
230.498073
 30
0.0
 11
282.693490
 21
226.339353
 31
0.0
  0
LINE
  5
115
100
AcDbEntity
  8
innerShellOut
 62
7
100
AcDbLine
 10
282.693490
 20
226.339353
 30
0.0
 11
286.209300
 21
221.753178
 31
0.0
  0
LINE
  5
116
100
AcDbEntity
  8
innerShellOut
 62
7
100
AcDbLine
 10
286.209300
 20
221.753178
 30
0.0
 11
289.516240
 21
216.715088
 31
0.0
  0
LINE
  5
117
100
AcDbEntity
  8
innerShellOut
 62
7
100
AcDbLine
 10
289.516240
 20
216.715088
 30
0.0
 11
292.587760
 21
211.200620
 31
0.0
  0
LINE
  5
118
100
AcDbEntity
  8
innerShellOut
 62
7
100
AcDbLine
 10
292.587760
 20
211.200620
 30
0.0
 11
295.397320
 21
205.185315
 31
0.0
  0
LINE
  5
119
100
AcDbEntity
  8
innerShellOut
 62
7
100
AcDbLine
 10
295.397320
 20
205.185315
 30
0.0
 11
297.918380
 21
198.644710
 31
0.0
  0
LINE
  5
11a
100
AcDbEntity
  8
innerShellOut
 62
7
100
AcDbLine
 10
297.918380
 20
198.644710
 30
0.0
 11
300.124410
 21
191.554344
 31
0.0
  0
LINE
  5
11b
100
AcDbEntity
  8
innerShellOut
 62
7
100
AcDbLine
 10
300.124410
 20
191.554344
 30
0.0
 11
301.988850
 21
183.889754
 31
0.0
  0
LINE
  5
11c
100
AcDbEntity
  8
innerShellOut
 62
7
100
AcDbLine
 10
301.988850
 20
183.889754
 30
0.0
 11
303.485170
 21
175.626494
 31
0.0
  0
LINE
  5
11d
100
AcDbEntity
  8
innerShellOut
 62
7
100
AcDbLine
 10
303.485170
 20
175.626494
 30
0.0
 11
304.586830
 21
166.740074
 31
0.0
  0
LINE
  5
11e
100
AcDbEntity
  8
innerShellOut
 62
7
100
AcDbLine
 10
304.586830
 20
166.740074
 30
0.0
 11
305.267290
 21
157.206054
 31
0.0
  0
LINE
  5
11f
100
AcDbEntity
  8
innerShellOut
 62
7
100
AcDbLine
 10
305.267290
 20
157.206054
 30
0.0
 11
305.500010
 21
146.999974
 31
0.0
  0
LINE
  5
120
100
AcDbEntity
  8
innerShellOut
 62
7
100
AcDbLine
 10
305.500010
 20
146.999974
 30
0.0
 11
305.267290
 21
136.793884
 31
0.0
  0
LINE
  5
121
100
AcDbEntity
  8
innerShellOut
 62
7
100
AcDbLine
 10
305.267290
 20
136.793884
 30
0.0
 11
304.586830
 21
127.259874
 31
0.0
  0
LINE
  5
122
100
AcDbEntity
  8
innerShellOut
 62
7
100
AcDbLine
 10
304.586830
 20
127.259874
 30
0.0
 11
303.485170
 21
118.373454
 31
0.0
  0
LINE
  5
123
100
AcDbEntity
  8
innerShellOut
 62
7
100
AcDbLine
 10
303.485170
 20
118.373454
 30
0.0
 11
301.988850
 21
110.110184
 31
0.0
  0
LINE
  5
124
100
AcDbEntity
  8
innerShellOut
 62
7
100
AcDbLine
 10
301.988850
 20
110.110184
 30
0.0
 11
300.124410
 21
102.445594
 31
0.0
  0
LINE
  5
125
100
AcDbEntity
  8
innerShellOut
 62
7
100
AcDbLine
 10
300.124410
 20
102.445594
 30
0.0
 11
297.918380
 21
95.355234
 31
0.0
  0
LINE
  5
126
100
AcDbEntity
  8
innerShellOut
 62
7
100
AcDbLine
 10
297.918380
 20
95.355234
 30
0.0
 11
295.397320
 21
88.814624
 31
0.0
  0
LINE
  5
127
100
AcDbEntity
  8
innerShellOut
 62
7
100
AcDbLine
 10
295.397320
 20
88.814624
 30
0.0
 11
292.587760
 21
82.799324
 31
0.0
  0
LINE
  5
128
100
AcDbEntity
  8
innerShellOut
 62
7
100
AcDbLine
 10
292.587760
 20
82.799324
 30
0.0
 11
289.516240
 21
77.284854
 31
0.0
  0
LINE
  5
129
100
AcDbEntity
  8
innerShellOut
 62
7
100
AcDbLine
 10
289.516240
 20
77.284854
 30
0.0
 11
286.209300
 21
72.246764
 31
0.0
  0
LINE
  5
12a
100
AcDbEntity
  8
innerShellOut
 62
7
100
AcDbLine
 10
286.209300
 20
72.246764
 30
0.0
 11
282.693490
 21
67.660594
 31
0.0
  0
LINE
  5
12b
100
AcDbEntity
  8
innerShellOut
 62
7
100
AcDbLine
 10
282.693490
 20
67.660594
 30
0.0
 11
278.995330
 21
63.501874
 31
0.0
  0
LINE
  5
12c
100
AcDbEntity
  8
innerShellOut
 62
7
100
AcDbLine
 10
278.995330
 20
63.501874
 30
0.0
 11
275.141380
 21
59.746144
 31
0.0
  0
LINE
  5
12d
100
AcDbEntity
  8
innerShellOut
 62
7
100
AcDbLine
 10
275.141380
 20
59.746144
 30
0.0
 11
271.158180
 21
56.368954
 31
0.0
  0
LINE
  5
12e
100
AcDbEntity
  8
innerShellOut
 62
7
100
AcDbLine
 10
271.158180
 20
56.368954
 30
0.0
 11
267.072260
 21
53.345824
 31
0.0
  0
LINE
  5
12f
100
AcDbEntity
  8
innerShellOut
 62
7
100
AcDbLine
 10
267.072260
 20
53.345824
 30
0.0
 11
262.910160
 21
50.652314
 31
0.0
  0
LINE
  5
130
100
AcDbEntity
  8
innerShellOut
 62
7
100
AcDbLine
 10
262.910160
 20
50.652314
 30
0.0
 11
258.691490
 21
48.269324
 31
0.0
  0
LINE
  5
131
100
AcDbEntity
  8
innerShellOut
 62
7
100
AcDbLine
 10
258.691490
 20
48.269324
 30
0.0
 11
254.435490
 21
46.181124
 31
0.0
  0
LINE
  5
132
100
AcDbEntity
  8
innerShellOut
 62
7
100
AcDbLine
 10
254.435490
 20
46.181124
 30
0.0
 11
250.168180
 21
44.368234
 31
0.0
  0
LINE
  5
133
100
AcDbEntity
  8
innerShellOut
 62
7
100
AcDbLine
 10
250.168180
 20
44.368234
 30
0.0
 11
245.915560
 21
42.811194
 31
0.0
  0
LINE
  5
134
100
AcDbEntity
  8
innerShellOut
 62
7
100
AcDbLine
 10
245.915560
 20
42.811194
 30
0.0
 11
241.703670
 21
41.490564
 31
0.0
  0
LINE
  5
135
100
AcDbEntity
  8
innerShellOut
 62
7
100
AcDbLine
 10
241.703670
 20
41.490564
 30
0.0
 11
237.558500
 21
40.386854
 31
0.0
  0
LINE
  5
136
100
AcDbEntity
  8
innerShellOut
 62
7
100
AcDbLine
 10
237.558500
 20
40.386854
 30
0.0
 11
233.506070
 21
39.480634
 31
0.0
  0
LINE
  5
137
100
AcDbEntity
  8
innerShellOut
 62
7
100
AcDbLine
 10
233.506070
 20
39.480634
 30
0.0
 11
229.572400
 21
38.752424
 31
0.0
  0
LINE
  5
138
100
AcDbEntity
  8
innerShellOut
 62
7
100
AcDbLine
 10
229.572400
 20
38.752424
 30
0.0
 11
225.783510
 21
38.182764
 31
0.0
  0
LINE
  5
139
100
AcDbEntity
  8
innerShellOut
 62
7
100
AcDbLine
 10
225.783510
 20
38.182764
 30
0.0
 11
222.165400
 21
37.752194
 31
0.0
  0
LINE
  5
13a
100
AcDbEntity
  8
innerShellOut
 62
7
100
AcDbLine
 10
222.165400
 20
37.752194
 30
0.0
 11
218.744080
 21
37.441264
 31
0.0
  0
LINE
  5
13b
100
AcDbEntity
  8
innerShellOut
 62
7
100
AcDbLine
 10
218.744080
 20
37.441264
 30
0.0
 11
215.545580
 21
37.230504
 31
0.0
  0
LINE
  5
13c
100
AcDbEntity
  8
innerShellOut
 62
7
100
AcDbLine
 10
215.545580
 20
37.230504
 30
0.0
 11
212.595910
 21
37.100454
 31
0.0
  0
LINE
  5
13d
100
AcDbEntity
  8
innerShellOut
 62
7
100
AcDbLine
 10
212.595910
 20
37.100454
 30
0.0
 11
209.921080
 21
37.031654
 31
0.0
  0
LINE
  5
13e
100
AcDbEntity
  8
innerShellOut
 62
7
100
AcDbLine
 10
209.921080
 20
37.031654
 30
0.0
 11
207.547110
 21
37.004654
 31
0.0
  0
LINE
  5
13f
100
AcDbEntity
  8
innerShellOut
 62
7
100
AcDbLine
 10
207.547110
 20
37.004654
 30
0.0
 11
205.500000
 21
37.000000
 31
0.0
  0
LINE
  5
140
100
AcDbEntity
  8
innerShellOut
 62
7
100
AcDbLine
 10
205.500000
 20
37.000000
 30
0.0
 11
202.026510
 21
37.094200
 31
0.0
  0
LINE
  5
141
100
AcDbEntity
  8
innerShellOut
 62
7
100
AcDbLine
 10
202.026510
 20
37.094200
 30
0.0
 11
198.563510
 21
37.369370
 31
0.0
  0
LINE
  5
142
100
AcDbEntity
  8
innerShellOut
 62
7
100
AcDbLine
 10
198.563510
 20
37.369370
 30
0.0
 11
195.110280
 21
37.814140
 31
0.0
  0
LINE
  5
143
100
AcDbEntity
  8
innerShellOut
 62
7
100
AcDbLine
 10
195.110280
 20
37.814140
 30
0.0
 11
191.666120
 21
38.417200
 31
0.0
  0
LINE
  5
144
100
AcDbEntity
  8
innerShellOut
 62
7
100
AcDbLine
 10
191.666120
 20
38.417200
 30
0.0
 11
188.230320
 21
39.167230
 31
0.0
  0
LINE
  5
145
100
AcDbEntity
  8
innerShellOut
 62
7
100
AcDbLine
 10
188.230320
 20
39.167230
 30
0.0
 11
184.802170
 21
40.052890
 31
0.0
  0
LINE
  5
146
100
AcDbEntity
  8
innerShellOut
 62
7
100
AcDbLine
 10
184.802170
 20
40.052890
 30
0.0
 11
181.380960
 21
41.062880
 31
0.0
  0
LINE
  5
147
100
AcDbEntity
  8
innerShellOut
 62
7
100
AcDbLine
 10
181.380960
 20
41.062880
 30
0.0
 11
177.965970
 21
42.185860
 31
0.0
  0
LINE
  5
148
100
AcDbEntity
  8
innerShellOut
 62
7
100
AcDbLine
 10
177.965970
 20
42.185860
 30
0.0
 11
174.556500
 21
43.410510
 31
0.0
  0
LINE
  5
149
100
AcDbEntity
  8
innerShellOut
 62
7
100
AcDbLine
 10
174.556500
 20
43.410510
 30
0.0
 11
171.151850
 21
44.725510
 31
0.0
  0
LINE
  5
14a
100
AcDbEntity
  8
innerShellOut
 62
7
100
AcDbLine
 10
171.151850
 20
44.725510
 30
0.0
 11
167.751290
 21
46.119550
 31
0.0
  0
LINE
  5
14b
100
AcDbEntity
  8
innerShellOut
 62
7
100
AcDbLine
 10
167.751290
 20
46.119550
 30
0.0
 11
164.354120
 21
47.581290
 31
0.0
  0
LINE
  5
14c
100
AcDbEntity
  8
innerShellOut
 62
7
100
AcDbLine
 10
164.354120
 20
47.581290
 30
0.0
 11
160.959640
 21
49.099410
 31
0.0
  0
LINE
  5
14d
100
AcDbEntity
  8
innerShellOut
 62
7
100
AcDbLine
 10
160.959640
 20
49.099410
 30
0.0
 11
157.567120
 21
50.662600
 31
0.0
  0
LINE
  5
14e
100
AcDbEntity
  8
innerShellOut
 62
7
100
AcDbLine
 10
157.567120
 20
50.662600
 30
0.0
 11
154.175860
 21
52.259520
 31
0.0
  0
LINE
  5
14f
100
AcDbEntity
  8
innerShellOut
 62
7
100
AcDbLine
 10
154.175860
 20
52.259520
 30
0.0
 11
150.785160
 21
53.878870
 31
0.0
  0
LINE
  5
150
100
AcDbEntity
  8
innerShellOut
 62
7
100
AcDbLine
 10
150.785160
 20
53.878870
 30
0.0
 11
147.394720
 21
55.509710
 31
0.0
  0
LINE
  5
151
100
AcDbEntity
  8
innerShellOut
 62
7
100
AcDbLine
 10
147.394720
 20
55.509710
 30
0.0
 11
144.003620
 21
57.139240
 31
0.0
  0
LINE
  5
152
100
AcDbEntity
  8
innerShellOut
 62
7
100
AcDbLine
 10
144.003620
 20
57.139240
 30
0.0
 11
140.610160
 21
58.753300
 31
0.0
  0
LINE
  5
153
100
AcDbEntity
  8
innerShellOut
 62
7
100
AcDbLine
 10
140.610160
 20
58.753300
 30
0.0
 11
137.212650
 21
60.337720
 31
0.0
  0
LINE
  5
154
100
AcDbEntity
  8
innerShellOut
 62
7
100
AcDbLine
 10
137.212650
 20
60.337720
 30
0.0
 11
133.809410
 21
61.878340
 31
0.0
  0
LINE
  5
155
100
AcDbEntity
  8
innerShellOut
 62
7
100
AcDbLine
 10
133.809410
 20
61.878340
 30
0.0
 11
130.398740
 21
63.361010
 31
0.0
  0
LINE
  5
156
100
AcDbEntity
  8
innerShellOut
 62
7
100
AcDbLine
 10
130.398740
 20
63.361010
 30
0.0
 11
126.978950
 21
64.771560
 31
0.0
  0
LINE
  5
157
100
AcDbEntity
  8
innerShellOut
 62
7
100
AcDbLine
 10
126.978950
 20
64.771560
 30
0.0
 11
123.548360
 21
66.095840
 31
0.0
  0
LINE
  5
158
100
AcDbEntity
  8
innerShellOut
 62
7
100
AcDbLine
 10
123.548360
 20
66.095840
 30
0.0
 11
120.105260
 21
67.319670
 31
0.0
  0
LINE
  5
159
100
AcDbEntity
  8
innerShellOut
 62
7
100
AcDbLine
 10
120.105260
 20
67.319670
 30
0.0
 11
116.647980
 21
68.428900
 31
0.0
  0
LINE
  5
15a
100
AcDbEntity
  8
innerShellOut
 62
7
100
AcDbLine
 10
116.647980
 20
68.428900
 30
0.0
 11
113.174830
 21
69.409380
 31
0.0
  0
LINE
  5
15b
100
AcDbEntity
  8
innerShellOut
 62
7
100
AcDbLine
 10
113.174830
 20
69.409380
 30
0.0
 11
109.684100
 21
70.246930
 31
0.0
  0
LINE
  5
15c
100
AcDbEntity
  8
innerShellOut
 62
7
100
AcDbLine
 10
109.684100
 20
70.246930
 30
0.0
 11
106.174120
 21
70.927410
 31
0.0
  0
LINE
  5
15d
100
AcDbEntity
  8
innerShellOut
 62
7
100
AcDbLine
 10
106.174120
 20
70.927410
 30
0.0
 11
102.643190
 21
71.436640
 31
0.0
  0
LINE
  5
15e
100
AcDbEntity
  8
innerShellOut
 62
7
100
AcDbLine
 10
102.643190
 20
71.436640
 30
0.0
 11
99.089618
 21
71.760470
 31
0.0
  0
LINE
  5
15f
100
AcDbEntity
  8
innerShellOut
 62
7
100
AcDbLine
 10
99.089618
 20
71.760470
 30
0.0
 11
95.511721
 21
71.884730
 31
0.0
  0
LINE
  5
160
100
AcDbEntity
  8
innerShellOut
 62
7
100
AcDbLine
 10
95.511721
 20
71.884730
 30
0.0
 11
93.370301
 21
71.846230
 31
0.0
  0
LINE
  5
161
100
AcDbEntity
  8
innerShellOut
 62
7
100
AcDbLine
 10
93.370301
 20
71.846230
 30
0.0
 11
91.320090
 21
71.711770
 31
0.0
  0
LINE
  5
162
100
AcDbEntity
  8
innerShellOut
 62
7
100
AcDbLine
 10
91.320090
 20
71.711770
 30
0.0
 11
89.356420
 21
71.488780
 31
0.0
  0
LINE
  5
163
100
AcDbEntity
  8
innerShellOut
 62
7
100
AcDbLine
 10
89.356420
 20
71.488780
 30
0.0
 11
87.474623
 21
71.184740
 31
0.0
  0
LINE
  5
164
100
AcDbEntity
  8
innerShellOut
 62
7
100
AcDbLine
 10
87.474623
 20
71.184740
 30
0.0
 11
85.670031
 21
70.807130
 31
0.0
  0
LINE
  5
165
100
AcDbEntity
  8
innerShellOut
 62
7
100
AcDbLine
 10
85.670031
 20
70.807130
 30
0.0
 11
83.937977
 21
70.363440
 31
0.0
  0
LINE
  5
166
100
AcDbEntity
  8
innerShellOut
 62
7
100
AcDbLine
 10
83.937977
 20
70.363440
 30
0.0
 11
82.273793
 21
69.861130
 31
0.0
  0
LINE
  5
167
100
AcDbEntity
  8
innerShellOut
 62
7
100
AcDbLine
 10
82.273793
 20
69.861130
 30
0.0
 11
80.672811
 21
69.307710
 31
0.0
  0
LINE
  5
168
100
AcDbEntity
  8
innerShellOut
 62
7
100
AcDbLine
 10
80.672811
 20
69.307710
 30
0.0
 11
79.130363
 21
68.710640
 31
0.0
  0
LINE
  5
169
100
AcDbEntity
  8
innerShellOut
 62
7
100
AcDbLine
 10
79.130363
 20
68.710640
 30
0.0
 11
77.641781
 21
68.077400
 31
0.0
  0
LINE
  5
16a
100
AcDbEntity
  8
innerShellOut
 62
7
100
AcDbLine
 10
77.641781
 20
68.077400
 30
0.0
 11
76.202397
 21
67.415470
 31
0.0
  0
LINE
  5
16b
100
AcDbEntity
  8
innerShellOut
 62
7
100
AcDbLine
 10
76.202397
 20
67.415470
 30
0.0
 11
74.807543
 21
66.732350
 31
0.0
  0
LINE
  5
16c
100
AcDbEntity
  8
innerShellOut
 62
7
100
AcDbLine
 10
74.807543
 20
66.732350
 30
0.0
 11
73.452553
 21
66.035500
 31
0.0
  0
LINE
  5
16d
100
AcDbEntity
  8
innerShellOut
 62
7
100
AcDbLine
 10
73.452553
 20
66.035500
 30
0.0
 11
72.132757
 21
65.332400
 31
0.0
  0
LINE
  5
16e
100
AcDbEntity
  8
innerShellOut
 62
7
100
AcDbLine
 10
72.132757
 20
65.332400
 30
0.0
 11
70.843488
 21
64.630550
 31
0.0
  0
LINE
  5
16f
100
AcDbEntity
  8
innerShellOut
 62
7
100
AcDbLine
 10
70.843488
 20
64.630550
 30
0.0
 11
69.580078
 21
63.937410
 31
0.0
  0
LINE
  5
170
100
AcDbEntity
  8
innerShellOut
 62
7
100
AcDbLine
 10
69.580078
 20
63.937410
 30
0.0
 11
68.334843
 21
63.257550
 31
0.0
  0
LINE
  5
171
100
AcDbEntity
  8
innerShellOut
 62
7
100
AcDbLine
 10
68.334843
 20
63.257550
 30
0.0
 11
67.097033
 21
62.593120
 31
0.0
  0
LINE
  5
172
100
AcDbEntity
  8
innerShellOut
 62
7
100
AcDbLine
 10
67.097033
 20
62.593120
 30
0.0
 11
65.857383
 21
61.947970
 31
0.0
  0
LINE
  5
173
100
AcDbEntity
  8
innerShellOut
 62
7
100
AcDbLine
 10
65.857383
 20
61.947970
 30
0.0
 11
64.606631
 21
61.325960
 31
0.0
  0
LINE
  5
174
100
AcDbEntity
  8
innerShellOut
 62
7
100
AcDbLine
 10
64.606631
 20
61.325960
 30
0.0
 11
63.335511
 21
60.730940
 31
0.0
  0
LINE
  5
175
100
AcDbEntity
  8
innerShellOut
 62
7
100
AcDbLine
 10
63.335511
 20
60.730940
 30
0.0
 11
62.034760
 21
60.166770
 31
0.0
  0
LINE
  5
176
100
AcDbEntity
  8
innerShellOut
 62
7
100
AcDbLine
 10
62.034760
 20
60.166770
 30
0.0
 11
60.695112
 21
59.637310
 31
0.0
  0
LINE
  5
177
100
AcDbEntity
  8
innerShellOut
 62
7
100
AcDbLine
 10
60.695112
 20
59.637310
 30
0.0
 11
59.307305
 21
59.146420
 31
0.0
  0
LINE
  5
178
100
AcDbEntity
  8
innerShellOut
 62
7
100
AcDbLine
 10
59.307305
 20
59.146420
 30
0.0
 11
57.862073
 21
58.697940
 31
0.0
  0
LINE
  5
179
100
AcDbEntity
  8
innerShellOut
 62
7
100
AcDbLine
 10
57.862073
 20
58.697940
 30
0.0
 11
56.350153
 21
58.295730
 31
0.0
  0
LINE
  5
17a
100
AcDbEntity
  8
innerShellOut
 62
7
100
AcDbLine
 10
56.350153
 20
58.295730
 30
0.0
 11
54.762280
 21
57.943660
 31
0.0
  0
LINE
  5
17b
100
AcDbEntity
  8
innerShellOut
 62
7
100
AcDbLine
 10
54.762280
 20
57.943660
 30
0.0
 11
53.089190
 21
57.645570
 31
0.0
  0
LINE
  5
17c
100
AcDbEntity
  8
innerShellOut
 62
7
100
AcDbLine
 10
53.089190
 20
57.645570
 30
0.0
 11
51.321619
 21
57.405330
 31
0.0
  0
LINE
  5
17d
100
AcDbEntity
  8
innerShellOut
 62
7
100
AcDbLine
 10
51.321619
 20
57.405330
 30
0.0
 11
49.450302
 21
57.226790
 31
0.0
  0
LINE
  5
17e
100
AcDbEntity
  8
innerShellOut
 62
7
100
AcDbLine
 10
49.450302
 20
57.226790
 30
0.0
 11
47.465976
 21
57.113800
 31
0.0
  0
LINE
  5
17f
100
AcDbEntity
  8
innerShellOut
 62
7
100
AcDbLine
 10
47.465976
 20
57.113800
 30
0.0
 11
45.359376
 21
57.070200
 31
0.0
  0
LINE
  5
180
100
AcDbEntity
  8
innerShellOut
 62
7
100
AcDbLine
 10
45.359376
 20
57.070200
 30
0.0
 11
42.164387
 21
57.204070
 31
0.0
  0
LINE
  5
181
100
AcDbEntity
  8
innerShellOut
 62
7
100
AcDbLine
 10
42.164387
 20
57.204070
 30
0.0
 11
39.094202
 21
57.621060
 31
0.0
  0
LINE
  5
182
100
AcDbEntity
  8
innerShellOut
 62
7
100
AcDbLine
 10
39.094202
 20
57.621060
 30
0.0
 11
36.160044
 21
58.310110
 31
0.0
  0
LINE
  5
183
100
AcDbEntity
  8
innerShellOut
 62
7
100
AcDbLine
 10
36.160044
 20
58.310110
 30
0.0
 11
33.373133
 21
59.260190
 31
0.0
  0
LINE
  5
184
100
AcDbEntity
  8
innerShellOut
 62
7
100
AcDbLine
 10
33.373133
 20
59.260190
 30
0.0
 11
30.744690
 21
60.460250
 31
0.0
  0
LINE
  5
185
100
AcDbEntity
  8
innerShellOut
 62
7
100
AcDbLine
 10
30.744690
 20
60.460250
 30
0.0
 11
28.285937
 21
61.899230
 31
0.0
  0
LINE
  5
186
100
AcDbEntity
  8
innerShellOut
 62
7
100
AcDbLine
 10
28.285937
 20
61.899230
 30
0.0
 11
26.008095
 21
63.566100
 31
0.0
  0
LINE
  5
187
100
AcDbEntity
  8
innerShellOut
 62
7
100
AcDbLine
 10
26.008095
 20
63.566100
 30
0.0
 11
23.922385
 21
65.449800
 31
0.0
  0
LINE
  5
188
100
AcDbEntity
  8
innerShellOut
 62
7
100
AcDbLine
 10
23.922385
 20
65.449800
 30
0.0
 11
22.040028
 21
67.539300
 31
0.0
  0
LINE
  5
189
100
AcDbEntity
  8
innerShellOut
 62
7
100
AcDbLine
 10
22.040028
 20
67.539300
 30
0.0
 11
20.372246
 21
69.823530
 31
0.0
  0
LINE
  5
18a
100
AcDbEntity
  8
innerShellOut
 62
7
100
AcDbLine
 10
20.372246
 20
69.823530
 30
0.0
 11
18.930259
 21
72.291460
 31
0.0
  0
LINE
  5
18b
100
AcDbEntity
  8
innerShellOut
 62
7
100
AcDbLine
 10
18.930259
 20
72.291460
 30
0.0
 11
17.725289
 21
74.932040
 31
0.0
  0
LINE
  5
18c
100
AcDbEntity
  8
innerShellOut
 62
7
100
AcDbLine
 10
17.725289
 20
74.932040
 30
0.0
 11
16.768557
 21
77.734210
 31
0.0
  0
LINE
  5
18d
100
AcDbEntity
  8
innerShellOut
 62
7
100
AcDbLine
 10
16.768557
 20
77.734210
 30
0.0
 11
16.071284
 21
80.686950
 31
0.0
  0
LINE
  5
18e
100
AcDbEntity
  8
innerShellOut
 62
7
100
AcDbLine
 10
16.071284
 20
80.686950
 30
0.0
 11
15.644691
 21
83.779300
 31
0.0
  0
LINE
  5
18f
100
AcDbEntity
  8
innerShellOut
 62
7
100
AcDbLine
 10
15.644691
 20
83.779300
 30
0.0
 11
15.500000
 21
87.000000
 31
0.0
  0
LINE
  5
190
100
AcDbEntity
  8
innerShellOut
 62
7
100
AcDbLine
 10
15.500000
 20
87.000000
 30
0.0
 11
15.500000
 21
89.187500
 31
0.0
  0
LINE
  5
191
100
AcDbEntity
  8
innerShellOut
 62
7
100
AcDbLine
 10
15.500000
 20
89.187500
 30
0.0
 11
15.500000
 21
91.375000
 31
0.0
  0
LINE
  5
192
100
AcDbEntity
  8
innerShellOut
 62
7
100
AcDbLine
 10
15.500000
 20
91.375000
 30
0.0
 11
15.500000
 21
93.562500
 31
0.0
  0
LINE
  5
193
100
AcDbEntity
  8
innerShellOut
 62
7
100
AcDbLine
 10
15.500000
 20
93.562500
 30
0.0
 11
15.500000
 21
95.750000
 31
0.0
  0
LINE
  5
194
100
AcDbEntity
  8
innerShellOut
 62
7
100
AcDbLine
 10
15.500000
 20
95.750000
 30
0.0
 11
15.500000
 21
97.937500
 31
0.0
  0
LINE
  5
195
100
AcDbEntity
  8
innerShellOut
 62
7
100
AcDbLine
 10
15.500000
 20
97.937500
 30
0.0
 11
15.500000
 21
100.125000
 31
0.0
  0
LINE
  5
196
100
AcDbEntity
  8
innerShellOut
 62
7
100
AcDbLine
 10
15.500000
 20
100.125000
 30
0.0
 11
15.500000
 21
102.312500
 31
0.0
  0
LINE
  5
197
100
AcDbEntity
  8
innerShellOut
 62
7
100
AcDbLine
 10
15.500000
 20
102.312500
 30
0.0
 11
15.500000
 21
104.500000
 31
0.0
  0
LINE
  5
198
100
AcDbEntity
  8
innerShellOut
 62
7
100
AcDbLine
 10
15.500000
 20
104.500000
 30
0.0
 11
15.500000
 21
106.687500
 31
0.0
  0
LINE
  5
199
100
AcDbEntity
  8
innerShellOut
 62
7
100
AcDbLine
 10
15.500000
 20
106.687500
 30
0.0
 11
15.500000
 21
108.875000
 31
0.0
  0
LINE
  5
19a
100
AcDbEntity
  8
innerShellOut
 62
7
100
AcDbLine
 10
15.500000
 20
108.875000
 30
0.0
 11
15.500000
 21
111.062500
 31
0.0
  0
LINE
  5
19b
100
AcDbEntity
  8
innerShellOut
 62
7
100
AcDbLine
 10
15.500000
 20
111.062500
 30
0.0
 11
15.500000
 21
113.250000
 31
0.0
  0
LINE
  5
19c
100
AcDbEntity
  8
innerShellOut
 62
7
100
AcDbLine
 10
15.500000
 20
113.250000
 30
0.0
 11
15.500000
 21
115.437500
 31
0.0
  0
LINE
  5
19d
100
AcDbEntity
  8
innerShellOut
 62
7
100
AcDbLine
 10
15.500000
 20
115.437500
 30
0.0
 11
15.500000
 21
117.625000
 31
0.0
  0
LINE
  5
19e
100
AcDbEntity
  8
innerShellOut
 62
7
100
AcDbLine
 10
15.500000
 20
117.625000
 30
0.0
 11
15.500000
 21
119.812500
 31
0.0
  0
LINE
  5
19f
100
AcDbEntity
  8
innerShellOut
 62
7
100
AcDbLine
 10
15.500000
 20
119.812500
 30
0.0
 11
15.500000
 21
122.000000
 31
0.0
  0
LINE
  5
1a0
100
AcDbEntity
  8
innerShellOut
 62
7
100
AcDbLine
 10
15.500000
 20
122.000000
 30
0.0
 11
15.500000
 21
124.812500
 31
0.0
  0
LINE
  5
1a1
100
AcDbEntity
  8
innerShellOut
 62
7
100
AcDbLine
 10
15.500000
 20
124.812500
 30
0.0
 11
15.500000
 21
127.625000
 31
0.0
  0
LINE
  5
1a2
100
AcDbEntity
  8
innerShellOut
 62
7
100
AcDbLine
 10
15.500000
 20
127.625000
 30
0.0
 11
15.500000
 21
130.437500
 31
0.0
  0
LINE
  5
1a3
100
AcDbEntity
  8
innerShellOut
 62
7
100
AcDbLine
 10
15.500000
 20
130.437500
 30
0.0
 11
15.500000
 21
133.250000
 31
0.0
  0
LINE
  5
1a4
100
AcDbEntity
  8
innerShellOut
 62
7
100
AcDbLine
 10
15.500000
 20
133.250000
 30
0.0
 11
15.500000
 21
136.062500
 31
0.0
  0
LINE
  5
1a5
100
AcDbEntity
  8
innerShellOut
 62
7
100
AcDbLine
 10
15.500000
 20
136.062500
 30
0.0
 11
15.500000
 21
138.875000
 31
0.0
  0
LINE
  5
1a6
100
AcDbEntity
  8
innerShellOut
 62
7
100
AcDbLine
 10
15.500000
 20
138.875000
 30
0.0
 11
15.500000
 21
141.687500
 31
0.0
  0
LINE
  5
1a7
100
AcDbEntity
  8
innerShellOut
 62
7
100
AcDbLine
 10
15.500000
 20
141.687500
 30
0.0
 11
15.500000
 21
144.500000
 31
0.0
  0
LINE
  5
1a8
100
AcDbEntity
  8
innerShellOut
 62
7
100
AcDbLine
 10
15.500000
 20
144.500000
 30
0.0
 11
15.500000
 21
147.312500
 31
0.0
  0
LINE
  5
1a9
100
AcDbEntity
  8
innerShellOut
 62
7
100
AcDbLine
 10
15.500000
 20
147.312500
 30
0.0
 11
15.500000
 21
150.125000
 31
0.0
  0
LINE
  5
1aa
100
AcDbEntity
  8
innerShellOut
 62
7
100
AcDbLine
 10
15.500000
 20
150.125000
 30
0.0
 11
15.500000
 21
152.937500
 31
0.0
  0
LINE
  5
1ab
100
AcDbEntity
  8
innerShellOut
 62
7
100
AcDbLine
 10
15.500000
 20
152.937500
 30
0.0
 11
15.500000
 21
155.750000
 31
0.0
  0
LINE
  5
1ac
100
AcDbEntity
  8
innerShellOut
 62
7
100
AcDbLine
 10
15.500000
 20
155.750000
 30
0.0
 11
15.500000
 21
158.562500
 31
0.0
  0
LINE
  5
1ad
100
AcDbEntity
  8
innerShellOut
 62
7
100
AcDbLine
 10
15.500000
 20
158.562500
 30
0.0
 11
15.500000
 21
161.375000
 31
0.0
  0
LINE
  5
1ae
100
AcDbEntity
  8
innerShellOut
 62
7
100
AcDbLine
 10
15.500000
 20
161.375000
 30
0.0
 11
15.500000
 21
164.187500
 31
0.0
  0
LINE
  5
1af
100
AcDbEntity
  8
innerShellOut
 62
7
100
AcDbLine
 10
15.500000
 20
164.187500
 30
0.0
 11
15.500000
 21
167.000000
 31
0.0
  0
LINE
  5
1b0
100
AcDbEntity
  8
innerShellOut
 62
7
100
AcDbLine
 10
15.500000
 20
167.000000
 30
0.0
 11
17.375000
 21
167.000000
 31
0.0
  0
LINE
  5
1b1
100
AcDbEntity
  8
innerShellOut
 62
7
100
AcDbLine
 10
17.375000
 20
167.000000
 30
0.0
 11
19.250000
 21
167.000000
 31
0.0
  0
LINE
  5
1b2
100
AcDbEntity
  8
innerShellOut
 62
7
100
AcDbLine
 10
19.250000
 20
167.000000
 30
0.0
 11
21.125000
 21
167.000000
 31
0.0
  0
LINE
  5
1b3
100
AcDbEntity
  8
innerShellOut
 62
7
100
AcDbLine
 10
21.125000
 20
167.000000
 30
0.0
 11
23.000000
 21
167.000000
 31
0.0
  0
LINE
  5
1b4
100
AcDbEntity
  8
innerShellOut
 62
7
100
AcDbLine
 10
23.000000
 20
167.000000
 30
0.0
 11
24.875000
 21
167.000000
 31
0.0
  0
LINE
  5
1b5
100
AcDbEntity
  8
innerShellOut
 62
7
100
AcDbLine
 10
24.875000
 20
167.000000
 30
0.0
 11
26.750000
 21
167.000000
 31
0.0
  0
LINE
  5
1b6
100
AcDbEntity
  8
innerShellOut
 62
7
100
AcDbLine
 10
26.750000
 20
167.000000
 30
0.0
 11
28.625000
 21
167.000000
 31
0.0
  0
LINE
  5
1b7
100
AcDbEntity
  8
innerShellOut
 62
7
100
AcDbLine
 10
28.625000
 20
167.000000
 30
0.0
 11
30.500000
 21
167.000000
 31
0.0
  0
LINE
  5
1b8
100
AcDbEntity
  8
innerShellOut
 62
7
100
AcDbLine
 10
30.500000
 20
167.000000
 30
0.0
 11
32.374999
 21
167.000000
 31
0.0
  0
LINE
  5
1b9
100
AcDbEntity
  8
innerShellOut
 62
7
100
AcDbLine
 10
32.374999
 20
167.000000
 30
0.0
 11
34.249999
 21
167.000000
 31
0.0
  0
LINE
  5
1ba
100
AcDbEntity
  8
innerShellOut
 62
7
100
AcDbLine
 10
34.249999
 20
167.000000
 30
0.0
 11
36.124999
 21
167.000000
 31
0.0
  0
LINE
  5
1bb
100
AcDbEntity
  8
innerShellOut
 62
7
100
AcDbLine
 10
36.124999
 20
167.000000
 30
0.0
 11
37.999999
 21
167.000000
 31
0.0
  0
LINE
  5
1bc
100
AcDbEntity
  8
innerShellOut
 62
7
100
AcDbLine
 10
37.999999
 20
167.000000
 30
0.0
 11
39.874999
 21
167.000000
 31
0.0
  0
LINE
  5
1bd
100
AcDbEntity
  8
innerShellOut
 62
7
100
AcDbLine
 10
39.874999
 20
167.000000
 30
0.0
 11
41.749999
 21
167.000000
 31
0.0
  0
LINE
  5
1be
100
AcDbEntity
  8
innerShellOut
 62
7
100
AcDbLine
 10
41.749999
 20
167.000000
 30
0.0
 11
43.624999
 21
167.000000
 31
0.0
  0
LINE
  5
1bf
100
AcDbEntity
  8
innerShellOut
 62
7
100
AcDbLine
 10
43.624999
 20
167.000000
 30
0.0
 11
45.499999
 21
167.000000
 31
0.0
  0
LINE
  5
1c0
100
AcDbEntity
  8
innerShellOut
 62
7
100
AcDbLine
 10
45.499999
 20
167.000000
 30
0.0
 11
46.660746
 21
167.033400
 31
0.0
  0
LINE
  5
1c1
100
AcDbEntity
  8
innerShellOut
 62
7
100
AcDbLine
 10
46.660746
 20
167.033400
 30
0.0
 11
47.797433
 21
167.132500
 31
0.0
  0
LINE
  5
1c2
100
AcDbEntity
  8
innerShellOut
 62
7
100
AcDbLine
 10
47.797433
 20
167.132500
 30
0.0
 11
48.907355
 21
167.295260
 31
0.0
  0
LINE
  5
1c3
100
AcDbEntity
  8
innerShellOut
 62
7
100
AcDbLine
 10
48.907355
 20
167.295260
 30
0.0
 11
49.987807
 21
167.519760
 31
0.0
  0
LINE
  5
1c4
100
AcDbEntity
  8
innerShellOut
 62
7
100
AcDbLine
 10
49.987807
 20
167.519760
 30
0.0
 11
51.036083
 21
167.804080
 31
0.0
  0
LINE
  5
1c5
100
AcDbEntity
  8
innerShellOut
 62
7
100
AcDbLine
 10
51.036083
 20
167.804080
 30
0.0
 11
52.049480
 21
168.146280
 31
0.0
  0
LINE
  5
1c6
100
AcDbEntity
  8
innerShellOut
 62
7
100
AcDbLine
 10
52.049480
 20
168.146280
 30
0.0
 11
53.025291
 21
168.544420
 31
0.0
  0
LINE
  5
1c7
100
AcDbEntity
  8
innerShellOut
 62
7
100
AcDbLine
 10
53.025291
 20
168.544420
 30
0.0
 11
53.960812
 21
168.996580
 31
0.0
  0
LINE
  5
1c8
100
AcDbEntity
  8
innerShellOut
 62
7
100
AcDbLine
 10
53.960812
 20
168.996580
 30
0.0
 11
54.853338
 21
169.500810
 31
0.0
  0
LINE
  5
1c9
100
AcDbEntity
  8
innerShellOut
 62
7
100
AcDbLine
 10
54.853338
 20
169.500810
 30
0.0
 11
55.700163
 21
170.055190
 31
0.0
  0
LINE
  5
1ca
100
AcDbEntity
  8
innerShellOut
 62
7
100
AcDbLine
 10
55.700163
 20
170.055190
 30
0.0
 11
56.498583
 21
170.657770
 31
0.0
  0
LINE
  5
1cb
100
AcDbEntity
  8
innerShellOut
 62
7
100
AcDbLine
 10
56.498583
 20
170.657770
 30
0.0
 11
57.245892
 21
171.306640
 31
0.0
  0
LINE
  5
1cc
100
AcDbEntity
  8
innerShellOut
 62
7
100
AcDbLine
 10
57.245892
 20
171.306640
 30
0.0
 11
57.939386
 21
171.999840
 31
0.0
  0
LINE
  5
1cd
100
AcDbEntity
  8
innerShellOut
 62
7
100
AcDbLine
 10
57.939386
 20
171.999840
 30
0.0
 11
58.576359
 21
172.735450
 31
0.0
  0
LINE
  5
1ce
100
AcDbEntity
  8
innerShellOut
 62
7
100
AcDbLine
 10
58.576359
 20
172.735450
 30
0.0
 11
59.154107
 21
173.511530
 31
0.0
  0
LINE
  5
1cf
100
AcDbEntity
  8
innerShellOut
 62
7
100
AcDbLine
 10
59.154107
 20
173.511530
 30
0.0
 11
59.669924
 21
174.326150
 31
0.0
  0
LINE
  5
1d0
100
AcDbEntity
  8
innerShellOut
 62
7
100
AcDbLine
 10
59.669924
 20
174.326150
 30
0.0
 11
60.126064
 21
175.167130
 31
0.0
  0
LINE
  5
1d1
100
AcDbEntity
  8
innerShellOut
 62
7
100
AcDbLine
 10
60.126064
 20
175.167130
 30
0.0
 11
60.528067
 21
176.022820
 31
0.0
  0
LINE
  5
1d2
100
AcDbEntity
  8
innerShellOut
 62
7
100
AcDbLine
 10
60.528067
 20
176.022820
 30
0.0
 11
60.878154
 21
176.892070
 31
0.0
  0
LINE
  5
1d3
100
AcDbEntity
  8
innerShellOut
 62
7
100
AcDbLine
 10
60.878154
 20
176.892070
 30
0.0
 11
61.178551
 21
177.773730
 31
0.0
  0
LINE
  5
1d4
100
AcDbEntity
  8
innerShellOut
 62
7
100
AcDbLine
 10
61.178551
 20
177.773730
 30
0.0
 11
61.431480
 21
178.666660
 31
0.0
  0
LINE
  5
1d5
100
AcDbEntity
  8
innerShellOut
 62
7
100
AcDbLine
 10
61.431480
 20
178.666660
 30
0.0
 11
61.639165
 21
179.569700
 31
0.0
  0
LINE
  5
1d6
100
AcDbEntity
  8
innerShellOut
 62
7
100
AcDbLine
 10
61.639165
 20
179.569700
 30
0.0
 11
61.803830
 21
180.481720
 31
0.0
  0
LINE
  5
1d7
100
AcDbEntity
  8
innerShellOut
 62
7
100
AcDbLine
 10
61.803830
 20
180.481720
 30
0.0
 11
61.927699
 21
181.401560
 31
0.0
  0
LINE
  5
1d8
100
AcDbEntity
  8
innerShellOut
 62
7
100
AcDbLine
 10
61.927699
 20
181.401560
 30
0.0
 11
62.012999
 21
182.328070
 31
0.0
  0
LINE
  5
1d9
100
AcDbEntity
  8
innerShellOut
 62
7
100
AcDbLine
 10
62.012999
 20
182.328070
 30
0.0
 11
62.061949
 21
183.260120
 31
0.0
  0
LINE
  5
1da
100
AcDbEntity
  8
innerShellOut
 62
7
100
AcDbLine
 10
62.061949
 20
183.260120
 30
0.0
 11
62.076769
 21
184.196550
 31
0.0
  0
LINE
  5
1db
100
AcDbEntity
  8
innerShellOut
 62
7
100
AcDbLine
 10
62.076769
 20
184.196550
 30
0.0
 11
62.059689
 21
185.136210
 31
0.0
  0
LINE
  5
1dc
100
AcDbEntity
  8
innerShellOut
 62
7
100
AcDbLine
 10
62.059689
 20
185.136210
 30
0.0
 11
62.012929
 21
186.077970
 31
0.0
  0
LINE
  5
1dd
100
AcDbEntity
  8
innerShellOut
 62
7
100
AcDbLine
 10
62.012929
 20
186.077970
 30
0.0
 11
61.938709
 21
187.020660
 31
0.0
  0
LINE
  5
1de
100
AcDbEntity
  8
innerShellOut
 62
7
100
AcDbLine
 10
61.938709
 20
187.020660
 30
0.0
 11
61.839259
 21
187.963150
 31
0.0
  0
LINE
  5
1df
100
AcDbEntity
  8
innerShellOut
 62
7
100
AcDbLine
 10
61.839259
 20
187.963150
 30
0.0
 11
61.716804
 21
188.904280
 31
0.0
  0
LINE
  5
1e0
100
AcDbEntity
  8
innerShellOut
 62
7
100
AcDbLine
 10
61.716804
 20
188.904280
 30
0.0
 11
61.409201
 21
190.785790
 31
0.0
  0
LINE
  5
1e1
100
AcDbEntity
  8
innerShellOut
 62
7
100
AcDbLine
 10
61.409201
 20
190.785790
 30
0.0
 11
61.021566
 21
192.665730
 31
0.0
  0
LINE
  5
1e2
100
AcDbEntity
  8
innerShellOut
 62
7
100
AcDbLine
 10
61.021566
 20
192.665730
 30
0.0
 11
60.557353
 21
194.537640
 31
0.0
  0
LINE
  5
1e3
100
AcDbEntity
  8
innerShellOut
 62
7
100
AcDbLine
 10
60.557353
 20
194.537640
 30
0.0
 11
60.020013
 21
196.395050
 31
0.0
  0
LINE
  5
1e4
100
AcDbEntity
  8
innerShellOut
 62
7
100
AcDbLine
 10
60.020013
 20
196.395050
 30
0.0
 11
59.413001
 21
198.231518
 31
0.0
  0
LINE
  5
1e5
100
AcDbEntity
  8
innerShellOut
 62
7
100
AcDbLine
 10
59.413001
 20
198.231518
 30
0.0
 11
58.739769
 21
200.040578
 31
0.0
  0
LINE
  5
1e6
100
AcDbEntity
  8
innerShellOut
 62
7
100
AcDbLine
 10
58.739769
 20
200.040578
 30
0.0
 11
58.003770
 21
201.815774
 31
0.0
  0
LINE
  5
1e7
100
AcDbEntity
  8
innerShellOut
 62
7
100
AcDbLine
 10
58.003770
 20
201.815774
 30
0.0
 11
57.208457
 21
203.550648
 31
0.0
  0
LINE
  5
1e8
100
AcDbEntity
  8
innerShellOut
 62
7
100
AcDbLine
 10
57.208457
 20
203.550648
 30
0.0
 11
56.357284
 21
205.238742
 31
0.0
  0
LINE
  5
1e9
100
AcDbEntity
  8
innerShellOut
 62
7
100
AcDbLine
 10
56.357284
 20
205.238742
 30
0.0
 11
55.453702
 21
206.873598
 31
0.0
  0
LINE
  5
1ea
100
AcDbEntity
  8
innerShellOut
 62
7
100
AcDbLine
 10
55.453702
 20
206.873598
 30
0.0
 11
54.501165
 21
208.448759
 31
0.0
  0
LINE
  5
1eb
100
AcDbEntity
  8
innerShellOut
 62
7
100
AcDbLine
 10
54.501165
 20
208.448759
 30
0.0
 11
53.503125
 21
209.957766
 31
0.0
  0
LINE
  5
1ec
100
AcDbEntity
  8
innerShellOut
 62
7
100
AcDbLine
 10
53.503125
 20
209.957766
 30
0.0
 11
52.463037
 21
211.394162
 31
0.0
  0
LINE
  5
1ed
100
AcDbEntity
  8
innerShellOut
 62
7
100
AcDbLine
 10
52.463037
 20
211.394162
 30
0.0
 11
51.384352
 21
212.751489
 31
0.0
  0
LINE
  5
1ee
100
AcDbEntity
  8
innerShellOut
 62
7
100
AcDbLine
 10
51.384352
 20
212.751489
 30
0.0
 11
50.270524
 21
214.023289
 31
0.0
  0
LINE
  5
1ef
100
AcDbEntity
  8
innerShellOut
 62
7
100
AcDbLine
 10
50.270524
 20
214.023289
 30
0.0
 11
49.125000
 21
215.203124
 31
0.0
  0
LINE
  5
1f0
100
AcDbEntity
  8
innerShellOut
 62
7
100
AcDbLine
 10
49.125000
 20
215.203124
 30
0.0
 11
48.372151
 21
215.958711
 31
0.0
  0
LINE
  5
1f1
100
AcDbEntity
  8
innerShellOut
 62
7
100
AcDbLine
 10
48.372151
 20
215.958711
 30
0.0
 11
47.580225
 21
216.794635
 31
0.0
  0
LINE
  5
1f2
100
AcDbEntity
  8
innerShellOut
 62
7
100
AcDbLine
 10
47.580225
 20
216.794635
 30
0.0
 11
46.758748
 21
217.701158
 31
0.0
  0
LINE
  5
1f3
100
AcDbEntity
  8
innerShellOut
 62
7
100
AcDbLine
 10
46.758748
 20
217.701158
 30
0.0
 11
45.917246
 21
218.668545
 31
0.0
  0
LINE
  5
1f4
100
AcDbEntity
  8
innerShellOut
 62
7
100
AcDbLine
 10
45.917246
 20
218.668545
 30
0.0
 11
45.065244
 21
219.687059
 31
0.0
  0
LINE
  5
1f5
100
AcDbEntity
  8
innerShellOut
 62
7
100
AcDbLine
 10
45.065244
 20
219.687059
 30
0.0
 11
44.212268
 21
220.746964
 31
0.0
  0
LINE
  5
1f6
100
AcDbEntity
  8
innerShellOut
 62
7
100
AcDbLine
 10
44.212268
 20
220.746964
 30
0.0
 11
43.367844
 21
221.838523
 31
0.0
  0
LINE
  5
1f7
100
AcDbEntity
  8
innerShellOut
 62
7
100
AcDbLine
 10
43.367844
 20
221.838523
 30
0.0
 11
42.541498
 21
222.951999
 31
0.0
  0
LINE
  5
1f8
100
AcDbEntity
  8
innerShellOut
 62
7
100
AcDbLine
 10
42.541498
 20
222.951999
 30
0.0
 11
41.742755
 21
224.077657
 31
0.0
  0
LINE
  5
1f9
100
AcDbEntity
  8
innerShellOut
 62
7
100
AcDbLine
 10
41.742755
 20
224.077657
 30
0.0
 11
40.981141
 21
225.205759
 31
0.0
  0
LINE
  5
1fa
100
AcDbEntity
  8
innerShellOut
 62
7
100
AcDbLine
 10
40.981141
 20
225.205759
 30
0.0
 11
40.266182
 21
226.326570
 31
0.0
  0
LINE
  5
1fb
100
AcDbEntity
  8
innerShellOut
 62
7
100
AcDbLine
 10
40.266182
 20
226.326570
 30
0.0
 11
39.607404
 21
227.430352
 31
0.0
  0
LINE
  5
1fc
100
AcDbEntity
  8
innerShellOut
 62
7
100
AcDbLine
 10
39.607404
 20
227.430352
 30
0.0
 11
39.014331
 21
228.507370
 31
0.0
  0
LINE
  5
1fd
100
AcDbEntity
  8
innerShellOut
 62
7
100
AcDbLine
 10
39.014331
 20
228.507370
 30
0.0
 11
38.496491
 21
229.547886
 31
0.0
  0
LINE
  5
1fe
100
AcDbEntity
  8
innerShellOut
 62
7
100
AcDbLine
 10
38.496491
 20
229.547886
 30
0.0
 11
38.063408
 21
230.542165
 31
0.0
  0
LINE
  5
1ff
100
AcDbEntity
  8
innerShellOut
 62
7
100
AcDbLine
 10
38.063408
 20
230.542165
 30
0.0
 11
37.724609
 21
231.480469
 31
0.0
  0
LINE
  5
200
100
AcDbEntity
  8
innerShellOut
 62
7
100
AcDbLine
 10
37.724609
 20
231.480469
 30
0.0
 11
37.592090
 21
231.916014
 31
0.0
  0
LINE
  5
201
100
AcDbEntity
  8
innerShellOut
 62
7
100
AcDbLine
 10
37.592090
 20
231.916014
 30
0.0
 11
37.482162
 21
232.316721
 31
0.0
  0
LINE
  5
202
100
AcDbEntity
  8
innerShellOut
 62
7
100
AcDbLine
 10
37.482162
 20
232.316721
 30
0.0
 11
37.393542
 21
232.684303
 31
0.0
  0
LINE
  5
203
100
AcDbEntity
  8
innerShellOut
 62
7
100
AcDbLine
 10
37.393542
 20
232.684303
 30
0.0
 11
37.324952
 21
233.020475
 31
0.0
  0
LINE
  5
204
100
AcDbEntity
  8
innerShellOut
 62
7
100
AcDbLine
 10
37.324952
 20
233.020475
 30
0.0
 11
37.275112
 21
233.326951
 31
0.0
  0
LINE
  5
205
100
AcDbEntity
  8
innerShellOut
 62
7
100
AcDbLine
 10
37.275112
 20
233.326951
 30
0.0
 11
37.242732
 21
233.605446
 31
0.0
  0
LINE
  5
206
100
AcDbEntity
  8
innerShellOut
 62
7
100
AcDbLine
 10
37.242732
 20
233.605446
 30
0.0
 11
37.226542
 21
233.857673
 31
0.0
  0
LINE
  5
207
100
AcDbEntity
  8
innerShellOut
 62
7
100
AcDbLine
 10
37.226542
 20
233.857673
 30
0.0
 11
37.225242
 21
234.085346
 31
0.0
  0
LINE
  5
208
100
AcDbEntity
  8
innerShellOut
 62
7
100
AcDbLine
 10
37.225242
 20
234.085346
 30
0.0
 11
37.237572
 21
234.290180
 31
0.0
  0
LINE
  5
209
100
AcDbEntity
  8
innerShellOut
 62
7
100
AcDbLine
 10
37.237572
 20
234.290180
 30
0.0
 11
37.262242
 21
234.473890
 31
0.0
  0
LINE
  5
20a
100
AcDbEntity
  8
innerShellOut
 62
7
100
AcDbLine
 10
37.262242
 20
234.473890
 30
0.0
 11
37.297972
 21
234.638188
 31
0.0
  0
LINE
  5
20b
100
AcDbEntity
  8
innerShellOut
 62
7
100
AcDbLine
 10
37.297972
 20
234.638188
 30
0.0
 11
37.343482
 21
234.784790
 31
0.0
  0
LINE
  5
20c
100
AcDbEntity
  8
innerShellOut
 62
7
100
AcDbLine
 10
37.343482
 20
234.784790
 30
0.0
 11
37.397482
 21
234.915410
 31
0.0
  0
LINE
  5
20d
100
AcDbEntity
  8
innerShellOut
 62
7
100
AcDbLine
 10
37.397482
 20
234.915410
 30
0.0
 11
37.458702
 21
235.031761
 31
0.0
  0
LINE
  5
20e
100
AcDbEntity
  8
innerShellOut
 62
7
100
AcDbLine
 10
37.458702
 20
235.031761
 30
0.0
 11
37.525852
 21
235.135558
 31
0.0
  0
LINE
  5
20f
100
AcDbEntity
  8
innerShellOut
 62
7
100
AcDbLine
 10
37.525852
 20
235.135558
 30
0.0
 11
37.597652
 21
235.228518
 31
0.0
  0
LINE
  5
210
100
AcDbEntity
  8
innerShellOut
 62
7
100
AcDbLine
 10
37.597652
 20
235.228518
 30
0.0
 11
37.690562
 21
235.325848
 31
0.0
  0
LINE
  5
211
100
AcDbEntity
  8
innerShellOut
 62
7
100
AcDbLine
 10
37.690562
 20
235.325848
 30
0.0
 11
37.823756
 21
235.439549
 31
0.0
  0
LINE
  5
212
100
AcDbEntity
  8
innerShellOut
 62
7
100
AcDbLine
 10
37.823756
 20
235.439549
 30
0.0
 11
38.000062
 21
235.566493
 31
0.0
  0
LINE
  5
213
100
AcDbEntity
  8
innerShellOut
 62
7
100
AcDbLine
 10
38.000062
 20
235.566493
 30
0.0
 11
38.222303
 21
235.703554
 31
0.0
  0
LINE
  5
214
100
AcDbEntity
  8
innerShellOut
 62
7
100
AcDbLine
 10
38.222303
 20
235.703554
 30
0.0
 11
38.493303
 21
235.847607
 31
0.0
  0
LINE
  5
215
100
AcDbEntity
  8
innerShellOut
 62
7
100
AcDbLine
 10
38.493303
 20
235.847607
 30
0.0
 11
38.815886
 21
235.995528
 31
0.0
  0
LINE
  5
216
100
AcDbEntity
  8
innerShellOut
 62
7
100
AcDbLine
 10
38.815886
 20
235.995528
 30
0.0
 11
39.192876
 21
236.144192
 31
0.0
  0
LINE
  5
217
100
AcDbEntity
  8
innerShellOut
 62
7
100
AcDbLine
 10
39.192876
 20
236.144192
 30
0.0
 11
39.627095
 21
236.290474
 31
0.0
  0
LINE
  5
218
100
AcDbEntity
  8
innerShellOut
 62
7
100
AcDbLine
 10
39.627095
 20
236.290474
 30
0.0
 11
40.121369
 21
236.431249
 31
0.0
  0
LINE
  5
219
100
AcDbEntity
  8
innerShellOut
 62
7
100
AcDbLine
 10
40.121369
 20
236.431249
 30
0.0
 11
40.678521
 21
236.563393
 31
0.0
  0
LINE
  5
21a
100
AcDbEntity
  8
innerShellOut
 62
7
100
AcDbLine
 10
40.678521
 20
236.563393
 30
0.0
 11
41.301374
 21
236.683780
 31
0.0
  0
LINE
  5
21b
100
AcDbEntity
  8
innerShellOut
 62
7
100
AcDbLine
 10
41.301374
 20
236.683780
 30
0.0
 11
41.992753
 21
236.789285
 31
0.0
  0
LINE
  5
21c
100
AcDbEntity
  8
innerShellOut
 62
7
100
AcDbLine
 10
41.992753
 20
236.789285
 30
0.0
 11
42.755481
 21
236.876785
 31
0.0
  0
LINE
  5
21d
100
AcDbEntity
  8
innerShellOut
 62
7
100
AcDbLine
 10
42.755481
 20
236.876785
 30
0.0
 11
43.592382
 21
236.943155
 31
0.0
  0
LINE
  5
21e
100
AcDbEntity
  8
innerShellOut
 62
7
100
AcDbLine
 10
43.592382
 20
236.943155
 30
0.0
 11
44.506280
 21
236.985265
 31
0.0
  0
LINE
  5
21f
100
AcDbEntity
  8
innerShellOut
 62
7
100
AcDbLine
 10
44.506280
 20
236.985265
 30
0.0
 11
45.499999
 21
237.000000
 31
0.0
  0
LINE
  5
220
100
AcDbEntity
  8
innerShellOut
 62
7
100
AcDbLine
 10
45.499999
 20
237.000000
 30
0.0
 11
47.595766
 21
236.963170
 31
0.0
  0
LINE
  5
221
100
AcDbEntity
  8
innerShellOut
 62
7
100
AcDbLine
 10
47.595766
 20
236.963170
 30
0.0
 11
49.576258
 21
236.855313
 31
0.0
  0
LINE
  5
222
100
AcDbEntity
  8
innerShellOut
 62
7
100
AcDbLine
 10
49.576258
 20
236.855313
 30
0.0
 11
51.450012
 21
236.680405
 31
0.0
  0
LINE
  5
223
100
AcDbEntity
  8
innerShellOut
 62
7
100
AcDbLine
 10
51.450012
 20
236.680405
 30
0.0
 11
53.225566
 21
236.442415
 31
0.0
  0
LINE
  5
224
100
AcDbEntity
  8
innerShellOut
 62
7
100
AcDbLine
 10
53.225566
 20
236.442415
 30
0.0
 11
54.911459
 21
236.145313
 31
0.0
  0
LINE
  5
225
100
AcDbEntity
  8
innerShellOut
 62
7
100
AcDbLine
 10
54.911459
 20
236.145313
 30
0.0
 11
56.516229
 21
235.793071
 31
0.0
  0
LINE
  5
226
100
AcDbEntity
  8
innerShellOut
 62
7
100
AcDbLine
 10
56.516229
 20
235.793071
 30
0.0
 11
58.048412
 21
235.389657
 31
0.0
  0
LINE
  5
227
100
AcDbEntity
  8
innerShellOut
 62
7
100
AcDbLine
 10
58.048412
 20
235.389657
 30
0.0
 11
59.516548
 21
234.939043
 31
0.0
  0
LINE
  5
228
100
AcDbEntity
  8
innerShellOut
 62
7
100
AcDbLine
 10
59.516548
 20
234.939043
 30
0.0
 11
60.929174
 21
234.445199
 31
0.0
  0
LINE
  5
229
100
AcDbEntity
  8
innerShellOut
 62
7
100
AcDbLine
 10
60.929174
 20
234.445199
 30
0.0
 11
62.294828
 21
233.912094
 31
0.0
  0
LINE
  5
22a
100
AcDbEntity
  8
innerShellOut
 62
7
100
AcDbLine
 10
62.294828
 20
233.912094
 30
0.0
 11
63.622049
 21
233.343699
 31
0.0
  0
LINE
  5
22b
100
AcDbEntity
  8
innerShellOut
 62
7
100
AcDbLine
 10
63.622049
 20
233.343699
 30
0.0
 11
64.919373
 21
232.743984
 31
0.0
  0
LINE
  5
22c
100
AcDbEntity
  8
innerShellOut
 62
7
100
AcDbLine
 10
64.919373
 20
232.743984
 30
0.0
 11
66.195339
 21
232.116920
 31
0.0
  0
LINE
  5
22d
100
AcDbEntity
  8
innerShellOut
 62
7
100
AcDbLine
 10
66.195339
 20
232.116920
 30
0.0
 11
67.458485
 21
231.466477
 31
0.0
  0
LINE
  5
22e
100
AcDbEntity
  8
innerShellOut
 62
7
100
AcDbLine
 10
67.458485
 20
231.466477
 30
0.0
 11
68.717349
 21
230.796624
 31
0.0
  0
LINE
  5
22f
100
AcDbEntity
  8
innerShellOut
 62
7
100
AcDbLine
 10
68.717349
 20
230.796624
 30
0.0
 11
69.980469
 21
230.111333
 31
0.0
  0
LINE
  5
230
100
AcDbEntity
  8
innerShellOut
 62
7
100
AcDbLine
 10
69.980469
 20
230.111333
 30
0.0
 11
71.258005
 21
229.412310
 31
0.0
  0
LINE
  5
231
100
AcDbEntity
  8
innerShellOut
 62
7
100
AcDbLine
 10
71.258005
 20
229.412310
 30
0.0
 11
72.557355
 21
228.703653
 31
0.0
  0
LINE
  5
232
100
AcDbEntity
  8
innerShellOut
 62
7
100
AcDbLine
 10
72.557355
 20
228.703653
 30
0.0
 11
73.882913
 21
227.992912
 31
0.0
  0
LINE
  5
233
100
AcDbEntity
  8
innerShellOut
 62
7
100
AcDbLine
 10
73.882913
 20
227.992912
 30
0.0
 11
75.239076
 21
227.287641
 31
0.0
  0
LINE
  5
234
100
AcDbEntity
  8
innerShellOut
 62
7
100
AcDbLine
 10
75.239076
 20
227.287641
 30
0.0
 11
76.630239
 21
226.595391
 31
0.0
  0
LINE
  5
235
100
AcDbEntity
  8
innerShellOut
 62
7
100
AcDbLine
 10
76.630239
 20
226.595391
 30
0.0
 11
78.060795
 21
225.923715
 31
0.0
  0
LINE
  5
236
100
AcDbEntity
  8
innerShellOut
 62
7
100
AcDbLine
 10
78.060795
 20
225.923715
 30
0.0
 11
79.535142
 21
225.280165
 31
0.0
  0
LINE
  5
237
100
AcDbEntity
  8
innerShellOut
 62
7
100
AcDbLine
 10
79.535142
 20
225.280165
 30
0.0
 11
81.057673
 21
224.672293
 31
0.0
  0
LINE
  5
238
100
AcDbEntity
  8
innerShellOut
 62
7
100
AcDbLine
 10
81.057673
 20
224.672293
 30
0.0
 11
82.632784
 21
224.107652
 31
0.0
  0
LINE
  5
239
100
AcDbEntity
  8
innerShellOut
 62
7
100
AcDbLine
 10
82.632784
 20
224.107652
 30
0.0
 11
84.264871
 21
223.593794
 31
0.0
  0
LINE
  5
23a
100
AcDbEntity
  8
innerShellOut
 62
7
100
AcDbLine
 10
84.264871
 20
223.593794
 30
0.0
 11
85.958328
 21
223.138270
 31
0.0
  0
LINE
  5
23b
100
AcDbEntity
  8
innerShellOut
 62
7
100
AcDbLine
 10
85.958328
 20
223.138270
 30
0.0
 11
87.717551
 21
222.748633
 31
0.0
  0
LINE
  5
23c
100
AcDbEntity
  8
innerShellOut
 62
7
100
AcDbLine
 10
87.717551
 20
222.748633
 30
0.0
 11
89.546934
 21
222.432436
 31
0.0
  0
LINE
  5
23d
100
AcDbEntity
  8
innerShellOut
 62
7
100
AcDbLine
 10
89.546934
 20
222.432436
 30
0.0
 11
91.450873
 21
222.197231
 31
0.0
  0
LINE
  5
23e
100
AcDbEntity
  8
innerShellOut
 62
7
100
AcDbLine
 10
91.450873
 20
222.197231
 30
0.0
 11
93.433763
 21
222.050569
 31
0.0
  0
LINE
  5
23f
100
AcDbEntity
  8
innerShellOut
 62
7
100
AcDbLine
 10
93.433763
 20
222.050569
 30
0.0
 11
95.500000
 21
222.000000
 31
0.0
  0
LINE
  5
240
100
AcDbEntity
  8
innerShellOut
 62
7
100
AcDbLine
 10
95.500000
 20
222.000000
 30
0.0
 11
99.080920
 21
222.106211
 31
0.0
  0
LINE
  5
241
100
AcDbEntity
  8
innerShellOut
 62
7
100
AcDbLine
 10
99.080920
 20
222.106211
 30
0.0
 11
102.637310
 21
222.415269
 31
0.0
  0
LINE
  5
242
100
AcDbEntity
  8
innerShellOut
 62
7
100
AcDbLine
 10
102.637310
 20
222.415269
 30
0.0
 11
106.170850
 21
222.912812
 31
0.0
  0
LINE
  5
243
100
AcDbEntity
  8
innerShellOut
 62
7
100
AcDbLine
 10
106.170850
 20
222.912812
 30
0.0
 11
109.683250
 21
223.584477
 31
0.0
  0
LINE
  5
244
100
AcDbEntity
  8
innerShellOut
 62
7
100
AcDbLine
 10
109.683250
 20
223.584477
 30
0.0
 11
113.176200
 21
224.415902
 31
0.0
  0
LINE
  5
245
100
AcDbEntity
  8
innerShellOut
 62
7
100
AcDbLine
 10
113.176200
 20
224.415902
 30
0.0
 11
116.651380
 21
225.392724
 31
0.0
  0
LINE
  5
246
100
AcDbEntity
  8
innerShellOut
 62
7
100
AcDbLine
 10
116.651380
 20
225.392724
 30
0.0
 11
120.110500
 21
226.500581
 31
0.0
  0
LINE
  5
247
100
AcDbEntity
  8
innerShellOut
 62
7
100
AcDbLine
 10
120.110500
 20
226.500581
 30
0.0
 11
123.555240
 21
227.725110
 31
0.0
  0
LINE
  5
248
100
AcDbEntity
  8
innerShellOut
 62
7
100
AcDbLine
 10
123.555240
 20
227.725110
 30
0.0
 11
126.987300
 21
229.051949
 31
0.0
  0
LINE
  5
249
100
AcDbEntity
  8
innerShellOut
 62
7
100
AcDbLine
 10
126.987300
 20
229.051949
 30
0.0
 11
130.408370
 21
230.466735
 31
0.0
  0
LINE
  5
24a
100
AcDbEntity
  8
innerShellOut
 62
7
100
AcDbLine
 10
130.408370
 20
230.466735
 30
0.0
 11
133.820140
 21
231.955106
 31
0.0
  0
LINE
  5
24b
100
AcDbEntity
  8
innerShellOut
 62
7
100
AcDbLine
 10
133.820140
 20
231.955106
 30
0.0
 11
137.224310
 21
233.502699
 31
0.0
  0
LINE
  5
24c
100
AcDbEntity
  8
innerShellOut
 62
7
100
AcDbLine
 10
137.224310
 20
233.502699
 30
0.0
 11
140.622570
 21
235.095153
 31
0.0
  0
LINE
  5
24d
100
AcDbEntity
  8
innerShellOut
 62
7
100
AcDbLine
 10
140.622570
 20
235.095153
 30
0.0
 11
144.016620
 21
236.718103
 31
0.0
  0
LINE
  5
24e
100
AcDbEntity
  8
innerShellOut
 62
7
100
AcDbLine
 10
144.016620
 20
236.718103
 30
0.0
 11
147.408140
 21
238.357189
 31
0.0
  0
LINE
  5
24f
100
AcDbEntity
  8
innerShellOut
 62
7
100
AcDbLine
 10
147.408140
 20
238.357189
 30
0.0
 11
150.798830
 21
239.998047
 31
0.0
  0
LINE
  5
250
100
AcDbEntity
  8
innerShellOut
 62
7
100
AcDbLine
 10
150.798830
 20
239.998047
 30
0.0
 11
154.189670
 21
241.627718
 31
0.0
  0
LINE
  5
251
100
AcDbEntity
  8
innerShellOut
 62
7
100
AcDbLine
 10
154.189670
 20
241.627718
 30
0.0
 11
157.580990
 21
243.235189
 31
0.0
  0
LINE
  5
252
100
AcDbEntity
  8
innerShellOut
 62
7
100
AcDbLine
 10
157.580990
 20
243.235189
 30
0.0
 11
160.973490
 21
244.809015
 31
0.0
  0
LINE
  5
253
100
AcDbEntity
  8
innerShellOut
 62
7
100
AcDbLine
 10
160.973490
 20
244.809015
 30
0.0
 11
164.367850
 21
246.337753
 31
0.0
  0
LINE
  5
254
100
AcDbEntity
  8
innerShellOut
 62
7
100
AcDbLine
 10
164.367850
 20
246.337753
 30
0.0
 11
167.764780
 21
247.809958
 31
0.0
  0
LINE
  5
255
100
AcDbEntity
  8
innerShellOut
 62
7
100
AcDbLine
 10
167.764780
 20
247.809958
 30
0.0
 11
171.164980
 21
249.214187
 31
0.0
  0
LINE
  5
256
100
AcDbEntity
  8
innerShellOut
 62
7
100
AcDbLine
 10
171.164980
 20
249.214187
 30
0.0
 11
174.569140
 21
250.538994
 31
0.0
  0
LINE
  5
257
100
AcDbEntity
  8
innerShellOut
 62
7
100
AcDbLine
 10
174.569140
 20
250.538994
 30
0.0
 11
177.977970
 21
251.772935
 31
0.0
  0
LINE
  5
258
100
AcDbEntity
  8
innerShellOut
 62
7
100
AcDbLine
 10
177.977970
 20
251.772935
 30
0.0
 11
181.392140
 21
252.904567
 31
0.0
  0
LINE
  5
259
100
AcDbEntity
  8
innerShellOut
 62
7
100
AcDbLine
 10
181.392140
 20
252.904567
 30
0.0
 11
184.812380
 21
253.922445
 31
0.0
  0
LINE
  5
25a
100
AcDbEntity
  8
innerShellOut
 62
7
100
AcDbLine
 10
184.812380
 20
253.922445
 30
0.0
 11
188.239370
 21
254.815125
 31
0.0
  0
LINE
  5
25b
100
AcDbEntity
  8
innerShellOut
 62
7
100
AcDbLine
 10
188.239370
 20
254.815125
 30
0.0
 11
191.673800
 21
255.571162
 31
0.0
  0
LINE
  5
25c
100
AcDbEntity
  8
innerShellOut
 62
7
100
AcDbLine
 10
191.673800
 20
255.571162
 30
0.0
 11
195.116390
 21
256.179112
 31
0.0
  0
LINE
  5
25d
100
AcDbEntity
  8
innerShellOut
 62
7
100
AcDbLine
 10
195.116390
 20
256.179112
 30
0.0
 11
198.567820
 21
256.627531
 31
0.0
  0
LINE
  5
25e
100
AcDbEntity
  8
innerShellOut
 62
7
100
AcDbLine
 10
198.567820
 20
256.627531
 30
0.0
 11
202.028790
 21
256.904975
 31
0.0
  0
LINE
  5
25f
100
AcDbEntity
  8
innerShellOut
 62
7
100
AcDbLine
 10
202.028790
 20
256.904975
 30
0.0
 11
205.500000
 21
257.000000
 31
0.0
  0
ENDSEC
  0
SECTION
  2
OBJECTS
  0
DICTIONARY
  5
C
330
0
100
AcDbDictionary
  3
ACAD_GROUP
350
D
  3
ACAD_MLINESTYLE
350
17
  0
DICTIONARY
  5
D
330
C
100
AcDbDictionary
  0
DICTIONARY
  5
1A
330
C
100
AcDbDictionary
  0
DICTIONARY
  5
17
330
C
100
AcDbDictionary
  3
STANDARD
350
18
  0
DICTIONARY
  5
19
330
C
100
AcDbDictionary
  0
ENDSEC
  0
EOF
