  0
SECTION
  2
HEADER
  9
$ACADVER
  1
AC1014
  9
$HANDSEED
  5
FFFF
  9
$MEASUREMENT
 70
     1
  0
ENDSEC
  0
SECTION
  2
TABLES
  0
TABLE
  2
VPORT
  5
8
330
0
100
AcDbSymbolTable
 70
     4
  0
VPORT
  5
2E
330
8
100
AcDbSymbolTableRecord
100
AcDbViewportTableRecord
  2
*ACTIVE
 70
     0
 10
0.0
 20
0.0
 11
1.0
 21
1.0
 12
210.0
 22
148.5
 13
0.0
 23
0.0
 14
10.0
 24
10.0
 15
10.0
 25
10.0
 16
0.0
 26
0.0
 36
1.0
 17
0.0
 27
0.0
 37
0.0
 40
341.0
 41
1.24
 42
50.0
 43
0.0
 44
0.0
 50
0.0
 51
0.0
 71
     0
 72
   100
 73
     1
 74
     3
 75
     0
 76
     0
 77
     0
 78
     0
  0
ENDTAB
  0
TABLE
  2
LTYPE
  5
5
330
0
100
AcDbSymbolTable
 70
     1
  0
LTYPE
  5
14
330
5
100
AcDbSymbolTableRecord
100
AcDbLinetypeTableRecord
  2
BYBLOCK
 70
     0
  3

 72
    65
 73
     0
 40
0.0
  0
LTYPE
  5
15
330
5
100
AcDbSymbolTableRecord
100
AcDbLinetypeTableRecord
  2
BYLAYER
 70
     0
  3

 72
    65
 73
     0
 40
0.0
  0
LTYPE
  5
16
330
5
100
AcDbSymbolTableRecord
100
AcDbLinetypeTableRecord
  2
CONTINUOUS
 70
     0
  3
Solid line
 72
    65
 73
     0
 40
0.0
  0
ENDTAB
  0
TABLE
  2
LAYER
  5
2
100
AcDbSymbolTable
 70
7
  0
LAYER
  5
50
100
AcDbSymbolTableRecord
100
AcDbLayerTableRecord
  2
0
 70
0
  6
CONTINUOUS
  0
LAYER
  5
51
100
AcDbSymbolTableRecord
100
AcDbLayerTableRecord
  2
woodIn
 70
0
  6
CONTINUOUS
  0
LAYER
  5
52
100
AcDbSymbolTableRecord
100
AcDbLayerTableRecord
  2
woodOut
 70
0
  6
CONTINUOUS
  0
LAYER
  5
53
100
AcDbSymbolTableRecord
100
AcDbLayerTableRecord
  2
outerShellIn
 70
0
  6
CONTINUOUS
  0
LAYER
  5
54
100
AcDbSymbolTableRecord
100
AcDbLayerTableRecord
  2
outerShellOut
 70
0
  6
CONTINUOUS
  0
LAYER
  5
55
100
AcDbSymbolTableRecord
100
AcDbLayerTableRecord
  2
innerShellOut
 70
0
  6
CONTINUOUS
  0
LAYER
  5
56
100
AcDbSymbolTableRecord
100
AcDbLayerTableRecord
  2
innerShellIn
 70
0
  6
CONTINUOUS
  0
ENDTAB
  0
TABLE
  2
STYLE
  5
3
330
0
100
AcDbSymbolTable
 70
     1
  0
STYLE
  5
11
330
3
100
AcDbSymbolTableRecord
100
AcDbTextStyleTableRecord
  2
STANDARD
 70
     0
 40
0.0
 41
1.0
 50
0.0
 71
     0
 42
2.5
  3
txt
  4

  0
ENDTAB
  0
TABLE
  2
VIEW
  5
6
330
0
100
AcDbSymbolTable
 70
     0
  0
ENDTAB
  0
TABLE
  2
UCS
  5
7
330
0
100
AcDbSymbolTable
 70
     0
  0
ENDTAB
  0
TABLE
  2
APPID
  5
9
330
0
100
AcDbSymbolTable
 70
     2
  0
APPID
  5
12
330
9
100
AcDbSymbolTableRecord
100
AcDbRegAppTableRecord
  2
ACAD
 70
     0
  0
ENDTAB
  0
TABLE
  2
DIMSTYLE
  5
A
330
0
100
AcDbSymbolTable
 70
     1
  0
DIMSTYLE
105
27
330
A
100
AcDbSymbolTableRecord
100
AcDbDimStyleTableRecord
  2
ISO-25
 70
     0
  3

  4

  5

  6

  7

 40
1.0
 41
2.5
 42
0.625
 43
3.75
 44
1.25
 45
0.0
 46
0.0
 47
0.0
 48
0.0
140
2.5
141
2.5
142
0.0
143
0.03937007874016
144
1.0
145
0.0
146
1.0
147
0.625
 71
     0
 72
     0
 73
     0
 74
     0
 75
     0
 76
     0
 77
     1
 78
     8
170
     0
171
     3
172
     1
173
     0
174
     0
175
     0
176
     0
177
     0
178
     0
270
     2
271
     2
272
     2
273
     2
274
     3
340
11
275
     0
280
     0
281
     0
282
     0
283
     0
284
     8
285
     0
286
     0
287
     3
288
     0
  0
ENDTAB
  0
TABLE
  2
BLOCK_RECORD
  5
1
330
0
100
AcDbSymbolTable
 70
     1
  0
BLOCK_RECORD
  5
1F
330
1
100
AcDbSymbolTableRecord
100
AcDbBlockTableRecord
  2
*MODEL_SPACE
  0
BLOCK_RECORD
  5
1B
330
1
100
AcDbSymbolTableRecord
100
AcDbBlockTableRecord
  2
*PAPER_SPACE
  0
ENDTAB
  0
ENDSEC
  0
SECTION
  2
BLOCKS
  0
BLOCK
  5
20
330
1F
100
AcDbEntity
  8
0
100
AcDbBlockBegin
  2
*MODEL_SPACE
 70
     0
 10
0.0
 20
0.0
 30
0.0
  3
*MODEL_SPACE
  1

  0
ENDBLK
  5
21
330
1F
100
AcDbEntity
  8
0
100
AcDbBlockEnd
  0
BLOCK
  5
1C
330
1B
100
AcDbEntity
 67
     1
  8
0
100
AcDbBlockBegin
  2
*PAPER_SPACE
  1

  0
ENDBLK
  5
1D
330
1B
100
AcDbEntity
 67
     1
  8
0
100
AcDbBlockEnd
  0
ENDSEC
  0
SECTION
  2
ENTITIES
  0
LINE
  5
100
100
AcDbEntity
  8
woodIn
 62
7
100
AcDbLine
 10
11.500000
 20
171.000000
 30
0.0
 11
13.625000
 21
171.000000
 31
0.0
  0
LINE
  5
101
100
AcDbEntity
  8
woodIn
 62
7
100
AcDbLine
 10
13.625000
 20
171.000000
 30
0.0
 11
15.750000
 21
171.000000
 31
0.0
  0
LINE
  5
102
100
AcDbEntity
  8
woodIn
 62
7
100
AcDbLine
 10
15.750000
 20
171.000000
 30
0.0
 11
17.875000
 21
171.000000
 31
0.0
  0
LINE
  5
103
100
AcDbEntity
  8
woodIn
 62
7
100
AcDbLine
 10
17.875000
 20
171.000000
 30
0.0
 11
20.000000
 21
171.000000
 31
0.0
  0
LINE
  5
104
100
AcDbEntity
  8
woodIn
 62
7
100
AcDbLine
 10
20.000000
 20
171.000000
 30
0.0
 11
22.125000
 21
171.000000
 31
0.0
  0
LINE
  5
105
100
AcDbEntity
  8
woodIn
 62
7
100
AcDbLine
 10
22.125000
 20
171.000000
 30
0.0
 11
24.250000
 21
171.000000
 31
0.0
  0
LINE
  5
106
100
AcDbEntity
  8
woodIn
 62
7
100
AcDbLine
 10
24.250000
 20
171.000000
 30
0.0
 11
26.375000
 21
171.000000
 31
0.0
  0
LINE
  5
107
100
AcDbEntity
  8
woodIn
 62
7
100
AcDbLine
 10
26.375000
 20
171.000000
 30
0.0
 11
28.500000
 21
171.000000
 31
0.0
  0
LINE
  5
108
100
AcDbEntity
  8
woodIn
 62
7
100
AcDbLine
 10
28.500000
 20
171.000000
 30
0.0
 11
30.625001
 21
171.000000
 31
0.0
  0
LINE
  5
109
100
AcDbEntity
  8
woodIn
 62
7
100
AcDbLine
 10
30.625001
 20
171.000000
 30
0.0
 11
32.750001
 21
171.000000
 31
0.0
  0
LINE
  5
10a
100
AcDbEntity
  8
woodIn
 62
7
100
AcDbLine
 10
32.750001
 20
171.000000
 30
0.0
 11
34.875001
 21
171.000000
 31
0.0
  0
LINE
  5
10b
100
AcDbEntity
  8
woodIn
 62
7
100
AcDbLine
 10
34.875001
 20
171.000000
 30
0.0
 11
37.000001
 21
171.000000
 31
0.0
  0
LINE
  5
10c
100
AcDbEntity
  8
woodIn
 62
7
100
AcDbLine
 10
37.000001
 20
171.000000
 30
0.0
 11
39.125001
 21
171.000000
 31
0.0
  0
LINE
  5
10d
100
AcDbEntity
  8
woodIn
 62
7
100
AcDbLine
 10
39.125001
 20
171.000000
 30
0.0
 11
41.250001
 21
171.000000
 31
0.0
  0
LINE
  5
10e
100
AcDbEntity
  8
woodIn
 62
7
100
AcDbLine
 10
41.250001
 20
171.000000
 30
0.0
 11
43.375001
 21
171.000000
 31
0.0
  0
LINE
  5
10f
100
AcDbEntity
  8
woodIn
 62
7
100
AcDbLine
 10
43.375001
 20
171.000000
 30
0.0
 11
45.500001
 21
171.000000
 31
0.0
  0
LINE
  5
110
100
AcDbEntity
  8
woodIn
 62
7
100
AcDbLine
 10
45.500001
 20
171.000000
 30
0.0
 11
46.464667
 21
171.024100
 31
0.0
  0
LINE
  5
111
100
AcDbEntity
  8
woodIn
 62
7
100
AcDbLine
 10
46.464667
 20
171.024100
 30
0.0
 11
47.389923
 21
171.095600
 31
0.0
  0
LINE
  5
112
100
AcDbEntity
  8
woodIn
 62
7
100
AcDbLine
 10
47.389923
 20
171.095600
 30
0.0
 11
48.275778
 21
171.213140
 31
0.0
  0
LINE
  5
113
100
AcDbEntity
  8
woodIn
 62
7
100
AcDbLine
 10
48.275778
 20
171.213140
 30
0.0
 11
49.122242
 21
171.375420
 31
0.0
  0
LINE
  5
114
100
AcDbEntity
  8
woodIn
 62
7
100
AcDbLine
 10
49.122242
 20
171.375420
 30
0.0
 11
49.929325
 21
171.581140
 31
0.0
  0
LINE
  5
115
100
AcDbEntity
  8
woodIn
 62
7
100
AcDbLine
 10
49.929325
 20
171.581140
 30
0.0
 11
50.697037
 21
171.828980
 31
0.0
  0
LINE
  5
116
100
AcDbEntity
  8
woodIn
 62
7
100
AcDbLine
 10
50.697037
 20
171.828980
 30
0.0
 11
51.425388
 21
172.117640
 31
0.0
  0
LINE
  5
117
100
AcDbEntity
  8
woodIn
 62
7
100
AcDbLine
 10
51.425388
 20
172.117640
 30
0.0
 11
52.114388
 21
172.445800
 31
0.0
  0
LINE
  5
118
100
AcDbEntity
  8
woodIn
 62
7
100
AcDbLine
 10
52.114388
 20
172.445800
 30
0.0
 11
52.764047
 21
172.812150
 31
0.0
  0
LINE
  5
119
100
AcDbEntity
  8
woodIn
 62
7
100
AcDbLine
 10
52.764047
 20
172.812150
 30
0.0
 11
53.374374
 21
173.215390
 31
0.0
  0
LINE
  5
11a
100
AcDbEntity
  8
woodIn
 62
7
100
AcDbLine
 10
53.374374
 20
173.215390
 30
0.0
 11
53.945380
 21
173.654190
 31
0.0
  0
LINE
  5
11b
100
AcDbEntity
  8
woodIn
 62
7
100
AcDbLine
 10
53.945380
 20
173.654190
 30
0.0
 11
54.477075
 21
174.127260
 31
0.0
  0
LINE
  5
11c
100
AcDbEntity
  8
woodIn
 62
7
100
AcDbLine
 10
54.477075
 20
174.127260
 30
0.0
 11
54.969468
 21
174.633280
 31
0.0
  0
LINE
  5
11d
100
AcDbEntity
  8
woodIn
 62
7
100
AcDbLine
 10
54.969468
 20
174.633280
 30
0.0
 11
55.422569
 21
175.170940
 31
0.0
  0
LINE
  5
11e
100
AcDbEntity
  8
woodIn
 62
7
100
AcDbLine
 10
55.422569
 20
175.170940
 30
0.0
 11
55.836390
 21
175.738920
 31
0.0
  0
LINE
  5
11f
100
AcDbEntity
  8
woodIn
 62
7
100
AcDbLine
 10
55.836390
 20
175.738920
 30
0.0
 11
56.210938
 21
176.335930
 31
0.0
  0
LINE
  5
120
100
AcDbEntity
  8
woodIn
 62
7
100
AcDbLine
 10
56.210938
 20
176.335930
 30
0.0
 11
56.547207
 21
176.958600
 31
0.0
  0
LINE
  5
121
100
AcDbEntity
  8
woodIn
 62
7
100
AcDbLine
 10
56.547207
 20
176.958600
 30
0.0
 11
56.846848
 21
177.603690
 31
0.0
  0
LINE
  5
122
100
AcDbEntity
  8
woodIn
 62
7
100
AcDbLine
 10
56.846848
 20
177.603690
 30
0.0
 11
57.110862
 21
178.270050
 31
0.0
  0
LINE
  5
123
100
AcDbEntity
  8
woodIn
 62
7
100
AcDbLine
 10
57.110862
 20
178.270050
 30
0.0
 11
57.340248
 21
178.956530
 31
0.0
  0
LINE
  5
124
100
AcDbEntity
  8
woodIn
 62
7
100
AcDbLine
 10
57.340248
 20
178.956530
 30
0.0
 11
57.536007
 21
179.661960
 31
0.0
  0
LINE
  5
125
100
AcDbEntity
  8
woodIn
 62
7
100
AcDbLine
 10
57.536007
 20
179.661960
 30
0.0
 11
57.699137
 21
180.385210
 31
0.0
  0
LINE
  5
126
100
AcDbEntity
  8
woodIn
 62
7
100
AcDbLine
 10
57.699137
 20
180.385210
 30
0.0
 11
57.830639
 21
181.125110
 31
0.0
  0
LINE
  5
127
100
AcDbEntity
  8
woodIn
 62
7
100
AcDbLine
 10
57.830639
 20
181.125110
 30
0.0
 11
57.931512
 21
181.880520
 31
0.0
  0
LINE
  5
128
100
AcDbEntity
  8
woodIn
 62
7
100
AcDbLine
 10
57.931512
 20
181.880520
 30
0.0
 11
58.002762
 21
182.650280
 31
0.0
  0
LINE
  5
129
100
AcDbEntity
  8
woodIn
 62
7
100
AcDbLine
 10
58.002762
 20
182.650280
 30
0.0
 11
58.045382
 21
183.433250
 31
0.0
  0
LINE
  5
12a
100
AcDbEntity
  8
woodIn
 62
7
100
AcDbLine
 10
58.045382
 20
183.433250
 30
0.0
 11
58.060372
 21
184.228260
 31
0.0
  0
LINE
  5
12b
100
AcDbEntity
  8
woodIn
 62
7
100
AcDbLine
 10
58.060372
 20
184.228260
 30
0.0
 11
58.048732
 21
185.034170
 31
0.0
  0
LINE
  5
12c
100
AcDbEntity
  8
woodIn
 62
7
100
AcDbLine
 10
58.048732
 20
185.034170
 30
0.0
 11
58.011462
 21
185.849830
 31
0.0
  0
LINE
  5
12d
100
AcDbEntity
  8
woodIn
 62
7
100
AcDbLine
 10
58.011462
 20
185.849830
 30
0.0
 11
57.949562
 21
186.674070
 31
0.0
  0
LINE
  5
12e
100
AcDbEntity
  8
woodIn
 62
7
100
AcDbLine
 10
57.949562
 20
186.674070
 30
0.0
 11
57.864032
 21
187.505760
 31
0.0
  0
LINE
  5
12f
100
AcDbEntity
  8
woodIn
 62
7
100
AcDbLine
 10
57.864032
 20
187.505760
 30
0.0
 11
57.755873
 21
188.343740
 31
0.0
  0
LINE
  5
130
100
AcDbEntity
  8
woodIn
 62
7
100
AcDbLine
 10
57.755873
 20
188.343740
 30
0.0
 11
57.475105
 21
190.035530
 31
0.0
  0
LINE
  5
131
100
AcDbEntity
  8
woodIn
 62
7
100
AcDbLine
 10
57.475105
 20
190.035530
 30
0.0
 11
57.112766
 21
191.742180
 31
0.0
  0
LINE
  5
132
100
AcDbEntity
  8
woodIn
 62
7
100
AcDbLine
 10
57.112766
 20
191.742180
 30
0.0
 11
56.673957
 21
193.455010
 31
0.0
  0
LINE
  5
133
100
AcDbEntity
  8
woodIn
 62
7
100
AcDbLine
 10
56.673957
 20
193.455010
 30
0.0
 11
56.163781
 21
195.165360
 31
0.0
  0
LINE
  5
134
100
AcDbEntity
  8
woodIn
 62
7
100
AcDbLine
 10
56.163781
 20
195.165360
 30
0.0
 11
55.587339
 21
196.864560
 31
0.0
  0
LINE
  5
135
100
AcDbEntity
  8
woodIn
 62
7
100
AcDbLine
 10
55.587339
 20
196.864560
 30
0.0
 11
54.949733
 21
198.543931
 31
0.0
  0
LINE
  5
136
100
AcDbEntity
  8
woodIn
 62
7
100
AcDbLine
 10
54.949733
 20
198.543931
 30
0.0
 11
54.256065
 21
200.194807
 31
0.0
  0
LINE
  5
137
100
AcDbEntity
  8
woodIn
 62
7
100
AcDbLine
 10
54.256065
 20
200.194807
 30
0.0
 11
53.511436
 21
201.808518
 31
0.0
  0
LINE
  5
138
100
AcDbEntity
  8
woodIn
 62
7
100
AcDbLine
 10
53.511436
 20
201.808518
 30
0.0
 11
52.720949
 21
203.376394
 31
0.0
  0
LINE
  5
139
100
AcDbEntity
  8
woodIn
 62
7
100
AcDbLine
 10
52.720949
 20
203.376394
 30
0.0
 11
51.889705
 21
204.889764
 31
0.0
  0
LINE
  5
13a
100
AcDbEntity
  8
woodIn
 62
7
100
AcDbLine
 10
51.889705
 20
204.889764
 30
0.0
 11
51.022805
 21
206.339958
 31
0.0
  0
LINE
  5
13b
100
AcDbEntity
  8
woodIn
 62
7
100
AcDbLine
 10
51.022805
 20
206.339958
 30
0.0
 11
50.125353
 21
207.718306
 31
0.0
  0
LINE
  5
13c
100
AcDbEntity
  8
woodIn
 62
7
100
AcDbLine
 10
50.125353
 20
207.718306
 30
0.0
 11
49.202449
 21
209.016138
 31
0.0
  0
LINE
  5
13d
100
AcDbEntity
  8
woodIn
 62
7
100
AcDbLine
 10
49.202449
 20
209.016138
 30
0.0
 11
48.259195
 21
210.224784
 31
0.0
  0
LINE
  5
13e
100
AcDbEntity
  8
woodIn
 62
7
100
AcDbLine
 10
48.259195
 20
210.224784
 30
0.0
 11
47.300693
 21
211.335572
 31
0.0
  0
LINE
  5
13f
100
AcDbEntity
  8
woodIn
 62
7
100
AcDbLine
 10
47.300693
 20
211.335572
 30
0.0
 11
46.332045
 21
212.339834
 31
0.0
  0
LINE
  5
140
100
AcDbEntity
  8
woodIn
 62
7
100
AcDbLine
 10
46.332045
 20
212.339834
 30
0.0
 11
45.517705
 21
213.152427
 31
0.0
  0
LINE
  5
141
100
AcDbEntity
  8
woodIn
 62
7
100
AcDbLine
 10
45.517705
 20
213.152427
 30
0.0
 11
44.665771
 21
214.039440
 31
0.0
  0
LINE
  5
142
100
AcDbEntity
  8
woodIn
 62
7
100
AcDbLine
 10
44.665771
 20
214.039440
 30
0.0
 11
43.785387
 21
214.993724
 31
0.0
  0
LINE
  5
143
100
AcDbEntity
  8
woodIn
 62
7
100
AcDbLine
 10
43.785387
 20
214.993724
 30
0.0
 11
42.885698
 21
216.008126
 31
0.0
  0
LINE
  5
144
100
AcDbEntity
  8
woodIn
 62
7
100
AcDbLine
 10
42.885698
 20
216.008126
 30
0.0
 11
41.975848
 21
217.075499
 31
0.0
  0
LINE
  5
145
100
AcDbEntity
  8
woodIn
 62
7
100
AcDbLine
 10
41.975848
 20
217.075499
 30
0.0
 11
41.064982
 21
218.188690
 31
0.0
  0
LINE
  5
146
100
AcDbEntity
  8
woodIn
 62
7
100
AcDbLine
 10
41.064982
 20
218.188690
 30
0.0
 11
40.162242
 21
219.340550
 31
0.0
  0
LINE
  5
147
100
AcDbEntity
  8
woodIn
 62
7
100
AcDbLine
 10
40.162242
 20
219.340550
 30
0.0
 11
39.276775
 21
220.523928
 31
0.0
  0
LINE
  5
148
100
AcDbEntity
  8
woodIn
 62
7
100
AcDbLine
 10
39.276775
 20
220.523928
 30
0.0
 11
38.417723
 21
221.731674
 31
0.0
  0
LINE
  5
149
100
AcDbEntity
  8
woodIn
 62
7
100
AcDbLine
 10
38.417723
 20
221.731674
 30
0.0
 11
37.594232
 21
222.956638
 31
0.0
  0
LINE
  5
14a
100
AcDbEntity
  8
woodIn
 62
7
100
AcDbLine
 10
37.594232
 20
222.956638
 30
0.0
 11
36.815445
 21
224.191668
 31
0.0
  0
LINE
  5
14b
100
AcDbEntity
  8
woodIn
 62
7
100
AcDbLine
 10
36.815445
 20
224.191668
 30
0.0
 11
36.090506
 21
225.429616
 31
0.0
  0
LINE
  5
14c
100
AcDbEntity
  8
woodIn
 62
7
100
AcDbLine
 10
36.090506
 20
225.429616
 30
0.0
 11
35.428560
 21
226.663331
 31
0.0
  0
LINE
  5
14d
100
AcDbEntity
  8
woodIn
 62
7
100
AcDbLine
 10
35.428560
 20
226.663331
 30
0.0
 11
34.838752
 21
227.885661
 31
0.0
  0
LINE
  5
14e
100
AcDbEntity
  8
woodIn
 62
7
100
AcDbLine
 10
34.838752
 20
227.885661
 30
0.0
 11
34.330225
 21
229.089458
 31
0.0
  0
LINE
  5
14f
100
AcDbEntity
  8
woodIn
 62
7
100
AcDbLine
 10
34.330225
 20
229.089458
 30
0.0
 11
33.912123
 21
230.267570
 31
0.0
  0
LINE
  5
150
100
AcDbEntity
  8
woodIn
 62
7
100
AcDbLine
 10
33.912123
 20
230.267570
 30
0.0
 11
33.739555
 21
230.842850
 31
0.0
  0
LINE
  5
151
100
AcDbEntity
  8
woodIn
 62
7
100
AcDbLine
 10
33.739555
 20
230.842850
 30
0.0
 11
33.592122
 21
231.405599
 31
0.0
  0
LINE
  5
152
100
AcDbEntity
  8
woodIn
 62
7
100
AcDbLine
 10
33.592122
 20
231.405599
 30
0.0
 11
33.470471
 21
231.955508
 31
0.0
  0
LINE
  5
153
100
AcDbEntity
  8
woodIn
 62
7
100
AcDbLine
 10
33.470471
 20
231.955508
 30
0.0
 11
33.375251
 21
232.492266
 31
0.0
  0
LINE
  5
154
100
AcDbEntity
  8
woodIn
 62
7
100
AcDbLine
 10
33.375251
 20
232.492266
 30
0.0
 11
33.307101
 21
233.015563
 31
0.0
  0
LINE
  5
155
100
AcDbEntity
  8
woodIn
 62
7
100
AcDbLine
 10
33.307101
 20
233.015563
 30
0.0
 11
33.266671
 21
233.525092
 31
0.0
  0
LINE
  5
156
100
AcDbEntity
  8
woodIn
 62
7
100
AcDbLine
 10
33.266671
 20
233.525092
 30
0.0
 11
33.254611
 21
234.020540
 31
0.0
  0
LINE
  5
157
100
AcDbEntity
  8
woodIn
 62
7
100
AcDbLine
 10
33.254611
 20
234.020540
 30
0.0
 11
33.271571
 21
234.501600
 31
0.0
  0
LINE
  5
158
100
AcDbEntity
  8
woodIn
 62
7
100
AcDbLine
 10
33.271571
 20
234.501600
 30
0.0
 11
33.318191
 21
234.967961
 31
0.0
  0
LINE
  5
159
100
AcDbEntity
  8
woodIn
 62
7
100
AcDbLine
 10
33.318191
 20
234.967961
 30
0.0
 11
33.395111
 21
235.419313
 31
0.0
  0
LINE
  5
15a
100
AcDbEntity
  8
woodIn
 62
7
100
AcDbLine
 10
33.395111
 20
235.419313
 30
0.0
 11
33.502989
 21
235.855348
 31
0.0
  0
LINE
  5
15b
100
AcDbEntity
  8
woodIn
 62
7
100
AcDbLine
 10
33.502989
 20
235.855348
 30
0.0
 11
33.642467
 21
236.275755
 31
0.0
  0
LINE
  5
15c
100
AcDbEntity
  8
woodIn
 62
7
100
AcDbLine
 10
33.642467
 20
236.275755
 30
0.0
 11
33.814192
 21
236.680225
 31
0.0
  0
LINE
  5
15d
100
AcDbEntity
  8
woodIn
 62
7
100
AcDbLine
 10
33.814192
 20
236.680225
 30
0.0
 11
34.018810
 21
237.068447
 31
0.0
  0
LINE
  5
15e
100
AcDbEntity
  8
woodIn
 62
7
100
AcDbLine
 10
34.018810
 20
237.068447
 30
0.0
 11
34.256968
 21
237.440113
 31
0.0
  0
LINE
  5
15f
100
AcDbEntity
  8
woodIn
 62
7
100
AcDbLine
 10
34.256968
 20
237.440113
 30
0.0
 11
34.529313
 21
237.794913
 31
0.0
  0
LINE
  5
160
100
AcDbEntity
  8
woodIn
 62
7
100
AcDbLine
 10
34.529313
 20
237.794913
 30
0.0
 11
34.840042
 21
238.135241
 31
0.0
  0
LINE
  5
161
100
AcDbEntity
  8
woodIn
 62
7
100
AcDbLine
 10
34.840042
 20
238.135241
 30
0.0
 11
35.193902
 21
238.462847
 31
0.0
  0
LINE
  5
162
100
AcDbEntity
  8
woodIn
 62
7
100
AcDbLine
 10
35.193902
 20
238.462847
 30
0.0
 11
35.592363
 21
238.776458
 31
0.0
  0
LINE
  5
163
100
AcDbEntity
  8
woodIn
 62
7
100
AcDbLine
 10
35.592363
 20
238.776458
 30
0.0
 11
36.036895
 21
239.074799
 31
0.0
  0
LINE
  5
164
100
AcDbEntity
  8
woodIn
 62
7
100
AcDbLine
 10
36.036895
 20
239.074799
 30
0.0
 11
36.528969
 21
239.356596
 31
0.0
  0
LINE
  5
165
100
AcDbEntity
  8
woodIn
 62
7
100
AcDbLine
 10
36.528969
 20
239.356596
 30
0.0
 11
37.070055
 21
239.620574
 31
0.0
  0
LINE
  5
166
100
AcDbEntity
  8
woodIn
 62
7
100
AcDbLine
 10
37.070055
 20
239.620574
 30
0.0
 11
37.661623
 21
239.865460
 31
0.0
  0
LINE
  5
167
100
AcDbEntity
  8
woodIn
 62
7
100
AcDbLine
 10
37.661623
 20
239.865460
 30
0.0
 11
38.305144
 21
240.089979
 31
0.0
  0
LINE
  5
168
100
AcDbEntity
  8
woodIn
 62
7
100
AcDbLine
 10
38.305144
 20
240.089979
 30
0.0
 11
39.002086
 21
240.292856
 31
0.0
  0
LINE
  5
169
100
AcDbEntity
  8
woodIn
 62
7
100
AcDbLine
 10
39.002086
 20
240.292856
 30
0.0
 11
39.753922
 21
240.472817
 31
0.0
  0
LINE
  5
16a
100
AcDbEntity
  8
woodIn
 62
7
100
AcDbLine
 10
39.753922
 20
240.472817
 30
0.0
 11
40.562121
 21
240.628588
 31
0.0
  0
LINE
  5
16b
100
AcDbEntity
  8
woodIn
 62
7
100
AcDbLine
 10
40.562121
 20
240.628588
 30
0.0
 11
41.428152
 21
240.758895
 31
0.0
  0
LINE
  5
16c
100
AcDbEntity
  8
woodIn
 62
7
100
AcDbLine
 10
41.428152
 20
240.758895
 30
0.0
 11
42.353488
 21
240.862463
 31
0.0
  0
LINE
  5
16d
100
AcDbEntity
  8
woodIn
 62
7
100
AcDbLine
 10
42.353488
 20
240.862463
 30
0.0
 11
43.339597
 21
240.938023
 31
0.0
  0
LINE
  5
16e
100
AcDbEntity
  8
woodIn
 62
7
100
AcDbLine
 10
43.339597
 20
240.938023
 30
0.0
 11
44.387950
 21
240.984293
 31
0.0
  0
LINE
  5
16f
100
AcDbEntity
  8
woodIn
 62
7
100
AcDbLine
 10
44.387950
 20
240.984293
 30
0.0
 11
45.500017
 21
241.000003
 31
0.0
  0
LINE
  5
170
100
AcDbEntity
  8
woodIn
 62
7
100
AcDbLine
 10
45.500017
 20
241.000003
 30
0.0
 11
47.748154
 21
240.958223
 31
0.0
  0
LINE
  5
171
100
AcDbEntity
  8
woodIn
 62
7
100
AcDbLine
 10
47.748154
 20
240.958223
 30
0.0
 11
49.884621
 21
240.836335
 31
0.0
  0
LINE
  5
172
100
AcDbEntity
  8
woodIn
 62
7
100
AcDbLine
 10
49.884621
 20
240.836335
 30
0.0
 11
51.916252
 21
240.639526
 31
0.0
  0
LINE
  5
173
100
AcDbEntity
  8
woodIn
 62
7
100
AcDbLine
 10
51.916252
 20
240.639526
 30
0.0
 11
53.849879
 21
240.372984
 31
0.0
  0
LINE
  5
174
100
AcDbEntity
  8
woodIn
 62
7
100
AcDbLine
 10
53.849879
 20
240.372984
 30
0.0
 11
55.692336
 21
240.041895
 31
0.0
  0
LINE
  5
175
100
AcDbEntity
  8
woodIn
 62
7
100
AcDbLine
 10
55.692336
 20
240.041895
 30
0.0
 11
57.450457
 21
239.651444
 31
0.0
  0
LINE
  5
176
100
AcDbEntity
  8
woodIn
 62
7
100
AcDbLine
 10
57.450457
 20
239.651444
 30
0.0
 11
59.131074
 21
239.206818
 31
0.0
  0
LINE
  5
177
100
AcDbEntity
  8
woodIn
 62
7
100
AcDbLine
 10
59.131074
 20
239.206818
 30
0.0
 11
60.741022
 21
238.713203
 31
0.0
  0
LINE
  5
178
100
AcDbEntity
  8
woodIn
 62
7
100
AcDbLine
 10
60.741022
 20
238.713203
 30
0.0
 11
62.287134
 21
238.175787
 31
0.0
  0
LINE
  5
179
100
AcDbEntity
  8
woodIn
 62
7
100
AcDbLine
 10
62.287134
 20
238.175787
 30
0.0
 11
63.776242
 21
237.599754
 31
0.0
  0
LINE
  5
17a
100
AcDbEntity
  8
woodIn
 62
7
100
AcDbLine
 10
63.776242
 20
237.599754
 30
0.0
 11
65.215181
 21
236.990291
 31
0.0
  0
LINE
  5
17b
100
AcDbEntity
  8
woodIn
 62
7
100
AcDbLine
 10
65.215181
 20
236.990291
 30
0.0
 11
66.610784
 21
236.352585
 31
0.0
  0
LINE
  5
17c
100
AcDbEntity
  8
woodIn
 62
7
100
AcDbLine
 10
66.610784
 20
236.352585
 30
0.0
 11
67.969884
 21
235.691821
 31
0.0
  0
LINE
  5
17d
100
AcDbEntity
  8
woodIn
 62
7
100
AcDbLine
 10
67.969884
 20
235.691821
 30
0.0
 11
69.299315
 21
235.013187
 31
0.0
  0
LINE
  5
17e
100
AcDbEntity
  8
woodIn
 62
7
100
AcDbLine
 10
69.299315
 20
235.013187
 30
0.0
 11
70.605910
 21
234.321868
 31
0.0
  0
LINE
  5
17f
100
AcDbEntity
  8
woodIn
 62
7
100
AcDbLine
 10
70.605910
 20
234.321868
 30
0.0
 11
71.896502
 21
233.623051
 31
0.0
  0
LINE
  5
180
100
AcDbEntity
  8
woodIn
 62
7
100
AcDbLine
 10
71.896502
 20
233.623051
 30
0.0
 11
73.178250
 21
232.921470
 31
0.0
  0
LINE
  5
181
100
AcDbEntity
  8
woodIn
 62
7
100
AcDbLine
 10
73.178250
 20
232.921470
 30
0.0
 11
74.457760
 21
232.222341
 31
0.0
  0
LINE
  5
182
100
AcDbEntity
  8
woodIn
 62
7
100
AcDbLine
 10
74.457760
 20
232.222341
 30
0.0
 11
75.741041
 21
231.531570
 31
0.0
  0
LINE
  5
183
100
AcDbEntity
  8
woodIn
 62
7
100
AcDbLine
 10
75.741041
 20
231.531570
 30
0.0
 11
77.034099
 21
230.855066
 31
0.0
  0
LINE
  5
184
100
AcDbEntity
  8
woodIn
 62
7
100
AcDbLine
 10
77.034099
 20
230.855066
 30
0.0
 11
78.342942
 21
230.198734
 31
0.0
  0
LINE
  5
185
100
AcDbEntity
  8
woodIn
 62
7
100
AcDbLine
 10
78.342942
 20
230.198734
 30
0.0
 11
79.673576
 21
229.568484
 31
0.0
  0
LINE
  5
186
100
AcDbEntity
  8
woodIn
 62
7
100
AcDbLine
 10
79.673576
 20
229.568484
 30
0.0
 11
81.032008
 21
228.970221
 31
0.0
  0
LINE
  5
187
100
AcDbEntity
  8
woodIn
 62
7
100
AcDbLine
 10
81.032008
 20
228.970221
 30
0.0
 11
82.424247
 21
228.409853
 31
0.0
  0
LINE
  5
188
100
AcDbEntity
  8
woodIn
 62
7
100
AcDbLine
 10
82.424247
 20
228.409853
 30
0.0
 11
83.856298
 21
227.893287
 31
0.0
  0
LINE
  5
189
100
AcDbEntity
  8
woodIn
 62
7
100
AcDbLine
 10
83.856298
 20
227.893287
 30
0.0
 11
85.334170
 21
227.426432
 31
0.0
  0
LINE
  5
18a
100
AcDbEntity
  8
woodIn
 62
7
100
AcDbLine
 10
85.334170
 20
227.426432
 30
0.0
 11
86.863868
 21
227.015193
 31
0.0
  0
LINE
  5
18b
100
AcDbEntity
  8
woodIn
 62
7
100
AcDbLine
 10
86.863868
 20
227.015193
 30
0.0
 11
88.451401
 21
226.665478
 31
0.0
  0
LINE
  5
18c
100
AcDbEntity
  8
woodIn
 62
7
100
AcDbLine
 10
88.451401
 20
226.665478
 30
0.0
 11
90.102775
 21
226.383194
 31
0.0
  0
LINE
  5
18d
100
AcDbEntity
  8
woodIn
 62
7
100
AcDbLine
 10
90.102775
 20
226.383194
 30
0.0
 11
91.823998
 21
226.174250
 31
0.0
  0
LINE
  5
18e
100
AcDbEntity
  8
woodIn
 62
7
100
AcDbLine
 10
91.823998
 20
226.174250
 30
0.0
 11
93.621077
 21
226.044551
 31
0.0
  0
LINE
  5
18f
100
AcDbEntity
  8
woodIn
 62
7
100
AcDbLine
 10
93.621077
 20
226.044551
 30
0.0
 11
95.500018
 21
226.000001
 31
0.0
  0
LINE
  5
190
100
AcDbEntity
  8
woodIn
 62
7
100
AcDbLine
 10
95.500018
 20
226.000001
 30
0.0
 11
98.841332
 21
226.101565
 31
0.0
  0
LINE
  5
191
100
AcDbEntity
  8
woodIn
 62
7
100
AcDbLine
 10
98.841332
 20
226.101565
 30
0.0
 11
102.178486
 21
226.397508
 31
0.0
  0
LINE
  5
192
100
AcDbEntity
  8
woodIn
 62
7
100
AcDbLine
 10
102.178486
 20
226.397508
 30
0.0
 11
105.512556
 21
226.874702
 31
0.0
  0
LINE
  5
193
100
AcDbEntity
  8
woodIn
 62
7
100
AcDbLine
 10
105.512556
 20
226.874702
 30
0.0
 11
108.844596
 21
227.520021
 31
0.0
  0
LINE
  5
194
100
AcDbEntity
  8
woodIn
 62
7
100
AcDbLine
 10
108.844596
 20
227.520021
 30
0.0
 11
112.175696
 21
228.320340
 31
0.0
  0
LINE
  5
195
100
AcDbEntity
  8
woodIn
 62
7
100
AcDbLine
 10
112.175696
 20
228.320340
 30
0.0
 11
115.506906
 21
229.262530
 31
0.0
  0
LINE
  5
196
100
AcDbEntity
  8
woodIn
 62
7
100
AcDbLine
 10
115.506906
 20
229.262530
 30
0.0
 11
118.839306
 21
230.333467
 31
0.0
  0
LINE
  5
197
100
AcDbEntity
  8
woodIn
 62
7
100
AcDbLine
 10
118.839306
 20
230.333467
 30
0.0
 11
122.173956
 21
231.520023
 31
0.0
  0
LINE
  5
198
100
AcDbEntity
  8
woodIn
 62
7
100
AcDbLine
 10
122.173956
 20
231.520023
 30
0.0
 11
125.511926
 21
232.809072
 31
0.0
  0
LINE
  5
199
100
AcDbEntity
  8
woodIn
 62
7
100
AcDbLine
 10
125.511926
 20
232.809072
 30
0.0
 11
128.854296
 21
234.187488
 31
0.0
  0
LINE
  5
19a
100
AcDbEntity
  8
woodIn
 62
7
100
AcDbLine
 10
128.854296
 20
234.187488
 30
0.0
 11
132.202116
 21
235.642145
 31
0.0
  0
LINE
  5
19b
100
AcDbEntity
  8
woodIn
 62
7
100
AcDbLine
 10
132.202116
 20
235.642145
 30
0.0
 11
135.556476
 21
237.159916
 31
0.0
  0
LINE
  5
19c
100
AcDbEntity
  8
woodIn
 62
7
100
AcDbLine
 10
135.556476
 20
237.159916
 30
0.0
 11
138.918426
 21
238.727674
 31
0.0
  0
LINE
  5
19d
100
AcDbEntity
  8
woodIn
 62
7
100
AcDbLine
 10
138.918426
 20
238.727674
 30
0.0
 11
142.289046
 21
240.332293
 31
0.0
  0
LINE
  5
19e
100
AcDbEntity
  8
woodIn
 62
7
100
AcDbLine
 10
142.289046
 20
240.332293
 30
0.0
 11
145.669406
 21
241.960647
 31
0.0
  0
LINE
  5
19f
100
AcDbEntity
  8
woodIn
 62
7
100
AcDbLine
 10
145.669406
 20
241.960647
 30
0.0
 11
149.060566
 21
243.599610
 31
0.0
  0
LINE
  5
1a0
100
AcDbEntity
  8
woodIn
 62
7
100
AcDbLine
 10
149.060566
 20
243.599610
 30
0.0
 11
152.463456
 21
245.236335
 31
0.0
  0
LINE
  5
1a1
100
AcDbEntity
  8
woodIn
 62
7
100
AcDbLine
 10
152.463456
 20
245.236335
 30
0.0
 11
155.878876
 21
246.858365
 31
0.0
  0
LINE
  5
1a2
100
AcDbEntity
  8
woodIn
 62
7
100
AcDbLine
 10
155.878876
 20
246.858365
 30
0.0
 11
159.307706
 21
248.453160
 31
0.0
  0
LINE
  5
1a3
100
AcDbEntity
  8
woodIn
 62
7
100
AcDbLine
 10
159.307706
 20
248.453160
 30
0.0
 11
162.750806
 21
250.008175
 31
0.0
  0
LINE
  5
1a4
100
AcDbEntity
  8
woodIn
 62
7
100
AcDbLine
 10
162.750806
 20
250.008175
 30
0.0
 11
166.209066
 21
251.510868
 31
0.0
  0
LINE
  5
1a5
100
AcDbEntity
  8
woodIn
 62
7
100
AcDbLine
 10
166.209066
 20
251.510868
 30
0.0
 11
169.683356
 21
252.948696
 31
0.0
  0
LINE
  5
1a6
100
AcDbEntity
  8
woodIn
 62
7
100
AcDbLine
 10
169.683356
 20
252.948696
 30
0.0
 11
173.174536
 21
254.309117
 31
0.0
  0
LINE
  5
1a7
100
AcDbEntity
  8
woodIn
 62
7
100
AcDbLine
 10
173.174536
 20
254.309117
 30
0.0
 11
176.683506
 21
255.579587
 31
0.0
  0
LINE
  5
1a8
100
AcDbEntity
  8
woodIn
 62
7
100
AcDbLine
 10
176.683506
 20
255.579587
 30
0.0
 11
180.211116
 21
256.747564
 31
0.0
  0
LINE
  5
1a9
100
AcDbEntity
  8
woodIn
 62
7
100
AcDbLine
 10
180.211116
 20
256.747564
 30
0.0
 11
183.758246
 21
257.800505
 31
0.0
  0
LINE
  5
1aa
100
AcDbEntity
  8
woodIn
 62
7
100
AcDbLine
 10
183.758246
 20
257.800505
 30
0.0
 11
187.325786
 21
258.725867
 31
0.0
  0
LINE
  5
1ab
100
AcDbEntity
  8
woodIn
 62
7
100
AcDbLine
 10
187.325786
 20
258.725867
 30
0.0
 11
190.914586
 21
259.511108
 31
0.0
  0
LINE
  5
1ac
100
AcDbEntity
  8
woodIn
 62
7
100
AcDbLine
 10
190.914586
 20
259.511108
 30
0.0
 11
194.525536
 21
260.143684
 31
0.0
  0
LINE
  5
1ad
100
AcDbEntity
  8
woodIn
 62
7
100
AcDbLine
 10
194.525536
 20
260.143684
 30
0.0
 11
198.159516
 21
260.611054
 31
0.0
  0
LINE
  5
1ae
100
AcDbEntity
  8
woodIn
 62
7
100
AcDbLine
 10
198.159516
 20
260.611054
 30
0.0
 11
201.817376
 21
260.900674
 31
0.0
  0
LINE
  5
1af
100
AcDbEntity
  8
woodIn
 62
7
100
AcDbLine
 10
201.817376
 20
260.900674
 30
0.0
 11
205.500016
 21
261.000004
 31
0.0
  0
LINE
  5
1b0
100
AcDbEntity
  8
woodIn
 62
7
100
AcDbLine
 10
205.500016
 20
261.000004
 30
0.0
 11
207.558126
 21
260.996304
 31
0.0
  0
LINE
  5
1b1
100
AcDbEntity
  8
woodIn
 62
7
100
AcDbLine
 10
207.558126
 20
260.996304
 30
0.0
 11
209.964326
 21
260.971254
 31
0.0
  0
LINE
  5
1b2
100
AcDbEntity
  8
woodIn
 62
7
100
AcDbLine
 10
209.964326
 20
260.971254
 30
0.0
 11
212.691456
 21
260.904154
 31
0.0
  0
LINE
  5
1b3
100
AcDbEntity
  8
woodIn
 62
7
100
AcDbLine
 10
212.691456
 20
260.904154
 30
0.0
 11
215.712316
 21
260.774262
 31
0.0
  0
LINE
  5
1b4
100
AcDbEntity
  8
woodIn
 62
7
100
AcDbLine
 10
215.712316
 20
260.774262
 30
0.0
 11
218.999756
 21
260.560846
 31
0.0
  0
LINE
  5
1b5
100
AcDbEntity
  8
woodIn
 62
7
100
AcDbLine
 10
218.999756
 20
260.560846
 30
0.0
 11
222.526576
 21
260.243166
 31
0.0
  0
LINE
  5
1b6
100
AcDbEntity
  8
woodIn
 62
7
100
AcDbLine
 10
222.526576
 20
260.243166
 30
0.0
 11
226.265616
 21
259.800486
 31
0.0
  0
LINE
  5
1b7
100
AcDbEntity
  8
woodIn
 62
7
100
AcDbLine
 10
226.265616
 20
259.800486
 30
0.0
 11
230.189686
 21
259.212067
 31
0.0
  0
LINE
  5
1b8
100
AcDbEntity
  8
woodIn
 62
7
100
AcDbLine
 10
230.189686
 20
259.212067
 30
0.0
 11
234.271626
 21
258.457172
 31
0.0
  0
LINE
  5
1b9
100
AcDbEntity
  8
woodIn
 62
7
100
AcDbLine
 10
234.271626
 20
258.457172
 30
0.0
 11
238.484246
 21
257.515063
 31
0.0
  0
LINE
  5
1ba
100
AcDbEntity
  8
woodIn
 62
7
100
AcDbLine
 10
238.484246
 20
257.515063
 30
0.0
 11
242.800376
 21
256.365001
 31
0.0
  0
LINE
  5
1bb
100
AcDbEntity
  8
woodIn
 62
7
100
AcDbLine
 10
242.800376
 20
256.365001
 30
0.0
 11
247.192826
 21
254.986249
 31
0.0
  0
LINE
  5
1bc
100
AcDbEntity
  8
woodIn
 62
7
100
AcDbLine
 10
247.192826
 20
254.986249
 30
0.0
 11
251.634446
 21
253.358070
 31
0.0
  0
LINE
  5
1bd
100
AcDbEntity
  8
woodIn
 62
7
100
AcDbLine
 10
251.634446
 20
253.358070
 30
0.0
 11
256.098036
 21
251.459725
 31
0.0
  0
LINE
  5
1be
100
AcDbEntity
  8
woodIn
 62
7
100
AcDbLine
 10
256.098036
 20
251.459725
 30
0.0
 11
260.556426
 21
249.270477
 31
0.0
  0
LINE
  5
1bf
100
AcDbEntity
  8
woodIn
 62
7
100
AcDbLine
 10
260.556426
 20
249.270477
 30
0.0
 11
264.982436
 21
246.769587
 31
0.0
  0
LINE
  5
1c0
100
AcDbEntity
  8
woodIn
 62
7
100
AcDbLine
 10
264.982436
 20
246.769587
 30
0.0
 11
269.350256
 21
243.937061
 31
0.0
  0
LINE
  5
1c1
100
AcDbEntity
  8
woodIn
 62
7
100
AcDbLine
 10
269.350256
 20
243.937061
 30
0.0
 11
273.633976
 21
240.752236
 31
0.0
  0
LINE
  5
1c2
100
AcDbEntity
  8
woodIn
 62
7
100
AcDbLine
 10
273.633976
 20
240.752236
 30
0.0
 11
277.806336
 21
237.193374
 31
0.0
  0
LINE
  5
1c3
100
AcDbEntity
  8
woodIn
 62
7
100
AcDbLine
 10
277.806336
 20
237.193374
 30
0.0
 11
281.840036
 21
233.238737
 31
0.0
  0
LINE
  5
1c4
100
AcDbEntity
  8
woodIn
 62
7
100
AcDbLine
 10
281.840036
 20
233.238737
 30
0.0
 11
285.707816
 21
228.866588
 31
0.0
  0
LINE
  5
1c5
100
AcDbEntity
  8
woodIn
 62
7
100
AcDbLine
 10
285.707816
 20
228.866588
 30
0.0
 11
289.382386
 21
224.055188
 31
0.0
  0
LINE
  5
1c6
100
AcDbEntity
  8
woodIn
 62
7
100
AcDbLine
 10
289.382386
 20
224.055188
 30
0.0
 11
292.836456
 21
218.782800
 31
0.0
  0
LINE
  5
1c7
100
AcDbEntity
  8
woodIn
 62
7
100
AcDbLine
 10
292.836456
 20
218.782800
 30
0.0
 11
296.042766
 21
213.027685
 31
0.0
  0
LINE
  5
1c8
100
AcDbEntity
  8
woodIn
 62
7
100
AcDbLine
 10
296.042766
 20
213.027685
 30
0.0
 11
298.974036
 21
206.768105
 31
0.0
  0
LINE
  5
1c9
100
AcDbEntity
  8
woodIn
 62
7
100
AcDbLine
 10
298.974036
 20
206.768105
 30
0.0
 11
301.602966
 21
199.982323
 31
0.0
  0
LINE
  5
1ca
100
AcDbEntity
  8
woodIn
 62
7
100
AcDbLine
 10
301.602966
 20
199.982323
 30
0.0
 11
303.902296
 21
192.648605
 31
0.0
  0
LINE
  5
1cb
100
AcDbEntity
  8
woodIn
 62
7
100
AcDbLine
 10
303.902296
 20
192.648605
 30
0.0
 11
305.844736
 21
184.745205
 31
0.0
  0
LINE
  5
1cc
100
AcDbEntity
  8
woodIn
 62
7
100
AcDbLine
 10
305.844736
 20
184.745205
 30
0.0
 11
307.403006
 21
176.250385
 31
0.0
  0
LINE
  5
1cd
100
AcDbEntity
  8
woodIn
 62
7
100
AcDbLine
 10
307.403006
 20
176.250385
 30
0.0
 11
308.549836
 21
167.142415
 31
0.0
  0
LINE
  5
1ce
100
AcDbEntity
  8
woodIn
 62
7
100
AcDbLine
 10
308.549836
 20
167.142415
 30
0.0
 11
309.257936
 21
157.399545
 31
0.0
  0
LINE
  5
1cf
100
AcDbEntity
  8
woodIn
 62
7
100
AcDbLine
 10
309.257936
 20
157.399545
 30
0.0
 11
309.500036
 21
147.000055
 31
0.0
  0
LINE
  5
1d0
100
AcDbEntity
  8
woodIn
 62
7
100
AcDbLine
 10
309.500036
 20
147.000055
 30
0.0
 11
309.257936
 21
136.600565
 31
0.0
  0
LINE
  5
1d1
100
AcDbEntity
  8
woodIn
 62
7
100
AcDbLine
 10
309.257936
 20
136.600565
 30
0.0
 11
308.549836
 21
126.857695
 31
0.0
  0
LINE
  5
1d2
100
AcDbEntity
  8
woodIn
 62
7
100
AcDbLine
 10
308.549836
 20
126.857695
 30
0.0
 11
307.403006
 21
117.749725
 31
0.0
  0
LINE
  5
1d3
100
AcDbEntity
  8
woodIn
 62
7
100
AcDbLine
 10
307.403006
 20
117.749725
 30
0.0
 11
305.844736
 21
109.254915
 31
0.0
  0
LINE
  5
1d4
100
AcDbEntity
  8
woodIn
 62
7
100
AcDbLine
 10
305.844736
 20
109.254915
 30
0.0
 11
303.902296
 21
101.351515
 31
0.0
  0
LINE
  5
1d5
100
AcDbEntity
  8
woodIn
 62
7
100
AcDbLine
 10
303.902296
 20
101.351515
 30
0.0
 11
301.602966
 21
94.017785
 31
0.0
  0
LINE
  5
1d6
100
AcDbEntity
  8
woodIn
 62
7
100
AcDbLine
 10
301.602966
 20
94.017785
 30
0.0
 11
298.974036
 21
87.232005
 31
0.0
  0
LINE
  5
1d7
100
AcDbEntity
  8
woodIn
 62
7
100
AcDbLine
 10
298.974036
 20
87.232005
 30
0.0
 11
296.042766
 21
80.972425
 31
0.0
  0
LINE
  5
1d8
100
AcDbEntity
  8
woodIn
 62
7
100
AcDbLine
 10
296.042766
 20
80.972425
 30
0.0
 11
292.836456
 21
75.217305
 31
0.0
  0
LINE
  5
1d9
100
AcDbEntity
  8
woodIn
 62
7
100
AcDbLine
 10
292.836456
 20
75.217305
 30
0.0
 11
289.382386
 21
69.944925
 31
0.0
  0
LINE
  5
1da
100
AcDbEntity
  8
woodIn
 62
7
100
AcDbLine
 10
289.382386
 20
69.944925
 30
0.0
 11
285.707816
 21
65.133525
 31
0.0
  0
LINE
  5
1db
100
AcDbEntity
  8
woodIn
 62
7
100
AcDbLine
 10
285.707816
 20
65.133525
 30
0.0
 11
281.840036
 21
60.761375
 31
0.0
  0
LINE
  5
1dc
100
AcDbEntity
  8
woodIn
 62
7
100
AcDbLine
 10
281.840036
 20
60.761375
 30
0.0
 11
277.806336
 21
56.806735
 31
0.0
  0
LINE
  5
1dd
100
AcDbEntity
  8
woodIn
 62
7
100
AcDbLine
 10
277.806336
 20
56.806735
 30
0.0
 11
273.633976
 21
53.247875
 31
0.0
  0
LINE
  5
1de
100
AcDbEntity
  8
woodIn
 62
7
100
AcDbLine
 10
273.633976
 20
53.247875
 30
0.0
 11
269.350256
 21
50.063045
 31
0.0
  0
LINE
  5
1df
100
AcDbEntity
  8
woodIn
 62
7
100
AcDbLine
 10
269.350256
 20
50.063045
 30
0.0
 11
264.982436
 21
47.230525
 31
0.0
  0
LINE
  5
1e0
100
AcDbEntity
  8
woodIn
 62
7
100
AcDbLine
 10
264.982436
 20
47.230525
 30
0.0
 11
260.556426
 21
44.729635
 31
0.0
  0
LINE
  5
1e1
100
AcDbEntity
  8
woodIn
 62
7
100
AcDbLine
 10
260.556426
 20
44.729635
 30
0.0
 11
256.098026
 21
42.540385
 31
0.0
  0
LINE
  5
1e2
100
AcDbEntity
  8
woodIn
 62
7
100
AcDbLine
 10
256.098026
 20
42.540385
 30
0.0
 11
251.634446
 21
40.642045
 31
0.0
  0
LINE
  5
1e3
100
AcDbEntity
  8
woodIn
 62
7
100
AcDbLine
 10
251.634446
 20
40.642045
 30
0.0
 11
247.192826
 21
39.013865
 31
0.0
  0
LINE
  5
1e4
100
AcDbEntity
  8
woodIn
 62
7
100
AcDbLine
 10
247.192826
 20
39.013865
 30
0.0
 11
242.800376
 21
37.635115
 31
0.0
  0
LINE
  5
1e5
100
AcDbEntity
  8
woodIn
 62
7
100
AcDbLine
 10
242.800376
 20
37.635115
 30
0.0
 11
238.484246
 21
36.485055
 31
0.0
  0
LINE
  5
1e6
100
AcDbEntity
  8
woodIn
 62
7
100
AcDbLine
 10
238.484246
 20
36.485055
 30
0.0
 11
234.271626
 21
35.542945
 31
0.0
  0
LINE
  5
1e7
100
AcDbEntity
  8
woodIn
 62
7
100
AcDbLine
 10
234.271626
 20
35.542945
 30
0.0
 11
230.189686
 21
34.788045
 31
0.0
  0
LINE
  5
1e8
100
AcDbEntity
  8
woodIn
 62
7
100
AcDbLine
 10
230.189686
 20
34.788045
 30
0.0
 11
226.265616
 21
34.199625
 31
0.0
  0
LINE
  5
1e9
100
AcDbEntity
  8
woodIn
 62
7
100
AcDbLine
 10
226.265616
 20
34.199625
 30
0.0
 11
222.526576
 21
33.756945
 31
0.0
  0
LINE
  5
1ea
100
AcDbEntity
  8
woodIn
 62
7
100
AcDbLine
 10
222.526576
 20
33.756945
 30
0.0
 11
218.999756
 21
33.439265
 31
0.0
  0
LINE
  5
1eb
100
AcDbEntity
  8
woodIn
 62
7
100
AcDbLine
 10
218.999756
 20
33.439265
 30
0.0
 11
215.712316
 21
33.225845
 31
0.0
  0
LINE
  5
1ec
100
AcDbEntity
  8
woodIn
 62
7
100
AcDbLine
 10
215.712316
 20
33.225845
 30
0.0
 11
212.691446
 21
33.095955
 31
0.0
  0
LINE
  5
1ed
100
AcDbEntity
  8
woodIn
 62
7
100
AcDbLine
 10
212.691446
 20
33.095955
 30
0.0
 11
209.964326
 21
33.028855
 31
0.0
  0
LINE
  5
1ee
100
AcDbEntity
  8
woodIn
 62
7
100
AcDbLine
 10
209.964326
 20
33.028855
 30
0.0
 11
207.558126
 21
33.003755
 31
0.0
  0
LINE
  5
1ef
100
AcDbEntity
  8
woodIn
 62
7
100
AcDbLine
 10
207.558126
 20
33.003755
 30
0.0
 11
205.500000
 21
33.000000
 31
0.0
  0
LINE
  5
1f0
100
AcDbEntity
  8
woodIn
 62
7
100
AcDbLine
 10
205.500000
 20
33.000000
 30
0.0
 11
201.816890
 21
33.098500
 31
0.0
  0
LINE
  5
1f1
100
AcDbEntity
  8
woodIn
 62
7
100
AcDbLine
 10
201.816890
 20
33.098500
 30
0.0
 11
198.158570
 21
33.385630
 31
0.0
  0
LINE
  5
1f2
100
AcDbEntity
  8
woodIn
 62
7
100
AcDbLine
 10
198.158570
 20
33.385630
 30
0.0
 11
194.524160
 21
33.849020
 31
0.0
  0
LINE
  5
1f3
100
AcDbEntity
  8
woodIn
 62
7
100
AcDbLine
 10
194.524160
 20
33.849020
 30
0.0
 11
190.912780
 21
34.476280
 31
0.0
  0
LINE
  5
1f4
100
AcDbEntity
  8
woodIn
 62
7
100
AcDbLine
 10
190.912780
 20
34.476280
 30
0.0
 11
187.323570
 21
35.255000
 31
0.0
  0
LINE
  5
1f5
100
AcDbEntity
  8
woodIn
 62
7
100
AcDbLine
 10
187.323570
 20
35.255000
 30
0.0
 11
183.755640
 21
36.172780
 31
0.0
  0
LINE
  5
1f6
100
AcDbEntity
  8
woodIn
 62
7
100
AcDbLine
 10
183.755640
 20
36.172780
 30
0.0
 11
180.208130
 21
37.217240
 31
0.0
  0
LINE
  5
1f7
100
AcDbEntity
  8
woodIn
 62
7
100
AcDbLine
 10
180.208130
 20
37.217240
 30
0.0
 11
176.680150
 21
38.375960
 31
0.0
  0
LINE
  5
1f8
100
AcDbEntity
  8
woodIn
 62
7
100
AcDbLine
 10
176.680150
 20
38.375960
 30
0.0
 11
173.170840
 21
39.636550
 31
0.0
  0
LINE
  5
1f9
100
AcDbEntity
  8
woodIn
 62
7
100
AcDbLine
 10
173.170840
 20
39.636550
 30
0.0
 11
169.679310
 21
40.986610
 31
0.0
  0
LINE
  5
1fa
100
AcDbEntity
  8
woodIn
 62
7
100
AcDbLine
 10
169.679310
 20
40.986610
 30
0.0
 11
166.204690
 21
42.413740
 31
0.0
  0
LINE
  5
1fb
100
AcDbEntity
  8
woodIn
 62
7
100
AcDbLine
 10
166.204690
 20
42.413740
 30
0.0
 11
162.746120
 21
43.905550
 31
0.0
  0
LINE
  5
1fc
100
AcDbEntity
  8
woodIn
 62
7
100
AcDbLine
 10
162.746120
 20
43.905550
 30
0.0
 11
159.302700
 21
45.449630
 31
0.0
  0
LINE
  5
1fd
100
AcDbEntity
  8
woodIn
 62
7
100
AcDbLine
 10
159.302700
 20
45.449630
 30
0.0
 11
155.873580
 21
47.033580
 31
0.0
  0
LINE
  5
1fe
100
AcDbEntity
  8
woodIn
 62
7
100
AcDbLine
 10
155.873580
 20
47.033580
 30
0.0
 11
152.457860
 21
48.645010
 31
0.0
  0
LINE
  5
1ff
100
AcDbEntity
  8
woodIn
 62
7
100
AcDbLine
 10
152.457860
 20
48.645010
 30
0.0
 11
149.054690
 21
50.271520
 31
0.0
  0
LINE
  5
200
100
AcDbEntity
  8
woodIn
 62
7
100
AcDbLine
 10
149.054690
 20
50.271520
 30
0.0
 11
145.663250
 21
51.900790
 31
0.0
  0
LINE
  5
201
100
AcDbEntity
  8
woodIn
 62
7
100
AcDbLine
 10
145.663250
 20
51.900790
 30
0.0
 11
142.282620
 21
53.520120
 31
0.0
  0
LINE
  5
202
100
AcDbEntity
  8
woodIn
 62
7
100
AcDbLine
 10
142.282620
 20
53.520120
 30
0.0
 11
138.911720
 21
55.116540
 31
0.0
  0
LINE
  5
203
100
AcDbEntity
  8
woodIn
 62
7
100
AcDbLine
 10
138.911720
 20
55.116540
 30
0.0
 11
135.549490
 21
56.677090
 31
0.0
  0
LINE
  5
204
100
AcDbEntity
  8
woodIn
 62
7
100
AcDbLine
 10
135.549490
 20
56.677090
 30
0.0
 11
132.194850
 21
58.188800
 31
0.0
  0
LINE
  5
205
100
AcDbEntity
  8
woodIn
 62
7
100
AcDbLine
 10
132.194850
 20
58.188800
 30
0.0
 11
128.846720
 21
59.638700
 31
0.0
  0
LINE
  5
206
100
AcDbEntity
  8
woodIn
 62
7
100
AcDbLine
 10
128.846720
 20
59.638700
 30
0.0
 11
125.504050
 21
61.013810
 31
0.0
  0
LINE
  5
207
100
AcDbEntity
  8
woodIn
 62
7
100
AcDbLine
 10
125.504050
 20
61.013810
 30
0.0
 11
122.165740
 21
62.301170
 31
0.0
  0
LINE
  5
208
100
AcDbEntity
  8
woodIn
 62
7
100
AcDbLine
 10
122.165740
 20
62.301170
 30
0.0
 11
118.830750
 21
63.487820
 31
0.0
  0
LINE
  5
209
100
AcDbEntity
  8
woodIn
 62
7
100
AcDbLine
 10
118.830750
 20
63.487820
 30
0.0
 11
115.497990
 21
64.560780
 31
0.0
  0
LINE
  5
20a
100
AcDbEntity
  8
woodIn
 62
7
100
AcDbLine
 10
115.497990
 20
64.560780
 30
0.0
 11
112.166380
 21
65.507080
 31
0.0
  0
LINE
  5
20b
100
AcDbEntity
  8
woodIn
 62
7
100
AcDbLine
 10
112.166380
 20
65.507080
 30
0.0
 11
108.834870
 21
66.313750
 31
0.0
  0
LINE
  5
20c
100
AcDbEntity
  8
woodIn
 62
7
100
AcDbLine
 10
108.834870
 20
66.313750
 30
0.0
 11
105.502370
 21
66.967830
 31
0.0
  0
LINE
  5
20d
100
AcDbEntity
  8
woodIn
 62
7
100
AcDbLine
 10
105.502370
 20
66.967830
 30
0.0
 11
102.167830
 21
67.456350
 31
0.0
  0
LINE
  5
20e
100
AcDbEntity
  8
woodIn
 62
7
100
AcDbLine
 10
102.167830
 20
67.456350
 30
0.0
 11
98.830152
 21
67.766330
 31
0.0
  0
LINE
  5
20f
100
AcDbEntity
  8
woodIn
 62
7
100
AcDbLine
 10
98.830152
 20
67.766330
 30
0.0
 11
95.488281
 21
67.884810
 31
0.0
  0
LINE
  5
210
100
AcDbEntity
  8
woodIn
 62
7
100
AcDbLine
 10
95.488281
 20
67.884810
 30
0.0
 11
93.525109
 21
67.851410
 31
0.0
  0
LINE
  5
211
100
AcDbEntity
  8
woodIn
 62
7
100
AcDbLine
 10
93.525109
 20
67.851410
 30
0.0
 11
91.654225
 21
67.733070
 31
0.0
  0
LINE
  5
212
100
AcDbEntity
  8
woodIn
 62
7
100
AcDbLine
 10
91.654225
 20
67.733070
 30
0.0
 11
89.869110
 21
67.535590
 31
0.0
  0
LINE
  5
213
100
AcDbEntity
  8
woodIn
 62
7
100
AcDbLine
 10
89.869110
 20
67.535590
 30
0.0
 11
88.163248
 21
67.264840
 31
0.0
  0
LINE
  5
214
100
AcDbEntity
  8
woodIn
 62
7
100
AcDbLine
 10
88.163248
 20
67.264840
 30
0.0
 11
86.530119
 21
66.926660
 31
0.0
  0
LINE
  5
215
100
AcDbEntity
  8
woodIn
 62
7
100
AcDbLine
 10
86.530119
 20
66.926660
 30
0.0
 11
84.963206
 21
66.526900
 31
0.0
  0
LINE
  5
216
100
AcDbEntity
  8
woodIn
 62
7
100
AcDbLine
 10
84.963206
 20
66.526900
 30
0.0
 11
83.455990
 21
66.071420
 31
0.0
  0
LINE
  5
217
100
AcDbEntity
  8
woodIn
 62
7
100
AcDbLine
 10
83.455990
 20
66.071420
 30
0.0
 11
82.001954
 21
65.566060
 31
0.0
  0
LINE
  5
218
100
AcDbEntity
  8
woodIn
 62
7
100
AcDbLine
 10
82.001954
 20
65.566060
 30
0.0
 11
80.594580
 21
65.016680
 31
0.0
  0
LINE
  5
219
100
AcDbEntity
  8
woodIn
 62
7
100
AcDbLine
 10
80.594580
 20
65.016680
 30
0.0
 11
79.227348
 21
64.429120
 31
0.0
  0
LINE
  5
21a
100
AcDbEntity
  8
woodIn
 62
7
100
AcDbLine
 10
79.227348
 20
64.429120
 30
0.0
 11
77.893742
 21
63.809230
 31
0.0
  0
LINE
  5
21b
100
AcDbEntity
  8
woodIn
 62
7
100
AcDbLine
 10
77.893742
 20
63.809230
 30
0.0
 11
76.587243
 21
63.162870
 31
0.0
  0
LINE
  5
21c
100
AcDbEntity
  8
woodIn
 62
7
100
AcDbLine
 10
76.587243
 20
63.162870
 30
0.0
 11
75.301332
 21
62.495890
 31
0.0
  0
LINE
  5
21d
100
AcDbEntity
  8
woodIn
 62
7
100
AcDbLine
 10
75.301332
 20
62.495890
 30
0.0
 11
74.029493
 21
61.814130
 31
0.0
  0
LINE
  5
21e
100
AcDbEntity
  8
woodIn
 62
7
100
AcDbLine
 10
74.029493
 20
61.814130
 30
0.0
 11
72.765207
 21
61.123450
 31
0.0
  0
LINE
  5
21f
100
AcDbEntity
  8
woodIn
 62
7
100
AcDbLine
 10
72.765207
 20
61.123450
 30
0.0
 11
71.501955
 21
60.429700
 31
0.0
  0
LINE
  5
220
100
AcDbEntity
  8
woodIn
 62
7
100
AcDbLine
 10
71.501955
 20
60.429700
 30
0.0
 11
70.232622
 21
59.738140
 31
0.0
  0
LINE
  5
221
100
AcDbEntity
  8
woodIn
 62
7
100
AcDbLine
 10
70.232622
 20
59.738140
 30
0.0
 11
68.949484
 21
59.053570
 31
0.0
  0
LINE
  5
222
100
AcDbEntity
  8
woodIn
 62
7
100
AcDbLine
 10
68.949484
 20
59.053570
 30
0.0
 11
67.645107
 21
58.381100
 31
0.0
  0
LINE
  5
223
100
AcDbEntity
  8
woodIn
 62
7
100
AcDbLine
 10
67.645107
 20
58.381100
 30
0.0
 11
66.312057
 21
57.725860
 31
0.0
  0
LINE
  5
224
100
AcDbEntity
  8
woodIn
 62
7
100
AcDbLine
 10
66.312057
 20
57.725860
 30
0.0
 11
64.942901
 21
57.092960
 31
0.0
  0
LINE
  5
225
100
AcDbEntity
  8
woodIn
 62
7
100
AcDbLine
 10
64.942901
 20
57.092960
 30
0.0
 11
63.530204
 21
56.487520
 31
0.0
  0
LINE
  5
226
100
AcDbEntity
  8
woodIn
 62
7
100
AcDbLine
 10
63.530204
 20
56.487520
 30
0.0
 11
62.066532
 21
55.914680
 31
0.0
  0
LINE
  5
227
100
AcDbEntity
  8
woodIn
 62
7
100
AcDbLine
 10
62.066532
 20
55.914680
 30
0.0
 11
60.544452
 21
55.379530
 31
0.0
  0
LINE
  5
228
100
AcDbEntity
  8
woodIn
 62
7
100
AcDbLine
 10
60.544452
 20
55.379530
 30
0.0
 11
58.956530
 21
54.887220
 31
0.0
  0
LINE
  5
229
100
AcDbEntity
  8
woodIn
 62
7
100
AcDbLine
 10
58.956530
 20
54.887220
 30
0.0
 11
57.295331
 21
54.442850
 31
0.0
  0
LINE
  5
22a
100
AcDbEntity
  8
woodIn
 62
7
100
AcDbLine
 10
57.295331
 20
54.442850
 30
0.0
 11
55.553423
 21
54.051560
 31
0.0
  0
LINE
  5
22b
100
AcDbEntity
  8
woodIn
 62
7
100
AcDbLine
 10
55.553423
 20
54.051560
 30
0.0
 11
53.723371
 21
53.718450
 31
0.0
  0
LINE
  5
22c
100
AcDbEntity
  8
woodIn
 62
7
100
AcDbLine
 10
53.723371
 20
53.718450
 30
0.0
 11
51.797741
 21
53.448650
 31
0.0
  0
LINE
  5
22d
100
AcDbEntity
  8
woodIn
 62
7
100
AcDbLine
 10
51.797741
 20
53.448650
 30
0.0
 11
49.769099
 21
53.247280
 31
0.0
  0
LINE
  5
22e
100
AcDbEntity
  8
woodIn
 62
7
100
AcDbLine
 10
49.769099
 20
53.247280
 30
0.0
 11
47.630012
 21
53.119460
 31
0.0
  0
LINE
  5
22f
100
AcDbEntity
  8
woodIn
 62
7
100
AcDbLine
 10
47.630012
 20
53.119460
 30
0.0
 11
45.373046
 21
53.070360
 31
0.0
  0
LINE
  5
230
100
AcDbEntity
  8
woodIn
 62
7
100
AcDbLine
 10
45.373046
 20
53.070360
 30
0.0
 11
41.800200
 21
53.226020
 31
0.0
  0
LINE
  5
231
100
AcDbEntity
  8
woodIn
 62
7
100
AcDbLine
 10
41.800200
 20
53.226020
 30
0.0
 11
38.355630
 21
53.709030
 31
0.0
  0
LINE
  5
232
100
AcDbEntity
  8
woodIn
 62
7
100
AcDbLine
 10
38.355630
 20
53.709030
 30
0.0
 11
35.053444
 21
54.505410
 31
0.0
  0
LINE
  5
233
100
AcDbEntity
  8
woodIn
 62
7
100
AcDbLine
 10
35.053444
 20
54.505410
 30
0.0
 11
31.907746
 21
55.601130
 31
0.0
  0
LINE
  5
234
100
AcDbEntity
  8
woodIn
 62
7
100
AcDbLine
 10
31.907746
 20
55.601130
 30
0.0
 11
28.932642
 21
56.982180
 31
0.0
  0
LINE
  5
235
100
AcDbEntity
  8
woodIn
 62
7
100
AcDbLine
 10
28.932642
 20
56.982180
 30
0.0
 11
26.142239
 21
58.634570
 31
0.0
  0
LINE
  5
236
100
AcDbEntity
  8
woodIn
 62
7
100
AcDbLine
 10
26.142239
 20
58.634570
 30
0.0
 11
23.550642
 21
60.544290
 31
0.0
  0
LINE
  5
237
100
AcDbEntity
  8
woodIn
 62
7
100
AcDbLine
 10
23.550642
 20
60.544290
 30
0.0
 11
21.171957
 21
62.697320
 31
0.0
  0
LINE
  5
238
100
AcDbEntity
  8
woodIn
 62
7
100
AcDbLine
 10
21.171957
 20
62.697320
 30
0.0
 11
19.020289
 21
65.079660
 31
0.0
  0
LINE
  5
239
100
AcDbEntity
  8
woodIn
 62
7
100
AcDbLine
 10
19.020289
 20
65.079660
 30
0.0
 11
17.109745
 21
67.677300
 31
0.0
  0
LINE
  5
23a
100
AcDbEntity
  8
woodIn
 62
7
100
AcDbLine
 10
17.109745
 20
67.677300
 30
0.0
 11
15.454431
 21
70.476230
 31
0.0
  0
LINE
  5
23b
100
AcDbEntity
  8
woodIn
 62
7
100
AcDbLine
 10
15.454431
 20
70.476230
 30
0.0
 11
14.068451
 21
73.462450
 31
0.0
  0
LINE
  5
23c
100
AcDbEntity
  8
woodIn
 62
7
100
AcDbLine
 10
14.068451
 20
73.462450
 30
0.0
 11
12.965912
 21
76.621950
 31
0.0
  0
LINE
  5
23d
100
AcDbEntity
  8
woodIn
 62
7
100
AcDbLine
 10
12.965912
 20
76.621950
 30
0.0
 11
12.160921
 21
79.940720
 31
0.0
  0
LINE
  5
23e
100
AcDbEntity
  8
woodIn
 62
7
100
AcDbLine
 10
12.160921
 20
79.940720
 30
0.0
 11
11.667581
 21
83.404760
 31
0.0
  0
LINE
  5
23f
100
AcDbEntity
  8
woodIn
 62
7
100
AcDbLine
 10
11.667581
 20
83.404760
 30
0.0
 11
11.500000
 21
87.000000
 31
0.0
  0
LINE
  5
240
100
AcDbEntity
  8
woodIn
 62
7
100
AcDbLine
 10
11.500000
 20
87.000000
 30
0.0
 11
11.500000
 21
89.187500
 31
0.0
  0
LINE
  5
241
100
AcDbEntity
  8
woodIn
 62
7
100
AcDbLine
 10
11.500000
 20
89.187500
 30
0.0
 11
11.500000
 21
91.375000
 31
0.0
  0
LINE
  5
242
100
AcDbEntity
  8
woodIn
 62
7
100
AcDbLine
 10
11.500000
 20
91.375000
 30
0.0
 11
11.500000
 21
93.562500
 31
0.0
  0
LINE
  5
243
100
AcDbEntity
  8
woodIn
 62
7
100
AcDbLine
 10
11.500000
 20
93.562500
 30
0.0
 11
11.500000
 21
95.750000
 31
0.0
  0
LINE
  5
244
100
AcDbEntity
  8
woodIn
 62
7
100
AcDbLine
 10
11.500000
 20
95.750000
 30
0.0
 11
11.500000
 21
97.937500
 31
0.0
  0
LINE
  5
245
100
AcDbEntity
  8
woodIn
 62
7
100
AcDbLine
 10
11.500000
 20
97.937500
 30
0.0
 11
11.500000
 21
100.125000
 31
0.0
  0
LINE
  5
246
100
AcDbEntity
  8
woodIn
 62
7
100
AcDbLine
 10
11.500000
 20
100.125000
 30
0.0
 11
11.500000
 21
102.312500
 31
0.0
  0
LINE
  5
247
100
AcDbEntity
  8
woodIn
 62
7
100
AcDbLine
 10
11.500000
 20
102.312500
 30
0.0
 11
11.500000
 21
104.500000
 31
0.0
  0
LINE
  5
248
100
AcDbEntity
  8
woodIn
 62
7
100
AcDbLine
 10
11.500000
 20
104.500000
 30
0.0
 11
11.500000
 21
106.687500
 31
0.0
  0
LINE
  5
249
100
AcDbEntity
  8
woodIn
 62
7
100
AcDbLine
 10
11.500000
 20
106.687500
 30
0.0
 11
11.500000
 21
108.875000
 31
0.0
  0
LINE
  5
24a
100
AcDbEntity
  8
woodIn
 62
7
100
AcDbLine
 10
11.500000
 20
108.875000
 30
0.0
 11
11.500000
 21
111.062500
 31
0.0
  0
LINE
  5
24b
100
AcDbEntity
  8
woodIn
 62
7
100
AcDbLine
 10
11.500000
 20
111.062500
 30
0.0
 11
11.500000
 21
113.250000
 31
0.0
  0
LINE
  5
24c
100
AcDbEntity
  8
woodIn
 62
7
100
AcDbLine
 10
11.500000
 20
113.250000
 30
0.0
 11
11.500000
 21
115.437500
 31
0.0
  0
LINE
  5
24d
100
AcDbEntity
  8
woodIn
 62
7
100
AcDbLine
 10
11.500000
 20
115.437500
 30
0.0
 11
11.500000
 21
117.625000
 31
0.0
  0
LINE
  5
24e
100
AcDbEntity
  8
woodIn
 62
7
100
AcDbLine
 10
11.500000
 20
117.625000
 30
0.0
 11
11.500000
 21
119.812500
 31
0.0
  0
LINE
  5
24f
100
AcDbEntity
  8
woodIn
 62
7
100
AcDbLine
 10
11.500000
 20
119.812500
 30
0.0
 11
11.500000
 21
122.000000
 31
0.0
  0
LINE
  5
250
100
AcDbEntity
  8
woodIn
 62
7
100
AcDbLine
 10
11.500000
 20
122.000000
 30
0.0
 11
11.500000
 21
125.062500
 31
0.0
  0
LINE
  5
251
100
AcDbEntity
  8
woodIn
 62
7
100
AcDbLine
 10
11.500000
 20
125.062500
 30
0.0
 11
11.500000
 21
128.125000
 31
0.0
  0
LINE
  5
252
100
AcDbEntity
  8
woodIn
 62
7
100
AcDbLine
 10
11.500000
 20
128.125000
 30
0.0
 11
11.500000
 21
131.187500
 31
0.0
  0
LINE
  5
253
100
AcDbEntity
  8
woodIn
 62
7
100
AcDbLine
 10
11.500000
 20
131.187500
 30
0.0
 11
11.500000
 21
134.250000
 31
0.0
  0
LINE
  5
254
100
AcDbEntity
  8
woodIn
 62
7
100
AcDbLine
 10
11.500000
 20
134.250000
 30
0.0
 11
11.500000
 21
137.312500
 31
0.0
  0
LINE
  5
255
100
AcDbEntity
  8
woodIn
 62
7
100
AcDbLine
 10
11.500000
 20
137.312500
 30
0.0
 11
11.500000
 21
140.375000
 31
0.0
  0
LINE
  5
256
100
AcDbEntity
  8
woodIn
 62
7
100
AcDbLine
 10
11.500000
 20
140.375000
 30
0.0
 11
11.500000
 21
143.437500
 31
0.0
  0
LINE
  5
257
100
AcDbEntity
  8
woodIn
 62
7
100
AcDbLine
 10
11.500000
 20
143.437500
 30
0.0
 11
11.500000
 21
146.500000
 31
0.0
  0
LINE
  5
258
100
AcDbEntity
  8
woodIn
 62
7
100
AcDbLine
 10
11.500000
 20
146.500000
 30
0.0
 11
11.500000
 21
149.562500
 31
0.0
  0
LINE
  5
259
100
AcDbEntity
  8
woodIn
 62
7
100
AcDbLine
 10
11.500000
 20
149.562500
 30
0.0
 11
11.500000
 21
152.625000
 31
0.0
  0
LINE
  5
25a
100
AcDbEntity
  8
woodIn
 62
7
100
AcDbLine
 10
11.500000
 20
152.625000
 30
0.0
 11
11.500000
 21
155.687500
 31
0.0
  0
LINE
  5
25b
100
AcDbEntity
  8
woodIn
 62
7
100
AcDbLine
 10
11.500000
 20
155.687500
 30
0.0
 11
11.500000
 21
158.750000
 31
0.0
  0
LINE
  5
25c
100
AcDbEntity
  8
woodIn
 62
7
100
AcDbLine
 10
11.500000
 20
158.750000
 30
0.0
 11
11.500000
 21
161.812500
 31
0.0
  0
LINE
  5
25d
100
AcDbEntity
  8
woodIn
 62
7
100
AcDbLine
 10
11.500000
 20
161.812500
 30
0.0
 11
11.500000
 21
164.875000
 31
0.0
  0
LINE
  5
25e
100
AcDbEntity
  8
woodIn
 62
7
100
AcDbLine
 10
11.500000
 20
164.875000
 30
0.0
 11
11.500000
 21
167.937500
 31
0.0
  0
LINE
  5
25f
100
AcDbEntity
  8
woodIn
 62
7
100
AcDbLine
 10
11.500000
 20
167.937500
 30
0.0
 11
11.500000
 21
171.000000
 31
0.0
  0
ENDSEC
  0
SECTION
  2
OBJECTS
  0
DICTIONARY
  5
C
330
0
100
AcDbDictionary
  3
ACAD_GROUP
350
D
  3
ACAD_MLINESTYLE
350
17
  0
DICTIONARY
  5
D
330
C
100
AcDbDictionary
  0
DICTIONARY
  5
1A
330
C
100
AcDbDictionary
  0
DICTIONARY
  5
17
330
C
100
AcDbDictionary
  3
STANDARD
350
18
  0
DICTIONARY
  5
19
330
C
100
AcDbDictionary
  0
ENDSEC
  0
EOF
