  0
SECTION
  2
HEADER
  9
$ACADVER
  1
AC1014
  9
$HANDSEED
  5
FFFF
  9
$MEASUREMENT
 70
     1
  0
ENDSEC
  0
SECTION
  2
TABLES
  0
TABLE
  2
VPORT
  5
8
330
0
100
AcDbSymbolTable
 70
     4
  0
VPORT
  5
2E
330
8
100
AcDbSymbolTableRecord
100
AcDbViewportTableRecord
  2
*ACTIVE
 70
     0
 10
0.0
 20
0.0
 11
1.0
 21
1.0
 12
210.0
 22
148.5
 13
0.0
 23
0.0
 14
10.0
 24
10.0
 15
10.0
 25
10.0
 16
0.0
 26
0.0
 36
1.0
 17
0.0
 27
0.0
 37
0.0
 40
341.0
 41
1.24
 42
50.0
 43
0.0
 44
0.0
 50
0.0
 51
0.0
 71
     0
 72
   100
 73
     1
 74
     3
 75
     0
 76
     0
 77
     0
 78
     0
  0
ENDTAB
  0
TABLE
  2
LTYPE
  5
5
330
0
100
AcDbSymbolTable
 70
     1
  0
LTYPE
  5
14
330
5
100
AcDbSymbolTableRecord
100
AcDbLinetypeTableRecord
  2
BYBLOCK
 70
     0
  3

 72
    65
 73
     0
 40
0.0
  0
LTYPE
  5
15
330
5
100
AcDbSymbolTableRecord
100
AcDbLinetypeTableRecord
  2
BYLAYER
 70
     0
  3

 72
    65
 73
     0
 40
0.0
  0
LTYPE
  5
16
330
5
100
AcDbSymbolTableRecord
100
AcDbLinetypeTableRecord
  2
CONTINUOUS
 70
     0
  3
Solid line
 72
    65
 73
     0
 40
0.0
  0
ENDTAB
  0
TABLE
  2
LAYER
  5
2
100
AcDbSymbolTable
 70
7
  0
LAYER
  5
50
100
AcDbSymbolTableRecord
100
AcDbLayerTableRecord
  2
0
 70
0
  6
CONTINUOUS
  0
LAYER
  5
51
100
AcDbSymbolTableRecord
100
AcDbLayerTableRecord
  2
woodIn
 70
0
  6
CONTINUOUS
  0
LAYER
  5
52
100
AcDbSymbolTableRecord
100
AcDbLayerTableRecord
  2
woodOut
 70
0
  6
CONTINUOUS
  0
LAYER
  5
53
100
AcDbSymbolTableRecord
100
AcDbLayerTableRecord
  2
outerShellIn
 70
0
  6
CONTINUOUS
  0
LAYER
  5
54
100
AcDbSymbolTableRecord
100
AcDbLayerTableRecord
  2
outerShellOut
 70
0
  6
CONTINUOUS
  0
LAYER
  5
55
100
AcDbSymbolTableRecord
100
AcDbLayerTableRecord
  2
innerShellOut
 70
0
  6
CONTINUOUS
  0
LAYER
  5
56
100
AcDbSymbolTableRecord
100
AcDbLayerTableRecord
  2
innerShellIn
 70
0
  6
CONTINUOUS
  0
ENDTAB
  0
TABLE
  2
STYLE
  5
3
330
0
100
AcDbSymbolTable
 70
     1
  0
STYLE
  5
11
330
3
100
AcDbSymbolTableRecord
100
AcDbTextStyleTableRecord
  2
STANDARD
 70
     0
 40
0.0
 41
1.0
 50
0.0
 71
     0
 42
2.5
  3
txt
  4

  0
ENDTAB
  0
TABLE
  2
VIEW
  5
6
330
0
100
AcDbSymbolTable
 70
     0
  0
ENDTAB
  0
TABLE
  2
UCS
  5
7
330
0
100
AcDbSymbolTable
 70
     0
  0
ENDTAB
  0
TABLE
  2
APPID
  5
9
330
0
100
AcDbSymbolTable
 70
     2
  0
APPID
  5
12
330
9
100
AcDbSymbolTableRecord
100
AcDbRegAppTableRecord
  2
ACAD
 70
     0
  0
ENDTAB
  0
TABLE
  2
DIMSTYLE
  5
A
330
0
100
AcDbSymbolTable
 70
     1
  0
DIMSTYLE
105
27
330
A
100
AcDbSymbolTableRecord
100
AcDbDimStyleTableRecord
  2
ISO-25
 70
     0
  3

  4

  5

  6

  7

 40
1.0
 41
2.5
 42
0.625
 43
3.75
 44
1.25
 45
0.0
 46
0.0
 47
0.0
 48
0.0
140
2.5
141
2.5
142
0.0
143
0.03937007874016
144
1.0
145
0.0
146
1.0
147
0.625
 71
     0
 72
     0
 73
     0
 74
     0
 75
     0
 76
     0
 77
     1
 78
     8
170
     0
171
     3
172
     1
173
     0
174
     0
175
     0
176
     0
177
     0
178
     0
270
     2
271
     2
272
     2
273
     2
274
     3
340
11
275
     0
280
     0
281
     0
282
     0
283
     0
284
     8
285
     0
286
     0
287
     3
288
     0
  0
ENDTAB
  0
TABLE
  2
BLOCK_RECORD
  5
1
330
0
100
AcDbSymbolTable
 70
     1
  0
BLOCK_RECORD
  5
1F
330
1
100
AcDbSymbolTableRecord
100
AcDbBlockTableRecord
  2
*MODEL_SPACE
  0
BLOCK_RECORD
  5
1B
330
1
100
AcDbSymbolTableRecord
100
AcDbBlockTableRecord
  2
*PAPER_SPACE
  0
ENDTAB
  0
ENDSEC
  0
SECTION
  2
BLOCKS
  0
BLOCK
  5
20
330
1F
100
AcDbEntity
  8
0
100
AcDbBlockBegin
  2
*MODEL_SPACE
 70
     0
 10
0.0
 20
0.0
 30
0.0
  3
*MODEL_SPACE
  1

  0
ENDBLK
  5
21
330
1F
100
AcDbEntity
  8
0
100
AcDbBlockEnd
  0
BLOCK
  5
1C
330
1B
100
AcDbEntity
 67
     1
  8
0
100
AcDbBlockBegin
  2
*PAPER_SPACE
  1

  0
ENDBLK
  5
1D
330
1B
100
AcDbEntity
 67
     1
  8
0
100
AcDbBlockEnd
  0
ENDSEC
  0
SECTION
  2
ENTITIES
  0
LINE
  5
100
100
AcDbEntity
  8
outerShellOut
 62
7
100
AcDbLine
 10
2.500000
 20
122.000000
 30
0.0
 11
2.500000
 21
119.812500
 31
0.0
  0
LINE
  5
101
100
AcDbEntity
  8
outerShellOut
 62
7
100
AcDbLine
 10
2.500000
 20
119.812500
 30
0.0
 11
2.500000
 21
117.625000
 31
0.0
  0
LINE
  5
102
100
AcDbEntity
  8
outerShellOut
 62
7
100
AcDbLine
 10
2.500000
 20
117.625000
 30
0.0
 11
2.500000
 21
115.437500
 31
0.0
  0
LINE
  5
103
100
AcDbEntity
  8
outerShellOut
 62
7
100
AcDbLine
 10
2.500000
 20
115.437500
 30
0.0
 11
2.500000
 21
113.250000
 31
0.0
  0
LINE
  5
104
100
AcDbEntity
  8
outerShellOut
 62
7
100
AcDbLine
 10
2.500000
 20
113.250000
 30
0.0
 11
2.500000
 21
111.062500
 31
0.0
  0
LINE
  5
105
100
AcDbEntity
  8
outerShellOut
 62
7
100
AcDbLine
 10
2.500000
 20
111.062500
 30
0.0
 11
2.500000
 21
108.875000
 31
0.0
  0
LINE
  5
106
100
AcDbEntity
  8
outerShellOut
 62
7
100
AcDbLine
 10
2.500000
 20
108.875000
 30
0.0
 11
2.500000
 21
106.687500
 31
0.0
  0
LINE
  5
107
100
AcDbEntity
  8
outerShellOut
 62
7
100
AcDbLine
 10
2.500000
 20
106.687500
 30
0.0
 11
2.500000
 21
104.500000
 31
0.0
  0
LINE
  5
108
100
AcDbEntity
  8
outerShellOut
 62
7
100
AcDbLine
 10
2.500000
 20
104.500000
 30
0.0
 11
2.500000
 21
102.312500
 31
0.0
  0
LINE
  5
109
100
AcDbEntity
  8
outerShellOut
 62
7
100
AcDbLine
 10
2.500000
 20
102.312500
 30
0.0
 11
2.500000
 21
100.125000
 31
0.0
  0
LINE
  5
10a
100
AcDbEntity
  8
outerShellOut
 62
7
100
AcDbLine
 10
2.500000
 20
100.125000
 30
0.0
 11
2.500000
 21
97.937500
 31
0.0
  0
LINE
  5
10b
100
AcDbEntity
  8
outerShellOut
 62
7
100
AcDbLine
 10
2.500000
 20
97.937500
 30
0.0
 11
2.500000
 21
95.750000
 31
0.0
  0
LINE
  5
10c
100
AcDbEntity
  8
outerShellOut
 62
7
100
AcDbLine
 10
2.500000
 20
95.750000
 30
0.0
 11
2.500000
 21
93.562500
 31
0.0
  0
LINE
  5
10d
100
AcDbEntity
  8
outerShellOut
 62
7
100
AcDbLine
 10
2.500000
 20
93.562500
 30
0.0
 11
2.500000
 21
91.375000
 31
0.0
  0
LINE
  5
10e
100
AcDbEntity
  8
outerShellOut
 62
7
100
AcDbLine
 10
2.500000
 20
91.375000
 30
0.0
 11
2.500000
 21
89.187500
 31
0.0
  0
LINE
  5
10f
100
AcDbEntity
  8
outerShellOut
 62
7
100
AcDbLine
 10
2.500000
 20
89.187500
 30
0.0
 11
2.500000
 21
87.000000
 31
0.0
  0
LINE
  5
110
100
AcDbEntity
  8
outerShellOut
 62
7
100
AcDbLine
 10
2.500000
 20
87.000000
 30
0.0
 11
2.719089
 21
82.561880
 31
0.0
  0
LINE
  5
111
100
AcDbEntity
  8
outerShellOut
 62
7
100
AcDbLine
 10
2.719089
 20
82.561880
 30
0.0
 11
3.362624
 21
78.261310
 31
0.0
  0
LINE
  5
112
100
AcDbEntity
  8
outerShellOut
 62
7
100
AcDbLine
 10
3.362624
 20
78.261310
 30
0.0
 11
4.410008
 21
74.118950
 31
0.0
  0
LINE
  5
113
100
AcDbEntity
  8
outerShellOut
 62
7
100
AcDbLine
 10
4.410008
 20
74.118950
 30
0.0
 11
5.840642
 21
70.155480
 31
0.0
  0
LINE
  5
114
100
AcDbEntity
  8
outerShellOut
 62
7
100
AcDbLine
 10
5.840642
 20
70.155480
 30
0.0
 11
7.633930
 21
66.391560
 31
0.0
  0
LINE
  5
115
100
AcDbEntity
  8
outerShellOut
 62
7
100
AcDbLine
 10
7.633930
 20
66.391560
 30
0.0
 11
9.769274
 21
62.847860
 31
0.0
  0
LINE
  5
116
100
AcDbEntity
  8
outerShellOut
 62
7
100
AcDbLine
 10
9.769274
 20
62.847860
 30
0.0
 11
12.226075
 21
59.545060
 31
0.0
  0
LINE
  5
117
100
AcDbEntity
  8
outerShellOut
 62
7
100
AcDbLine
 10
12.226075
 20
59.545060
 30
0.0
 11
14.983737
 21
56.503810
 31
0.0
  0
LINE
  5
118
100
AcDbEntity
  8
outerShellOut
 62
7
100
AcDbLine
 10
14.983737
 20
56.503810
 30
0.0
 11
18.021662
 21
53.744790
 31
0.0
  0
LINE
  5
119
100
AcDbEntity
  8
outerShellOut
 62
7
100
AcDbLine
 10
18.021662
 20
53.744790
 30
0.0
 11
21.319252
 21
51.288670
 31
0.0
  0
LINE
  5
11a
100
AcDbEntity
  8
outerShellOut
 62
7
100
AcDbLine
 10
21.319252
 20
51.288670
 30
0.0
 11
24.855910
 21
49.156120
 31
0.0
  0
LINE
  5
11b
100
AcDbEntity
  8
outerShellOut
 62
7
100
AcDbLine
 10
24.855910
 20
49.156120
 30
0.0
 11
28.611038
 21
47.367810
 31
0.0
  0
LINE
  5
11c
100
AcDbEntity
  8
outerShellOut
 62
7
100
AcDbLine
 10
28.611038
 20
47.367810
 30
0.0
 11
32.564038
 21
45.944400
 31
0.0
  0
LINE
  5
11d
100
AcDbEntity
  8
outerShellOut
 62
7
100
AcDbLine
 10
32.564038
 20
45.944400
 30
0.0
 11
36.694313
 21
44.906570
 31
0.0
  0
LINE
  5
11e
100
AcDbEntity
  8
outerShellOut
 62
7
100
AcDbLine
 10
36.694313
 20
44.906570
 30
0.0
 11
40.981265
 21
44.274980
 31
0.0
  0
LINE
  5
11f
100
AcDbEntity
  8
outerShellOut
 62
7
100
AcDbLine
 10
40.981265
 20
44.274980
 30
0.0
 11
45.404297
 21
44.070310
 31
0.0
  0
LINE
  5
120
100
AcDbEntity
  8
outerShellOut
 62
7
100
AcDbLine
 10
45.404297
 20
44.070310
 30
0.0
 11
47.999605
 21
44.132010
 31
0.0
  0
LINE
  5
121
100
AcDbEntity
  8
outerShellOut
 62
7
100
AcDbLine
 10
47.999605
 20
44.132010
 30
0.0
 11
50.486950
 21
44.293190
 31
0.0
  0
LINE
  5
122
100
AcDbEntity
  8
outerShellOut
 62
7
100
AcDbLine
 10
50.486950
 20
44.293190
 30
0.0
 11
52.869645
 21
44.545910
 31
0.0
  0
LINE
  5
123
100
AcDbEntity
  8
outerShellOut
 62
7
100
AcDbLine
 10
52.869645
 20
44.545910
 30
0.0
 11
55.151001
 21
44.882210
 31
0.0
  0
LINE
  5
124
100
AcDbEntity
  8
outerShellOut
 62
7
100
AcDbLine
 10
55.151001
 20
44.882210
 30
0.0
 11
57.334330
 21
45.294120
 31
0.0
  0
LINE
  5
125
100
AcDbEntity
  8
outerShellOut
 62
7
100
AcDbLine
 10
57.334330
 20
45.294120
 30
0.0
 11
59.422941
 21
45.773670
 31
0.0
  0
LINE
  5
126
100
AcDbEntity
  8
outerShellOut
 62
7
100
AcDbLine
 10
59.422941
 20
45.773670
 30
0.0
 11
61.420147
 21
46.312900
 31
0.0
  0
LINE
  5
127
100
AcDbEntity
  8
outerShellOut
 62
7
100
AcDbLine
 10
61.420147
 20
46.312900
 30
0.0
 11
63.329259
 21
46.903840
 31
0.0
  0
LINE
  5
128
100
AcDbEntity
  8
outerShellOut
 62
7
100
AcDbLine
 10
63.329259
 20
46.903840
 30
0.0
 11
65.153588
 21
47.538530
 31
0.0
  0
LINE
  5
129
100
AcDbEntity
  8
outerShellOut
 62
7
100
AcDbLine
 10
65.153588
 20
47.538530
 30
0.0
 11
66.896446
 21
48.209000
 31
0.0
  0
LINE
  5
12a
100
AcDbEntity
  8
outerShellOut
 62
7
100
AcDbLine
 10
66.896446
 20
48.209000
 30
0.0
 11
68.561144
 21
48.907280
 31
0.0
  0
LINE
  5
12b
100
AcDbEntity
  8
outerShellOut
 62
7
100
AcDbLine
 10
68.561144
 20
48.907280
 30
0.0
 11
70.150993
 21
49.625420
 31
0.0
  0
LINE
  5
12c
100
AcDbEntity
  8
outerShellOut
 62
7
100
AcDbLine
 10
70.150993
 20
49.625420
 30
0.0
 11
71.669304
 21
50.355440
 31
0.0
  0
LINE
  5
12d
100
AcDbEntity
  8
outerShellOut
 62
7
100
AcDbLine
 10
71.669304
 20
50.355440
 30
0.0
 11
73.119389
 21
51.089370
 31
0.0
  0
LINE
  5
12e
100
AcDbEntity
  8
outerShellOut
 62
7
100
AcDbLine
 10
73.119389
 20
51.089370
 30
0.0
 11
74.504559
 21
51.819260
 31
0.0
  0
LINE
  5
12f
100
AcDbEntity
  8
outerShellOut
 62
7
100
AcDbLine
 10
74.504559
 20
51.819260
 30
0.0
 11
75.828125
 21
52.537140
 31
0.0
  0
LINE
  5
130
100
AcDbEntity
  8
outerShellOut
 62
7
100
AcDbLine
 10
75.828125
 20
52.537140
 30
0.0
 11
77.091044
 21
53.232280
 31
0.0
  0
LINE
  5
131
100
AcDbEntity
  8
outerShellOut
 62
7
100
AcDbLine
 10
77.091044
 20
53.232280
 30
0.0
 11
78.299184
 21
53.897820
 31
0.0
  0
LINE
  5
132
100
AcDbEntity
  8
outerShellOut
 62
7
100
AcDbLine
 10
78.299184
 20
53.897820
 30
0.0
 11
79.463218
 21
54.531570
 31
0.0
  0
LINE
  5
133
100
AcDbEntity
  8
outerShellOut
 62
7
100
AcDbLine
 10
79.463218
 20
54.531570
 30
0.0
 11
80.593823
 21
55.131350
 31
0.0
  0
LINE
  5
134
100
AcDbEntity
  8
outerShellOut
 62
7
100
AcDbLine
 10
80.593823
 20
55.131350
 30
0.0
 11
81.701673
 21
55.694990
 31
0.0
  0
LINE
  5
135
100
AcDbEntity
  8
outerShellOut
 62
7
100
AcDbLine
 10
81.701673
 20
55.694990
 30
0.0
 11
82.797446
 21
56.220280
 31
0.0
  0
LINE
  5
136
100
AcDbEntity
  8
outerShellOut
 62
7
100
AcDbLine
 10
82.797446
 20
56.220280
 30
0.0
 11
83.891815
 21
56.705070
 31
0.0
  0
LINE
  5
137
100
AcDbEntity
  8
outerShellOut
 62
7
100
AcDbLine
 10
83.891815
 20
56.705070
 30
0.0
 11
84.995457
 21
57.147150
 31
0.0
  0
LINE
  5
138
100
AcDbEntity
  8
outerShellOut
 62
7
100
AcDbLine
 10
84.995457
 20
57.147150
 30
0.0
 11
86.119046
 21
57.544360
 31
0.0
  0
LINE
  5
139
100
AcDbEntity
  8
outerShellOut
 62
7
100
AcDbLine
 10
86.119046
 20
57.544360
 30
0.0
 11
87.273259
 21
57.894500
 31
0.0
  0
LINE
  5
13a
100
AcDbEntity
  8
outerShellOut
 62
7
100
AcDbLine
 10
87.273259
 20
57.894500
 30
0.0
 11
88.468771
 21
58.195390
 31
0.0
  0
LINE
  5
13b
100
AcDbEntity
  8
outerShellOut
 62
7
100
AcDbLine
 10
88.468771
 20
58.195390
 30
0.0
 11
89.716257
 21
58.444860
 31
0.0
  0
LINE
  5
13c
100
AcDbEntity
  8
outerShellOut
 62
7
100
AcDbLine
 10
89.716257
 20
58.444860
 30
0.0
 11
91.026393
 21
58.640720
 31
0.0
  0
LINE
  5
13d
100
AcDbEntity
  8
outerShellOut
 62
7
100
AcDbLine
 10
91.026393
 20
58.640720
 30
0.0
 11
92.409854
 21
58.780780
 31
0.0
  0
LINE
  5
13e
100
AcDbEntity
  8
outerShellOut
 62
7
100
AcDbLine
 10
92.409854
 20
58.780780
 30
0.0
 11
93.877315
 21
58.862880
 31
0.0
  0
LINE
  5
13f
100
AcDbEntity
  8
outerShellOut
 62
7
100
AcDbLine
 10
93.877315
 20
58.862880
 30
0.0
 11
95.439453
 21
58.884780
 31
0.0
  0
LINE
  5
140
100
AcDbEntity
  8
outerShellOut
 62
7
100
AcDbLine
 10
95.439453
 20
58.884780
 30
0.0
 11
98.250230
 21
58.779330
 31
0.0
  0
LINE
  5
141
100
AcDbEntity
  8
outerShellOut
 62
7
100
AcDbLine
 10
98.250230
 20
58.779330
 30
0.0
 11
101.102050
 21
58.500550
 31
0.0
  0
LINE
  5
142
100
AcDbEntity
  8
outerShellOut
 62
7
100
AcDbLine
 10
101.102050
 20
58.500550
 30
0.0
 11
103.994590
 21
58.058720
 31
0.0
  0
LINE
  5
143
100
AcDbEntity
  8
outerShellOut
 62
7
100
AcDbLine
 10
103.994590
 20
58.058720
 30
0.0
 11
106.927550
 21
57.464120
 31
0.0
  0
LINE
  5
144
100
AcDbEntity
  8
outerShellOut
 62
7
100
AcDbLine
 10
106.927550
 20
57.464120
 30
0.0
 11
109.900610
 21
56.727040
 31
0.0
  0
LINE
  5
145
100
AcDbEntity
  8
outerShellOut
 62
7
100
AcDbLine
 10
109.900610
 20
56.727040
 30
0.0
 11
112.913470
 21
55.857760
 31
0.0
  0
LINE
  5
146
100
AcDbEntity
  8
outerShellOut
 62
7
100
AcDbLine
 10
112.913470
 20
55.857760
 30
0.0
 11
115.965810
 21
54.866570
 31
0.0
  0
LINE
  5
147
100
AcDbEntity
  8
outerShellOut
 62
7
100
AcDbLine
 10
115.965810
 20
54.866570
 30
0.0
 11
119.057310
 21
53.763740
 31
0.0
  0
LINE
  5
148
100
AcDbEntity
  8
outerShellOut
 62
7
100
AcDbLine
 10
119.057310
 20
53.763740
 30
0.0
 11
122.187680
 21
52.559550
 31
0.0
  0
LINE
  5
149
100
AcDbEntity
  8
outerShellOut
 62
7
100
AcDbLine
 10
122.187680
 20
52.559550
 30
0.0
 11
125.356590
 21
51.264310
 31
0.0
  0
LINE
  5
14a
100
AcDbEntity
  8
outerShellOut
 62
7
100
AcDbLine
 10
125.356590
 20
51.264310
 30
0.0
 11
128.563740
 21
49.888270
 31
0.0
  0
LINE
  5
14b
100
AcDbEntity
  8
outerShellOut
 62
7
100
AcDbLine
 10
128.563740
 20
49.888270
 30
0.0
 11
131.808810
 21
48.441740
 31
0.0
  0
LINE
  5
14c
100
AcDbEntity
  8
outerShellOut
 62
7
100
AcDbLine
 10
131.808810
 20
48.441740
 30
0.0
 11
135.091500
 21
46.934990
 31
0.0
  0
LINE
  5
14d
100
AcDbEntity
  8
outerShellOut
 62
7
100
AcDbLine
 10
135.091500
 20
46.934990
 30
0.0
 11
138.411480
 21
45.378300
 31
0.0
  0
LINE
  5
14e
100
AcDbEntity
  8
outerShellOut
 62
7
100
AcDbLine
 10
138.411480
 20
45.378300
 30
0.0
 11
141.768460
 21
43.781960
 31
0.0
  0
LINE
  5
14f
100
AcDbEntity
  8
outerShellOut
 62
7
100
AcDbLine
 10
141.768460
 20
43.781960
 30
0.0
 11
145.162110
 21
42.156260
 31
0.0
  0
LINE
  5
150
100
AcDbEntity
  8
outerShellOut
 62
7
100
AcDbLine
 10
145.162110
 20
42.156260
 30
0.0
 11
148.593330
 21
40.513620
 31
0.0
  0
LINE
  5
151
100
AcDbEntity
  8
outerShellOut
 62
7
100
AcDbLine
 10
148.593330
 20
40.513620
 30
0.0
 11
152.064030
 21
38.869510
 31
0.0
  0
LINE
  5
152
100
AcDbEntity
  8
outerShellOut
 62
7
100
AcDbLine
 10
152.064030
 20
38.869510
 30
0.0
 11
155.575480
 21
37.238760
 31
0.0
  0
LINE
  5
153
100
AcDbEntity
  8
outerShellOut
 62
7
100
AcDbLine
 10
155.575480
 20
37.238760
 30
0.0
 11
159.128910
 21
35.636180
 31
0.0
  0
LINE
  5
154
100
AcDbEntity
  8
outerShellOut
 62
7
100
AcDbLine
 10
159.128910
 20
35.636180
 30
0.0
 11
162.725590
 21
34.076620
 31
0.0
  0
LINE
  5
155
100
AcDbEntity
  8
outerShellOut
 62
7
100
AcDbLine
 10
162.725590
 20
34.076620
 30
0.0
 11
166.366750
 21
32.574880
 31
0.0
  0
LINE
  5
156
100
AcDbEntity
  8
outerShellOut
 62
7
100
AcDbLine
 10
166.366750
 20
32.574880
 30
0.0
 11
170.053650
 21
31.145800
 31
0.0
  0
LINE
  5
157
100
AcDbEntity
  8
outerShellOut
 62
7
100
AcDbLine
 10
170.053650
 20
31.145800
 30
0.0
 11
173.787530
 21
29.804210
 31
0.0
  0
LINE
  5
158
100
AcDbEntity
  8
outerShellOut
 62
7
100
AcDbLine
 10
173.787530
 20
29.804210
 30
0.0
 11
177.569650
 21
28.564930
 31
0.0
  0
LINE
  5
159
100
AcDbEntity
  8
outerShellOut
 62
7
100
AcDbLine
 10
177.569650
 20
28.564930
 30
0.0
 11
181.401260
 21
27.442780
 31
0.0
  0
LINE
  5
15a
100
AcDbEntity
  8
outerShellOut
 62
7
100
AcDbLine
 10
181.401260
 20
27.442780
 30
0.0
 11
185.283590
 21
26.452600
 31
0.0
  0
LINE
  5
15b
100
AcDbEntity
  8
outerShellOut
 62
7
100
AcDbLine
 10
185.283590
 20
26.452600
 30
0.0
 11
189.217910
 21
25.609200
 31
0.0
  0
LINE
  5
15c
100
AcDbEntity
  8
outerShellOut
 62
7
100
AcDbLine
 10
189.217910
 20
25.609200
 30
0.0
 11
193.205460
 21
24.927420
 31
0.0
  0
LINE
  5
15d
100
AcDbEntity
  8
outerShellOut
 62
7
100
AcDbLine
 10
193.205460
 20
24.927420
 30
0.0
 11
197.247500
 21
24.422080
 31
0.0
  0
LINE
  5
15e
100
AcDbEntity
  8
outerShellOut
 62
7
100
AcDbLine
 10
197.247500
 20
24.422080
 30
0.0
 11
201.345260
 21
24.108000
 31
0.0
  0
LINE
  5
15f
100
AcDbEntity
  8
outerShellOut
 62
7
100
AcDbLine
 10
201.345260
 20
24.108000
 30
0.0
 11
205.500000
 21
24.000000
 31
0.0
  0
LINE
  5
160
100
AcDbEntity
  8
outerShellOut
 62
7
100
AcDbLine
 10
205.500000
 20
24.000000
 30
0.0
 11
207.582830
 21
24.002000
 31
0.0
  0
LINE
  5
161
100
AcDbEntity
  8
outerShellOut
 62
7
100
AcDbLine
 10
207.582830
 20
24.002000
 30
0.0
 11
210.061470
 21
24.022700
 31
0.0
  0
LINE
  5
162
100
AcDbEntity
  8
outerShellOut
 62
7
100
AcDbLine
 10
210.061470
 20
24.022700
 30
0.0
 11
212.906140
 21
24.086000
 31
0.0
  0
LINE
  5
163
100
AcDbEntity
  8
outerShellOut
 62
7
100
AcDbLine
 10
212.906140
 20
24.086000
 30
0.0
 11
216.087040
 21
24.215540
 31
0.0
  0
LINE
  5
164
100
AcDbEntity
  8
outerShellOut
 62
7
100
AcDbLine
 10
216.087040
 20
24.215540
 30
0.0
 11
219.574390
 21
24.434940
 31
0.0
  0
LINE
  5
165
100
AcDbEntity
  8
outerShellOut
 62
7
100
AcDbLine
 10
219.574390
 20
24.434940
 30
0.0
 11
223.338410
 21
24.767800
 31
0.0
  0
LINE
  5
166
100
AcDbEntity
  8
outerShellOut
 62
7
100
AcDbLine
 10
223.338410
 20
24.767800
 30
0.0
 11
227.349320
 21
25.237740
 31
0.0
  0
LINE
  5
167
100
AcDbEntity
  8
outerShellOut
 62
7
100
AcDbLine
 10
227.349320
 20
25.237740
 30
0.0
 11
231.577320
 21
25.868370
 31
0.0
  0
LINE
  5
168
100
AcDbEntity
  8
outerShellOut
 62
7
100
AcDbLine
 10
231.577320
 20
25.868370
 30
0.0
 11
235.992630
 21
26.683300
 31
0.0
  0
LINE
  5
169
100
AcDbEntity
  8
outerShellOut
 62
7
100
AcDbLine
 10
235.992630
 20
26.683300
 30
0.0
 11
240.565470
 21
27.706150
 31
0.0
  0
LINE
  5
16a
100
AcDbEntity
  8
outerShellOut
 62
7
100
AcDbLine
 10
240.565470
 20
27.706150
 30
0.0
 11
245.266050
 21
28.960520
 31
0.0
  0
LINE
  5
16b
100
AcDbEntity
  8
outerShellOut
 62
7
100
AcDbLine
 10
245.266050
 20
28.960520
 30
0.0
 11
250.064580
 21
30.470030
 31
0.0
  0
LINE
  5
16c
100
AcDbEntity
  8
outerShellOut
 62
7
100
AcDbLine
 10
250.064580
 20
30.470030
 30
0.0
 11
254.931290
 21
32.258280
 31
0.0
  0
LINE
  5
16d
100
AcDbEntity
  8
outerShellOut
 62
7
100
AcDbLine
 10
254.931290
 20
32.258280
 30
0.0
 11
259.836380
 21
34.348900
 31
0.0
  0
LINE
  5
16e
100
AcDbEntity
  8
outerShellOut
 62
7
100
AcDbLine
 10
259.836380
 20
34.348900
 30
0.0
 11
264.750070
 21
36.765490
 31
0.0
  0
LINE
  5
16f
100
AcDbEntity
  8
outerShellOut
 62
7
100
AcDbLine
 10
264.750070
 20
36.765490
 30
0.0
 11
269.642580
 21
39.531660
 31
0.0
  0
LINE
  5
170
100
AcDbEntity
  8
outerShellOut
 62
7
100
AcDbLine
 10
269.642580
 20
39.531660
 30
0.0
 11
274.473290
 21
42.676960
 31
0.0
  0
LINE
  5
171
100
AcDbEntity
  8
outerShellOut
 62
7
100
AcDbLine
 10
274.473290
 20
42.676960
 30
0.0
 11
279.202150
 21
46.225620
 31
0.0
  0
LINE
  5
172
100
AcDbEntity
  8
outerShellOut
 62
7
100
AcDbLine
 10
279.202150
 20
46.225620
 30
0.0
 11
283.800210
 21
50.193230
 31
0.0
  0
LINE
  5
173
100
AcDbEntity
  8
outerShellOut
 62
7
100
AcDbLine
 10
283.800210
 20
50.193230
 30
0.0
 11
288.238520
 21
54.595410
 31
0.0
  0
LINE
  5
174
100
AcDbEntity
  8
outerShellOut
 62
7
100
AcDbLine
 10
288.238520
 20
54.595410
 30
0.0
 11
292.488130
 21
59.447780
 31
0.0
  0
LINE
  5
175
100
AcDbEntity
  8
outerShellOut
 62
7
100
AcDbLine
 10
292.488130
 20
59.447780
 30
0.0
 11
296.520090
 21
64.765940
 31
0.0
  0
LINE
  5
176
100
AcDbEntity
  8
outerShellOut
 62
7
100
AcDbLine
 10
296.520090
 20
64.765940
 30
0.0
 11
300.305450
 21
70.565500
 31
0.0
  0
LINE
  5
177
100
AcDbEntity
  8
outerShellOut
 62
7
100
AcDbLine
 10
300.305450
 20
70.565500
 30
0.0
 11
303.815260
 21
76.862070
 31
0.0
  0
LINE
  5
178
100
AcDbEntity
  8
outerShellOut
 62
7
100
AcDbLine
 10
303.815260
 20
76.862070
 30
0.0
 11
307.020570
 21
83.671270
 31
0.0
  0
LINE
  5
179
100
AcDbEntity
  8
outerShellOut
 62
7
100
AcDbLine
 10
307.020570
 20
83.671270
 30
0.0
 11
309.892440
 21
91.008700
 31
0.0
  0
LINE
  5
17a
100
AcDbEntity
  8
outerShellOut
 62
7
100
AcDbLine
 10
309.892440
 20
91.008700
 30
0.0
 11
312.401900
 21
98.889980
 31
0.0
  0
LINE
  5
17b
100
AcDbEntity
  8
outerShellOut
 62
7
100
AcDbLine
 10
312.401900
 20
98.889980
 30
0.0
 11
314.520020
 21
107.330710
 31
0.0
  0
LINE
  5
17c
100
AcDbEntity
  8
outerShellOut
 62
7
100
AcDbLine
 10
314.520020
 20
107.330710
 30
0.0
 11
316.217830
 21
116.346510
 31
0.0
  0
LINE
  5
17d
100
AcDbEntity
  8
outerShellOut
 62
7
100
AcDbLine
 10
316.217830
 20
116.346510
 30
0.0
 11
317.466400
 21
125.952980
 31
0.0
  0
LINE
  5
17e
100
AcDbEntity
  8
outerShellOut
 62
7
100
AcDbLine
 10
317.466400
 20
125.952980
 30
0.0
 11
318.236780
 21
136.165750
 31
0.0
  0
LINE
  5
17f
100
AcDbEntity
  8
outerShellOut
 62
7
100
AcDbLine
 10
318.236780
 20
136.165750
 30
0.0
 11
318.500000
 21
147.000000
 31
0.0
  0
LINE
  5
180
100
AcDbEntity
  8
outerShellOut
 62
7
100
AcDbLine
 10
318.500000
 20
147.000000
 30
0.0
 11
318.236780
 21
157.834660
 31
0.0
  0
LINE
  5
181
100
AcDbEntity
  8
outerShellOut
 62
7
100
AcDbLine
 10
318.236780
 20
157.834660
 30
0.0
 11
317.466400
 21
168.047430
 31
0.0
  0
LINE
  5
182
100
AcDbEntity
  8
outerShellOut
 62
7
100
AcDbLine
 10
317.466400
 20
168.047430
 30
0.0
 11
316.217830
 21
177.653900
 31
0.0
  0
LINE
  5
183
100
AcDbEntity
  8
outerShellOut
 62
7
100
AcDbLine
 10
316.217830
 20
177.653900
 30
0.0
 11
314.520020
 21
186.669700
 31
0.0
  0
LINE
  5
184
100
AcDbEntity
  8
outerShellOut
 62
7
100
AcDbLine
 10
314.520020
 20
186.669700
 30
0.0
 11
312.401900
 21
195.110430
 31
0.0
  0
LINE
  5
185
100
AcDbEntity
  8
outerShellOut
 62
7
100
AcDbLine
 10
312.401900
 20
195.110430
 30
0.0
 11
309.892440
 21
202.991710
 31
0.0
  0
LINE
  5
186
100
AcDbEntity
  8
outerShellOut
 62
7
100
AcDbLine
 10
309.892440
 20
202.991710
 30
0.0
 11
307.020570
 21
210.329141
 31
0.0
  0
LINE
  5
187
100
AcDbEntity
  8
outerShellOut
 62
7
100
AcDbLine
 10
307.020570
 20
210.329141
 30
0.0
 11
303.815260
 21
217.138338
 31
0.0
  0
LINE
  5
188
100
AcDbEntity
  8
outerShellOut
 62
7
100
AcDbLine
 10
303.815260
 20
217.138338
 30
0.0
 11
300.305450
 21
223.434911
 31
0.0
  0
LINE
  5
189
100
AcDbEntity
  8
outerShellOut
 62
7
100
AcDbLine
 10
300.305450
 20
223.434911
 30
0.0
 11
296.520090
 21
229.234471
 31
0.0
  0
LINE
  5
18a
100
AcDbEntity
  8
outerShellOut
 62
7
100
AcDbLine
 10
296.520090
 20
229.234471
 30
0.0
 11
292.488130
 21
234.552628
 31
0.0
  0
LINE
  5
18b
100
AcDbEntity
  8
outerShellOut
 62
7
100
AcDbLine
 10
292.488130
 20
234.552628
 30
0.0
 11
288.238520
 21
239.404993
 31
0.0
  0
LINE
  5
18c
100
AcDbEntity
  8
outerShellOut
 62
7
100
AcDbLine
 10
288.238520
 20
239.404993
 30
0.0
 11
283.800210
 21
243.807178
 31
0.0
  0
LINE
  5
18d
100
AcDbEntity
  8
outerShellOut
 62
7
100
AcDbLine
 10
283.800210
 20
243.807178
 30
0.0
 11
279.202150
 21
247.774791
 31
0.0
  0
LINE
  5
18e
100
AcDbEntity
  8
outerShellOut
 62
7
100
AcDbLine
 10
279.202150
 20
247.774791
 30
0.0
 11
274.473290
 21
251.323445
 31
0.0
  0
LINE
  5
18f
100
AcDbEntity
  8
outerShellOut
 62
7
100
AcDbLine
 10
274.473290
 20
251.323445
 30
0.0
 11
269.642580
 21
254.468750
 31
0.0
  0
LINE
  5
190
100
AcDbEntity
  8
outerShellOut
 62
7
100
AcDbLine
 10
269.642580
 20
254.468750
 30
0.0
 11
264.750070
 21
257.234922
 31
0.0
  0
LINE
  5
191
100
AcDbEntity
  8
outerShellOut
 62
7
100
AcDbLine
 10
264.750070
 20
257.234922
 30
0.0
 11
259.836380
 21
259.651511
 31
0.0
  0
LINE
  5
192
100
AcDbEntity
  8
outerShellOut
 62
7
100
AcDbLine
 10
259.836380
 20
259.651511
 30
0.0
 11
254.931290
 21
261.742128
 31
0.0
  0
LINE
  5
193
100
AcDbEntity
  8
outerShellOut
 62
7
100
AcDbLine
 10
254.931290
 20
261.742128
 30
0.0
 11
250.064580
 21
263.530385
 31
0.0
  0
LINE
  5
194
100
AcDbEntity
  8
outerShellOut
 62
7
100
AcDbLine
 10
250.064580
 20
263.530385
 30
0.0
 11
245.266050
 21
265.039894
 31
0.0
  0
LINE
  5
195
100
AcDbEntity
  8
outerShellOut
 62
7
100
AcDbLine
 10
245.266050
 20
265.039894
 30
0.0
 11
240.565470
 21
266.294265
 31
0.0
  0
LINE
  5
196
100
AcDbEntity
  8
outerShellOut
 62
7
100
AcDbLine
 10
240.565470
 20
266.294265
 30
0.0
 11
235.992630
 21
267.317112
 31
0.0
  0
LINE
  5
197
100
AcDbEntity
  8
outerShellOut
 62
7
100
AcDbLine
 10
235.992630
 20
267.317112
 30
0.0
 11
231.577320
 21
268.132044
 31
0.0
  0
LINE
  5
198
100
AcDbEntity
  8
outerShellOut
 62
7
100
AcDbLine
 10
231.577320
 20
268.132044
 30
0.0
 11
227.349320
 21
268.762674
 31
0.0
  0
LINE
  5
199
100
AcDbEntity
  8
outerShellOut
 62
7
100
AcDbLine
 10
227.349320
 20
268.762674
 30
0.0
 11
223.338410
 21
269.232614
 31
0.0
  0
LINE
  5
19a
100
AcDbEntity
  8
outerShellOut
 62
7
100
AcDbLine
 10
223.338410
 20
269.232614
 30
0.0
 11
219.574390
 21
269.565475
 31
0.0
  0
LINE
  5
19b
100
AcDbEntity
  8
outerShellOut
 62
7
100
AcDbLine
 10
219.574390
 20
269.565475
 30
0.0
 11
216.087040
 21
269.784868
 31
0.0
  0
LINE
  5
19c
100
AcDbEntity
  8
outerShellOut
 62
7
100
AcDbLine
 10
216.087040
 20
269.784868
 30
0.0
 11
212.906140
 21
269.914406
 31
0.0
  0
LINE
  5
19d
100
AcDbEntity
  8
outerShellOut
 62
7
100
AcDbLine
 10
212.906140
 20
269.914406
 30
0.0
 11
210.061470
 21
269.977696
 31
0.0
  0
LINE
  5
19e
100
AcDbEntity
  8
outerShellOut
 62
7
100
AcDbLine
 10
210.061470
 20
269.977696
 30
0.0
 11
207.582830
 21
269.998356
 31
0.0
  0
LINE
  5
19f
100
AcDbEntity
  8
outerShellOut
 62
7
100
AcDbLine
 10
207.582830
 20
269.998356
 30
0.0
 11
205.500000
 21
270.000000
 31
0.0
  0
LINE
  5
1a0
100
AcDbEntity
  8
outerShellOut
 62
7
100
AcDbLine
 10
205.500000
 20
270.000000
 30
0.0
 11
201.341620
 21
269.891014
 31
0.0
  0
LINE
  5
1a1
100
AcDbEntity
  8
outerShellOut
 62
7
100
AcDbLine
 10
201.341620
 20
269.891014
 30
0.0
 11
197.240640
 21
269.574061
 31
0.0
  0
LINE
  5
1a2
100
AcDbEntity
  8
outerShellOut
 62
7
100
AcDbLine
 10
197.240640
 20
269.574061
 30
0.0
 11
193.195800
 21
269.064150
 31
0.0
  0
LINE
  5
1a3
100
AcDbEntity
  8
outerShellOut
 62
7
100
AcDbLine
 10
193.195800
 20
269.064150
 30
0.0
 11
189.205840
 21
268.376289
 31
0.0
  0
LINE
  5
1a4
100
AcDbEntity
  8
outerShellOut
 62
7
100
AcDbLine
 10
189.205840
 20
268.376289
 30
0.0
 11
185.269480
 21
267.525488
 31
0.0
  0
LINE
  5
1a5
100
AcDbEntity
  8
outerShellOut
 62
7
100
AcDbLine
 10
185.269480
 20
267.525488
 30
0.0
 11
181.385470
 21
266.526755
 31
0.0
  0
LINE
  5
1a6
100
AcDbEntity
  8
outerShellOut
 62
7
100
AcDbLine
 10
181.385470
 20
266.526755
 30
0.0
 11
177.552540
 21
265.395099
 31
0.0
  0
LINE
  5
1a7
100
AcDbEntity
  8
outerShellOut
 62
7
100
AcDbLine
 10
177.552540
 20
265.395099
 30
0.0
 11
173.769440
 21
264.145528
 31
0.0
  0
LINE
  5
1a8
100
AcDbEntity
  8
outerShellOut
 62
7
100
AcDbLine
 10
173.769440
 20
264.145528
 30
0.0
 11
170.034880
 21
262.793051
 31
0.0
  0
LINE
  5
1a9
100
AcDbEntity
  8
outerShellOut
 62
7
100
AcDbLine
 10
170.034880
 20
262.793051
 30
0.0
 11
166.347630
 21
261.352677
 31
0.0
  0
LINE
  5
1aa
100
AcDbEntity
  8
outerShellOut
 62
7
100
AcDbLine
 10
166.347630
 20
261.352677
 30
0.0
 11
162.706400
 21
259.839414
 31
0.0
  0
LINE
  5
1ab
100
AcDbEntity
  8
outerShellOut
 62
7
100
AcDbLine
 10
162.706400
 20
259.839414
 30
0.0
 11
159.109940
 21
258.268272
 31
0.0
  0
LINE
  5
1ac
100
AcDbEntity
  8
outerShellOut
 62
7
100
AcDbLine
 10
159.109940
 20
258.268272
 30
0.0
 11
155.556980
 21
256.654258
 31
0.0
  0
LINE
  5
1ad
100
AcDbEntity
  8
outerShellOut
 62
7
100
AcDbLine
 10
155.556980
 20
256.654258
 30
0.0
 11
152.046260
 21
255.012382
 31
0.0
  0
LINE
  5
1ae
100
AcDbEntity
  8
outerShellOut
 62
7
100
AcDbLine
 10
152.046260
 20
255.012382
 30
0.0
 11
148.576510
 21
253.357653
 31
0.0
  0
LINE
  5
1af
100
AcDbEntity
  8
outerShellOut
 62
7
100
AcDbLine
 10
148.576510
 20
253.357653
 30
0.0
 11
145.146480
 21
251.705078
 31
0.0
  0
LINE
  5
1b0
100
AcDbEntity
  8
outerShellOut
 62
7
100
AcDbLine
 10
145.146480
 20
251.705078
 30
0.0
 11
141.754300
 21
250.070359
 31
0.0
  0
LINE
  5
1b1
100
AcDbEntity
  8
outerShellOut
 62
7
100
AcDbLine
 10
141.754300
 20
250.070359
 30
0.0
 11
138.399160
 21
248.466088
 31
0.0
  0
LINE
  5
1b2
100
AcDbEntity
  8
outerShellOut
 62
7
100
AcDbLine
 10
138.399160
 20
248.466088
 30
0.0
 11
135.081390
 21
246.902618
 31
0.0
  0
LINE
  5
1b3
100
AcDbEntity
  8
outerShellOut
 62
7
100
AcDbLine
 10
135.081390
 20
246.902618
 30
0.0
 11
131.801320
 21
245.390299
 31
0.0
  0
LINE
  5
1b4
100
AcDbEntity
  8
outerShellOut
 62
7
100
AcDbLine
 10
131.801320
 20
245.390299
 30
0.0
 11
128.559270
 21
243.939482
 31
0.0
  0
LINE
  5
1b5
100
AcDbEntity
  8
outerShellOut
 62
7
100
AcDbLine
 10
128.559270
 20
243.939482
 30
0.0
 11
125.355570
 21
242.560518
 31
0.0
  0
LINE
  5
1b6
100
AcDbEntity
  8
outerShellOut
 62
7
100
AcDbLine
 10
125.355570
 20
242.560518
 30
0.0
 11
122.190560
 21
241.263757
 31
0.0
  0
LINE
  5
1b7
100
AcDbEntity
  8
outerShellOut
 62
7
100
AcDbLine
 10
122.190560
 20
241.263757
 30
0.0
 11
119.064550
 21
240.059552
 31
0.0
  0
LINE
  5
1b8
100
AcDbEntity
  8
outerShellOut
 62
7
100
AcDbLine
 10
119.064550
 20
240.059552
 30
0.0
 11
115.977870
 21
238.958252
 31
0.0
  0
LINE
  5
1b9
100
AcDbEntity
  8
outerShellOut
 62
7
100
AcDbLine
 10
115.977870
 20
238.958252
 30
0.0
 11
112.930860
 21
237.970210
 31
0.0
  0
LINE
  5
1ba
100
AcDbEntity
  8
outerShellOut
 62
7
100
AcDbLine
 10
112.930860
 20
237.970210
 30
0.0
 11
109.923840
 21
237.105775
 31
0.0
  0
LINE
  5
1bb
100
AcDbEntity
  8
outerShellOut
 62
7
100
AcDbLine
 10
109.923840
 20
237.105775
 30
0.0
 11
106.957130
 21
236.375298
 31
0.0
  0
LINE
  5
1bc
100
AcDbEntity
  8
outerShellOut
 62
7
100
AcDbLine
 10
106.957130
 20
236.375298
 30
0.0
 11
104.031060
 21
235.789132
 31
0.0
  0
LINE
  5
1bd
100
AcDbEntity
  8
outerShellOut
 62
7
100
AcDbLine
 10
104.031060
 20
235.789132
 30
0.0
 11
101.145970
 21
235.357626
 31
0.0
  0
LINE
  5
1be
100
AcDbEntity
  8
outerShellOut
 62
7
100
AcDbLine
 10
101.145970
 20
235.357626
 30
0.0
 11
98.302171
 21
235.091132
 31
0.0
  0
LINE
  5
1bf
100
AcDbEntity
  8
outerShellOut
 62
7
100
AcDbLine
 10
98.302171
 20
235.091132
 30
0.0
 11
95.500000
 21
235.000000
 31
0.0
  0
LINE
  5
1c0
100
AcDbEntity
  8
outerShellOut
 62
7
100
AcDbLine
 10
95.500000
 20
235.000000
 30
0.0
 11
94.042446
 21
235.030990
 31
0.0
  0
LINE
  5
1c1
100
AcDbEntity
  8
outerShellOut
 62
7
100
AcDbLine
 10
94.042446
 20
235.030990
 30
0.0
 11
92.663367
 21
235.122490
 31
0.0
  0
LINE
  5
1c2
100
AcDbEntity
  8
outerShellOut
 62
7
100
AcDbLine
 10
92.663367
 20
235.122490
 30
0.0
 11
91.353137
 21
235.272301
 31
0.0
  0
LINE
  5
1c3
100
AcDbEntity
  8
outerShellOut
 62
7
100
AcDbLine
 10
91.353137
 20
235.272301
 30
0.0
 11
90.102127
 21
235.478216
 31
0.0
  0
LINE
  5
1c4
100
AcDbEntity
  8
outerShellOut
 62
7
100
AcDbLine
 10
90.102127
 20
235.478216
 30
0.0
 11
88.900712
 21
235.738034
 31
0.0
  0
LINE
  5
1c5
100
AcDbEntity
  8
outerShellOut
 62
7
100
AcDbLine
 10
88.900712
 20
235.738034
 30
0.0
 11
87.739264
 21
236.049551
 31
0.0
  0
LINE
  5
1c6
100
AcDbEntity
  8
outerShellOut
 62
7
100
AcDbLine
 10
87.739264
 20
236.049551
 30
0.0
 11
86.608157
 21
236.410563
 31
0.0
  0
LINE
  5
1c7
100
AcDbEntity
  8
outerShellOut
 62
7
100
AcDbLine
 10
86.608157
 20
236.410563
 30
0.0
 11
85.497764
 21
236.818867
 31
0.0
  0
LINE
  5
1c8
100
AcDbEntity
  8
outerShellOut
 62
7
100
AcDbLine
 10
85.497764
 20
236.818867
 30
0.0
 11
84.398457
 21
237.272260
 31
0.0
  0
LINE
  5
1c9
100
AcDbEntity
  8
outerShellOut
 62
7
100
AcDbLine
 10
84.398457
 20
237.272260
 30
0.0
 11
83.300610
 21
237.768540
 31
0.0
  0
LINE
  5
1ca
100
AcDbEntity
  8
outerShellOut
 62
7
100
AcDbLine
 10
83.300610
 20
237.768540
 30
0.0
 11
82.194596
 21
238.305501
 31
0.0
  0
LINE
  5
1cb
100
AcDbEntity
  8
outerShellOut
 62
7
100
AcDbLine
 10
82.194596
 20
238.305501
 30
0.0
 11
81.070788
 21
238.880943
 31
0.0
  0
LINE
  5
1cc
100
AcDbEntity
  8
outerShellOut
 62
7
100
AcDbLine
 10
81.070788
 20
238.880943
 30
0.0
 11
79.919559
 21
239.492660
 31
0.0
  0
LINE
  5
1cd
100
AcDbEntity
  8
outerShellOut
 62
7
100
AcDbLine
 10
79.919559
 20
239.492660
 30
0.0
 11
78.731282
 21
240.138450
 31
0.0
  0
LINE
  5
1ce
100
AcDbEntity
  8
outerShellOut
 62
7
100
AcDbLine
 10
78.731282
 20
240.138450
 30
0.0
 11
77.496331
 21
240.816110
 31
0.0
  0
LINE
  5
1cf
100
AcDbEntity
  8
outerShellOut
 62
7
100
AcDbLine
 10
77.496331
 20
240.816110
 30
0.0
 11
76.205078
 21
241.523438
 31
0.0
  0
LINE
  5
1d0
100
AcDbEntity
  8
outerShellOut
 62
7
100
AcDbLine
 10
76.205078
 20
241.523438
 30
0.0
 11
74.852700
 21
242.252699
 31
0.0
  0
LINE
  5
1d1
100
AcDbEntity
  8
outerShellOut
 62
7
100
AcDbLine
 10
74.852700
 20
242.252699
 30
0.0
 11
73.438789
 21
242.992347
 31
0.0
  0
LINE
  5
1d2
100
AcDbEntity
  8
outerShellOut
 62
7
100
AcDbLine
 10
73.438789
 20
242.992347
 30
0.0
 11
71.960339
 21
243.734458
 31
0.0
  0
LINE
  5
1d3
100
AcDbEntity
  8
outerShellOut
 62
7
100
AcDbLine
 10
71.960339
 20
243.734458
 30
0.0
 11
70.414344
 21
244.471107
 31
0.0
  0
LINE
  5
1d4
100
AcDbEntity
  8
outerShellOut
 62
7
100
AcDbLine
 10
70.414344
 20
244.471107
 30
0.0
 11
68.797800
 21
245.194368
 31
0.0
  0
LINE
  5
1d5
100
AcDbEntity
  8
outerShellOut
 62
7
100
AcDbLine
 10
68.797800
 20
245.194368
 30
0.0
 11
67.107700
 21
245.896315
 31
0.0
  0
LINE
  5
1d6
100
AcDbEntity
  8
outerShellOut
 62
7
100
AcDbLine
 10
67.107700
 20
245.896315
 30
0.0
 11
65.341040
 21
246.569024
 31
0.0
  0
LINE
  5
1d7
100
AcDbEntity
  8
outerShellOut
 62
7
100
AcDbLine
 10
65.341040
 20
246.569024
 30
0.0
 11
63.494814
 21
247.204569
 31
0.0
  0
LINE
  5
1d8
100
AcDbEntity
  8
outerShellOut
 62
7
100
AcDbLine
 10
63.494814
 20
247.204569
 30
0.0
 11
61.566017
 21
247.795025
 31
0.0
  0
LINE
  5
1d9
100
AcDbEntity
  8
outerShellOut
 62
7
100
AcDbLine
 10
61.566017
 20
247.795025
 30
0.0
 11
59.551644
 21
248.332467
 31
0.0
  0
LINE
  5
1da
100
AcDbEntity
  8
outerShellOut
 62
7
100
AcDbLine
 10
59.551644
 20
248.332467
 30
0.0
 11
57.448689
 21
248.808969
 31
0.0
  0
LINE
  5
1db
100
AcDbEntity
  8
outerShellOut
 62
7
100
AcDbLine
 10
57.448689
 20
248.808969
 30
0.0
 11
55.254147
 21
249.216606
 31
0.0
  0
LINE
  5
1dc
100
AcDbEntity
  8
outerShellOut
 62
7
100
AcDbLine
 10
55.254147
 20
249.216606
 30
0.0
 11
52.965012
 21
249.547453
 31
0.0
  0
LINE
  5
1dd
100
AcDbEntity
  8
outerShellOut
 62
7
100
AcDbLine
 10
52.965012
 20
249.547453
 30
0.0
 11
50.578280
 21
249.793584
 31
0.0
  0
LINE
  5
1de
100
AcDbEntity
  8
outerShellOut
 62
7
100
AcDbLine
 10
50.578280
 20
249.793584
 30
0.0
 11
48.090944
 21
249.947075
 31
0.0
  0
LINE
  5
1df
100
AcDbEntity
  8
outerShellOut
 62
7
100
AcDbLine
 10
48.090944
 20
249.947075
 30
0.0
 11
45.500000
 21
250.000000
 31
0.0
  0
LINE
  5
1e0
100
AcDbEntity
  8
outerShellOut
 62
7
100
AcDbLine
 10
45.500000
 20
250.000000
 30
0.0
 11
44.121644
 21
249.982090
 31
0.0
  0
LINE
  5
1e1
100
AcDbEntity
  8
outerShellOut
 62
7
100
AcDbLine
 10
44.121644
 20
249.982090
 30
0.0
 11
42.770752
 21
249.926440
 31
0.0
  0
LINE
  5
1e2
100
AcDbEntity
  8
outerShellOut
 62
7
100
AcDbLine
 10
42.770752
 20
249.926440
 30
0.0
 11
41.448901
 21
249.830170
 31
0.0
  0
LINE
  5
1e3
100
AcDbEntity
  8
outerShellOut
 62
7
100
AcDbLine
 10
41.448901
 20
249.830170
 30
0.0
 11
40.157669
 21
249.690385
 31
0.0
  0
LINE
  5
1e4
100
AcDbEntity
  8
outerShellOut
 62
7
100
AcDbLine
 10
40.157669
 20
249.690385
 30
0.0
 11
38.898631
 21
249.504202
 31
0.0
  0
LINE
  5
1e5
100
AcDbEntity
  8
outerShellOut
 62
7
100
AcDbLine
 10
38.898631
 20
249.504202
 30
0.0
 11
37.673364
 21
249.268734
 31
0.0
  0
LINE
  5
1e6
100
AcDbEntity
  8
outerShellOut
 62
7
100
AcDbLine
 10
37.673364
 20
249.268734
 30
0.0
 11
36.483446
 21
248.981095
 31
0.0
  0
LINE
  5
1e7
100
AcDbEntity
  8
outerShellOut
 62
7
100
AcDbLine
 10
36.483446
 20
248.981095
 30
0.0
 11
35.330452
 21
248.638397
 31
0.0
  0
LINE
  5
1e8
100
AcDbEntity
  8
outerShellOut
 62
7
100
AcDbLine
 10
35.330452
 20
248.638397
 30
0.0
 11
34.215960
 21
248.237755
 31
0.0
  0
LINE
  5
1e9
100
AcDbEntity
  8
outerShellOut
 62
7
100
AcDbLine
 10
34.215960
 20
248.237755
 30
0.0
 11
33.141546
 21
247.776282
 31
0.0
  0
LINE
  5
1ea
100
AcDbEntity
  8
outerShellOut
 62
7
100
AcDbLine
 10
33.141546
 20
247.776282
 30
0.0
 11
32.108787
 21
247.251092
 31
0.0
  0
LINE
  5
1eb
100
AcDbEntity
  8
outerShellOut
 62
7
100
AcDbLine
 10
32.108787
 20
247.251092
 30
0.0
 11
31.119260
 21
246.659298
 31
0.0
  0
LINE
  5
1ec
100
AcDbEntity
  8
outerShellOut
 62
7
100
AcDbLine
 10
31.119260
 20
246.659298
 30
0.0
 11
30.174541
 21
245.998014
 31
0.0
  0
LINE
  5
1ed
100
AcDbEntity
  8
outerShellOut
 62
7
100
AcDbLine
 10
30.174541
 20
245.998014
 30
0.0
 11
29.276207
 21
245.264353
 31
0.0
  0
LINE
  5
1ee
100
AcDbEntity
  8
outerShellOut
 62
7
100
AcDbLine
 10
29.276207
 20
245.264353
 30
0.0
 11
28.425834
 21
244.455429
 31
0.0
  0
LINE
  5
1ef
100
AcDbEntity
  8
outerShellOut
 62
7
100
AcDbLine
 10
28.425834
 20
244.455429
 30
0.0
 11
27.625000
 21
243.568355
 31
0.0
  0
LINE
  5
1f0
100
AcDbEntity
  8
outerShellOut
 62
7
100
AcDbLine
 10
27.625000
 20
243.568355
 30
0.0
 11
26.901468
 21
242.624449
 31
0.0
  0
LINE
  5
1f1
100
AcDbEntity
  8
outerShellOut
 62
7
100
AcDbLine
 10
26.901468
 20
242.624449
 30
0.0
 11
26.278624
 21
241.650187
 31
0.0
  0
LINE
  5
1f2
100
AcDbEntity
  8
outerShellOut
 62
7
100
AcDbLine
 10
26.278624
 20
241.650187
 30
0.0
 11
25.751476
 21
240.650422
 31
0.0
  0
LINE
  5
1f3
100
AcDbEntity
  8
outerShellOut
 62
7
100
AcDbLine
 10
25.751476
 20
240.650422
 30
0.0
 11
25.315034
 21
239.630009
 31
0.0
  0
LINE
  5
1f4
100
AcDbEntity
  8
outerShellOut
 62
7
100
AcDbLine
 10
25.315034
 20
239.630009
 30
0.0
 11
24.964306
 21
238.593800
 31
0.0
  0
LINE
  5
1f5
100
AcDbEntity
  8
outerShellOut
 62
7
100
AcDbLine
 10
24.964306
 20
238.593800
 30
0.0
 11
24.694300
 21
237.546648
 31
0.0
  0
LINE
  5
1f6
100
AcDbEntity
  8
outerShellOut
 62
7
100
AcDbLine
 10
24.694300
 20
237.546648
 30
0.0
 11
24.500026
 21
236.493407
 31
0.0
  0
LINE
  5
1f7
100
AcDbEntity
  8
outerShellOut
 62
7
100
AcDbLine
 10
24.500026
 20
236.493407
 30
0.0
 11
24.376493
 21
235.438930
 31
0.0
  0
LINE
  5
1f8
100
AcDbEntity
  8
outerShellOut
 62
7
100
AcDbLine
 10
24.376493
 20
235.438930
 30
0.0
 11
24.318713
 21
234.388071
 31
0.0
  0
LINE
  5
1f9
100
AcDbEntity
  8
outerShellOut
 62
7
100
AcDbLine
 10
24.318713
 20
234.388071
 30
0.0
 11
24.321713
 21
233.345682
 31
0.0
  0
LINE
  5
1fa
100
AcDbEntity
  8
outerShellOut
 62
7
100
AcDbLine
 10
24.321713
 20
233.345682
 30
0.0
 11
24.380453
 21
232.316616
 31
0.0
  0
LINE
  5
1fb
100
AcDbEntity
  8
outerShellOut
 62
7
100
AcDbLine
 10
24.380453
 20
232.316616
 30
0.0
 11
24.489970
 21
231.305728
 31
0.0
  0
LINE
  5
1fc
100
AcDbEntity
  8
outerShellOut
 62
7
100
AcDbLine
 10
24.489970
 20
231.305728
 30
0.0
 11
24.645271
 21
230.317871
 31
0.0
  0
LINE
  5
1fd
100
AcDbEntity
  8
outerShellOut
 62
7
100
AcDbLine
 10
24.645271
 20
230.317871
 30
0.0
 11
24.841365
 21
229.357896
 31
0.0
  0
LINE
  5
1fe
100
AcDbEntity
  8
outerShellOut
 62
7
100
AcDbLine
 10
24.841365
 20
229.357896
 30
0.0
 11
25.073261
 21
228.430659
 31
0.0
  0
LINE
  5
1ff
100
AcDbEntity
  8
outerShellOut
 62
7
100
AcDbLine
 10
25.073261
 20
228.430659
 30
0.0
 11
25.335968
 21
227.541012
 31
0.0
  0
LINE
  5
200
100
AcDbEntity
  8
outerShellOut
 62
7
100
AcDbLine
 10
25.335968
 20
227.541012
 30
0.0
 11
25.932467
 21
225.823295
 31
0.0
  0
LINE
  5
201
100
AcDbEntity
  8
outerShellOut
 62
7
100
AcDbLine
 10
25.932467
 20
225.823295
 30
0.0
 11
26.610652
 21
224.147975
 31
0.0
  0
LINE
  5
202
100
AcDbEntity
  8
outerShellOut
 62
7
100
AcDbLine
 10
26.610652
 20
224.147975
 30
0.0
 11
27.362244
 21
222.516394
 31
0.0
  0
LINE
  5
203
100
AcDbEntity
  8
outerShellOut
 62
7
100
AcDbLine
 10
27.362244
 20
222.516394
 30
0.0
 11
28.178968
 21
220.929893
 31
0.0
  0
LINE
  5
204
100
AcDbEntity
  8
outerShellOut
 62
7
100
AcDbLine
 10
28.178968
 20
220.929893
 30
0.0
 11
29.052545
 21
219.389814
 31
0.0
  0
LINE
  5
205
100
AcDbEntity
  8
outerShellOut
 62
7
100
AcDbLine
 10
29.052545
 20
219.389814
 30
0.0
 11
29.974698
 21
217.897498
 31
0.0
  0
LINE
  5
206
100
AcDbEntity
  8
outerShellOut
 62
7
100
AcDbLine
 10
29.974698
 20
217.897498
 30
0.0
 11
30.937150
 21
216.454288
 31
0.0
  0
LINE
  5
207
100
AcDbEntity
  8
outerShellOut
 62
7
100
AcDbLine
 10
30.937150
 20
216.454288
 30
0.0
 11
31.931623
 21
215.061524
 31
0.0
  0
LINE
  5
208
100
AcDbEntity
  8
outerShellOut
 62
7
100
AcDbLine
 10
31.931623
 20
215.061524
 30
0.0
 11
32.949841
 21
213.720548
 31
0.0
  0
LINE
  5
209
100
AcDbEntity
  8
outerShellOut
 62
7
100
AcDbLine
 10
32.949841
 20
213.720548
 30
0.0
 11
33.983525
 21
212.432702
 31
0.0
  0
LINE
  5
20a
100
AcDbEntity
  8
outerShellOut
 62
7
100
AcDbLine
 10
33.983525
 20
212.432702
 30
0.0
 11
35.024399
 21
211.199328
 31
0.0
  0
LINE
  5
20b
100
AcDbEntity
  8
outerShellOut
 62
7
100
AcDbLine
 10
35.024399
 20
211.199328
 30
0.0
 11
36.064185
 21
210.021766
 31
0.0
  0
LINE
  5
20c
100
AcDbEntity
  8
outerShellOut
 62
7
100
AcDbLine
 10
36.064185
 20
210.021766
 30
0.0
 11
37.094606
 21
208.901359
 31
0.0
  0
LINE
  5
20d
100
AcDbEntity
  8
outerShellOut
 62
7
100
AcDbLine
 10
37.094606
 20
208.901359
 30
0.0
 11
38.107385
 21
207.839448
 31
0.0
  0
LINE
  5
20e
100
AcDbEntity
  8
outerShellOut
 62
7
100
AcDbLine
 10
38.107385
 20
207.839448
 30
0.0
 11
39.094243
 21
206.837374
 31
0.0
  0
LINE
  5
20f
100
AcDbEntity
  8
outerShellOut
 62
7
100
AcDbLine
 10
39.094243
 20
206.837374
 30
0.0
 11
40.046905
 21
205.896480
 31
0.0
  0
LINE
  5
210
100
AcDbEntity
  8
outerShellOut
 62
7
100
AcDbLine
 10
40.046905
 20
205.896480
 30
0.0
 11
40.617628
 21
205.287197
 31
0.0
  0
LINE
  5
211
100
AcDbEntity
  8
outerShellOut
 62
7
100
AcDbLine
 10
40.617628
 20
205.287197
 30
0.0
 11
41.226738
 21
204.538637
 31
0.0
  0
LINE
  5
212
100
AcDbEntity
  8
outerShellOut
 62
7
100
AcDbLine
 10
41.226738
 20
204.538637
 30
0.0
 11
41.865418
 21
203.664453
 31
0.0
  0
LINE
  5
213
100
AcDbEntity
  8
outerShellOut
 62
7
100
AcDbLine
 10
41.865418
 20
203.664453
 30
0.0
 11
42.524845
 21
202.678296
 31
0.0
  0
LINE
  5
214
100
AcDbEntity
  8
outerShellOut
 62
7
100
AcDbLine
 10
42.524845
 20
202.678296
 30
0.0
 11
43.196199
 21
201.593819
 31
0.0
  0
LINE
  5
215
100
AcDbEntity
  8
outerShellOut
 62
7
100
AcDbLine
 10
43.196199
 20
201.593819
 30
0.0
 11
43.870661
 21
200.424675
 31
0.0
  0
LINE
  5
216
100
AcDbEntity
  8
outerShellOut
 62
7
100
AcDbLine
 10
43.870661
 20
200.424675
 30
0.0
 11
44.539411
 21
199.184516
 31
0.0
  0
LINE
  5
217
100
AcDbEntity
  8
outerShellOut
 62
7
100
AcDbLine
 10
44.539411
 20
199.184516
 30
0.0
 11
45.193627
 21
197.886994
 31
0.0
  0
LINE
  5
218
100
AcDbEntity
  8
outerShellOut
 62
7
100
AcDbLine
 10
45.193627
 20
197.886994
 30
0.0
 11
45.824490
 21
196.545766
 31
0.0
  0
LINE
  5
219
100
AcDbEntity
  8
outerShellOut
 62
7
100
AcDbLine
 10
45.824490
 20
196.545766
 30
0.0
 11
46.423179
 21
195.174476
 31
0.0
  0
LINE
  5
21a
100
AcDbEntity
  8
outerShellOut
 62
7
100
AcDbLine
 10
46.423179
 20
195.174476
 30
0.0
 11
46.980874
 21
193.786776
 31
0.0
  0
LINE
  5
21b
100
AcDbEntity
  8
outerShellOut
 62
7
100
AcDbLine
 10
46.980874
 20
193.786776
 30
0.0
 11
47.488755
 21
192.396336
 31
0.0
  0
LINE
  5
21c
100
AcDbEntity
  8
outerShellOut
 62
7
100
AcDbLine
 10
47.488755
 20
192.396336
 30
0.0
 11
47.938002
 21
191.016786
 31
0.0
  0
LINE
  5
21d
100
AcDbEntity
  8
outerShellOut
 62
7
100
AcDbLine
 10
47.938002
 20
191.016786
 30
0.0
 11
48.319794
 21
189.661796
 31
0.0
  0
LINE
  5
21e
100
AcDbEntity
  8
outerShellOut
 62
7
100
AcDbLine
 10
48.319794
 20
189.661796
 30
0.0
 11
48.625311
 21
188.345006
 31
0.0
  0
LINE
  5
21f
100
AcDbEntity
  8
outerShellOut
 62
7
100
AcDbLine
 10
48.625311
 20
188.345006
 30
0.0
 11
48.845733
 21
187.080076
 31
0.0
  0
LINE
  5
220
100
AcDbEntity
  8
outerShellOut
 62
7
100
AcDbLine
 10
48.845733
 20
187.080076
 30
0.0
 11
48.921703
 21
186.474206
 31
0.0
  0
LINE
  5
221
100
AcDbEntity
  8
outerShellOut
 62
7
100
AcDbLine
 10
48.921703
 20
186.474206
 30
0.0
 11
48.975843
 21
185.891806
 31
0.0
  0
LINE
  5
222
100
AcDbEntity
  8
outerShellOut
 62
7
100
AcDbLine
 10
48.975843
 20
185.891806
 30
0.0
 11
49.009913
 21
185.334066
 31
0.0
  0
LINE
  5
223
100
AcDbEntity
  8
outerShellOut
 62
7
100
AcDbLine
 10
49.009913
 20
185.334066
 30
0.0
 11
49.025673
 21
184.802126
 31
0.0
  0
LINE
  5
224
100
AcDbEntity
  8
outerShellOut
 62
7
100
AcDbLine
 10
49.025673
 20
184.802126
 30
0.0
 11
49.024890
 21
184.297156
 31
0.0
  0
LINE
  5
225
100
AcDbEntity
  8
outerShellOut
 62
7
100
AcDbLine
 10
49.024890
 20
184.297156
 30
0.0
 11
49.009320
 21
183.820326
 31
0.0
  0
LINE
  5
226
100
AcDbEntity
  8
outerShellOut
 62
7
100
AcDbLine
 10
49.009320
 20
183.820326
 30
0.0
 11
48.980730
 21
183.372796
 31
0.0
  0
LINE
  5
227
100
AcDbEntity
  8
outerShellOut
 62
7
100
AcDbLine
 10
48.980730
 20
183.372796
 30
0.0
 11
48.940870
 21
182.955726
 31
0.0
  0
LINE
  5
228
100
AcDbEntity
  8
outerShellOut
 62
7
100
AcDbLine
 10
48.940870
 20
182.955726
 30
0.0
 11
48.891510
 21
182.570286
 31
0.0
  0
LINE
  5
229
100
AcDbEntity
  8
outerShellOut
 62
7
100
AcDbLine
 10
48.891510
 20
182.570286
 30
0.0
 11
48.834400
 21
182.217636
 31
0.0
  0
LINE
  5
22a
100
AcDbEntity
  8
outerShellOut
 62
7
100
AcDbLine
 10
48.834400
 20
182.217636
 30
0.0
 11
48.771310
 21
181.898936
 31
0.0
  0
LINE
  5
22b
100
AcDbEntity
  8
outerShellOut
 62
7
100
AcDbLine
 10
48.771310
 20
181.898936
 30
0.0
 11
48.704000
 21
181.615356
 31
0.0
  0
LINE
  5
22c
100
AcDbEntity
  8
outerShellOut
 62
7
100
AcDbLine
 10
48.704000
 20
181.615356
 30
0.0
 11
48.634230
 21
181.368056
 31
0.0
  0
LINE
  5
22d
100
AcDbEntity
  8
outerShellOut
 62
7
100
AcDbLine
 10
48.634230
 20
181.368056
 30
0.0
 11
48.563760
 21
181.158196
 31
0.0
  0
LINE
  5
22e
100
AcDbEntity
  8
outerShellOut
 62
7
100
AcDbLine
 10
48.563760
 20
181.158196
 30
0.0
 11
48.494350
 21
180.986946
 31
0.0
  0
LINE
  5
22f
100
AcDbEntity
  8
outerShellOut
 62
7
100
AcDbLine
 10
48.494350
 20
180.986946
 30
0.0
 11
48.427760
 21
180.855466
 31
0.0
  0
LINE
  5
230
100
AcDbEntity
  8
outerShellOut
 62
7
100
AcDbLine
 10
48.427760
 20
180.855466
 30
0.0
 11
48.371070
 21
180.748116
 31
0.0
  0
LINE
  5
231
100
AcDbEntity
  8
outerShellOut
 62
7
100
AcDbLine
 10
48.371070
 20
180.748116
 30
0.0
 11
48.326100
 21
180.648416
 31
0.0
  0
LINE
  5
232
100
AcDbEntity
  8
outerShellOut
 62
7
100
AcDbLine
 10
48.326100
 20
180.648416
 30
0.0
 11
48.286730
 21
180.556216
 31
0.0
  0
LINE
  5
233
100
AcDbEntity
  8
outerShellOut
 62
7
100
AcDbLine
 10
48.286730
 20
180.556216
 30
0.0
 11
48.246840
 21
180.471516
 31
0.0
  0
LINE
  5
234
100
AcDbEntity
  8
outerShellOut
 62
7
100
AcDbLine
 10
48.246840
 20
180.471516
 30
0.0
 11
48.200320
 21
180.394216
 31
0.0
  0
LINE
  5
235
100
AcDbEntity
  8
outerShellOut
 62
7
100
AcDbLine
 10
48.200320
 20
180.394216
 30
0.0
 11
48.141040
 21
180.324116
 31
0.0
  0
LINE
  5
236
100
AcDbEntity
  8
outerShellOut
 62
7
100
AcDbLine
 10
48.141040
 20
180.324116
 30
0.0
 11
48.062880
 21
180.261116
 31
0.0
  0
LINE
  5
237
100
AcDbEntity
  8
outerShellOut
 62
7
100
AcDbLine
 10
48.062880
 20
180.261116
 30
0.0
 11
47.959718
 21
180.205216
 31
0.0
  0
LINE
  5
238
100
AcDbEntity
  8
outerShellOut
 62
7
100
AcDbLine
 10
47.959718
 20
180.205216
 30
0.0
 11
47.825435
 21
180.156316
 31
0.0
  0
LINE
  5
239
100
AcDbEntity
  8
outerShellOut
 62
7
100
AcDbLine
 10
47.825435
 20
180.156316
 30
0.0
 11
47.653913
 21
180.114216
 31
0.0
  0
LINE
  5
23a
100
AcDbEntity
  8
outerShellOut
 62
7
100
AcDbLine
 10
47.653913
 20
180.114216
 30
0.0
 11
47.439032
 21
180.078916
 31
0.0
  0
LINE
  5
23b
100
AcDbEntity
  8
outerShellOut
 62
7
100
AcDbLine
 10
47.439032
 20
180.078916
 30
0.0
 11
47.174671
 21
180.050216
 31
0.0
  0
LINE
  5
23c
100
AcDbEntity
  8
outerShellOut
 62
7
100
AcDbLine
 10
47.174671
 20
180.050216
 30
0.0
 11
46.854710
 21
180.028116
 31
0.0
  0
LINE
  5
23d
100
AcDbEntity
  8
outerShellOut
 62
7
100
AcDbLine
 10
46.854710
 20
180.028116
 30
0.0
 11
46.473030
 21
180.012416
 31
0.0
  0
LINE
  5
23e
100
AcDbEntity
  8
outerShellOut
 62
7
100
AcDbLine
 10
46.473030
 20
180.012416
 30
0.0
 11
46.023509
 21
180.003416
 31
0.0
  0
LINE
  5
23f
100
AcDbEntity
  8
outerShellOut
 62
7
100
AcDbLine
 10
46.023509
 20
180.003416
 30
0.0
 11
45.500000
 21
180.000000
 31
0.0
  0
LINE
  5
240
100
AcDbEntity
  8
outerShellOut
 62
7
100
AcDbLine
 10
45.500000
 20
180.000000
 30
0.0
 11
42.812500
 21
180.000000
 31
0.0
  0
LINE
  5
241
100
AcDbEntity
  8
outerShellOut
 62
7
100
AcDbLine
 10
42.812500
 20
180.000000
 30
0.0
 11
40.125000
 21
180.000000
 31
0.0
  0
LINE
  5
242
100
AcDbEntity
  8
outerShellOut
 62
7
100
AcDbLine
 10
40.125000
 20
180.000000
 30
0.0
 11
37.437500
 21
180.000000
 31
0.0
  0
LINE
  5
243
100
AcDbEntity
  8
outerShellOut
 62
7
100
AcDbLine
 10
37.437500
 20
180.000000
 30
0.0
 11
34.750000
 21
180.000000
 31
0.0
  0
LINE
  5
244
100
AcDbEntity
  8
outerShellOut
 62
7
100
AcDbLine
 10
34.750000
 20
180.000000
 30
0.0
 11
32.062500
 21
180.000000
 31
0.0
  0
LINE
  5
245
100
AcDbEntity
  8
outerShellOut
 62
7
100
AcDbLine
 10
32.062500
 20
180.000000
 30
0.0
 11
29.375000
 21
180.000000
 31
0.0
  0
LINE
  5
246
100
AcDbEntity
  8
outerShellOut
 62
7
100
AcDbLine
 10
29.375000
 20
180.000000
 30
0.0
 11
26.687500
 21
180.000000
 31
0.0
  0
LINE
  5
247
100
AcDbEntity
  8
outerShellOut
 62
7
100
AcDbLine
 10
26.687500
 20
180.000000
 30
0.0
 11
24.000000
 21
180.000000
 31
0.0
  0
LINE
  5
248
100
AcDbEntity
  8
outerShellOut
 62
7
100
AcDbLine
 10
24.000000
 20
180.000000
 30
0.0
 11
21.312500
 21
180.000000
 31
0.0
  0
LINE
  5
249
100
AcDbEntity
  8
outerShellOut
 62
7
100
AcDbLine
 10
21.312500
 20
180.000000
 30
0.0
 11
18.625000
 21
180.000000
 31
0.0
  0
LINE
  5
24a
100
AcDbEntity
  8
outerShellOut
 62
7
100
AcDbLine
 10
18.625000
 20
180.000000
 30
0.0
 11
15.937500
 21
180.000000
 31
0.0
  0
LINE
  5
24b
100
AcDbEntity
  8
outerShellOut
 62
7
100
AcDbLine
 10
15.937500
 20
180.000000
 30
0.0
 11
13.250000
 21
180.000000
 31
0.0
  0
LINE
  5
24c
100
AcDbEntity
  8
outerShellOut
 62
7
100
AcDbLine
 10
13.250000
 20
180.000000
 30
0.0
 11
10.562500
 21
180.000000
 31
0.0
  0
LINE
  5
24d
100
AcDbEntity
  8
outerShellOut
 62
7
100
AcDbLine
 10
10.562500
 20
180.000000
 30
0.0
 11
7.875000
 21
180.000000
 31
0.0
  0
LINE
  5
24e
100
AcDbEntity
  8
outerShellOut
 62
7
100
AcDbLine
 10
7.875000
 20
180.000000
 30
0.0
 11
5.187500
 21
180.000000
 31
0.0
  0
LINE
  5
24f
100
AcDbEntity
  8
outerShellOut
 62
7
100
AcDbLine
 10
5.187500
 20
180.000000
 30
0.0
 11
2.500000
 21
180.000000
 31
0.0
  0
LINE
  5
250
100
AcDbEntity
  8
outerShellOut
 62
7
100
AcDbLine
 10
2.500000
 20
180.000000
 30
0.0
 11
2.500000
 21
176.375000
 31
0.0
  0
LINE
  5
251
100
AcDbEntity
  8
outerShellOut
 62
7
100
AcDbLine
 10
2.500000
 20
176.375000
 30
0.0
 11
2.500000
 21
172.750000
 31
0.0
  0
LINE
  5
252
100
AcDbEntity
  8
outerShellOut
 62
7
100
AcDbLine
 10
2.500000
 20
172.750000
 30
0.0
 11
2.500000
 21
169.125000
 31
0.0
  0
LINE
  5
253
100
AcDbEntity
  8
outerShellOut
 62
7
100
AcDbLine
 10
2.500000
 20
169.125000
 30
0.0
 11
2.500000
 21
165.500000
 31
0.0
  0
LINE
  5
254
100
AcDbEntity
  8
outerShellOut
 62
7
100
AcDbLine
 10
2.500000
 20
165.500000
 30
0.0
 11
2.500000
 21
161.875000
 31
0.0
  0
LINE
  5
255
100
AcDbEntity
  8
outerShellOut
 62
7
100
AcDbLine
 10
2.500000
 20
161.875000
 30
0.0
 11
2.500000
 21
158.250000
 31
0.0
  0
LINE
  5
256
100
AcDbEntity
  8
outerShellOut
 62
7
100
AcDbLine
 10
2.500000
 20
158.250000
 30
0.0
 11
2.500000
 21
154.625000
 31
0.0
  0
LINE
  5
257
100
AcDbEntity
  8
outerShellOut
 62
7
100
AcDbLine
 10
2.500000
 20
154.625000
 30
0.0
 11
2.500000
 21
151.000000
 31
0.0
  0
LINE
  5
258
100
AcDbEntity
  8
outerShellOut
 62
7
100
AcDbLine
 10
2.500000
 20
151.000000
 30
0.0
 11
2.500000
 21
147.375000
 31
0.0
  0
LINE
  5
259
100
AcDbEntity
  8
outerShellOut
 62
7
100
AcDbLine
 10
2.500000
 20
147.375000
 30
0.0
 11
2.500000
 21
143.750000
 31
0.0
  0
LINE
  5
25a
100
AcDbEntity
  8
outerShellOut
 62
7
100
AcDbLine
 10
2.500000
 20
143.750000
 30
0.0
 11
2.500000
 21
140.125000
 31
0.0
  0
LINE
  5
25b
100
AcDbEntity
  8
outerShellOut
 62
7
100
AcDbLine
 10
2.500000
 20
140.125000
 30
0.0
 11
2.500000
 21
136.500000
 31
0.0
  0
LINE
  5
25c
100
AcDbEntity
  8
outerShellOut
 62
7
100
AcDbLine
 10
2.500000
 20
136.500000
 30
0.0
 11
2.500000
 21
132.875000
 31
0.0
  0
LINE
  5
25d
100
AcDbEntity
  8
outerShellOut
 62
7
100
AcDbLine
 10
2.500000
 20
132.875000
 30
0.0
 11
2.500000
 21
129.250000
 31
0.0
  0
LINE
  5
25e
100
AcDbEntity
  8
outerShellOut
 62
7
100
AcDbLine
 10
2.500000
 20
129.250000
 30
0.0
 11
2.500000
 21
125.625000
 31
0.0
  0
LINE
  5
25f
100
AcDbEntity
  8
outerShellOut
 62
7
100
AcDbLine
 10
2.500000
 20
125.625000
 30
0.0
 11
2.500000
 21
122.000000
 31
0.0
  0
ENDSEC
  0
SECTION
  2
OBJECTS
  0
DICTIONARY
  5
C
330
0
100
AcDbDictionary
  3
ACAD_GROUP
350
D
  3
ACAD_MLINESTYLE
350
17
  0
DICTIONARY
  5
D
330
C
100
AcDbDictionary
  0
DICTIONARY
  5
1A
330
C
100
AcDbDictionary
  0
DICTIONARY
  5
17
330
C
100
AcDbDictionary
  3
STANDARD
350
18
  0
DICTIONARY
  5
19
330
C
100
AcDbDictionary
  0
ENDSEC
  0
EOF
