  0
SECTION
  2
HEADER
  9
$ACADVER
  1
AC1014
  9
$HANDSEED
  5
FFFF
  9
$MEASUREMENT
 70
     1
  0
ENDSEC
  0
SECTION
  2
TABLES
  0
TABLE
  2
VPORT
  5
8
330
0
100
AcDbSymbolTable
 70
     4
  0
VPORT
  5
2E
330
8
100
AcDbSymbolTableRecord
100
AcDbViewportTableRecord
  2
*ACTIVE
 70
     0
 10
0.0
 20
0.0
 11
1.0
 21
1.0
 12
210.0
 22
148.5
 13
0.0
 23
0.0
 14
10.0
 24
10.0
 15
10.0
 25
10.0
 16
0.0
 26
0.0
 36
1.0
 17
0.0
 27
0.0
 37
0.0
 40
341.0
 41
1.24
 42
50.0
 43
0.0
 44
0.0
 50
0.0
 51
0.0
 71
     0
 72
   100
 73
     1
 74
     3
 75
     0
 76
     0
 77
     0
 78
     0
  0
ENDTAB
  0
TABLE
  2
LTYPE
  5
5
330
0
100
AcDbSymbolTable
 70
     1
  0
LTYPE
  5
14
330
5
100
AcDbSymbolTableRecord
100
AcDbLinetypeTableRecord
  2
BYBLOCK
 70
     0
  3

 72
    65
 73
     0
 40
0.0
  0
LTYPE
  5
15
330
5
100
AcDbSymbolTableRecord
100
AcDbLinetypeTableRecord
  2
BYLAYER
 70
     0
  3

 72
    65
 73
     0
 40
0.0
  0
LTYPE
  5
16
330
5
100
AcDbSymbolTableRecord
100
AcDbLinetypeTableRecord
  2
CONTINUOUS
 70
     0
  3
Solid line
 72
    65
 73
     0
 40
0.0
  0
ENDTAB
  0
TABLE
  2
LAYER
  5
2
100
AcDbSymbolTable
 70
7
  0
LAYER
  5
50
100
AcDbSymbolTableRecord
100
AcDbLayerTableRecord
  2
0
 70
0
  6
CONTINUOUS
  0
LAYER
  5
51
100
AcDbSymbolTableRecord
100
AcDbLayerTableRecord
  2
woodIn
 70
0
  6
CONTINUOUS
  0
LAYER
  5
52
100
AcDbSymbolTableRecord
100
AcDbLayerTableRecord
  2
woodOut
 70
0
  6
CONTINUOUS
  0
LAYER
  5
53
100
AcDbSymbolTableRecord
100
AcDbLayerTableRecord
  2
outerShellIn
 70
0
  6
CONTINUOUS
  0
LAYER
  5
54
100
AcDbSymbolTableRecord
100
AcDbLayerTableRecord
  2
outerShellOut
 70
0
  6
CONTINUOUS
  0
LAYER
  5
55
100
AcDbSymbolTableRecord
100
AcDbLayerTableRecord
  2
innerShellOut
 70
0
  6
CONTINUOUS
  0
LAYER
  5
56
100
AcDbSymbolTableRecord
100
AcDbLayerTableRecord
  2
innerShellIn
 70
0
  6
CONTINUOUS
  0
ENDTAB
  0
TABLE
  2
STYLE
  5
3
330
0
100
AcDbSymbolTable
 70
     1
  0
STYLE
  5
11
330
3
100
AcDbSymbolTableRecord
100
AcDbTextStyleTableRecord
  2
STANDARD
 70
     0
 40
0.0
 41
1.0
 50
0.0
 71
     0
 42
2.5
  3
txt
  4

  0
ENDTAB
  0
TABLE
  2
VIEW
  5
6
330
0
100
AcDbSymbolTable
 70
     0
  0
ENDTAB
  0
TABLE
  2
UCS
  5
7
330
0
100
AcDbSymbolTable
 70
     0
  0
ENDTAB
  0
TABLE
  2
APPID
  5
9
330
0
100
AcDbSymbolTable
 70
     2
  0
APPID
  5
12
330
9
100
AcDbSymbolTableRecord
100
AcDbRegAppTableRecord
  2
ACAD
 70
     0
  0
ENDTAB
  0
TABLE
  2
DIMSTYLE
  5
A
330
0
100
AcDbSymbolTable
 70
     1
  0
DIMSTYLE
105
27
330
A
100
AcDbSymbolTableRecord
100
AcDbDimStyleTableRecord
  2
ISO-25
 70
     0
  3

  4

  5

  6

  7

 40
1.0
 41
2.5
 42
0.625
 43
3.75
 44
1.25
 45
0.0
 46
0.0
 47
0.0
 48
0.0
140
2.5
141
2.5
142
0.0
143
0.03937007874016
144
1.0
145
0.0
146
1.0
147
0.625
 71
     0
 72
     0
 73
     0
 74
     0
 75
     0
 76
     0
 77
     1
 78
     8
170
     0
171
     3
172
     1
173
     0
174
     0
175
     0
176
     0
177
     0
178
     0
270
     2
271
     2
272
     2
273
     2
274
     3
340
11
275
     0
280
     0
281
     0
282
     0
283
     0
284
     8
285
     0
286
     0
287
     3
288
     0
  0
ENDTAB
  0
TABLE
  2
BLOCK_RECORD
  5
1
330
0
100
AcDbSymbolTable
 70
     1
  0
BLOCK_RECORD
  5
1F
330
1
100
AcDbSymbolTableRecord
100
AcDbBlockTableRecord
  2
*MODEL_SPACE
  0
BLOCK_RECORD
  5
1B
330
1
100
AcDbSymbolTableRecord
100
AcDbBlockTableRecord
  2
*PAPER_SPACE
  0
ENDTAB
  0
ENDSEC
  0
SECTION
  2
BLOCKS
  0
BLOCK
  5
20
330
1F
100
AcDbEntity
  8
0
100
AcDbBlockBegin
  2
*MODEL_SPACE
 70
     0
 10
0.0
 20
0.0
 30
0.0
  3
*MODEL_SPACE
  1

  0
ENDBLK
  5
21
330
1F
100
AcDbEntity
  8
0
100
AcDbBlockEnd
  0
BLOCK
  5
1C
330
1B
100
AcDbEntity
 67
     1
  8
0
100
AcDbBlockBegin
  2
*PAPER_SPACE
  1

  0
ENDBLK
  5
1D
330
1B
100
AcDbEntity
 67
     1
  8
0
100
AcDbBlockEnd
  0
ENDSEC
  0
SECTION
  2
ENTITIES
  0
LINE
  5
100
100
AcDbEntity
  8
outerShellIn
 62
7
100
AcDbLine
 10
205.500000
 20
267.000000
 30
0.0
 11
201.500200
 21
266.894219
 31
0.0
  0
LINE
  5
101
100
AcDbEntity
  8
outerShellIn
 62
7
100
AcDbLine
 10
201.500200
 20
266.894219
 30
0.0
 11
197.546930
 21
266.586336
 31
0.0
  0
LINE
  5
102
100
AcDbEntity
  8
outerShellIn
 62
7
100
AcDbLine
 10
197.546930
 20
266.586336
 30
0.0
 11
193.639040
 21
266.090541
 31
0.0
  0
LINE
  5
103
100
AcDbEntity
  8
outerShellIn
 62
7
100
AcDbLine
 10
193.639040
 20
266.090541
 30
0.0
 11
189.775410
 21
265.421025
 31
0.0
  0
LINE
  5
104
100
AcDbEntity
  8
outerShellIn
 62
7
100
AcDbLine
 10
189.775410
 20
265.421025
 30
0.0
 11
185.954910
 21
264.591979
 31
0.0
  0
LINE
  5
105
100
AcDbEntity
  8
outerShellIn
 62
7
100
AcDbLine
 10
185.954910
 20
264.591979
 30
0.0
 11
182.176390
 21
263.617593
 31
0.0
  0
LINE
  5
106
100
AcDbEntity
  8
outerShellIn
 62
7
100
AcDbLine
 10
182.176390
 20
263.617593
 30
0.0
 11
178.438730
 21
262.512058
 31
0.0
  0
LINE
  5
107
100
AcDbEntity
  8
outerShellIn
 62
7
100
AcDbLine
 10
178.438730
 20
262.512058
 30
0.0
 11
174.740790
 21
261.289563
 31
0.0
  0
LINE
  5
108
100
AcDbEntity
  8
outerShellIn
 62
7
100
AcDbLine
 10
174.740790
 20
261.289563
 30
0.0
 11
171.081430
 21
259.964301
 31
0.0
  0
LINE
  5
109
100
AcDbEntity
  8
outerShellIn
 62
7
100
AcDbLine
 10
171.081430
 20
259.964301
 30
0.0
 11
167.459530
 21
258.550460
 31
0.0
  0
LINE
  5
10a
100
AcDbEntity
  8
outerShellIn
 62
7
100
AcDbLine
 10
167.459530
 20
258.550460
 30
0.0
 11
163.873950
 21
257.062233
 31
0.0
  0
LINE
  5
10b
100
AcDbEntity
  8
outerShellIn
 62
7
100
AcDbLine
 10
163.873950
 20
257.062233
 30
0.0
 11
160.323550
 21
255.513808
 31
0.0
  0
LINE
  5
10c
100
AcDbEntity
  8
outerShellIn
 62
7
100
AcDbLine
 10
160.323550
 20
255.513808
 30
0.0
 11
156.807210
 21
253.919377
 31
0.0
  0
LINE
  5
10d
100
AcDbEntity
  8
outerShellIn
 62
7
100
AcDbLine
 10
156.807210
 20
253.919377
 30
0.0
 11
153.323790
 21
252.293131
 31
0.0
  0
LINE
  5
10e
100
AcDbEntity
  8
outerShellIn
 62
7
100
AcDbLine
 10
153.323790
 20
252.293131
 30
0.0
 11
149.872150
 21
250.649259
 31
0.0
  0
LINE
  5
10f
100
AcDbEntity
  8
outerShellIn
 62
7
100
AcDbLine
 10
149.872150
 20
250.649259
 30
0.0
 11
146.451170
 21
249.001953
 31
0.0
  0
LINE
  5
110
100
AcDbEntity
  8
outerShellIn
 62
7
100
AcDbLine
 10
146.451170
 20
249.001953
 30
0.0
 11
143.059330
 21
247.365834
 31
0.0
  0
LINE
  5
111
100
AcDbEntity
  8
outerShellIn
 62
7
100
AcDbLine
 10
143.059330
 20
247.365834
 30
0.0
 11
139.695780
 21
245.753577
 31
0.0
  0
LINE
  5
112
100
AcDbEntity
  8
outerShellIn
 62
7
100
AcDbLine
 10
139.695780
 20
245.753577
 30
0.0
 11
136.360400
 21
244.176455
 31
0.0
  0
LINE
  5
113
100
AcDbEntity
  8
outerShellIn
 62
7
100
AcDbLine
 10
136.360400
 20
244.176455
 30
0.0
 11
133.053030
 21
242.645739
 31
0.0
  0
LINE
  5
114
100
AcDbEntity
  8
outerShellIn
 62
7
100
AcDbLine
 10
133.053030
 20
242.645739
 30
0.0
 11
129.773550
 21
241.172703
 31
0.0
  0
LINE
  5
115
100
AcDbEntity
  8
outerShellIn
 62
7
100
AcDbLine
 10
129.773550
 20
241.172703
 30
0.0
 11
126.521810
 21
239.768618
 31
0.0
  0
LINE
  5
116
100
AcDbEntity
  8
outerShellIn
 62
7
100
AcDbLine
 10
126.521810
 20
239.768618
 30
0.0
 11
123.297680
 21
238.444757
 31
0.0
  0
LINE
  5
117
100
AcDbEntity
  8
outerShellIn
 62
7
100
AcDbLine
 10
123.297680
 20
238.444757
 30
0.0
 11
120.101010
 21
237.212391
 31
0.0
  0
LINE
  5
118
100
AcDbEntity
  8
outerShellIn
 62
7
100
AcDbLine
 10
120.101010
 20
237.212391
 30
0.0
 11
116.931680
 21
236.082794
 31
0.0
  0
LINE
  5
119
100
AcDbEntity
  8
outerShellIn
 62
7
100
AcDbLine
 10
116.931680
 20
236.082794
 30
0.0
 11
113.789540
 21
235.067238
 31
0.0
  0
LINE
  5
11a
100
AcDbEntity
  8
outerShellIn
 62
7
100
AcDbLine
 10
113.789540
 20
235.067238
 30
0.0
 11
110.674450
 21
234.176994
 31
0.0
  0
LINE
  5
11b
100
AcDbEntity
  8
outerShellIn
 62
7
100
AcDbLine
 10
110.674450
 20
234.176994
 30
0.0
 11
107.586280
 21
233.423336
 31
0.0
  0
LINE
  5
11c
100
AcDbEntity
  8
outerShellIn
 62
7
100
AcDbLine
 10
107.586280
 20
233.423336
 30
0.0
 11
104.524890
 21
232.817535
 31
0.0
  0
LINE
  5
11d
100
AcDbEntity
  8
outerShellIn
 62
7
100
AcDbLine
 10
104.524890
 20
232.817535
 30
0.0
 11
101.490140
 21
232.370864
 31
0.0
  0
LINE
  5
11e
100
AcDbEntity
  8
outerShellIn
 62
7
100
AcDbLine
 10
101.490140
 20
232.370864
 30
0.0
 11
98.481886
 21
232.094595
 31
0.0
  0
LINE
  5
11f
100
AcDbEntity
  8
outerShellIn
 62
7
100
AcDbLine
 10
98.481886
 20
232.094595
 30
0.0
 11
95.500000
 21
232.000000
 31
0.0
  0
LINE
  5
120
100
AcDbEntity
  8
outerShellIn
 62
7
100
AcDbLine
 10
95.500000
 20
232.000000
 30
0.0
 11
93.901991
 21
232.035494
 31
0.0
  0
LINE
  5
121
100
AcDbEntity
  8
outerShellIn
 62
7
100
AcDbLine
 10
93.901991
 20
232.035494
 30
0.0
 11
92.383600
 21
232.139687
 31
0.0
  0
LINE
  5
122
100
AcDbEntity
  8
outerShellIn
 62
7
100
AcDbLine
 10
92.383600
 20
232.139687
 30
0.0
 11
90.936404
 21
232.309145
 31
0.0
  0
LINE
  5
123
100
AcDbEntity
  8
outerShellIn
 62
7
100
AcDbLine
 10
90.936404
 20
232.309145
 30
0.0
 11
89.551981
 21
232.540433
 31
0.0
  0
LINE
  5
124
100
AcDbEntity
  8
outerShellIn
 62
7
100
AcDbLine
 10
89.551981
 20
232.540433
 30
0.0
 11
88.221910
 21
232.830118
 31
0.0
  0
LINE
  5
125
100
AcDbEntity
  8
outerShellIn
 62
7
100
AcDbLine
 10
88.221910
 20
232.830118
 30
0.0
 11
86.937767
 21
233.174765
 31
0.0
  0
LINE
  5
126
100
AcDbEntity
  8
outerShellIn
 62
7
100
AcDbLine
 10
86.937767
 20
233.174765
 30
0.0
 11
85.691130
 21
233.570941
 31
0.0
  0
LINE
  5
127
100
AcDbEntity
  8
outerShellIn
 62
7
100
AcDbLine
 10
85.691130
 20
233.570941
 30
0.0
 11
84.473578
 21
234.015211
 31
0.0
  0
LINE
  5
128
100
AcDbEntity
  8
outerShellIn
 62
7
100
AcDbLine
 10
84.473578
 20
234.015211
 30
0.0
 11
83.276688
 21
234.504141
 31
0.0
  0
LINE
  5
129
100
AcDbEntity
  8
outerShellIn
 62
7
100
AcDbLine
 10
83.276688
 20
234.504141
 30
0.0
 11
82.092038
 21
235.034297
 31
0.0
  0
LINE
  5
12a
100
AcDbEntity
  8
outerShellIn
 62
7
100
AcDbLine
 10
82.092038
 20
235.034297
 30
0.0
 11
80.911206
 21
235.602245
 31
0.0
  0
LINE
  5
12b
100
AcDbEntity
  8
outerShellIn
 62
7
100
AcDbLine
 10
80.911206
 20
235.602245
 30
0.0
 11
79.725769
 21
236.204551
 31
0.0
  0
LINE
  5
12c
100
AcDbEntity
  8
outerShellIn
 62
7
100
AcDbLine
 10
79.725769
 20
236.204551
 30
0.0
 11
78.527305
 21
236.837781
 31
0.0
  0
LINE
  5
12d
100
AcDbEntity
  8
outerShellIn
 62
7
100
AcDbLine
 10
78.527305
 20
236.837781
 30
0.0
 11
77.307392
 21
237.498501
 31
0.0
  0
LINE
  5
12e
100
AcDbEntity
  8
outerShellIn
 62
7
100
AcDbLine
 10
77.307392
 20
237.498501
 30
0.0
 11
76.057608
 21
238.183276
 31
0.0
  0
LINE
  5
12f
100
AcDbEntity
  8
outerShellIn
 62
7
100
AcDbLine
 10
76.057608
 20
238.183276
 30
0.0
 11
74.769531
 21
238.888672
 31
0.0
  0
LINE
  5
130
100
AcDbEntity
  8
outerShellIn
 62
7
100
AcDbLine
 10
74.769531
 20
238.888672
 30
0.0
 11
73.437741
 21
239.607799
 31
0.0
  0
LINE
  5
131
100
AcDbEntity
  8
outerShellIn
 62
7
100
AcDbLine
 10
73.437741
 20
239.607799
 30
0.0
 11
72.059581
 21
240.331379
 31
0.0
  0
LINE
  5
132
100
AcDbEntity
  8
outerShellIn
 62
7
100
AcDbLine
 10
72.059581
 20
240.331379
 30
0.0
 11
70.630772
 21
241.052396
 31
0.0
  0
LINE
  5
133
100
AcDbEntity
  8
outerShellIn
 62
7
100
AcDbLine
 10
70.630772
 20
241.052396
 30
0.0
 11
69.147034
 21
241.763833
 31
0.0
  0
LINE
  5
134
100
AcDbEntity
  8
outerShellIn
 62
7
100
AcDbLine
 10
69.147034
 20
241.763833
 30
0.0
 11
67.604087
 21
242.458674
 31
0.0
  0
LINE
  5
135
100
AcDbEntity
  8
outerShellIn
 62
7
100
AcDbLine
 10
67.604087
 20
242.458674
 30
0.0
 11
65.997653
 21
243.129903
 31
0.0
  0
LINE
  5
136
100
AcDbEntity
  8
outerShellIn
 62
7
100
AcDbLine
 10
65.997653
 20
243.129903
 30
0.0
 11
64.323451
 21
243.770504
 31
0.0
  0
LINE
  5
137
100
AcDbEntity
  8
outerShellIn
 62
7
100
AcDbLine
 10
64.323451
 20
243.770504
 30
0.0
 11
62.577203
 21
244.373461
 31
0.0
  0
LINE
  5
138
100
AcDbEntity
  8
outerShellIn
 62
7
100
AcDbLine
 10
62.577203
 20
244.373461
 30
0.0
 11
60.754628
 21
244.931758
 31
0.0
  0
LINE
  5
139
100
AcDbEntity
  8
outerShellIn
 62
7
100
AcDbLine
 10
60.754628
 20
244.931758
 30
0.0
 11
58.851448
 21
245.438379
 31
0.0
  0
LINE
  5
13a
100
AcDbEntity
  8
outerShellIn
 62
7
100
AcDbLine
 10
58.851448
 20
245.438379
 30
0.0
 11
56.863383
 21
245.886307
 31
0.0
  0
LINE
  5
13b
100
AcDbEntity
  8
outerShellIn
 62
7
100
AcDbLine
 10
56.863383
 20
245.886307
 30
0.0
 11
54.786153
 21
246.268527
 31
0.0
  0
LINE
  5
13c
100
AcDbEntity
  8
outerShellIn
 62
7
100
AcDbLine
 10
54.786153
 20
246.268527
 30
0.0
 11
52.615479
 21
246.578022
 31
0.0
  0
LINE
  5
13d
100
AcDbEntity
  8
outerShellIn
 62
7
100
AcDbLine
 10
52.615479
 20
246.578022
 30
0.0
 11
50.347082
 21
246.807777
 31
0.0
  0
LINE
  5
13e
100
AcDbEntity
  8
outerShellIn
 62
7
100
AcDbLine
 10
50.347082
 20
246.807777
 30
0.0
 11
47.976682
 21
246.950775
 31
0.0
  0
LINE
  5
13f
100
AcDbEntity
  8
outerShellIn
 62
7
100
AcDbLine
 10
47.976682
 20
246.950775
 30
0.0
 11
45.500000
 21
247.000000
 31
0.0
  0
LINE
  5
140
100
AcDbEntity
  8
outerShellIn
 62
7
100
AcDbLine
 10
45.500000
 20
247.000000
 30
0.0
 11
44.210421
 21
246.982830
 31
0.0
  0
LINE
  5
141
100
AcDbEntity
  8
outerShellIn
 62
7
100
AcDbLine
 10
44.210421
 20
246.982830
 30
0.0
 11
42.960417
 21
246.930330
 31
0.0
  0
LINE
  5
142
100
AcDbEntity
  8
outerShellIn
 62
7
100
AcDbLine
 10
42.960417
 20
246.930330
 30
0.0
 11
41.750545
 21
246.841000
 31
0.0
  0
LINE
  5
143
100
AcDbEntity
  8
outerShellIn
 62
7
100
AcDbLine
 10
41.750545
 20
246.841000
 30
0.0
 11
40.581361
 21
246.713329
 31
0.0
  0
LINE
  5
144
100
AcDbEntity
  8
outerShellIn
 62
7
100
AcDbLine
 10
40.581361
 20
246.713329
 30
0.0
 11
39.453424
 21
246.545821
 31
0.0
  0
LINE
  5
145
100
AcDbEntity
  8
outerShellIn
 62
7
100
AcDbLine
 10
39.453424
 20
246.545821
 30
0.0
 11
38.367290
 21
246.336974
 31
0.0
  0
LINE
  5
146
100
AcDbEntity
  8
outerShellIn
 62
7
100
AcDbLine
 10
38.367290
 20
246.336974
 30
0.0
 11
37.323517
 21
246.085286
 31
0.0
  0
LINE
  5
147
100
AcDbEntity
  8
outerShellIn
 62
7
100
AcDbLine
 10
37.323517
 20
246.085286
 30
0.0
 11
36.322662
 21
245.789256
 31
0.0
  0
LINE
  5
148
100
AcDbEntity
  8
outerShellIn
 62
7
100
AcDbLine
 10
36.322662
 20
245.789256
 30
0.0
 11
35.365282
 21
245.447382
 31
0.0
  0
LINE
  5
149
100
AcDbEntity
  8
outerShellIn
 62
7
100
AcDbLine
 10
35.365282
 20
245.447382
 30
0.0
 11
34.451934
 21
245.058164
 31
0.0
  0
LINE
  5
14a
100
AcDbEntity
  8
outerShellIn
 62
7
100
AcDbLine
 10
34.451934
 20
245.058164
 30
0.0
 11
33.583176
 21
244.620099
 31
0.0
  0
LINE
  5
14b
100
AcDbEntity
  8
outerShellIn
 62
7
100
AcDbLine
 10
33.583176
 20
244.620099
 30
0.0
 11
32.759565
 21
244.131687
 31
0.0
  0
LINE
  5
14c
100
AcDbEntity
  8
outerShellIn
 62
7
100
AcDbLine
 10
32.759565
 20
244.131687
 30
0.0
 11
31.981658
 21
243.591425
 31
0.0
  0
LINE
  5
14d
100
AcDbEntity
  8
outerShellIn
 62
7
100
AcDbLine
 10
31.981658
 20
243.591425
 30
0.0
 11
31.250012
 21
242.997813
 31
0.0
  0
LINE
  5
14e
100
AcDbEntity
  8
outerShellIn
 62
7
100
AcDbLine
 10
31.250012
 20
242.997813
 30
0.0
 11
30.565185
 21
242.349349
 31
0.0
  0
LINE
  5
14f
100
AcDbEntity
  8
outerShellIn
 62
7
100
AcDbLine
 10
30.565185
 20
242.349349
 30
0.0
 11
29.927734
 21
241.644531
 31
0.0
  0
LINE
  5
150
100
AcDbEntity
  8
outerShellIn
 62
7
100
AcDbLine
 10
29.927734
 20
241.644531
 30
0.0
 11
29.354591
 21
240.896979
 31
0.0
  0
LINE
  5
151
100
AcDbEntity
  8
outerShellIn
 62
7
100
AcDbLine
 10
29.354591
 20
240.896979
 30
0.0
 11
28.859955
 21
240.123541
 31
0.0
  0
LINE
  5
152
100
AcDbEntity
  8
outerShellIn
 62
7
100
AcDbLine
 10
28.859955
 20
240.123541
 30
0.0
 11
28.440285
 21
239.327560
 31
0.0
  0
LINE
  5
153
100
AcDbEntity
  8
outerShellIn
 62
7
100
AcDbLine
 10
28.440285
 20
239.327560
 30
0.0
 11
28.092040
 21
238.512378
 31
0.0
  0
LINE
  5
154
100
AcDbEntity
  8
outerShellIn
 62
7
100
AcDbLine
 10
28.092040
 20
238.512378
 30
0.0
 11
27.811679
 21
237.681338
 31
0.0
  0
LINE
  5
155
100
AcDbEntity
  8
outerShellIn
 62
7
100
AcDbLine
 10
27.811679
 20
237.681338
 30
0.0
 11
27.595661
 21
236.837782
 31
0.0
  0
LINE
  5
156
100
AcDbEntity
  8
outerShellIn
 62
7
100
AcDbLine
 10
27.595661
 20
236.837782
 30
0.0
 11
27.440445
 21
235.985052
 31
0.0
  0
LINE
  5
157
100
AcDbEntity
  8
outerShellIn
 62
7
100
AcDbLine
 10
27.440445
 20
235.985052
 30
0.0
 11
27.342495
 21
235.126493
 31
0.0
  0
LINE
  5
158
100
AcDbEntity
  8
outerShellIn
 62
7
100
AcDbLine
 10
27.342495
 20
235.126493
 30
0.0
 11
27.298255
 21
234.265445
 31
0.0
  0
LINE
  5
159
100
AcDbEntity
  8
outerShellIn
 62
7
100
AcDbLine
 10
27.298255
 20
234.265445
 30
0.0
 11
27.304155
 21
233.405252
 31
0.0
  0
LINE
  5
15a
100
AcDbEntity
  8
outerShellIn
 62
7
100
AcDbLine
 10
27.304155
 20
233.405252
 30
0.0
 11
27.356735
 21
232.549256
 31
0.0
  0
LINE
  5
15b
100
AcDbEntity
  8
outerShellIn
 62
7
100
AcDbLine
 10
27.356735
 20
232.549256
 30
0.0
 11
27.452415
 21
231.700799
 31
0.0
  0
LINE
  5
15c
100
AcDbEntity
  8
outerShellIn
 62
7
100
AcDbLine
 10
27.452415
 20
231.700799
 30
0.0
 11
27.587648
 21
230.863224
 31
0.0
  0
LINE
  5
15d
100
AcDbEntity
  8
outerShellIn
 62
7
100
AcDbLine
 10
27.587648
 20
230.863224
 30
0.0
 11
27.758896
 21
230.039875
 31
0.0
  0
LINE
  5
15e
100
AcDbEntity
  8
outerShellIn
 62
7
100
AcDbLine
 10
27.758896
 20
230.039875
 30
0.0
 11
27.962617
 21
229.234092
 31
0.0
  0
LINE
  5
15f
100
AcDbEntity
  8
outerShellIn
 62
7
100
AcDbLine
 10
27.962617
 20
229.234092
 30
0.0
 11
28.195270
 21
228.449219
 31
0.0
  0
LINE
  5
160
100
AcDbEntity
  8
outerShellIn
 62
7
100
AcDbLine
 10
28.195270
 20
228.449219
 30
0.0
 11
28.732303
 21
226.911385
 31
0.0
  0
LINE
  5
161
100
AcDbEntity
  8
outerShellIn
 62
7
100
AcDbLine
 10
28.732303
 20
226.911385
 30
0.0
 11
29.353935
 21
225.393281
 31
0.0
  0
LINE
  5
162
100
AcDbEntity
  8
outerShellIn
 62
7
100
AcDbLine
 10
29.353935
 20
225.393281
 30
0.0
 11
30.051600
 21
223.898181
 31
0.0
  0
LINE
  5
163
100
AcDbEntity
  8
outerShellIn
 62
7
100
AcDbLine
 10
30.051600
 20
223.898181
 30
0.0
 11
30.816731
 21
222.429359
 31
0.0
  0
LINE
  5
164
100
AcDbEntity
  8
outerShellIn
 62
7
100
AcDbLine
 10
30.816731
 20
222.429359
 30
0.0
 11
31.640761
 21
220.990089
 31
0.0
  0
LINE
  5
165
100
AcDbEntity
  8
outerShellIn
 62
7
100
AcDbLine
 10
31.640761
 20
220.990089
 30
0.0
 11
32.515126
 21
219.583645
 31
0.0
  0
LINE
  5
166
100
AcDbEntity
  8
outerShellIn
 62
7
100
AcDbLine
 10
32.515126
 20
219.583645
 30
0.0
 11
33.431258
 21
218.213301
 31
0.0
  0
LINE
  5
167
100
AcDbEntity
  8
outerShellIn
 62
7
100
AcDbLine
 10
33.431258
 20
218.213301
 30
0.0
 11
34.380591
 21
216.882331
 31
0.0
  0
LINE
  5
168
100
AcDbEntity
  8
outerShellIn
 62
7
100
AcDbLine
 10
34.380591
 20
216.882331
 30
0.0
 11
35.354559
 21
215.594010
 31
0.0
  0
LINE
  5
169
100
AcDbEntity
  8
outerShellIn
 62
7
100
AcDbLine
 10
35.354559
 20
215.594010
 30
0.0
 11
36.344595
 21
214.351610
 31
0.0
  0
LINE
  5
16a
100
AcDbEntity
  8
outerShellIn
 62
7
100
AcDbLine
 10
36.344595
 20
214.351610
 30
0.0
 11
37.342133
 21
213.158407
 31
0.0
  0
LINE
  5
16b
100
AcDbEntity
  8
outerShellIn
 62
7
100
AcDbLine
 10
37.342133
 20
213.158407
 30
0.0
 11
38.338607
 21
212.017674
 31
0.0
  0
LINE
  5
16c
100
AcDbEntity
  8
outerShellIn
 62
7
100
AcDbLine
 10
38.338607
 20
212.017674
 30
0.0
 11
39.325451
 21
210.932685
 31
0.0
  0
LINE
  5
16d
100
AcDbEntity
  8
outerShellIn
 62
7
100
AcDbLine
 10
39.325451
 20
210.932685
 30
0.0
 11
40.294098
 21
209.906714
 31
0.0
  0
LINE
  5
16e
100
AcDbEntity
  8
outerShellIn
 62
7
100
AcDbLine
 10
40.294098
 20
209.906714
 30
0.0
 11
41.235982
 21
208.943035
 31
0.0
  0
LINE
  5
16f
100
AcDbEntity
  8
outerShellIn
 62
7
100
AcDbLine
 10
41.235982
 20
208.943035
 30
0.0
 11
42.142536
 21
208.044922
 31
0.0
  0
LINE
  5
170
100
AcDbEntity
  8
outerShellIn
 62
7
100
AcDbLine
 10
42.142536
 20
208.044922
 30
0.0
 11
42.845900
 21
207.303980
 31
0.0
  0
LINE
  5
171
100
AcDbEntity
  8
outerShellIn
 62
7
100
AcDbLine
 10
42.845900
 20
207.303980
 30
0.0
 11
43.571474
 21
206.434677
 31
0.0
  0
LINE
  5
172
100
AcDbEntity
  8
outerShellIn
 62
7
100
AcDbLine
 10
43.571474
 20
206.434677
 30
0.0
 11
44.311678
 21
205.449005
 31
0.0
  0
LINE
  5
173
100
AcDbEntity
  8
outerShellIn
 62
7
100
AcDbLine
 10
44.311678
 20
205.449005
 30
0.0
 11
45.058931
 21
204.358956
 31
0.0
  0
LINE
  5
174
100
AcDbEntity
  8
outerShellIn
 62
7
100
AcDbLine
 10
45.058931
 20
204.358956
 30
0.0
 11
45.805652
 21
203.176522
 31
0.0
  0
LINE
  5
175
100
AcDbEntity
  8
outerShellIn
 62
7
100
AcDbLine
 10
45.805652
 20
203.176522
 30
0.0
 11
46.544260
 21
201.913694
 31
0.0
  0
LINE
  5
176
100
AcDbEntity
  8
outerShellIn
 62
7
100
AcDbLine
 10
46.544260
 20
201.913694
 30
0.0
 11
47.267174
 21
200.582465
 31
0.0
  0
LINE
  5
177
100
AcDbEntity
  8
outerShellIn
 62
7
100
AcDbLine
 10
47.267174
 20
200.582465
 30
0.0
 11
47.966814
 21
199.194825
 31
0.0
  0
LINE
  5
178
100
AcDbEntity
  8
outerShellIn
 62
7
100
AcDbLine
 10
47.966814
 20
199.194825
 30
0.0
 11
48.635599
 21
197.762767
 31
0.0
  0
LINE
  5
179
100
AcDbEntity
  8
outerShellIn
 62
7
100
AcDbLine
 10
48.635599
 20
197.762767
 30
0.0
 11
49.265948
 21
196.298280
 31
0.0
  0
LINE
  5
17a
100
AcDbEntity
  8
outerShellIn
 62
7
100
AcDbLine
 10
49.265948
 20
196.298280
 30
0.0
 11
49.850280
 21
194.813360
 31
0.0
  0
LINE
  5
17b
100
AcDbEntity
  8
outerShellIn
 62
7
100
AcDbLine
 10
49.850280
 20
194.813360
 30
0.0
 11
50.381015
 21
193.320000
 31
0.0
  0
LINE
  5
17c
100
AcDbEntity
  8
outerShellIn
 62
7
100
AcDbLine
 10
50.381015
 20
193.320000
 30
0.0
 11
50.850571
 21
191.830180
 31
0.0
  0
LINE
  5
17d
100
AcDbEntity
  8
outerShellIn
 62
7
100
AcDbLine
 10
50.850571
 20
191.830180
 30
0.0
 11
51.251369
 21
190.355910
 31
0.0
  0
LINE
  5
17e
100
AcDbEntity
  8
outerShellIn
 62
7
100
AcDbLine
 10
51.251369
 20
190.355910
 30
0.0
 11
51.575827
 21
188.909170
 31
0.0
  0
LINE
  5
17f
100
AcDbEntity
  8
outerShellIn
 62
7
100
AcDbLine
 10
51.575827
 20
188.909170
 30
0.0
 11
51.816364
 21
187.501950
 31
0.0
  0
LINE
  5
180
100
AcDbEntity
  8
outerShellIn
 62
7
100
AcDbLine
 10
51.816364
 20
187.501950
 30
0.0
 11
51.903044
 21
186.818710
 31
0.0
  0
LINE
  5
181
100
AcDbEntity
  8
outerShellIn
 62
7
100
AcDbLine
 10
51.903044
 20
186.818710
 30
0.0
 11
51.967604
 21
186.153220
 31
0.0
  0
LINE
  5
182
100
AcDbEntity
  8
outerShellIn
 62
7
100
AcDbLine
 10
51.967604
 20
186.153220
 30
0.0
 11
52.010884
 21
185.506640
 31
0.0
  0
LINE
  5
183
100
AcDbEntity
  8
outerShellIn
 62
7
100
AcDbLine
 10
52.010884
 20
185.506640
 30
0.0
 11
52.033734
 21
184.880130
 31
0.0
  0
LINE
  5
184
100
AcDbEntity
  8
outerShellIn
 62
7
100
AcDbLine
 10
52.033734
 20
184.880130
 30
0.0
 11
52.037034
 21
184.274850
 31
0.0
  0
LINE
  5
185
100
AcDbEntity
  8
outerShellIn
 62
7
100
AcDbLine
 10
52.037034
 20
184.274850
 30
0.0
 11
52.021544
 21
183.691960
 31
0.0
  0
LINE
  5
186
100
AcDbEntity
  8
outerShellIn
 62
7
100
AcDbLine
 10
52.021544
 20
183.691960
 30
0.0
 11
51.988154
 21
183.132620
 31
0.0
  0
LINE
  5
187
100
AcDbEntity
  8
outerShellIn
 62
7
100
AcDbLine
 10
51.988154
 20
183.132620
 30
0.0
 11
51.937714
 21
182.597980
 31
0.0
  0
LINE
  5
188
100
AcDbEntity
  8
outerShellIn
 62
7
100
AcDbLine
 10
51.937714
 20
182.597980
 30
0.0
 11
51.871064
 21
182.089220
 31
0.0
  0
LINE
  5
189
100
AcDbEntity
  8
outerShellIn
 62
7
100
AcDbLine
 10
51.871064
 20
182.089220
 30
0.0
 11
51.789044
 21
181.607480
 31
0.0
  0
LINE
  5
18a
100
AcDbEntity
  8
outerShellIn
 62
7
100
AcDbLine
 10
51.789044
 20
181.607480
 30
0.0
 11
51.692504
 21
181.153930
 31
0.0
  0
LINE
  5
18b
100
AcDbEntity
  8
outerShellIn
 62
7
100
AcDbLine
 10
51.692504
 20
181.153930
 30
0.0
 11
51.582280
 21
180.729730
 31
0.0
  0
LINE
  5
18c
100
AcDbEntity
  8
outerShellIn
 62
7
100
AcDbLine
 10
51.582280
 20
180.729730
 30
0.0
 11
51.459222
 21
180.336040
 31
0.0
  0
LINE
  5
18d
100
AcDbEntity
  8
outerShellIn
 62
7
100
AcDbLine
 10
51.459222
 20
180.336040
 30
0.0
 11
51.324174
 21
179.974020
 31
0.0
  0
LINE
  5
18e
100
AcDbEntity
  8
outerShellIn
 62
7
100
AcDbLine
 10
51.324174
 20
179.974020
 30
0.0
 11
51.177979
 21
179.644820
 31
0.0
  0
LINE
  5
18f
100
AcDbEntity
  8
outerShellIn
 62
7
100
AcDbLine
 10
51.177979
 20
179.644820
 30
0.0
 11
51.021484
 21
179.349610
 31
0.0
  0
LINE
  5
190
100
AcDbEntity
  8
outerShellIn
 62
7
100
AcDbLine
 10
51.021484
 20
179.349610
 30
0.0
 11
50.858849
 21
179.079040
 31
0.0
  0
LINE
  5
191
100
AcDbEntity
  8
outerShellIn
 62
7
100
AcDbLine
 10
50.858849
 20
179.079040
 30
0.0
 11
50.690950
 21
178.823220
 31
0.0
  0
LINE
  5
192
100
AcDbEntity
  8
outerShellIn
 62
7
100
AcDbLine
 10
50.690950
 20
178.823220
 30
0.0
 11
50.513704
 21
178.582540
 31
0.0
  0
LINE
  5
193
100
AcDbEntity
  8
outerShellIn
 62
7
100
AcDbLine
 10
50.513704
 20
178.582540
 30
0.0
 11
50.323024
 21
178.357360
 31
0.0
  0
LINE
  5
194
100
AcDbEntity
  8
outerShellIn
 62
7
100
AcDbLine
 10
50.323024
 20
178.357360
 30
0.0
 11
50.114825
 21
178.148060
 31
0.0
  0
LINE
  5
195
100
AcDbEntity
  8
outerShellIn
 62
7
100
AcDbLine
 10
50.114825
 20
178.148060
 30
0.0
 11
49.885021
 21
177.955010
 31
0.0
  0
LINE
  5
196
100
AcDbEntity
  8
outerShellIn
 62
7
100
AcDbLine
 10
49.885021
 20
177.955010
 30
0.0
 11
49.629529
 21
177.778580
 31
0.0
  0
LINE
  5
197
100
AcDbEntity
  8
outerShellIn
 62
7
100
AcDbLine
 10
49.629529
 20
177.778580
 30
0.0
 11
49.344261
 21
177.619140
 31
0.0
  0
LINE
  5
198
100
AcDbEntity
  8
outerShellIn
 62
7
100
AcDbLine
 10
49.344261
 20
177.619140
 30
0.0
 11
49.025134
 21
177.477070
 31
0.0
  0
LINE
  5
199
100
AcDbEntity
  8
outerShellIn
 62
7
100
AcDbLine
 10
49.025134
 20
177.477070
 30
0.0
 11
48.668062
 21
177.352730
 31
0.0
  0
LINE
  5
19a
100
AcDbEntity
  8
outerShellIn
 62
7
100
AcDbLine
 10
48.668062
 20
177.352730
 30
0.0
 11
48.268958
 21
177.246500
 31
0.0
  0
LINE
  5
19b
100
AcDbEntity
  8
outerShellIn
 62
7
100
AcDbLine
 10
48.268958
 20
177.246500
 30
0.0
 11
47.823739
 21
177.158800
 31
0.0
  0
LINE
  5
19c
100
AcDbEntity
  8
outerShellIn
 62
7
100
AcDbLine
 10
47.823739
 20
177.158800
 30
0.0
 11
47.328319
 21
177.089900
 31
0.0
  0
LINE
  5
19d
100
AcDbEntity
  8
outerShellIn
 62
7
100
AcDbLine
 10
47.328319
 20
177.089900
 30
0.0
 11
46.778613
 21
177.040200
 31
0.0
  0
LINE
  5
19e
100
AcDbEntity
  8
outerShellIn
 62
7
100
AcDbLine
 10
46.778613
 20
177.040200
 30
0.0
 11
46.170535
 21
177.010100
 31
0.0
  0
LINE
  5
19f
100
AcDbEntity
  8
outerShellIn
 62
7
100
AcDbLine
 10
46.170535
 20
177.010100
 30
0.0
 11
45.500000
 21
177.000000
 31
0.0
  0
LINE
  5
1a0
100
AcDbEntity
  8
outerShellIn
 62
7
100
AcDbLine
 10
45.500000
 20
177.000000
 30
0.0
 11
43.000000
 21
177.000000
 31
0.0
  0
LINE
  5
1a1
100
AcDbEntity
  8
outerShellIn
 62
7
100
AcDbLine
 10
43.000000
 20
177.000000
 30
0.0
 11
40.500000
 21
177.000000
 31
0.0
  0
LINE
  5
1a2
100
AcDbEntity
  8
outerShellIn
 62
7
100
AcDbLine
 10
40.500000
 20
177.000000
 30
0.0
 11
38.000000
 21
177.000000
 31
0.0
  0
LINE
  5
1a3
100
AcDbEntity
  8
outerShellIn
 62
7
100
AcDbLine
 10
38.000000
 20
177.000000
 30
0.0
 11
35.500000
 21
177.000000
 31
0.0
  0
LINE
  5
1a4
100
AcDbEntity
  8
outerShellIn
 62
7
100
AcDbLine
 10
35.500000
 20
177.000000
 30
0.0
 11
33.000000
 21
177.000000
 31
0.0
  0
LINE
  5
1a5
100
AcDbEntity
  8
outerShellIn
 62
7
100
AcDbLine
 10
33.000000
 20
177.000000
 30
0.0
 11
30.500000
 21
177.000000
 31
0.0
  0
LINE
  5
1a6
100
AcDbEntity
  8
outerShellIn
 62
7
100
AcDbLine
 10
30.500000
 20
177.000000
 30
0.0
 11
28.000000
 21
177.000000
 31
0.0
  0
LINE
  5
1a7
100
AcDbEntity
  8
outerShellIn
 62
7
100
AcDbLine
 10
28.000000
 20
177.000000
 30
0.0
 11
25.500000
 21
177.000000
 31
0.0
  0
LINE
  5
1a8
100
AcDbEntity
  8
outerShellIn
 62
7
100
AcDbLine
 10
25.500000
 20
177.000000
 30
0.0
 11
23.000000
 21
177.000000
 31
0.0
  0
LINE
  5
1a9
100
AcDbEntity
  8
outerShellIn
 62
7
100
AcDbLine
 10
23.000000
 20
177.000000
 30
0.0
 11
20.500000
 21
177.000000
 31
0.0
  0
LINE
  5
1aa
100
AcDbEntity
  8
outerShellIn
 62
7
100
AcDbLine
 10
20.500000
 20
177.000000
 30
0.0
 11
18.000000
 21
177.000000
 31
0.0
  0
LINE
  5
1ab
100
AcDbEntity
  8
outerShellIn
 62
7
100
AcDbLine
 10
18.000000
 20
177.000000
 30
0.0
 11
15.500000
 21
177.000000
 31
0.0
  0
LINE
  5
1ac
100
AcDbEntity
  8
outerShellIn
 62
7
100
AcDbLine
 10
15.500000
 20
177.000000
 30
0.0
 11
13.000000
 21
177.000000
 31
0.0
  0
LINE
  5
1ad
100
AcDbEntity
  8
outerShellIn
 62
7
100
AcDbLine
 10
13.000000
 20
177.000000
 30
0.0
 11
10.500000
 21
177.000000
 31
0.0
  0
LINE
  5
1ae
100
AcDbEntity
  8
outerShellIn
 62
7
100
AcDbLine
 10
10.500000
 20
177.000000
 30
0.0
 11
8.000000
 21
177.000000
 31
0.0
  0
LINE
  5
1af
100
AcDbEntity
  8
outerShellIn
 62
7
100
AcDbLine
 10
8.000000
 20
177.000000
 30
0.0
 11
5.500000
 21
177.000000
 31
0.0
  0
LINE
  5
1b0
100
AcDbEntity
  8
outerShellIn
 62
7
100
AcDbLine
 10
5.500000
 20
177.000000
 30
0.0
 11
5.500000
 21
173.562500
 31
0.0
  0
LINE
  5
1b1
100
AcDbEntity
  8
outerShellIn
 62
7
100
AcDbLine
 10
5.500000
 20
173.562500
 30
0.0
 11
5.500000
 21
170.125000
 31
0.0
  0
LINE
  5
1b2
100
AcDbEntity
  8
outerShellIn
 62
7
100
AcDbLine
 10
5.500000
 20
170.125000
 30
0.0
 11
5.500000
 21
166.687500
 31
0.0
  0
LINE
  5
1b3
100
AcDbEntity
  8
outerShellIn
 62
7
100
AcDbLine
 10
5.500000
 20
166.687500
 30
0.0
 11
5.500000
 21
163.250000
 31
0.0
  0
LINE
  5
1b4
100
AcDbEntity
  8
outerShellIn
 62
7
100
AcDbLine
 10
5.500000
 20
163.250000
 30
0.0
 11
5.500000
 21
159.812500
 31
0.0
  0
LINE
  5
1b5
100
AcDbEntity
  8
outerShellIn
 62
7
100
AcDbLine
 10
5.500000
 20
159.812500
 30
0.0
 11
5.500000
 21
156.375000
 31
0.0
  0
LINE
  5
1b6
100
AcDbEntity
  8
outerShellIn
 62
7
100
AcDbLine
 10
5.500000
 20
156.375000
 30
0.0
 11
5.500000
 21
152.937500
 31
0.0
  0
LINE
  5
1b7
100
AcDbEntity
  8
outerShellIn
 62
7
100
AcDbLine
 10
5.500000
 20
152.937500
 30
0.0
 11
5.500000
 21
149.500000
 31
0.0
  0
LINE
  5
1b8
100
AcDbEntity
  8
outerShellIn
 62
7
100
AcDbLine
 10
5.500000
 20
149.500000
 30
0.0
 11
5.500000
 21
146.062500
 31
0.0
  0
LINE
  5
1b9
100
AcDbEntity
  8
outerShellIn
 62
7
100
AcDbLine
 10
5.500000
 20
146.062500
 30
0.0
 11
5.500000
 21
142.625000
 31
0.0
  0
LINE
  5
1ba
100
AcDbEntity
  8
outerShellIn
 62
7
100
AcDbLine
 10
5.500000
 20
142.625000
 30
0.0
 11
5.500000
 21
139.187500
 31
0.0
  0
LINE
  5
1bb
100
AcDbEntity
  8
outerShellIn
 62
7
100
AcDbLine
 10
5.500000
 20
139.187500
 30
0.0
 11
5.500000
 21
135.750000
 31
0.0
  0
LINE
  5
1bc
100
AcDbEntity
  8
outerShellIn
 62
7
100
AcDbLine
 10
5.500000
 20
135.750000
 30
0.0
 11
5.500000
 21
132.312500
 31
0.0
  0
LINE
  5
1bd
100
AcDbEntity
  8
outerShellIn
 62
7
100
AcDbLine
 10
5.500000
 20
132.312500
 30
0.0
 11
5.500000
 21
128.875000
 31
0.0
  0
LINE
  5
1be
100
AcDbEntity
  8
outerShellIn
 62
7
100
AcDbLine
 10
5.500000
 20
128.875000
 30
0.0
 11
5.500000
 21
125.437500
 31
0.0
  0
LINE
  5
1bf
100
AcDbEntity
  8
outerShellIn
 62
7
100
AcDbLine
 10
5.500000
 20
125.437500
 30
0.0
 11
5.500000
 21
122.000000
 31
0.0
  0
LINE
  5
1c0
100
AcDbEntity
  8
outerShellIn
 62
7
100
AcDbLine
 10
5.500000
 20
122.000000
 30
0.0
 11
5.500000
 21
119.812500
 31
0.0
  0
LINE
  5
1c1
100
AcDbEntity
  8
outerShellIn
 62
7
100
AcDbLine
 10
5.500000
 20
119.812500
 30
0.0
 11
5.500000
 21
117.625000
 31
0.0
  0
LINE
  5
1c2
100
AcDbEntity
  8
outerShellIn
 62
7
100
AcDbLine
 10
5.500000
 20
117.625000
 30
0.0
 11
5.500000
 21
115.437500
 31
0.0
  0
LINE
  5
1c3
100
AcDbEntity
  8
outerShellIn
 62
7
100
AcDbLine
 10
5.500000
 20
115.437500
 30
0.0
 11
5.500000
 21
113.250000
 31
0.0
  0
LINE
  5
1c4
100
AcDbEntity
  8
outerShellIn
 62
7
100
AcDbLine
 10
5.500000
 20
113.250000
 30
0.0
 11
5.500000
 21
111.062500
 31
0.0
  0
LINE
  5
1c5
100
AcDbEntity
  8
outerShellIn
 62
7
100
AcDbLine
 10
5.500000
 20
111.062500
 30
0.0
 11
5.500000
 21
108.875000
 31
0.0
  0
LINE
  5
1c6
100
AcDbEntity
  8
outerShellIn
 62
7
100
AcDbLine
 10
5.500000
 20
108.875000
 30
0.0
 11
5.500000
 21
106.687500
 31
0.0
  0
LINE
  5
1c7
100
AcDbEntity
  8
outerShellIn
 62
7
100
AcDbLine
 10
5.500000
 20
106.687500
 30
0.0
 11
5.500000
 21
104.500000
 31
0.0
  0
LINE
  5
1c8
100
AcDbEntity
  8
outerShellIn
 62
7
100
AcDbLine
 10
5.500000
 20
104.500000
 30
0.0
 11
5.500000
 21
102.312500
 31
0.0
  0
LINE
  5
1c9
100
AcDbEntity
  8
outerShellIn
 62
7
100
AcDbLine
 10
5.500000
 20
102.312500
 30
0.0
 11
5.500000
 21
100.125000
 31
0.0
  0
LINE
  5
1ca
100
AcDbEntity
  8
outerShellIn
 62
7
100
AcDbLine
 10
5.500000
 20
100.125000
 30
0.0
 11
5.500000
 21
97.937500
 31
0.0
  0
LINE
  5
1cb
100
AcDbEntity
  8
outerShellIn
 62
7
100
AcDbLine
 10
5.500000
 20
97.937500
 30
0.0
 11
5.500000
 21
95.750000
 31
0.0
  0
LINE
  5
1cc
100
AcDbEntity
  8
outerShellIn
 62
7
100
AcDbLine
 10
5.500000
 20
95.750000
 30
0.0
 11
5.500000
 21
93.562500
 31
0.0
  0
LINE
  5
1cd
100
AcDbEntity
  8
outerShellIn
 62
7
100
AcDbLine
 10
5.500000
 20
93.562500
 30
0.0
 11
5.500000
 21
91.375000
 31
0.0
  0
LINE
  5
1ce
100
AcDbEntity
  8
outerShellIn
 62
7
100
AcDbLine
 10
5.500000
 20
91.375000
 30
0.0
 11
5.500000
 21
89.187500
 31
0.0
  0
LINE
  5
1cf
100
AcDbEntity
  8
outerShellIn
 62
7
100
AcDbLine
 10
5.500000
 20
89.187500
 30
0.0
 11
5.500000
 21
87.000000
 31
0.0
  0
LINE
  5
1d0
100
AcDbEntity
  8
outerShellIn
 62
7
100
AcDbLine
 10
5.500000
 20
87.000000
 30
0.0
 11
5.701927
 21
82.842820
 31
0.0
  0
LINE
  5
1d1
100
AcDbEntity
  8
outerShellIn
 62
7
100
AcDbLine
 10
5.701927
 20
82.842820
 30
0.0
 11
6.295418
 21
78.821100
 31
0.0
  0
LINE
  5
1d2
100
AcDbEntity
  8
outerShellIn
 62
7
100
AcDbLine
 10
6.295418
 20
78.821100
 30
0.0
 11
7.262036
 21
74.953270
 31
0.0
  0
LINE
  5
1d3
100
AcDbEntity
  8
outerShellIn
 62
7
100
AcDbLine
 10
7.262036
 20
74.953270
 30
0.0
 11
8.583347
 21
71.257790
 31
0.0
  0
LINE
  5
1d4
100
AcDbEntity
  8
outerShellIn
 62
7
100
AcDbLine
 10
8.583347
 20
71.257790
 30
0.0
 11
10.240914
 21
67.753100
 31
0.0
  0
LINE
  5
1d5
100
AcDbEntity
  8
outerShellIn
 62
7
100
AcDbLine
 10
10.240914
 20
67.753100
 30
0.0
 11
12.216303
 21
64.457660
 31
0.0
  0
LINE
  5
1d6
100
AcDbEntity
  8
outerShellIn
 62
7
100
AcDbLine
 10
12.216303
 20
64.457660
 30
0.0
 11
14.491078
 21
61.389900
 31
0.0
  0
LINE
  5
1d7
100
AcDbEntity
  8
outerShellIn
 62
7
100
AcDbLine
 10
14.491078
 20
61.389900
 30
0.0
 11
17.046802
 21
58.568290
 31
0.0
  0
LINE
  5
1d8
100
AcDbEntity
  8
outerShellIn
 62
7
100
AcDbLine
 10
17.046802
 20
58.568290
 30
0.0
 11
19.865041
 21
56.011270
 31
0.0
  0
LINE
  5
1d9
100
AcDbEntity
  8
outerShellIn
 62
7
100
AcDbLine
 10
19.865041
 20
56.011270
 30
0.0
 11
22.927359
 21
53.737290
 31
0.0
  0
LINE
  5
1da
100
AcDbEntity
  8
outerShellIn
 62
7
100
AcDbLine
 10
22.927359
 20
53.737290
 30
0.0
 11
26.215321
 21
51.764790
 31
0.0
  0
LINE
  5
1db
100
AcDbEntity
  8
outerShellIn
 62
7
100
AcDbLine
 10
26.215321
 20
51.764790
 30
0.0
 11
29.710490
 21
50.112230
 31
0.0
  0
LINE
  5
1dc
100
AcDbEntity
  8
outerShellIn
 62
7
100
AcDbLine
 10
29.710490
 20
50.112230
 30
0.0
 11
33.394431
 21
48.798050
 31
0.0
  0
LINE
  5
1dd
100
AcDbEntity
  8
outerShellIn
 62
7
100
AcDbLine
 10
33.394431
 20
48.798050
 30
0.0
 11
37.248708
 21
47.840710
 31
0.0
  0
LINE
  5
1de
100
AcDbEntity
  8
outerShellIn
 62
7
100
AcDbLine
 10
37.248708
 20
47.840710
 30
0.0
 11
41.254887
 21
47.258640
 31
0.0
  0
LINE
  5
1df
100
AcDbEntity
  8
outerShellIn
 62
7
100
AcDbLine
 10
41.254887
 20
47.258640
 30
0.0
 11
45.394531
 21
47.070310
 31
0.0
  0
LINE
  5
1e0
100
AcDbEntity
  8
outerShellIn
 62
7
100
AcDbLine
 10
45.394531
 20
47.070310
 30
0.0
 11
47.877058
 21
47.127810
 31
0.0
  0
LINE
  5
1e1
100
AcDbEntity
  8
outerShellIn
 62
7
100
AcDbLine
 10
47.877058
 20
47.127810
 30
0.0
 11
50.248318
 21
47.277870
 31
0.0
  0
LINE
  5
1e2
100
AcDbEntity
  8
outerShellIn
 62
7
100
AcDbLine
 10
50.248318
 20
47.277870
 30
0.0
 11
52.512995
 21
47.513470
 31
0.0
  0
LINE
  5
1e3
100
AcDbEntity
  8
outerShellIn
 62
7
100
AcDbLine
 10
52.512995
 20
47.513470
 30
0.0
 11
54.675776
 21
47.827600
 31
0.0
  0
LINE
  5
1e4
100
AcDbEntity
  8
outerShellIn
 62
7
100
AcDbLine
 10
54.675776
 20
47.827600
 30
0.0
 11
56.741345
 21
48.213240
 31
0.0
  0
LINE
  5
1e5
100
AcDbEntity
  8
outerShellIn
 62
7
100
AcDbLine
 10
56.741345
 20
48.213240
 30
0.0
 11
58.714389
 21
48.663370
 31
0.0
  0
LINE
  5
1e6
100
AcDbEntity
  8
outerShellIn
 62
7
100
AcDbLine
 10
58.714389
 20
48.663370
 30
0.0
 11
60.599593
 21
49.170980
 31
0.0
  0
LINE
  5
1e7
100
AcDbEntity
  8
outerShellIn
 62
7
100
AcDbLine
 10
60.599593
 20
49.170980
 30
0.0
 11
62.401641
 21
49.729050
 31
0.0
  0
LINE
  5
1e8
100
AcDbEntity
  8
outerShellIn
 62
7
100
AcDbLine
 10
62.401641
 20
49.729050
 30
0.0
 11
64.125221
 21
50.330550
 31
0.0
  0
LINE
  5
1e9
100
AcDbEntity
  8
outerShellIn
 62
7
100
AcDbLine
 10
64.125221
 20
50.330550
 30
0.0
 11
65.775017
 21
50.968480
 31
0.0
  0
LINE
  5
1ea
100
AcDbEntity
  8
outerShellIn
 62
7
100
AcDbLine
 10
65.775017
 20
50.968480
 30
0.0
 11
67.355714
 21
51.635820
 31
0.0
  0
LINE
  5
1eb
100
AcDbEntity
  8
outerShellIn
 62
7
100
AcDbLine
 10
67.355714
 20
51.635820
 30
0.0
 11
68.871999
 21
52.325540
 31
0.0
  0
LINE
  5
1ec
100
AcDbEntity
  8
outerShellIn
 62
7
100
AcDbLine
 10
68.871999
 20
52.325540
 30
0.0
 11
70.328556
 21
53.030630
 31
0.0
  0
LINE
  5
1ed
100
AcDbEntity
  8
outerShellIn
 62
7
100
AcDbLine
 10
70.328556
 20
53.030630
 30
0.0
 11
71.730072
 21
53.744080
 31
0.0
  0
LINE
  5
1ee
100
AcDbEntity
  8
outerShellIn
 62
7
100
AcDbLine
 10
71.730072
 20
53.744080
 30
0.0
 11
73.081231
 21
54.458870
 31
0.0
  0
LINE
  5
1ef
100
AcDbEntity
  8
outerShellIn
 62
7
100
AcDbLine
 10
73.081231
 20
54.458870
 30
0.0
 11
74.386719
 21
55.167970
 31
0.0
  0
LINE
  5
1f0
100
AcDbEntity
  8
outerShellIn
 62
7
100
AcDbLine
 10
74.386719
 20
55.167970
 30
0.0
 11
75.649756
 21
55.862650
 31
0.0
  0
LINE
  5
1f1
100
AcDbEntity
  8
outerShellIn
 62
7
100
AcDbLine
 10
75.649756
 20
55.862650
 30
0.0
 11
76.876631
 21
56.536570
 31
0.0
  0
LINE
  5
1f2
100
AcDbEntity
  8
outerShellIn
 62
7
100
AcDbLine
 10
76.876631
 20
56.536570
 30
0.0
 11
78.076632
 21
57.186320
 31
0.0
  0
LINE
  5
1f3
100
AcDbEntity
  8
outerShellIn
 62
7
100
AcDbLine
 10
78.076632
 20
57.186320
 30
0.0
 11
79.259047
 21
57.808500
 31
0.0
  0
LINE
  5
1f4
100
AcDbEntity
  8
outerShellIn
 62
7
100
AcDbLine
 10
79.259047
 20
57.808500
 30
0.0
 11
80.433163
 21
58.399710
 31
0.0
  0
LINE
  5
1f5
100
AcDbEntity
  8
outerShellIn
 62
7
100
AcDbLine
 10
80.433163
 20
58.399710
 30
0.0
 11
81.608268
 21
58.956540
 31
0.0
  0
LINE
  5
1f6
100
AcDbEntity
  8
outerShellIn
 62
7
100
AcDbLine
 10
81.608268
 20
58.956540
 30
0.0
 11
82.793651
 21
59.475580
 31
0.0
  0
LINE
  5
1f7
100
AcDbEntity
  8
outerShellIn
 62
7
100
AcDbLine
 10
82.793651
 20
59.475580
 30
0.0
 11
83.998598
 21
59.953430
 31
0.0
  0
LINE
  5
1f8
100
AcDbEntity
  8
outerShellIn
 62
7
100
AcDbLine
 10
83.998598
 20
59.953430
 30
0.0
 11
85.232397
 21
60.386690
 31
0.0
  0
LINE
  5
1f9
100
AcDbEntity
  8
outerShellIn
 62
7
100
AcDbLine
 10
85.232397
 20
60.386690
 30
0.0
 11
86.504336
 21
60.771940
 31
0.0
  0
LINE
  5
1fa
100
AcDbEntity
  8
outerShellIn
 62
7
100
AcDbLine
 10
86.504336
 20
60.771940
 30
0.0
 11
87.823704
 21
61.105790
 31
0.0
  0
LINE
  5
1fb
100
AcDbEntity
  8
outerShellIn
 62
7
100
AcDbLine
 10
87.823704
 20
61.105790
 30
0.0
 11
89.199787
 21
61.384830
 31
0.0
  0
LINE
  5
1fc
100
AcDbEntity
  8
outerShellIn
 62
7
100
AcDbLine
 10
89.199787
 20
61.384830
 30
0.0
 11
90.641874
 21
61.605650
 31
0.0
  0
LINE
  5
1fd
100
AcDbEntity
  8
outerShellIn
 62
7
100
AcDbLine
 10
90.641874
 20
61.605650
 30
0.0
 11
92.159251
 21
61.764850
 31
0.0
  0
LINE
  5
1fe
100
AcDbEntity
  8
outerShellIn
 62
7
100
AcDbLine
 10
92.159251
 20
61.764850
 30
0.0
 11
93.761208
 21
61.859050
 31
0.0
  0
LINE
  5
1ff
100
AcDbEntity
  8
outerShellIn
 62
7
100
AcDbLine
 10
93.761208
 20
61.859050
 30
0.0
 11
95.457031
 21
61.884750
 31
0.0
  0
LINE
  5
200
100
AcDbEntity
  8
outerShellIn
 62
7
100
AcDbLine
 10
95.457031
 20
61.884750
 30
0.0
 11
98.444840
 21
61.774960
 31
0.0
  0
LINE
  5
201
100
AcDbEntity
  8
outerShellIn
 62
7
100
AcDbLine
 10
98.444840
 20
61.774960
 30
0.0
 11
101.458610
 21
61.485780
 31
0.0
  0
LINE
  5
202
100
AcDbEntity
  8
outerShellIn
 62
7
100
AcDbLine
 10
101.458610
 20
61.485780
 30
0.0
 11
104.498490
 21
61.028390
 31
0.0
  0
LINE
  5
203
100
AcDbEntity
  8
outerShellIn
 62
7
100
AcDbLine
 10
104.498490
 20
61.028390
 30
0.0
 11
107.564630
 21
60.413960
 31
0.0
  0
LINE
  5
204
100
AcDbEntity
  8
outerShellIn
 62
7
100
AcDbLine
 10
107.564630
 20
60.413960
 30
0.0
 11
110.657170
 21
59.653680
 31
0.0
  0
LINE
  5
205
100
AcDbEntity
  8
outerShellIn
 62
7
100
AcDbLine
 10
110.657170
 20
59.653680
 30
0.0
 11
113.776280
 21
58.758730
 31
0.0
  0
LINE
  5
206
100
AcDbEntity
  8
outerShellIn
 62
7
100
AcDbLine
 10
113.776280
 20
58.758730
 30
0.0
 11
116.922090
 21
57.740280
 31
0.0
  0
LINE
  5
207
100
AcDbEntity
  8
outerShellIn
 62
7
100
AcDbLine
 10
116.922090
 20
57.740280
 30
0.0
 11
120.094760
 21
56.609510
 31
0.0
  0
LINE
  5
208
100
AcDbEntity
  8
outerShellIn
 62
7
100
AcDbLine
 10
120.094760
 20
56.609510
 30
0.0
 11
123.294440
 21
55.377600
 31
0.0
  0
LINE
  5
209
100
AcDbEntity
  8
outerShellIn
 62
7
100
AcDbLine
 10
123.294440
 20
55.377600
 30
0.0
 11
126.521270
 21
54.055730
 31
0.0
  0
LINE
  5
20a
100
AcDbEntity
  8
outerShellIn
 62
7
100
AcDbLine
 10
126.521270
 20
54.055730
 30
0.0
 11
129.775410
 21
52.655070
 31
0.0
  0
LINE
  5
20b
100
AcDbEntity
  8
outerShellIn
 62
7
100
AcDbLine
 10
129.775410
 20
52.655070
 30
0.0
 11
133.057010
 21
51.186820
 31
0.0
  0
LINE
  5
20c
100
AcDbEntity
  8
outerShellIn
 62
7
100
AcDbLine
 10
133.057010
 20
51.186820
 30
0.0
 11
136.366210
 21
49.662130
 31
0.0
  0
LINE
  5
20d
100
AcDbEntity
  8
outerShellIn
 62
7
100
AcDbLine
 10
136.366210
 20
49.662130
 30
0.0
 11
139.703170
 21
48.092200
 31
0.0
  0
LINE
  5
20e
100
AcDbEntity
  8
outerShellIn
 62
7
100
AcDbLine
 10
139.703170
 20
48.092200
 30
0.0
 11
143.068030
 21
46.488200
 31
0.0
  0
LINE
  5
20f
100
AcDbEntity
  8
outerShellIn
 62
7
100
AcDbLine
 10
143.068030
 20
46.488200
 30
0.0
 11
146.460940
 21
44.861310
 31
0.0
  0
LINE
  5
210
100
AcDbEntity
  8
outerShellIn
 62
7
100
AcDbLine
 10
146.460940
 20
44.861310
 30
0.0
 11
149.882790
 21
43.224050
 31
0.0
  0
LINE
  5
211
100
AcDbEntity
  8
outerShellIn
 62
7
100
AcDbLine
 10
149.882790
 20
43.224050
 30
0.0
 11
153.335130
 21
41.590830
 31
0.0
  0
LINE
  5
212
100
AcDbEntity
  8
outerShellIn
 62
7
100
AcDbLine
 10
153.335130
 20
41.590830
 30
0.0
 11
156.819070
 21
39.975680
 31
0.0
  0
LINE
  5
213
100
AcDbEntity
  8
outerShellIn
 62
7
100
AcDbLine
 10
156.819070
 20
39.975680
 30
0.0
 11
160.335750
 21
38.392610
 31
0.0
  0
LINE
  5
214
100
AcDbEntity
  8
outerShellIn
 62
7
100
AcDbLine
 10
160.335750
 20
38.392610
 30
0.0
 11
163.886290
 21
36.855630
 31
0.0
  0
LINE
  5
215
100
AcDbEntity
  8
outerShellIn
 62
7
100
AcDbLine
 10
163.886290
 20
36.855630
 30
0.0
 11
167.471830
 21
35.378760
 31
0.0
  0
LINE
  5
216
100
AcDbEntity
  8
outerShellIn
 62
7
100
AcDbLine
 10
167.471830
 20
35.378760
 30
0.0
 11
171.093490
 21
33.976020
 31
0.0
  0
LINE
  5
217
100
AcDbEntity
  8
outerShellIn
 62
7
100
AcDbLine
 10
171.093490
 20
33.976020
 30
0.0
 11
174.752390
 21
32.661430
 31
0.0
  0
LINE
  5
218
100
AcDbEntity
  8
outerShellIn
 62
7
100
AcDbLine
 10
174.752390
 20
32.661430
 30
0.0
 11
178.449680
 21
31.449000
 31
0.0
  0
LINE
  5
219
100
AcDbEntity
  8
outerShellIn
 62
7
100
AcDbLine
 10
178.449680
 20
31.449000
 30
0.0
 11
182.186470
 21
30.352750
 31
0.0
  0
LINE
  5
21a
100
AcDbEntity
  8
outerShellIn
 62
7
100
AcDbLine
 10
182.186470
 20
30.352750
 30
0.0
 11
185.963890
 21
29.386690
 31
0.0
  0
LINE
  5
21b
100
AcDbEntity
  8
outerShellIn
 62
7
100
AcDbLine
 10
185.963890
 20
29.386690
 30
0.0
 11
189.783070
 21
28.564860
 31
0.0
  0
LINE
  5
21c
100
AcDbEntity
  8
outerShellIn
 62
7
100
AcDbLine
 10
189.783070
 20
28.564860
 30
0.0
 11
193.645150
 21
27.901250
 31
0.0
  0
LINE
  5
21d
100
AcDbEntity
  8
outerShellIn
 62
7
100
AcDbLine
 10
193.645150
 20
27.901250
 30
0.0
 11
197.551240
 21
27.409890
 31
0.0
  0
LINE
  5
21e
100
AcDbEntity
  8
outerShellIn
 62
7
100
AcDbLine
 10
197.551240
 20
27.409890
 30
0.0
 11
201.502480
 21
27.104790
 31
0.0
  0
LINE
  5
21f
100
AcDbEntity
  8
outerShellIn
 62
7
100
AcDbLine
 10
201.502480
 20
27.104790
 30
0.0
 11
205.500000
 21
27.000000
 31
0.0
  0
LINE
  5
220
100
AcDbEntity
  8
outerShellIn
 62
7
100
AcDbLine
 10
205.500000
 20
27.000000
 30
0.0
 11
207.574600
 21
27.002000
 31
0.0
  0
LINE
  5
221
100
AcDbEntity
  8
outerShellIn
 62
7
100
AcDbLine
 10
207.574600
 20
27.002000
 30
0.0
 11
210.029110
 21
27.024100
 31
0.0
  0
LINE
  5
222
100
AcDbEntity
  8
outerShellIn
 62
7
100
AcDbLine
 10
210.029110
 20
27.024100
 30
0.0
 11
212.834630
 21
27.088700
 31
0.0
  0
LINE
  5
223
100
AcDbEntity
  8
outerShellIn
 62
7
100
AcDbLine
 10
212.834630
 20
27.088700
 30
0.0
 11
215.962230
 21
27.218360
 31
0.0
  0
LINE
  5
224
100
AcDbEntity
  8
outerShellIn
 62
7
100
AcDbLine
 10
215.962230
 20
27.218360
 30
0.0
 11
219.382990
 21
27.435760
 31
0.0
  0
LINE
  5
225
100
AcDbEntity
  8
outerShellIn
 62
7
100
AcDbLine
 10
219.382990
 20
27.435760
 30
0.0
 11
223.068000
 21
27.763560
 31
0.0
  0
LINE
  5
226
100
AcDbEntity
  8
outerShellIn
 62
7
100
AcDbLine
 10
223.068000
 20
27.763560
 30
0.0
 11
226.988340
 21
28.224410
 31
0.0
  0
LINE
  5
227
100
AcDbEntity
  8
outerShellIn
 62
7
100
AcDbLine
 10
226.988340
 20
28.224410
 30
0.0
 11
231.115100
 21
28.840970
 31
0.0
  0
LINE
  5
228
100
AcDbEntity
  8
outerShellIn
 62
7
100
AcDbLine
 10
231.115100
 20
28.840970
 30
0.0
 11
235.419340
 21
29.635890
 31
0.0
  0
LINE
  5
229
100
AcDbEntity
  8
outerShellIn
 62
7
100
AcDbLine
 10
235.419340
 20
29.635890
 30
0.0
 11
239.872170
 21
30.631830
 31
0.0
  0
LINE
  5
22a
100
AcDbEntity
  8
outerShellIn
 62
7
100
AcDbLine
 10
239.872170
 20
30.631830
 30
0.0
 11
244.444650
 21
31.851430
 31
0.0
  0
LINE
  5
22b
100
AcDbEntity
  8
outerShellIn
 62
7
100
AcDbLine
 10
244.444650
 20
31.851430
 30
0.0
 11
249.107870
 21
33.317350
 31
0.0
  0
LINE
  5
22c
100
AcDbEntity
  8
outerShellIn
 62
7
100
AcDbLine
 10
249.107870
 20
33.317350
 30
0.0
 11
253.832920
 21
35.052250
 31
0.0
  0
LINE
  5
22d
100
AcDbEntity
  8
outerShellIn
 62
7
100
AcDbLine
 10
253.832920
 20
35.052250
 30
0.0
 11
258.590880
 21
37.078780
 31
0.0
  0
LINE
  5
22e
100
AcDbEntity
  8
outerShellIn
 62
7
100
AcDbLine
 10
258.590880
 20
37.078780
 30
0.0
 11
263.352820
 21
39.419590
 31
0.0
  0
LINE
  5
22f
100
AcDbEntity
  8
outerShellIn
 62
7
100
AcDbLine
 10
263.352820
 20
39.419590
 30
0.0
 11
268.089840
 21
42.097330
 31
0.0
  0
LINE
  5
230
100
AcDbEntity
  8
outerShellIn
 62
7
100
AcDbLine
 10
268.089840
 20
42.097330
 30
0.0
 11
272.766250
 21
45.138380
 31
0.0
  0
LINE
  5
231
100
AcDbEntity
  8
outerShellIn
 62
7
100
AcDbLine
 10
272.766250
 20
45.138380
 30
0.0
 11
277.346710
 21
48.565750
 31
0.0
  0
LINE
  5
232
100
AcDbEntity
  8
outerShellIn
 62
7
100
AcDbLine
 10
277.346710
 20
48.565750
 30
0.0
 11
281.802830
 21
52.397120
 31
0.0
  0
LINE
  5
233
100
AcDbEntity
  8
outerShellIn
 62
7
100
AcDbLine
 10
281.802830
 20
52.397120
 30
0.0
 11
286.106230
 21
56.650120
 31
0.0
  0
LINE
  5
234
100
AcDbEntity
  8
outerShellIn
 62
7
100
AcDbLine
 10
286.106230
 20
56.650120
 30
0.0
 11
290.228520
 21
61.342410
 31
0.0
  0
LINE
  5
235
100
AcDbEntity
  8
outerShellIn
 62
7
100
AcDbLine
 10
290.228520
 20
61.342410
 30
0.0
 11
294.141290
 21
66.491650
 31
0.0
  0
LINE
  5
236
100
AcDbEntity
  8
outerShellIn
 62
7
100
AcDbLine
 10
294.141290
 20
66.491650
 30
0.0
 11
297.816160
 21
72.115490
 31
0.0
  0
LINE
  5
237
100
AcDbEntity
  8
outerShellIn
 62
7
100
AcDbLine
 10
297.816160
 20
72.115490
 30
0.0
 11
301.224750
 21
78.231570
 31
0.0
  0
LINE
  5
238
100
AcDbEntity
  8
outerShellIn
 62
7
100
AcDbLine
 10
301.224750
 20
78.231570
 30
0.0
 11
304.338650
 21
84.857560
 31
0.0
  0
LINE
  5
239
100
AcDbEntity
  8
outerShellIn
 62
7
100
AcDbLine
 10
304.338650
 20
84.857560
 30
0.0
 11
307.129480
 21
92.011110
 31
0.0
  0
LINE
  5
23a
100
AcDbEntity
  8
outerShellIn
 62
7
100
AcDbLine
 10
307.129480
 20
92.011110
 30
0.0
 11
309.568840
 21
99.709870
 31
0.0
  0
LINE
  5
23b
100
AcDbEntity
  8
outerShellIn
 62
7
100
AcDbLine
 10
309.568840
 20
99.709870
 30
0.0
 11
311.628350
 21
107.971490
 31
0.0
  0
LINE
  5
23c
100
AcDbEntity
  8
outerShellIn
 62
7
100
AcDbLine
 10
311.628350
 20
107.971490
 30
0.0
 11
313.279610
 21
116.813630
 31
0.0
  0
LINE
  5
23d
100
AcDbEntity
  8
outerShellIn
 62
7
100
AcDbLine
 10
313.279610
 20
116.813630
 30
0.0
 11
314.494230
 21
126.253940
 31
0.0
  0
LINE
  5
23e
100
AcDbEntity
  8
outerShellIn
 62
7
100
AcDbLine
 10
314.494230
 20
126.253940
 30
0.0
 11
315.243830
 21
136.310060
 31
0.0
  0
LINE
  5
23f
100
AcDbEntity
  8
outerShellIn
 62
7
100
AcDbLine
 10
315.243830
 20
136.310060
 30
0.0
 11
315.500000
 21
147.000000
 31
0.0
  0
LINE
  5
240
100
AcDbEntity
  8
outerShellIn
 62
7
100
AcDbLine
 10
315.500000
 20
147.000000
 30
0.0
 11
315.243830
 21
157.689610
 31
0.0
  0
LINE
  5
241
100
AcDbEntity
  8
outerShellIn
 62
7
100
AcDbLine
 10
315.243830
 20
157.689610
 30
0.0
 11
314.494230
 21
167.745740
 31
0.0
  0
LINE
  5
242
100
AcDbEntity
  8
outerShellIn
 62
7
100
AcDbLine
 10
314.494230
 20
167.745740
 30
0.0
 11
313.279610
 21
177.186040
 31
0.0
  0
LINE
  5
243
100
AcDbEntity
  8
outerShellIn
 62
7
100
AcDbLine
 10
313.279610
 20
177.186040
 30
0.0
 11
311.628350
 21
186.028180
 31
0.0
  0
LINE
  5
244
100
AcDbEntity
  8
outerShellIn
 62
7
100
AcDbLine
 10
311.628350
 20
186.028180
 30
0.0
 11
309.568840
 21
194.289800
 31
0.0
  0
LINE
  5
245
100
AcDbEntity
  8
outerShellIn
 62
7
100
AcDbLine
 10
309.568840
 20
194.289800
 30
0.0
 11
307.129480
 21
201.988562
 31
0.0
  0
LINE
  5
246
100
AcDbEntity
  8
outerShellIn
 62
7
100
AcDbLine
 10
307.129480
 20
201.988562
 30
0.0
 11
304.338650
 21
209.142110
 31
0.0
  0
LINE
  5
247
100
AcDbEntity
  8
outerShellIn
 62
7
100
AcDbLine
 10
304.338650
 20
209.142110
 30
0.0
 11
301.224750
 21
215.768101
 31
0.0
  0
LINE
  5
248
100
AcDbEntity
  8
outerShellIn
 62
7
100
AcDbLine
 10
301.224750
 20
215.768101
 30
0.0
 11
297.816170
 21
221.884188
 31
0.0
  0
LINE
  5
249
100
AcDbEntity
  8
outerShellIn
 62
7
100
AcDbLine
 10
297.816170
 20
221.884188
 30
0.0
 11
294.141290
 21
227.508025
 31
0.0
  0
LINE
  5
24a
100
AcDbEntity
  8
outerShellIn
 62
7
100
AcDbLine
 10
294.141290
 20
227.508025
 30
0.0
 11
290.228520
 21
232.657263
 31
0.0
  0
LINE
  5
24b
100
AcDbEntity
  8
outerShellIn
 62
7
100
AcDbLine
 10
290.228520
 20
232.657263
 30
0.0
 11
286.106230
 21
237.349556
 31
0.0
  0
LINE
  5
24c
100
AcDbEntity
  8
outerShellIn
 62
7
100
AcDbLine
 10
286.106230
 20
237.349556
 30
0.0
 11
281.802830
 21
241.602558
 31
0.0
  0
LINE
  5
24d
100
AcDbEntity
  8
outerShellIn
 62
7
100
AcDbLine
 10
281.802830
 20
241.602558
 30
0.0
 11
277.346710
 21
245.433921
 31
0.0
  0
LINE
  5
24e
100
AcDbEntity
  8
outerShellIn
 62
7
100
AcDbLine
 10
277.346710
 20
245.433921
 30
0.0
 11
272.766250
 21
248.861299
 31
0.0
  0
LINE
  5
24f
100
AcDbEntity
  8
outerShellIn
 62
7
100
AcDbLine
 10
272.766250
 20
248.861299
 30
0.0
 11
268.089840
 21
251.902344
 31
0.0
  0
LINE
  5
250
100
AcDbEntity
  8
outerShellIn
 62
7
100
AcDbLine
 10
268.089840
 20
251.902344
 30
0.0
 11
263.352820
 21
254.580087
 31
0.0
  0
LINE
  5
251
100
AcDbEntity
  8
outerShellIn
 62
7
100
AcDbLine
 10
263.352820
 20
254.580087
 30
0.0
 11
258.590880
 21
256.920895
 31
0.0
  0
LINE
  5
252
100
AcDbEntity
  8
outerShellIn
 62
7
100
AcDbLine
 10
258.590880
 20
256.920895
 30
0.0
 11
253.832920
 21
258.947421
 31
0.0
  0
LINE
  5
253
100
AcDbEntity
  8
outerShellIn
 62
7
100
AcDbLine
 10
253.832920
 20
258.947421
 30
0.0
 11
249.107870
 21
260.682318
 31
0.0
  0
LINE
  5
254
100
AcDbEntity
  8
outerShellIn
 62
7
100
AcDbLine
 10
249.107870
 20
260.682318
 30
0.0
 11
244.444650
 21
262.148241
 31
0.0
  0
LINE
  5
255
100
AcDbEntity
  8
outerShellIn
 62
7
100
AcDbLine
 10
244.444650
 20
262.148241
 30
0.0
 11
239.872160
 21
263.367842
 31
0.0
  0
LINE
  5
256
100
AcDbEntity
  8
outerShellIn
 62
7
100
AcDbLine
 10
239.872160
 20
263.367842
 30
0.0
 11
235.419340
 21
264.363776
 31
0.0
  0
LINE
  5
257
100
AcDbEntity
  8
outerShellIn
 62
7
100
AcDbLine
 10
235.419340
 20
264.363776
 30
0.0
 11
231.115090
 21
265.158697
 31
0.0
  0
LINE
  5
258
100
AcDbEntity
  8
outerShellIn
 62
7
100
AcDbLine
 10
231.115090
 20
265.158697
 30
0.0
 11
226.988340
 21
265.775257
 31
0.0
  0
LINE
  5
259
100
AcDbEntity
  8
outerShellIn
 62
7
100
AcDbLine
 10
226.988340
 20
265.775257
 30
0.0
 11
223.068000
 21
266.236111
 31
0.0
  0
LINE
  5
25a
100
AcDbEntity
  8
outerShellIn
 62
7
100
AcDbLine
 10
223.068000
 20
266.236111
 30
0.0
 11
219.382990
 21
266.563911
 31
0.0
  0
LINE
  5
25b
100
AcDbEntity
  8
outerShellIn
 62
7
100
AcDbLine
 10
219.382990
 20
266.563911
 30
0.0
 11
215.962230
 21
266.781313
 31
0.0
  0
LINE
  5
25c
100
AcDbEntity
  8
outerShellIn
 62
7
100
AcDbLine
 10
215.962230
 20
266.781313
 30
0.0
 11
212.834630
 21
266.910969
 31
0.0
  0
LINE
  5
25d
100
AcDbEntity
  8
outerShellIn
 62
7
100
AcDbLine
 10
212.834630
 20
266.910969
 30
0.0
 11
210.029110
 21
266.975529
 31
0.0
  0
LINE
  5
25e
100
AcDbEntity
  8
outerShellIn
 62
7
100
AcDbLine
 10
210.029110
 20
266.975529
 30
0.0
 11
207.574600
 21
266.997659
 31
0.0
  0
LINE
  5
25f
100
AcDbEntity
  8
outerShellIn
 62
7
100
AcDbLine
 10
207.574600
 20
266.997659
 30
0.0
 11
205.500000
 21
267.000000
 31
0.0
  0
ENDSEC
  0
SECTION
  2
OBJECTS
  0
DICTIONARY
  5
C
330
0
100
AcDbDictionary
  3
ACAD_GROUP
350
D
  3
ACAD_MLINESTYLE
350
17
  0
DICTIONARY
  5
D
330
C
100
AcDbDictionary
  0
DICTIONARY
  5
1A
330
C
100
AcDbDictionary
  0
DICTIONARY
  5
17
330
C
100
AcDbDictionary
  3
STANDARD
350
18
  0
DICTIONARY
  5
19
330
C
100
AcDbDictionary
  0
ENDSEC
  0
EOF
