  0
SECTION
  2
HEADER
  9
$ACADVER
  1
AC1014
  9
$HANDSEED
  5
FFFF
  9
$MEASUREMENT
 70
     1
  0
ENDSEC
  0
SECTION
  2
TABLES
  0
TABLE
  2
VPORT
  5
8
330
0
100
AcDbSymbolTable
 70
     4
  0
VPORT
  5
2E
330
8
100
AcDbSymbolTableRecord
100
AcDbViewportTableRecord
  2
*ACTIVE
 70
     0
 10
0.0
 20
0.0
 11
1.0
 21
1.0
 12
210.0
 22
148.5
 13
0.0
 23
0.0
 14
10.0
 24
10.0
 15
10.0
 25
10.0
 16
0.0
 26
0.0
 36
1.0
 17
0.0
 27
0.0
 37
0.0
 40
341.0
 41
1.24
 42
50.0
 43
0.0
 44
0.0
 50
0.0
 51
0.0
 71
     0
 72
   100
 73
     1
 74
     3
 75
     0
 76
     0
 77
     0
 78
     0
  0
ENDTAB
  0
TABLE
  2
LTYPE
  5
5
330
0
100
AcDbSymbolTable
 70
     1
  0
LTYPE
  5
14
330
5
100
AcDbSymbolTableRecord
100
AcDbLinetypeTableRecord
  2
BYBLOCK
 70
     0
  3

 72
    65
 73
     0
 40
0.0
  0
LTYPE
  5
15
330
5
100
AcDbSymbolTableRecord
100
AcDbLinetypeTableRecord
  2
BYLAYER
 70
     0
  3

 72
    65
 73
     0
 40
0.0
  0
LTYPE
  5
16
330
5
100
AcDbSymbolTableRecord
100
AcDbLinetypeTableRecord
  2
CONTINUOUS
 70
     0
  3
Solid line
 72
    65
 73
     0
 40
0.0
  0
ENDTAB
  0
TABLE
  2
LAYER
  5
2
100
AcDbSymbolTable
 70
7
  0
LAYER
  5
50
100
AcDbSymbolTableRecord
100
AcDbLayerTableRecord
  2
0
 70
0
  6
CONTINUOUS
  0
LAYER
  5
51
100
AcDbSymbolTableRecord
100
AcDbLayerTableRecord
  2
woodIn
 70
0
  6
CONTINUOUS
  0
LAYER
  5
52
100
AcDbSymbolTableRecord
100
AcDbLayerTableRecord
  2
woodOut
 70
0
  6
CONTINUOUS
  0
LAYER
  5
53
100
AcDbSymbolTableRecord
100
AcDbLayerTableRecord
  2
outerShellIn
 70
0
  6
CONTINUOUS
  0
LAYER
  5
54
100
AcDbSymbolTableRecord
100
AcDbLayerTableRecord
  2
outerShellOut
 70
0
  6
CONTINUOUS
  0
LAYER
  5
55
100
AcDbSymbolTableRecord
100
AcDbLayerTableRecord
  2
innerShellOut
 70
0
  6
CONTINUOUS
  0
LAYER
  5
56
100
AcDbSymbolTableRecord
100
AcDbLayerTableRecord
  2
innerShellIn
 70
0
  6
CONTINUOUS
  0
ENDTAB
  0
TABLE
  2
STYLE
  5
3
330
0
100
AcDbSymbolTable
 70
     1
  0
STYLE
  5
11
330
3
100
AcDbSymbolTableRecord
100
AcDbTextStyleTableRecord
  2
STANDARD
 70
     0
 40
0.0
 41
1.0
 50
0.0
 71
     0
 42
2.5
  3
txt
  4

  0
ENDTAB
  0
TABLE
  2
VIEW
  5
6
330
0
100
AcDbSymbolTable
 70
     0
  0
ENDTAB
  0
TABLE
  2
UCS
  5
7
330
0
100
AcDbSymbolTable
 70
     0
  0
ENDTAB
  0
TABLE
  2
APPID
  5
9
330
0
100
AcDbSymbolTable
 70
     2
  0
APPID
  5
12
330
9
100
AcDbSymbolTableRecord
100
AcDbRegAppTableRecord
  2
ACAD
 70
     0
  0
ENDTAB
  0
TABLE
  2
DIMSTYLE
  5
A
330
0
100
AcDbSymbolTable
 70
     1
  0
DIMSTYLE
105
27
330
A
100
AcDbSymbolTableRecord
100
AcDbDimStyleTableRecord
  2
ISO-25
 70
     0
  3

  4

  5

  6

  7

 40
1.0
 41
2.5
 42
0.625
 43
3.75
 44
1.25
 45
0.0
 46
0.0
 47
0.0
 48
0.0
140
2.5
141
2.5
142
0.0
143
0.03937007874016
144
1.0
145
0.0
146
1.0
147
0.625
 71
     0
 72
     0
 73
     0
 74
     0
 75
     0
 76
     0
 77
     1
 78
     8
170
     0
171
     3
172
     1
173
     0
174
     0
175
     0
176
     0
177
     0
178
     0
270
     2
271
     2
272
     2
273
     2
274
     3
340
11
275
     0
280
     0
281
     0
282
     0
283
     0
284
     8
285
     0
286
     0
287
     3
288
     0
  0
ENDTAB
  0
TABLE
  2
BLOCK_RECORD
  5
1
330
0
100
AcDbSymbolTable
 70
     1
  0
BLOCK_RECORD
  5
1F
330
1
100
AcDbSymbolTableRecord
100
AcDbBlockTableRecord
  2
*MODEL_SPACE
  0
BLOCK_RECORD
  5
1B
330
1
100
AcDbSymbolTableRecord
100
AcDbBlockTableRecord
  2
*PAPER_SPACE
  0
ENDTAB
  0
ENDSEC
  0
SECTION
  2
BLOCKS
  0
BLOCK
  5
20
330
1F
100
AcDbEntity
  8
0
100
AcDbBlockBegin
  2
*MODEL_SPACE
 70
     0
 10
0.0
 20
0.0
 30
0.0
  3
*MODEL_SPACE
  1

  0
ENDBLK
  5
21
330
1F
100
AcDbEntity
  8
0
100
AcDbBlockEnd
  0
BLOCK
  5
1C
330
1B
100
AcDbEntity
 67
     1
  8
0
100
AcDbBlockBegin
  2
*PAPER_SPACE
  1

  0
ENDBLK
  5
1D
330
1B
100
AcDbEntity
 67
     1
  8
0
100
AcDbBlockEnd
  0
ENDSEC
  0
SECTION
  2
ENTITIES
  0
LINE
  5
100
100
AcDbEntity
  8
woodOut
 62
7
100
AcDbLine
 10
9.500000
 20
122.000000
 30
0.0
 11
9.500000
 21
119.812500
 31
0.0
  0
LINE
  5
101
100
AcDbEntity
  8
woodOut
 62
7
100
AcDbLine
 10
9.500000
 20
119.812500
 30
0.0
 11
9.500000
 21
117.625000
 31
0.0
  0
LINE
  5
102
100
AcDbEntity
  8
woodOut
 62
7
100
AcDbLine
 10
9.500000
 20
117.625000
 30
0.0
 11
9.500000
 21
115.437500
 31
0.0
  0
LINE
  5
103
100
AcDbEntity
  8
woodOut
 62
7
100
AcDbLine
 10
9.500000
 20
115.437500
 30
0.0
 11
9.500000
 21
113.250000
 31
0.0
  0
LINE
  5
104
100
AcDbEntity
  8
woodOut
 62
7
100
AcDbLine
 10
9.500000
 20
113.250000
 30
0.0
 11
9.500000
 21
111.062500
 31
0.0
  0
LINE
  5
105
100
AcDbEntity
  8
woodOut
 62
7
100
AcDbLine
 10
9.500000
 20
111.062500
 30
0.0
 11
9.500000
 21
108.875000
 31
0.0
  0
LINE
  5
106
100
AcDbEntity
  8
woodOut
 62
7
100
AcDbLine
 10
9.500000
 20
108.875000
 30
0.0
 11
9.500000
 21
106.687500
 31
0.0
  0
LINE
  5
107
100
AcDbEntity
  8
woodOut
 62
7
100
AcDbLine
 10
9.500000
 20
106.687500
 30
0.0
 11
9.500000
 21
104.500000
 31
0.0
  0
LINE
  5
108
100
AcDbEntity
  8
woodOut
 62
7
100
AcDbLine
 10
9.500000
 20
104.500000
 30
0.0
 11
9.500000
 21
102.312500
 31
0.0
  0
LINE
  5
109
100
AcDbEntity
  8
woodOut
 62
7
100
AcDbLine
 10
9.500000
 20
102.312500
 30
0.0
 11
9.500000
 21
100.125000
 31
0.0
  0
LINE
  5
10a
100
AcDbEntity
  8
woodOut
 62
7
100
AcDbLine
 10
9.500000
 20
100.125000
 30
0.0
 11
9.500000
 21
97.937500
 31
0.0
  0
LINE
  5
10b
100
AcDbEntity
  8
woodOut
 62
7
100
AcDbLine
 10
9.500000
 20
97.937500
 30
0.0
 11
9.500000
 21
95.750000
 31
0.0
  0
LINE
  5
10c
100
AcDbEntity
  8
woodOut
 62
7
100
AcDbLine
 10
9.500000
 20
95.750000
 30
0.0
 11
9.500000
 21
93.562500
 31
0.0
  0
LINE
  5
10d
100
AcDbEntity
  8
woodOut
 62
7
100
AcDbLine
 10
9.500000
 20
93.562500
 30
0.0
 11
9.500000
 21
91.375000
 31
0.0
  0
LINE
  5
10e
100
AcDbEntity
  8
woodOut
 62
7
100
AcDbLine
 10
9.500000
 20
91.375000
 30
0.0
 11
9.500000
 21
89.187500
 31
0.0
  0
LINE
  5
10f
100
AcDbEntity
  8
woodOut
 62
7
100
AcDbLine
 10
9.500000
 20
89.187500
 30
0.0
 11
9.500000
 21
87.000000
 31
0.0
  0
LINE
  5
110
100
AcDbEntity
  8
woodOut
 62
7
100
AcDbLine
 10
9.500000
 20
87.000000
 30
0.0
 11
9.679037
 21
83.217410
 31
0.0
  0
LINE
  5
111
100
AcDbEntity
  8
woodOut
 62
7
100
AcDbLine
 10
9.679037
 20
83.217410
 30
0.0
 11
10.205781
 21
79.567480
 31
0.0
  0
LINE
  5
112
100
AcDbEntity
  8
woodOut
 62
7
100
AcDbLine
 10
10.205781
 20
79.567480
 30
0.0
 11
11.064680
 21
76.065690
 31
0.0
  0
LINE
  5
113
100
AcDbEntity
  8
woodOut
 62
7
100
AcDbLine
 10
11.064680
 20
76.065690
 30
0.0
 11
12.240185
 21
72.727530
 31
0.0
  0
LINE
  5
114
100
AcDbEntity
  8
woodOut
 62
7
100
AcDbLine
 10
12.240185
 20
72.727530
 30
0.0
 11
13.716743
 21
69.568490
 31
0.0
  0
LINE
  5
115
100
AcDbEntity
  8
woodOut
 62
7
100
AcDbLine
 10
13.716743
 20
69.568490
 30
0.0
 11
15.478804
 21
66.604050
 31
0.0
  0
LINE
  5
116
100
AcDbEntity
  8
woodOut
 62
7
100
AcDbLine
 10
15.478804
 20
66.604050
 30
0.0
 11
17.510817
 21
63.849700
 31
0.0
  0
LINE
  5
117
100
AcDbEntity
  8
woodOut
 62
7
100
AcDbLine
 10
17.510817
 20
63.849700
 30
0.0
 11
19.797231
 21
61.320940
 31
0.0
  0
LINE
  5
118
100
AcDbEntity
  8
woodOut
 62
7
100
AcDbLine
 10
19.797231
 20
61.320940
 30
0.0
 11
22.322495
 21
59.033250
 31
0.0
  0
LINE
  5
119
100
AcDbEntity
  8
woodOut
 62
7
100
AcDbLine
 10
22.322495
 20
59.033250
 30
0.0
 11
25.071058
 21
57.002110
 31
0.0
  0
LINE
  5
11a
100
AcDbEntity
  8
woodOut
 62
7
100
AcDbLine
 10
25.071058
 20
57.002110
 30
0.0
 11
28.027369
 21
55.243020
 31
0.0
  0
LINE
  5
11b
100
AcDbEntity
  8
woodOut
 62
7
100
AcDbLine
 10
28.027369
 20
55.243020
 30
0.0
 11
31.175877
 21
53.771460
 31
0.0
  0
LINE
  5
11c
100
AcDbEntity
  8
woodOut
 62
7
100
AcDbLine
 10
31.175877
 20
53.771460
 30
0.0
 11
34.501031
 21
52.602920
 31
0.0
  0
LINE
  5
11d
100
AcDbEntity
  8
woodOut
 62
7
100
AcDbLine
 10
34.501031
 20
52.602920
 30
0.0
 11
37.987280
 21
51.752890
 31
0.0
  0
LINE
  5
11e
100
AcDbEntity
  8
woodOut
 62
7
100
AcDbLine
 10
37.987280
 20
51.752890
 30
0.0
 11
41.619073
 21
51.236860
 31
0.0
  0
LINE
  5
11f
100
AcDbEntity
  8
woodOut
 62
7
100
AcDbLine
 10
41.619073
 20
51.236860
 30
0.0
 11
45.380859
 21
51.070310
 31
0.0
  0
LINE
  5
120
100
AcDbEntity
  8
woodOut
 62
7
100
AcDbLine
 10
45.380859
 20
51.070310
 30
0.0
 11
47.712998
 21
51.122210
 31
0.0
  0
LINE
  5
121
100
AcDbEntity
  8
woodOut
 62
7
100
AcDbLine
 10
47.712998
 20
51.122210
 30
0.0
 11
49.929434
 21
51.257440
 31
0.0
  0
LINE
  5
122
100
AcDbEntity
  8
woodOut
 62
7
100
AcDbLine
 10
49.929434
 20
51.257440
 30
0.0
 11
52.036690
 21
51.470220
 31
0.0
  0
LINE
  5
123
100
AcDbEntity
  8
woodOut
 62
7
100
AcDbLine
 10
52.036690
 20
51.470220
 30
0.0
 11
54.041287
 21
51.754800
 31
0.0
  0
LINE
  5
124
100
AcDbEntity
  8
woodOut
 62
7
100
AcDbLine
 10
54.041287
 20
51.754800
 30
0.0
 11
55.949747
 21
52.105420
 31
0.0
  0
LINE
  5
125
100
AcDbEntity
  8
woodOut
 62
7
100
AcDbLine
 10
55.949747
 20
52.105420
 30
0.0
 11
57.768590
 21
52.516320
 31
0.0
  0
LINE
  5
126
100
AcDbEntity
  8
woodOut
 62
7
100
AcDbLine
 10
57.768590
 20
52.516320
 30
0.0
 11
59.504340
 21
52.981770
 31
0.0
  0
LINE
  5
127
100
AcDbEntity
  8
woodOut
 62
7
100
AcDbLine
 10
59.504340
 20
52.981770
 30
0.0
 11
61.163516
 21
53.496000
 31
0.0
  0
LINE
  5
128
100
AcDbEntity
  8
woodOut
 62
7
100
AcDbLine
 10
61.163516
 20
53.496000
 30
0.0
 11
62.752641
 21
54.053260
 31
0.0
  0
LINE
  5
129
100
AcDbEntity
  8
woodOut
 62
7
100
AcDbLine
 10
62.752641
 20
54.053260
 30
0.0
 11
64.278236
 21
54.647810
 31
0.0
  0
LINE
  5
12a
100
AcDbEntity
  8
woodOut
 62
7
100
AcDbLine
 10
64.278236
 20
54.647810
 30
0.0
 11
65.746823
 21
55.273870
 31
0.0
  0
LINE
  5
12b
100
AcDbEntity
  8
woodOut
 62
7
100
AcDbLine
 10
65.746823
 20
55.273870
 30
0.0
 11
67.164924
 21
55.925710
 31
0.0
  0
LINE
  5
12c
100
AcDbEntity
  8
woodOut
 62
7
100
AcDbLine
 10
67.164924
 20
55.925710
 30
0.0
 11
68.539060
 21
56.597570
 31
0.0
  0
LINE
  5
12d
100
AcDbEntity
  8
woodOut
 62
7
100
AcDbLine
 10
68.539060
 20
56.597570
 30
0.0
 11
69.875751
 21
57.283700
 31
0.0
  0
LINE
  5
12e
100
AcDbEntity
  8
woodOut
 62
7
100
AcDbLine
 10
69.875751
 20
57.283700
 30
0.0
 11
71.181521
 21
57.978350
 31
0.0
  0
LINE
  5
12f
100
AcDbEntity
  8
woodOut
 62
7
100
AcDbLine
 10
71.181521
 20
57.978350
 30
0.0
 11
72.462891
 21
58.675750
 31
0.0
  0
LINE
  5
130
100
AcDbEntity
  8
woodOut
 62
7
100
AcDbLine
 10
72.462891
 20
58.675750
 30
0.0
 11
73.726086
 21
59.369810
 31
0.0
  0
LINE
  5
131
100
AcDbEntity
  8
woodOut
 62
7
100
AcDbLine
 10
73.726086
 20
59.369810
 30
0.0
 11
74.977944
 21
60.054910
 31
0.0
  0
LINE
  5
132
100
AcDbEntity
  8
woodOut
 62
7
100
AcDbLine
 10
74.977944
 20
60.054910
 30
0.0
 11
76.225901
 21
60.725990
 31
0.0
  0
LINE
  5
133
100
AcDbEntity
  8
woodOut
 62
7
100
AcDbLine
 10
76.225901
 20
60.725990
 30
0.0
 11
77.477397
 21
61.378040
 31
0.0
  0
LINE
  5
134
100
AcDbEntity
  8
woodOut
 62
7
100
AcDbLine
 10
77.477397
 20
61.378040
 30
0.0
 11
78.739867
 21
62.006020
 31
0.0
  0
LINE
  5
135
100
AcDbEntity
  8
woodOut
 62
7
100
AcDbLine
 10
78.739867
 20
62.006020
 30
0.0
 11
80.020749
 21
62.604890
 31
0.0
  0
LINE
  5
136
100
AcDbEntity
  8
woodOut
 62
7
100
AcDbLine
 10
80.020749
 20
62.604890
 30
0.0
 11
81.327482
 21
63.169610
 31
0.0
  0
LINE
  5
137
100
AcDbEntity
  8
woodOut
 62
7
100
AcDbLine
 10
81.327482
 20
63.169610
 30
0.0
 11
82.667502
 21
63.695150
 31
0.0
  0
LINE
  5
138
100
AcDbEntity
  8
woodOut
 62
7
100
AcDbLine
 10
82.667502
 20
63.695150
 30
0.0
 11
84.048248
 21
64.176470
 31
0.0
  0
LINE
  5
139
100
AcDbEntity
  8
woodOut
 62
7
100
AcDbLine
 10
84.048248
 20
64.176470
 30
0.0
 11
85.477156
 21
64.608540
 31
0.0
  0
LINE
  5
13a
100
AcDbEntity
  8
woodOut
 62
7
100
AcDbLine
 10
85.477156
 20
64.608540
 30
0.0
 11
86.961663
 21
64.986330
 31
0.0
  0
LINE
  5
13b
100
AcDbEntity
  8
woodOut
 62
7
100
AcDbLine
 10
86.961663
 20
64.986330
 30
0.0
 11
88.509209
 21
65.304800
 31
0.0
  0
LINE
  5
13c
100
AcDbEntity
  8
woodOut
 62
7
100
AcDbLine
 10
88.509209
 20
65.304800
 30
0.0
 11
90.127229
 21
65.558910
 31
0.0
  0
LINE
  5
13d
100
AcDbEntity
  8
woodOut
 62
7
100
AcDbLine
 10
90.127229
 20
65.558910
 30
0.0
 11
91.823162
 21
65.743620
 31
0.0
  0
LINE
  5
13e
100
AcDbEntity
  8
woodOut
 62
7
100
AcDbLine
 10
91.823162
 20
65.743620
 30
0.0
 11
93.604445
 21
65.853910
 31
0.0
  0
LINE
  5
13f
100
AcDbEntity
  8
woodOut
 62
7
100
AcDbLine
 10
93.604445
 20
65.853910
 30
0.0
 11
95.478516
 21
65.884710
 31
0.0
  0
LINE
  5
140
100
AcDbEntity
  8
woodOut
 62
7
100
AcDbLine
 10
95.478516
 20
65.884710
 30
0.0
 11
98.702352
 21
65.769130
 31
0.0
  0
LINE
  5
141
100
AcDbEntity
  8
woodOut
 62
7
100
AcDbLine
 10
98.702352
 20
65.769130
 30
0.0
 11
101.932020
 21
65.466110
 31
0.0
  0
LINE
  5
142
100
AcDbEntity
  8
woodOut
 62
7
100
AcDbLine
 10
101.932020
 20
65.466110
 30
0.0
 11
105.168280
 21
64.988000
 31
0.0
  0
LINE
  5
143
100
AcDbEntity
  8
woodOut
 62
7
100
AcDbLine
 10
105.168280
 20
64.988000
 30
0.0
 11
108.411900
 21
64.347180
 31
0.0
  0
LINE
  5
144
100
AcDbEntity
  8
woodOut
 62
7
100
AcDbLine
 10
108.411900
 20
64.347180
 30
0.0
 11
111.663660
 21
63.556020
 31
0.0
  0
LINE
  5
145
100
AcDbEntity
  8
woodOut
 62
7
100
AcDbLine
 10
111.663660
 20
63.556020
 30
0.0
 11
114.924320
 21
62.626890
 31
0.0
  0
LINE
  5
146
100
AcDbEntity
  8
woodOut
 62
7
100
AcDbLine
 10
114.924320
 20
62.626890
 30
0.0
 11
118.194650
 21
61.572160
 31
0.0
  0
LINE
  5
147
100
AcDbEntity
  8
woodOut
 62
7
100
AcDbLine
 10
118.194650
 20
61.572160
 30
0.0
 11
121.475420
 21
60.404200
 31
0.0
  0
LINE
  5
148
100
AcDbEntity
  8
woodOut
 62
7
100
AcDbLine
 10
121.475420
 20
60.404200
 30
0.0
 11
124.767390
 21
59.135380
 31
0.0
  0
LINE
  5
149
100
AcDbEntity
  8
woodOut
 62
7
100
AcDbLine
 10
124.767390
 20
59.135380
 30
0.0
 11
128.071330
 21
57.778080
 31
0.0
  0
LINE
  5
14a
100
AcDbEntity
  8
woodOut
 62
7
100
AcDbLine
 10
128.071330
 20
57.778080
 30
0.0
 11
131.388020
 21
56.344650
 31
0.0
  0
LINE
  5
14b
100
AcDbEntity
  8
woodOut
 62
7
100
AcDbLine
 10
131.388020
 20
56.344650
 30
0.0
 11
134.718210
 21
54.847480
 31
0.0
  0
LINE
  5
14c
100
AcDbEntity
  8
woodOut
 62
7
100
AcDbLine
 10
134.718210
 20
54.847480
 30
0.0
 11
138.062690
 21
53.298920
 31
0.0
  0
LINE
  5
14d
100
AcDbEntity
  8
woodOut
 62
7
100
AcDbLine
 10
138.062690
 20
53.298920
 30
0.0
 11
141.422200
 21
51.711360
 31
0.0
  0
LINE
  5
14e
100
AcDbEntity
  8
woodOut
 62
7
100
AcDbLine
 10
141.422200
 20
51.711360
 30
0.0
 11
144.797540
 21
50.097160
 31
0.0
  0
LINE
  5
14f
100
AcDbEntity
  8
woodOut
 62
7
100
AcDbLine
 10
144.797540
 20
50.097160
 30
0.0
 11
148.189450
 21
48.468690
 31
0.0
  0
LINE
  5
150
100
AcDbEntity
  8
woodOut
 62
7
100
AcDbLine
 10
148.189450
 20
48.468690
 30
0.0
 11
151.598860
 21
46.838590
 31
0.0
  0
LINE
  5
151
100
AcDbEntity
  8
woodOut
 62
7
100
AcDbLine
 10
151.598860
 20
46.838590
 30
0.0
 11
155.026800
 21
45.219880
 31
0.0
  0
LINE
  5
152
100
AcDbEntity
  8
woodOut
 62
7
100
AcDbLine
 10
155.026800
 20
45.219880
 30
0.0
 11
158.474230
 21
43.625490
 31
0.0
  0
LINE
  5
153
100
AcDbEntity
  8
woodOut
 62
7
100
AcDbLine
 10
158.474230
 20
43.625490
 30
0.0
 11
161.942110
 21
42.068370
 31
0.0
  0
LINE
  5
154
100
AcDbEntity
  8
woodOut
 62
7
100
AcDbLine
 10
161.942110
 20
42.068370
 30
0.0
 11
165.431390
 21
40.561460
 31
0.0
  0
LINE
  5
155
100
AcDbEntity
  8
woodOut
 62
7
100
AcDbLine
 10
165.431390
 20
40.561460
 30
0.0
 11
168.943030
 21
39.117690
 31
0.0
  0
LINE
  5
156
100
AcDbEntity
  8
woodOut
 62
7
100
AcDbLine
 10
168.943030
 20
39.117690
 30
0.0
 11
172.478000
 21
37.750010
 31
0.0
  0
LINE
  5
157
100
AcDbEntity
  8
woodOut
 62
7
100
AcDbLine
 10
172.478000
 20
37.750010
 30
0.0
 11
176.037240
 21
36.471360
 31
0.0
  0
LINE
  5
158
100
AcDbEntity
  8
woodOut
 62
7
100
AcDbLine
 10
176.037240
 20
36.471360
 30
0.0
 11
179.621710
 21
35.294670
 31
0.0
  0
LINE
  5
159
100
AcDbEntity
  8
woodOut
 62
7
100
AcDbLine
 10
179.621710
 20
35.294670
 30
0.0
 11
183.232380
 21
34.232890
 31
0.0
  0
LINE
  5
15a
100
AcDbEntity
  8
woodOut
 62
7
100
AcDbLine
 10
183.232380
 20
34.232890
 30
0.0
 11
186.870190
 21
33.298960
 31
0.0
  0
LINE
  5
15b
100
AcDbEntity
  8
woodOut
 62
7
100
AcDbLine
 10
186.870190
 20
33.298960
 30
0.0
 11
190.536110
 21
32.505820
 31
0.0
  0
LINE
  5
15c
100
AcDbEntity
  8
woodOut
 62
7
100
AcDbLine
 10
190.536110
 20
32.505820
 30
0.0
 11
194.231090
 21
31.866410
 31
0.0
  0
LINE
  5
15d
100
AcDbEntity
  8
woodOut
 62
7
100
AcDbLine
 10
194.231090
 20
31.866410
 30
0.0
 11
197.956100
 21
31.393660
 31
0.0
  0
LINE
  5
15e
100
AcDbEntity
  8
woodOut
 62
7
100
AcDbLine
 10
197.956100
 20
31.393660
 30
0.0
 11
201.712080
 21
31.100530
 31
0.0
  0
LINE
  5
15f
100
AcDbEntity
  8
woodOut
 62
7
100
AcDbLine
 10
201.712080
 20
31.100530
 30
0.0
 11
205.500000
 21
31.000000
 31
0.0
  0
LINE
  5
160
100
AcDbEntity
  8
woodOut
 62
7
100
AcDbLine
 10
205.500000
 20
31.000000
 30
0.0
 11
207.563600
 21
31.003000
 31
0.0
  0
LINE
  5
161
100
AcDbEntity
  8
woodOut
 62
7
100
AcDbLine
 10
207.563600
 20
31.003000
 30
0.0
 11
209.985880
 21
31.027100
 31
0.0
  0
LINE
  5
162
100
AcDbEntity
  8
woodOut
 62
7
100
AcDbLine
 10
209.985880
 20
31.027100
 30
0.0
 11
212.739110
 21
31.093400
 31
0.0
  0
LINE
  5
163
100
AcDbEntity
  8
woodOut
 62
7
100
AcDbLine
 10
212.739110
 20
31.093400
 30
0.0
 11
215.795510
 21
31.223210
 31
0.0
  0
LINE
  5
164
100
AcDbEntity
  8
woodOut
 62
7
100
AcDbLine
 10
215.795510
 20
31.223210
 30
0.0
 11
219.127340
 21
31.437960
 31
0.0
  0
LINE
  5
165
100
AcDbEntity
  8
woodOut
 62
7
100
AcDbLine
 10
219.127340
 20
31.437960
 30
0.0
 11
222.706840
 21
31.759010
 31
0.0
  0
LINE
  5
166
100
AcDbEntity
  8
woodOut
 62
7
100
AcDbLine
 10
222.706840
 20
31.759010
 30
0.0
 11
226.506250
 21
32.207750
 31
0.0
  0
LINE
  5
167
100
AcDbEntity
  8
woodOut
 62
7
100
AcDbLine
 10
226.506250
 20
32.207750
 30
0.0
 11
230.497820
 21
32.805540
 31
0.0
  0
LINE
  5
168
100
AcDbEntity
  8
woodOut
 62
7
100
AcDbLine
 10
230.497820
 20
32.805540
 30
0.0
 11
234.653800
 21
33.573780
 31
0.0
  0
LINE
  5
169
100
AcDbEntity
  8
woodOut
 62
7
100
AcDbLine
 10
234.653800
 20
33.573780
 30
0.0
 11
238.946430
 21
34.533830
 31
0.0
  0
LINE
  5
16a
100
AcDbEntity
  8
woodOut
 62
7
100
AcDbLine
 10
238.946430
 20
34.533830
 30
0.0
 11
243.347960
 21
35.707070
 31
0.0
  0
LINE
  5
16b
100
AcDbEntity
  8
woodOut
 62
7
100
AcDbLine
 10
243.347960
 20
35.707070
 30
0.0
 11
247.830620
 21
37.114880
 31
0.0
  0
LINE
  5
16c
100
AcDbEntity
  8
woodOut
 62
7
100
AcDbLine
 10
247.830620
 20
37.114880
 30
0.0
 11
252.366670
 21
38.778630
 31
0.0
  0
LINE
  5
16d
100
AcDbEntity
  8
woodOut
 62
7
100
AcDbLine
 10
252.366670
 20
38.778630
 30
0.0
 11
256.928350
 21
40.719710
 31
0.0
  0
LINE
  5
16e
100
AcDbEntity
  8
woodOut
 62
7
100
AcDbLine
 10
256.928350
 20
40.719710
 30
0.0
 11
261.487910
 21
42.959480
 31
0.0
  0
LINE
  5
16f
100
AcDbEntity
  8
woodOut
 62
7
100
AcDbLine
 10
261.487910
 20
42.959480
 30
0.0
 11
266.017580
 21
45.519320
 31
0.0
  0
LINE
  5
170
100
AcDbEntity
  8
woodOut
 62
7
100
AcDbLine
 10
266.017580
 20
45.519320
 30
0.0
 11
270.488260
 21
48.421350
 31
0.0
  0
LINE
  5
171
100
AcDbEntity
  8
woodOut
 62
7
100
AcDbLine
 10
270.488260
 20
48.421350
 30
0.0
 11
274.870920
 21
51.687030
 31
0.0
  0
LINE
  5
172
100
AcDbEntity
  8
woodOut
 62
7
100
AcDbLine
 10
274.870920
 20
51.687030
 30
0.0
 11
279.137900
 21
55.336730
 31
0.0
  0
LINE
  5
173
100
AcDbEntity
  8
woodOut
 62
7
100
AcDbLine
 10
279.137900
 20
55.336730
 30
0.0
 11
283.261540
 21
59.390820
 31
0.0
  0
LINE
  5
174
100
AcDbEntity
  8
woodOut
 62
7
100
AcDbLine
 10
283.261540
 20
59.390820
 30
0.0
 11
287.214200
 21
63.869680
 31
0.0
  0
LINE
  5
175
100
AcDbEntity
  8
woodOut
 62
7
100
AcDbLine
 10
287.214200
 20
63.869680
 30
0.0
 11
290.968220
 21
68.793700
 31
0.0
  0
LINE
  5
176
100
AcDbEntity
  8
woodOut
 62
7
100
AcDbLine
 10
290.968220
 20
68.793700
 30
0.0
 11
294.495960
 21
74.183230
 31
0.0
  0
LINE
  5
177
100
AcDbEntity
  8
woodOut
 62
7
100
AcDbLine
 10
294.495960
 20
74.183230
 30
0.0
 11
297.769750
 21
80.058670
 31
0.0
  0
LINE
  5
178
100
AcDbEntity
  8
woodOut
 62
7
100
AcDbLine
 10
297.769750
 20
80.058670
 30
0.0
 11
300.761950
 21
86.440390
 31
0.0
  0
LINE
  5
179
100
AcDbEntity
  8
woodOut
 62
7
100
AcDbLine
 10
300.761950
 20
86.440390
 30
0.0
 11
303.444910
 21
93.348760
 31
0.0
  0
LINE
  5
17a
100
AcDbEntity
  8
woodOut
 62
7
100
AcDbLine
 10
303.444910
 20
93.348760
 30
0.0
 11
305.790970
 21
100.804160
 31
0.0
  0
LINE
  5
17b
100
AcDbEntity
  8
woodOut
 62
7
100
AcDbLine
 10
305.790970
 20
100.804160
 30
0.0
 11
307.772480
 21
108.826970
 31
0.0
  0
LINE
  5
17c
100
AcDbEntity
  8
woodOut
 62
7
100
AcDbLine
 10
307.772480
 20
108.826970
 30
0.0
 11
309.361790
 21
117.437560
 31
0.0
  0
LINE
  5
17d
100
AcDbEntity
  8
woodOut
 62
7
100
AcDbLine
 10
309.361790
 20
117.437560
 30
0.0
 11
310.531250
 21
126.656310
 31
0.0
  0
LINE
  5
17e
100
AcDbEntity
  8
woodOut
 62
7
100
AcDbLine
 10
310.531250
 20
126.656310
 30
0.0
 11
311.253200
 21
136.503590
 31
0.0
  0
LINE
  5
17f
100
AcDbEntity
  8
woodOut
 62
7
100
AcDbLine
 10
311.253200
 20
136.503590
 30
0.0
 11
311.500000
 21
147.000000
 31
0.0
  0
LINE
  5
180
100
AcDbEntity
  8
woodOut
 62
7
100
AcDbLine
 10
311.500000
 20
147.000000
 30
0.0
 11
311.253200
 21
157.496200
 31
0.0
  0
LINE
  5
181
100
AcDbEntity
  8
woodOut
 62
7
100
AcDbLine
 10
311.253200
 20
157.496200
 30
0.0
 11
310.531250
 21
167.343480
 31
0.0
  0
LINE
  5
182
100
AcDbEntity
  8
woodOut
 62
7
100
AcDbLine
 10
310.531250
 20
167.343480
 30
0.0
 11
309.361790
 21
176.562230
 31
0.0
  0
LINE
  5
183
100
AcDbEntity
  8
woodOut
 62
7
100
AcDbLine
 10
309.361790
 20
176.562230
 30
0.0
 11
307.772480
 21
185.172820
 31
0.0
  0
LINE
  5
184
100
AcDbEntity
  8
woodOut
 62
7
100
AcDbLine
 10
307.772480
 20
185.172820
 30
0.0
 11
305.790970
 21
193.195630
 31
0.0
  0
LINE
  5
185
100
AcDbEntity
  8
woodOut
 62
7
100
AcDbLine
 10
305.790970
 20
193.195630
 30
0.0
 11
303.444910
 21
200.651033
 31
0.0
  0
LINE
  5
186
100
AcDbEntity
  8
woodOut
 62
7
100
AcDbLine
 10
303.444910
 20
200.651033
 30
0.0
 11
300.761960
 21
207.559404
 31
0.0
  0
LINE
  5
187
100
AcDbEntity
  8
woodOut
 62
7
100
AcDbLine
 10
300.761960
 20
207.559404
 30
0.0
 11
297.769750
 21
213.941121
 31
0.0
  0
LINE
  5
188
100
AcDbEntity
  8
woodOut
 62
7
100
AcDbLine
 10
297.769750
 20
213.941121
 30
0.0
 11
294.495960
 21
219.816560
 31
0.0
  0
LINE
  5
189
100
AcDbEntity
  8
woodOut
 62
7
100
AcDbLine
 10
294.495960
 20
219.816560
 30
0.0
 11
290.968230
 21
225.206097
 31
0.0
  0
LINE
  5
18a
100
AcDbEntity
  8
woodOut
 62
7
100
AcDbLine
 10
290.968230
 20
225.206097
 30
0.0
 11
287.214200
 21
230.130110
 31
0.0
  0
LINE
  5
18b
100
AcDbEntity
  8
woodOut
 62
7
100
AcDbLine
 10
287.214200
 20
230.130110
 30
0.0
 11
283.261540
 21
234.608974
 31
0.0
  0
LINE
  5
18c
100
AcDbEntity
  8
woodOut
 62
7
100
AcDbLine
 10
283.261540
 20
234.608974
 30
0.0
 11
279.137900
 21
238.663066
 31
0.0
  0
LINE
  5
18d
100
AcDbEntity
  8
woodOut
 62
7
100
AcDbLine
 10
279.137900
 20
238.663066
 30
0.0
 11
274.870920
 21
242.312761
 31
0.0
  0
LINE
  5
18e
100
AcDbEntity
  8
woodOut
 62
7
100
AcDbLine
 10
274.870920
 20
242.312761
 30
0.0
 11
270.488270
 21
245.578437
 31
0.0
  0
LINE
  5
18f
100
AcDbEntity
  8
woodOut
 62
7
100
AcDbLine
 10
270.488270
 20
245.578437
 30
0.0
 11
266.017580
 21
248.480469
 31
0.0
  0
LINE
  5
190
100
AcDbEntity
  8
woodOut
 62
7
100
AcDbLine
 10
266.017580
 20
248.480469
 30
0.0
 11
261.487910
 21
251.040310
 31
0.0
  0
LINE
  5
191
100
AcDbEntity
  8
woodOut
 62
7
100
AcDbLine
 10
261.487910
 20
251.040310
 30
0.0
 11
256.928350
 21
253.280078
 31
0.0
  0
LINE
  5
192
100
AcDbEntity
  8
woodOut
 62
7
100
AcDbLine
 10
256.928350
 20
253.280078
 30
0.0
 11
252.366670
 21
255.221150
 31
0.0
  0
LINE
  5
193
100
AcDbEntity
  8
woodOut
 62
7
100
AcDbLine
 10
252.366670
 20
255.221150
 30
0.0
 11
247.830620
 21
256.884902
 31
0.0
  0
LINE
  5
194
100
AcDbEntity
  8
woodOut
 62
7
100
AcDbLine
 10
247.830620
 20
256.884902
 30
0.0
 11
243.347960
 21
258.292710
 31
0.0
  0
LINE
  5
195
100
AcDbEntity
  8
woodOut
 62
7
100
AcDbLine
 10
243.347960
 20
258.292710
 30
0.0
 11
238.946430
 21
259.465952
 31
0.0
  0
LINE
  5
196
100
AcDbEntity
  8
woodOut
 62
7
100
AcDbLine
 10
238.946430
 20
259.465952
 30
0.0
 11
234.653800
 21
260.426003
 31
0.0
  0
LINE
  5
197
100
AcDbEntity
  8
woodOut
 62
7
100
AcDbLine
 10
234.653800
 20
260.426003
 30
0.0
 11
230.497820
 21
261.194240
 31
0.0
  0
LINE
  5
198
100
AcDbEntity
  8
woodOut
 62
7
100
AcDbLine
 10
230.497820
 20
261.194240
 30
0.0
 11
226.506250
 21
261.792039
 31
0.0
  0
LINE
  5
199
100
AcDbEntity
  8
woodOut
 62
7
100
AcDbLine
 10
226.506250
 20
261.792039
 30
0.0
 11
222.706840
 21
262.240777
 31
0.0
  0
LINE
  5
19a
100
AcDbEntity
  8
woodOut
 62
7
100
AcDbLine
 10
222.706840
 20
262.240777
 30
0.0
 11
219.127340
 21
262.561830
 31
0.0
  0
LINE
  5
19b
100
AcDbEntity
  8
woodOut
 62
7
100
AcDbLine
 10
219.127340
 20
262.561830
 30
0.0
 11
215.795510
 21
262.776575
 31
0.0
  0
LINE
  5
19c
100
AcDbEntity
  8
woodOut
 62
7
100
AcDbLine
 10
215.795510
 20
262.776575
 30
0.0
 11
212.739110
 21
262.906388
 31
0.0
  0
LINE
  5
19d
100
AcDbEntity
  8
woodOut
 62
7
100
AcDbLine
 10
212.739110
 20
262.906388
 30
0.0
 11
209.985880
 21
262.972648
 31
0.0
  0
LINE
  5
19e
100
AcDbEntity
  8
woodOut
 62
7
100
AcDbLine
 10
209.985880
 20
262.972648
 30
0.0
 11
207.563600
 21
262.996728
 31
0.0
  0
LINE
  5
19f
100
AcDbEntity
  8
woodOut
 62
7
100
AcDbLine
 10
207.563600
 20
262.996728
 30
0.0
 11
205.500000
 21
263.000000
 31
0.0
  0
LINE
  5
1a0
100
AcDbEntity
  8
woodOut
 62
7
100
AcDbLine
 10
205.500000
 20
263.000000
 30
0.0
 11
201.711630
 21
262.898522
 31
0.0
  0
LINE
  5
1a1
100
AcDbEntity
  8
woodOut
 62
7
100
AcDbLine
 10
201.711630
 20
262.898522
 30
0.0
 11
197.955250
 21
262.602814
 31
0.0
  0
LINE
  5
1a2
100
AcDbEntity
  8
woodOut
 62
7
100
AcDbLine
 10
197.955250
 20
262.602814
 30
0.0
 11
194.229910
 21
262.125970
 31
0.0
  0
LINE
  5
1a3
100
AcDbEntity
  8
woodOut
 62
7
100
AcDbLine
 10
194.229910
 20
262.125970
 30
0.0
 11
190.534650
 21
261.481080
 31
0.0
  0
LINE
  5
1a4
100
AcDbEntity
  8
woodOut
 62
7
100
AcDbLine
 10
190.534650
 20
261.481080
 30
0.0
 11
186.868510
 21
260.681238
 31
0.0
  0
LINE
  5
1a5
100
AcDbEntity
  8
woodOut
 62
7
100
AcDbLine
 10
186.868510
 20
260.681238
 30
0.0
 11
183.230540
 21
259.739534
 31
0.0
  0
LINE
  5
1a6
100
AcDbEntity
  8
woodOut
 62
7
100
AcDbLine
 10
183.230540
 20
259.739534
 30
0.0
 11
179.619770
 21
258.669062
 31
0.0
  0
LINE
  5
1a7
100
AcDbEntity
  8
woodOut
 62
7
100
AcDbLine
 10
179.619770
 20
258.669062
 30
0.0
 11
176.035260
 21
257.482913
 31
0.0
  0
LINE
  5
1a8
100
AcDbEntity
  8
woodOut
 62
7
100
AcDbLine
 10
176.035260
 20
257.482913
 30
0.0
 11
172.476050
 21
256.194179
 31
0.0
  0
LINE
  5
1a9
100
AcDbEntity
  8
woodOut
 62
7
100
AcDbLine
 10
172.476050
 20
256.194179
 30
0.0
 11
168.941180
 21
254.815952
 31
0.0
  0
LINE
  5
1aa
100
AcDbEntity
  8
woodOut
 62
7
100
AcDbLine
 10
168.941180
 20
254.815952
 30
0.0
 11
165.429680
 21
253.361324
 31
0.0
  0
LINE
  5
1ab
100
AcDbEntity
  8
woodOut
 62
7
100
AcDbLine
 10
165.429680
 20
253.361324
 30
0.0
 11
161.940610
 21
251.843387
 31
0.0
  0
LINE
  5
1ac
100
AcDbEntity
  8
woodOut
 62
7
100
AcDbLine
 10
161.940610
 20
251.843387
 30
0.0
 11
158.473010
 21
250.275233
 31
0.0
  0
LINE
  5
1ad
100
AcDbEntity
  8
woodOut
 62
7
100
AcDbLine
 10
158.473010
 20
250.275233
 30
0.0
 11
155.025920
 21
248.669955
 31
0.0
  0
LINE
  5
1ae
100
AcDbEntity
  8
woodOut
 62
7
100
AcDbLine
 10
155.025920
 20
248.669955
 30
0.0
 11
151.598390
 21
247.040643
 31
0.0
  0
LINE
  5
1af
100
AcDbEntity
  8
woodOut
 62
7
100
AcDbLine
 10
151.598390
 20
247.040643
 30
0.0
 11
148.189450
 21
245.400391
 31
0.0
  0
LINE
  5
1b0
100
AcDbEntity
  8
woodOut
 62
7
100
AcDbLine
 10
148.189450
 20
245.400391
 30
0.0
 11
144.798080
 21
243.762377
 31
0.0
  0
LINE
  5
1b1
100
AcDbEntity
  8
woodOut
 62
7
100
AcDbLine
 10
144.798080
 20
243.762377
 30
0.0
 11
141.423370
 21
242.139389
 31
0.0
  0
LINE
  5
1b2
100
AcDbEntity
  8
woodOut
 62
7
100
AcDbLine
 10
141.423370
 20
242.139389
 30
0.0
 11
138.064560
 21
240.543935
 31
0.0
  0
LINE
  5
1b3
100
AcDbEntity
  8
woodOut
 62
7
100
AcDbLine
 10
138.064560
 20
240.543935
 30
0.0
 11
134.720880
 21
238.988525
 31
0.0
  0
LINE
  5
1b4
100
AcDbEntity
  8
woodOut
 62
7
100
AcDbLine
 10
134.720880
 20
238.988525
 30
0.0
 11
131.391590
 21
237.485665
 31
0.0
  0
LINE
  5
1b5
100
AcDbEntity
  8
woodOut
 62
7
100
AcDbLine
 10
131.391590
 20
237.485665
 30
0.0
 11
128.075900
 21
236.047866
 31
0.0
  0
LINE
  5
1b6
100
AcDbEntity
  8
woodOut
 62
7
100
AcDbLine
 10
128.075900
 20
236.047866
 30
0.0
 11
124.773060
 21
234.687634
 31
0.0
  0
LINE
  5
1b7
100
AcDbEntity
  8
woodOut
 62
7
100
AcDbLine
 10
124.773060
 20
234.687634
 30
0.0
 11
121.482310
 21
233.417480
 31
0.0
  0
LINE
  5
1b8
100
AcDbEntity
  8
woodOut
 62
7
100
AcDbLine
 10
121.482310
 20
233.417480
 30
0.0
 11
118.202890
 21
232.249910
 31
0.0
  0
LINE
  5
1b9
100
AcDbEntity
  8
woodOut
 62
7
100
AcDbLine
 10
118.202890
 20
232.249910
 30
0.0
 11
114.934030
 21
231.197433
 31
0.0
  0
LINE
  5
1ba
100
AcDbEntity
  8
woodOut
 62
7
100
AcDbLine
 10
114.934030
 20
231.197433
 30
0.0
 11
111.674970
 21
230.272558
 31
0.0
  0
LINE
  5
1bb
100
AcDbEntity
  8
woodOut
 62
7
100
AcDbLine
 10
111.674970
 20
230.272558
 30
0.0
 11
108.424950
 21
229.487793
 31
0.0
  0
LINE
  5
1bc
100
AcDbEntity
  8
woodOut
 62
7
100
AcDbLine
 10
108.424950
 20
229.487793
 30
0.0
 11
105.183200
 21
228.855646
 31
0.0
  0
LINE
  5
1bd
100
AcDbEntity
  8
woodOut
 62
7
100
AcDbLine
 10
105.183200
 20
228.855646
 30
0.0
 11
101.948970
 21
228.388626
 31
0.0
  0
LINE
  5
1be
100
AcDbEntity
  8
woodOut
 62
7
100
AcDbLine
 10
101.948970
 20
228.388626
 30
0.0
 11
98.721491
 21
228.099241
 31
0.0
  0
LINE
  5
1bf
100
AcDbEntity
  8
woodOut
 62
7
100
AcDbLine
 10
98.721491
 20
228.099241
 30
0.0
 11
95.500000
 21
228.000000
 31
0.0
  0
LINE
  5
1c0
100
AcDbEntity
  8
woodOut
 62
7
100
AcDbLine
 10
95.500000
 20
228.000000
 30
0.0
 11
93.714696
 21
228.041514
 31
0.0
  0
LINE
  5
1c1
100
AcDbEntity
  8
woodOut
 62
7
100
AcDbLine
 10
93.714696
 20
228.041514
 30
0.0
 11
92.010492
 21
228.162669
 31
0.0
  0
LINE
  5
1c2
100
AcDbEntity
  8
woodOut
 62
7
100
AcDbLine
 10
92.010492
 20
228.162669
 30
0.0
 11
90.380580
 21
228.358388
 31
0.0
  0
LINE
  5
1c3
100
AcDbEntity
  8
woodOut
 62
7
100
AcDbLine
 10
90.380580
 20
228.358388
 30
0.0
 11
88.818148
 21
228.623590
 31
0.0
  0
LINE
  5
1c4
100
AcDbEntity
  8
woodOut
 62
7
100
AcDbLine
 10
88.818148
 20
228.623590
 30
0.0
 11
87.316386
 21
228.953196
 31
0.0
  0
LINE
  5
1c5
100
AcDbEntity
  8
woodOut
 62
7
100
AcDbLine
 10
87.316386
 20
228.953196
 30
0.0
 11
85.868484
 21
229.342128
 31
0.0
  0
LINE
  5
1c6
100
AcDbEntity
  8
woodOut
 62
7
100
AcDbLine
 10
85.868484
 20
229.342128
 30
0.0
 11
84.467633
 21
229.785306
 31
0.0
  0
LINE
  5
1c7
100
AcDbEntity
  8
woodOut
 62
7
100
AcDbLine
 10
84.467633
 20
229.785306
 30
0.0
 11
83.107020
 21
230.277651
 31
0.0
  0
LINE
  5
1c8
100
AcDbEntity
  8
woodOut
 62
7
100
AcDbLine
 10
83.107020
 20
230.277651
 30
0.0
 11
81.779837
 21
230.814085
 31
0.0
  0
LINE
  5
1c9
100
AcDbEntity
  8
woodOut
 62
7
100
AcDbLine
 10
81.779837
 20
230.814085
 30
0.0
 11
80.479273
 21
231.389528
 31
0.0
  0
LINE
  5
1ca
100
AcDbEntity
  8
woodOut
 62
7
100
AcDbLine
 10
80.479273
 20
231.389528
 30
0.0
 11
79.198518
 21
231.998902
 31
0.0
  0
LINE
  5
1cb
100
AcDbEntity
  8
woodOut
 62
7
100
AcDbLine
 10
79.198518
 20
231.998902
 30
0.0
 11
77.930762
 21
232.637126
 31
0.0
  0
LINE
  5
1cc
100
AcDbEntity
  8
woodOut
 62
7
100
AcDbLine
 10
77.930762
 20
232.637126
 30
0.0
 11
76.669193
 21
233.299122
 31
0.0
  0
LINE
  5
1cd
100
AcDbEntity
  8
woodOut
 62
7
100
AcDbLine
 10
76.669193
 20
233.299122
 30
0.0
 11
75.407003
 21
233.979812
 31
0.0
  0
LINE
  5
1ce
100
AcDbEntity
  8
woodOut
 62
7
100
AcDbLine
 10
75.407003
 20
233.979812
 30
0.0
 11
74.137381
 21
234.674115
 31
0.0
  0
LINE
  5
1cf
100
AcDbEntity
  8
woodOut
 62
7
100
AcDbLine
 10
74.137381
 20
234.674115
 30
0.0
 11
72.853516
 21
235.376953
 31
0.0
  0
LINE
  5
1d0
100
AcDbEntity
  8
woodOut
 62
7
100
AcDbLine
 10
72.853516
 20
235.376953
 30
0.0
 11
71.549199
 21
236.082555
 31
0.0
  0
LINE
  5
1d1
100
AcDbEntity
  8
woodOut
 62
7
100
AcDbLine
 10
71.549199
 20
236.082555
 30
0.0
 11
70.218769
 21
236.784669
 31
0.0
  0
LINE
  5
1d2
100
AcDbEntity
  8
woodOut
 62
7
100
AcDbLine
 10
70.218769
 20
236.784669
 30
0.0
 11
68.856245
 21
237.477495
 31
0.0
  0
LINE
  5
1d3
100
AcDbEntity
  8
woodOut
 62
7
100
AcDbLine
 10
68.856245
 20
237.477495
 30
0.0
 11
67.455640
 21
238.155232
 31
0.0
  0
LINE
  5
1d4
100
AcDbEntity
  8
woodOut
 62
7
100
AcDbLine
 10
67.455640
 20
238.155232
 30
0.0
 11
66.010972
 21
238.812082
 31
0.0
  0
LINE
  5
1d5
100
AcDbEntity
  8
woodOut
 62
7
100
AcDbLine
 10
66.010972
 20
238.812082
 30
0.0
 11
64.516256
 21
239.442243
 31
0.0
  0
LINE
  5
1d6
100
AcDbEntity
  8
woodOut
 62
7
100
AcDbLine
 10
64.516256
 20
239.442243
 30
0.0
 11
62.965509
 21
240.039917
 31
0.0
  0
LINE
  5
1d7
100
AcDbEntity
  8
woodOut
 62
7
100
AcDbLine
 10
62.965509
 20
240.039917
 30
0.0
 11
61.352745
 21
240.599302
 31
0.0
  0
LINE
  5
1d8
100
AcDbEntity
  8
woodOut
 62
7
100
AcDbLine
 10
61.352745
 20
240.599302
 30
0.0
 11
59.671983
 21
241.114598
 31
0.0
  0
LINE
  5
1d9
100
AcDbEntity
  8
woodOut
 62
7
100
AcDbLine
 10
59.671983
 20
241.114598
 30
0.0
 11
57.917236
 21
241.580007
 31
0.0
  0
LINE
  5
1da
100
AcDbEntity
  8
woodOut
 62
7
100
AcDbLine
 10
57.917236
 20
241.580007
 30
0.0
 11
56.082523
 21
241.989727
 31
0.0
  0
LINE
  5
1db
100
AcDbEntity
  8
woodOut
 62
7
100
AcDbLine
 10
56.082523
 20
241.989727
 30
0.0
 11
54.161857
 21
242.337958
 31
0.0
  0
LINE
  5
1dc
100
AcDbEntity
  8
woodOut
 62
7
100
AcDbLine
 10
54.161857
 20
242.337958
 30
0.0
 11
52.149256
 21
242.618902
 31
0.0
  0
LINE
  5
1dd
100
AcDbEntity
  8
woodOut
 62
7
100
AcDbLine
 10
52.149256
 20
242.618902
 30
0.0
 11
50.038736
 21
242.826756
 31
0.0
  0
LINE
  5
1de
100
AcDbEntity
  8
woodOut
 62
7
100
AcDbLine
 10
50.038736
 20
242.826756
 30
0.0
 11
47.824312
 21
242.955722
 31
0.0
  0
LINE
  5
1df
100
AcDbEntity
  8
woodOut
 62
7
100
AcDbLine
 10
47.824312
 20
242.955722
 30
0.0
 11
45.500000
 21
243.000000
 31
0.0
  0
LINE
  5
1e0
100
AcDbEntity
  8
woodOut
 62
7
100
AcDbLine
 10
45.500000
 20
243.000000
 30
0.0
 11
44.328748
 21
242.983810
 31
0.0
  0
LINE
  5
1e1
100
AcDbEntity
  8
woodOut
 62
7
100
AcDbLine
 10
44.328748
 20
242.983810
 30
0.0
 11
43.213137
 21
242.935470
 31
0.0
  0
LINE
  5
1e2
100
AcDbEntity
  8
woodOut
 62
7
100
AcDbLine
 10
43.213137
 20
242.935470
 30
0.0
 11
42.152376
 21
242.855320
 31
0.0
  0
LINE
  5
1e3
100
AcDbEntity
  8
woodOut
 62
7
100
AcDbLine
 10
42.152376
 20
242.855320
 30
0.0
 11
41.145674
 21
242.743718
 31
0.0
  0
LINE
  5
1e4
100
AcDbEntity
  8
woodOut
 62
7
100
AcDbLine
 10
41.145674
 20
242.743718
 30
0.0
 11
40.192242
 21
242.601010
 31
0.0
  0
LINE
  5
1e5
100
AcDbEntity
  8
woodOut
 62
7
100
AcDbLine
 10
40.192242
 20
242.601010
 30
0.0
 11
39.291289
 21
242.427547
 31
0.0
  0
LINE
  5
1e6
100
AcDbEntity
  8
woodOut
 62
7
100
AcDbLine
 10
39.291289
 20
242.427547
 30
0.0
 11
38.442023
 21
242.223677
 31
0.0
  0
LINE
  5
1e7
100
AcDbEntity
  8
woodOut
 62
7
100
AcDbLine
 10
38.442023
 20
242.223677
 30
0.0
 11
37.643654
 21
241.989749
 31
0.0
  0
LINE
  5
1e8
100
AcDbEntity
  8
woodOut
 62
7
100
AcDbLine
 10
37.643654
 20
241.989749
 30
0.0
 11
36.895393
 21
241.726112
 31
0.0
  0
LINE
  5
1e9
100
AcDbEntity
  8
woodOut
 62
7
100
AcDbLine
 10
36.895393
 20
241.726112
 30
0.0
 11
36.196447
 21
241.433115
 31
0.0
  0
LINE
  5
1ea
100
AcDbEntity
  8
woodOut
 62
7
100
AcDbLine
 10
36.196447
 20
241.433115
 30
0.0
 11
35.546027
 21
241.111108
 31
0.0
  0
LINE
  5
1eb
100
AcDbEntity
  8
woodOut
 62
7
100
AcDbLine
 10
35.546027
 20
241.111108
 30
0.0
 11
34.943343
 21
240.760439
 31
0.0
  0
LINE
  5
1ec
100
AcDbEntity
  8
woodOut
 62
7
100
AcDbLine
 10
34.943343
 20
240.760439
 30
0.0
 11
34.387602
 21
240.381458
 31
0.0
  0
LINE
  5
1ed
100
AcDbEntity
  8
woodOut
 62
7
100
AcDbLine
 10
34.387602
 20
240.381458
 30
0.0
 11
33.878015
 21
239.974513
 31
0.0
  0
LINE
  5
1ee
100
AcDbEntity
  8
woodOut
 62
7
100
AcDbLine
 10
33.878015
 20
239.974513
 30
0.0
 11
33.413792
 21
239.539954
 31
0.0
  0
LINE
  5
1ef
100
AcDbEntity
  8
woodOut
 62
7
100
AcDbLine
 10
33.413792
 20
239.539954
 30
0.0
 11
32.994141
 21
239.078130
 31
0.0
  0
LINE
  5
1f0
100
AcDbEntity
  8
woodOut
 62
7
100
AcDbLine
 10
32.994141
 20
239.078130
 30
0.0
 11
32.621537
 21
238.592420
 31
0.0
  0
LINE
  5
1f1
100
AcDbEntity
  8
woodOut
 62
7
100
AcDbLine
 10
32.621537
 20
238.592420
 30
0.0
 11
32.297907
 21
238.086851
 31
0.0
  0
LINE
  5
1f2
100
AcDbEntity
  8
woodOut
 62
7
100
AcDbLine
 10
32.297907
 20
238.086851
 30
0.0
 11
32.021637
 21
237.562741
 31
0.0
  0
LINE
  5
1f3
100
AcDbEntity
  8
woodOut
 62
7
100
AcDbLine
 10
32.021637
 20
237.562741
 30
0.0
 11
31.791114
 21
237.021408
 31
0.0
  0
LINE
  5
1f4
100
AcDbEntity
  8
woodOut
 62
7
100
AcDbLine
 10
31.791114
 20
237.021408
 30
0.0
 11
31.604724
 21
236.464173
 31
0.0
  0
LINE
  5
1f5
100
AcDbEntity
  8
woodOut
 62
7
100
AcDbLine
 10
31.604724
 20
236.464173
 30
0.0
 11
31.460855
 21
235.892353
 31
0.0
  0
LINE
  5
1f6
100
AcDbEntity
  8
woodOut
 62
7
100
AcDbLine
 10
31.460855
 20
235.892353
 30
0.0
 11
31.357893
 21
235.307267
 31
0.0
  0
LINE
  5
1f7
100
AcDbEntity
  8
woodOut
 62
7
100
AcDbLine
 10
31.357893
 20
235.307267
 30
0.0
 11
31.294223
 21
234.710234
 31
0.0
  0
LINE
  5
1f8
100
AcDbEntity
  8
woodOut
 62
7
100
AcDbLine
 10
31.294223
 20
234.710234
 30
0.0
 11
31.268233
 21
234.102572
 31
0.0
  0
LINE
  5
1f9
100
AcDbEntity
  8
woodOut
 62
7
100
AcDbLine
 10
31.268233
 20
234.102572
 30
0.0
 11
31.278313
 21
233.485601
 31
0.0
  0
LINE
  5
1fa
100
AcDbEntity
  8
woodOut
 62
7
100
AcDbLine
 10
31.278313
 20
233.485601
 30
0.0
 11
31.322843
 21
232.860639
 31
0.0
  0
LINE
  5
1fb
100
AcDbEntity
  8
woodOut
 62
7
100
AcDbLine
 10
31.322843
 20
232.860639
 30
0.0
 11
31.400213
 21
232.229004
 31
0.0
  0
LINE
  5
1fc
100
AcDbEntity
  8
woodOut
 62
7
100
AcDbLine
 10
31.400213
 20
232.229004
 30
0.0
 11
31.508815
 21
231.592015
 31
0.0
  0
LINE
  5
1fd
100
AcDbEntity
  8
woodOut
 62
7
100
AcDbLine
 10
31.508815
 20
231.592015
 30
0.0
 11
31.647030
 21
230.950991
 31
0.0
  0
LINE
  5
1fe
100
AcDbEntity
  8
woodOut
 62
7
100
AcDbLine
 10
31.647030
 20
230.950991
 30
0.0
 11
31.813246
 21
230.307252
 31
0.0
  0
LINE
  5
1ff
100
AcDbEntity
  8
woodOut
 62
7
100
AcDbLine
 10
31.813246
 20
230.307252
 30
0.0
 11
32.005850
 21
229.662114
 31
0.0
  0
LINE
  5
200
100
AcDbEntity
  8
woodOut
 62
7
100
AcDbLine
 10
32.005850
 20
229.662114
 30
0.0
 11
32.463602
 21
228.364088
 31
0.0
  0
LINE
  5
201
100
AcDbEntity
  8
woodOut
 62
7
100
AcDbLine
 10
32.463602
 20
228.364088
 30
0.0
 11
33.009852
 21
227.055501
 31
0.0
  0
LINE
  5
202
100
AcDbEntity
  8
woodOut
 62
7
100
AcDbLine
 10
33.009852
 20
227.055501
 30
0.0
 11
33.635644
 21
225.742216
 31
0.0
  0
LINE
  5
203
100
AcDbEntity
  8
woodOut
 62
7
100
AcDbLine
 10
33.635644
 20
225.742216
 30
0.0
 11
34.332027
 21
224.430091
 31
0.0
  0
LINE
  5
204
100
AcDbEntity
  8
woodOut
 62
7
100
AcDbLine
 10
34.332027
 20
224.430091
 30
0.0
 11
35.090046
 21
223.124987
 31
0.0
  0
LINE
  5
205
100
AcDbEntity
  8
woodOut
 62
7
100
AcDbLine
 10
35.090046
 20
223.124987
 30
0.0
 11
35.900747
 21
221.832763
 31
0.0
  0
LINE
  5
206
100
AcDbEntity
  8
woodOut
 62
7
100
AcDbLine
 10
35.900747
 20
221.832763
 30
0.0
 11
36.755178
 21
220.559281
 31
0.0
  0
LINE
  5
207
100
AcDbEntity
  8
woodOut
 62
7
100
AcDbLine
 10
36.755178
 20
220.559281
 30
0.0
 11
37.644384
 21
219.310400
 31
0.0
  0
LINE
  5
208
100
AcDbEntity
  8
woodOut
 62
7
100
AcDbLine
 10
37.644384
 20
219.310400
 30
0.0
 11
38.559413
 21
218.091980
 31
0.0
  0
LINE
  5
209
100
AcDbEntity
  8
woodOut
 62
7
100
AcDbLine
 10
38.559413
 20
218.091980
 30
0.0
 11
39.491310
 21
216.909882
 31
0.0
  0
LINE
  5
20a
100
AcDbEntity
  8
woodOut
 62
7
100
AcDbLine
 10
39.491310
 20
216.909882
 30
0.0
 11
40.431122
 21
215.769965
 31
0.0
  0
LINE
  5
20b
100
AcDbEntity
  8
woodOut
 62
7
100
AcDbLine
 10
40.431122
 20
215.769965
 30
0.0
 11
41.369896
 21
214.678090
 31
0.0
  0
LINE
  5
20c
100
AcDbEntity
  8
woodOut
 62
7
100
AcDbLine
 10
41.369896
 20
214.678090
 30
0.0
 11
42.298678
 21
213.640116
 31
0.0
  0
LINE
  5
20d
100
AcDbEntity
  8
woodOut
 62
7
100
AcDbLine
 10
42.298678
 20
213.640116
 30
0.0
 11
43.208515
 21
212.661905
 31
0.0
  0
LINE
  5
20e
100
AcDbEntity
  8
woodOut
 62
7
100
AcDbLine
 10
43.208515
 20
212.661905
 30
0.0
 11
44.090453
 21
211.749315
 31
0.0
  0
LINE
  5
20f
100
AcDbEntity
  8
woodOut
 62
7
100
AcDbLine
 10
44.090453
 20
211.749315
 30
0.0
 11
44.935538
 21
210.908208
 31
0.0
  0
LINE
  5
210
100
AcDbEntity
  8
woodOut
 62
7
100
AcDbLine
 10
44.935538
 20
210.908208
 30
0.0
 11
45.815772
 21
209.991712
 31
0.0
  0
LINE
  5
211
100
AcDbEntity
  8
woodOut
 62
7
100
AcDbLine
 10
45.815772
 20
209.991712
 30
0.0
 11
46.696672
 21
208.961398
 31
0.0
  0
LINE
  5
212
100
AcDbEntity
  8
woodOut
 62
7
100
AcDbLine
 10
46.696672
 20
208.961398
 30
0.0
 11
47.572307
 21
207.827045
 31
0.0
  0
LINE
  5
213
100
AcDbEntity
  8
woodOut
 62
7
100
AcDbLine
 10
47.572307
 20
207.827045
 30
0.0
 11
48.436744
 21
206.598432
 31
0.0
  0
LINE
  5
214
100
AcDbEntity
  8
woodOut
 62
7
100
AcDbLine
 10
48.436744
 20
206.598432
 30
0.0
 11
49.284051
 21
205.285340
 31
0.0
  0
LINE
  5
215
100
AcDbEntity
  8
woodOut
 62
7
100
AcDbLine
 10
49.284051
 20
205.285340
 30
0.0
 11
50.108296
 21
203.897547
 31
0.0
  0
LINE
  5
216
100
AcDbEntity
  8
woodOut
 62
7
100
AcDbLine
 10
50.108296
 20
203.897547
 30
0.0
 11
50.903548
 21
202.444832
 31
0.0
  0
LINE
  5
217
100
AcDbEntity
  8
woodOut
 62
7
100
AcDbLine
 10
50.903548
 20
202.444832
 30
0.0
 11
51.663875
 21
200.936974
 31
0.0
  0
LINE
  5
218
100
AcDbEntity
  8
woodOut
 62
7
100
AcDbLine
 10
51.663875
 20
200.936974
 30
0.0
 11
52.383344
 21
199.383754
 31
0.0
  0
LINE
  5
219
100
AcDbEntity
  8
woodOut
 62
7
100
AcDbLine
 10
52.383344
 20
199.383754
 30
0.0
 11
53.056024
 21
197.794950
 31
0.0
  0
LINE
  5
21a
100
AcDbEntity
  8
woodOut
 62
7
100
AcDbLine
 10
53.056024
 20
197.794950
 30
0.0
 11
53.675982
 21
196.180345
 31
0.0
  0
LINE
  5
21b
100
AcDbEntity
  8
woodOut
 62
7
100
AcDbLine
 10
53.675982
 20
196.180345
 30
0.0
 11
54.237287
 21
194.549705
 31
0.0
  0
LINE
  5
21c
100
AcDbEntity
  8
woodOut
 62
7
100
AcDbLine
 10
54.237287
 20
194.549705
 30
0.0
 11
54.734007
 21
192.912825
 31
0.0
  0
LINE
  5
21d
100
AcDbEntity
  8
woodOut
 62
7
100
AcDbLine
 10
54.734007
 20
192.912825
 30
0.0
 11
55.160209
 21
191.279485
 31
0.0
  0
LINE
  5
21e
100
AcDbEntity
  8
woodOut
 62
7
100
AcDbLine
 10
55.160209
 20
191.279485
 30
0.0
 11
55.509963
 21
189.659445
 31
0.0
  0
LINE
  5
21f
100
AcDbEntity
  8
woodOut
 62
7
100
AcDbLine
 10
55.509963
 20
189.659445
 30
0.0
 11
55.777335
 21
188.062505
 31
0.0
  0
LINE
  5
220
100
AcDbEntity
  8
woodOut
 62
7
100
AcDbLine
 10
55.777335
 20
188.062505
 30
0.0
 11
55.878313
 21
187.276105
 31
0.0
  0
LINE
  5
221
100
AcDbEntity
  8
woodOut
 62
7
100
AcDbLine
 10
55.878313
 20
187.276105
 30
0.0
 11
55.956793
 21
186.499815
 31
0.0
  0
LINE
  5
222
100
AcDbEntity
  8
woodOut
 62
7
100
AcDbLine
 10
55.956793
 20
186.499815
 30
0.0
 11
56.012393
 21
185.734795
 31
0.0
  0
LINE
  5
223
100
AcDbEntity
  8
woodOut
 62
7
100
AcDbLine
 10
56.012393
 20
185.734795
 30
0.0
 11
56.044733
 21
184.982185
 31
0.0
  0
LINE
  5
224
100
AcDbEntity
  8
woodOut
 62
7
100
AcDbLine
 10
56.044733
 20
184.982185
 30
0.0
 11
56.053433
 21
184.243145
 31
0.0
  0
LINE
  5
225
100
AcDbEntity
  8
woodOut
 62
7
100
AcDbLine
 10
56.053433
 20
184.243145
 30
0.0
 11
56.038113
 21
183.518845
 31
0.0
  0
LINE
  5
226
100
AcDbEntity
  8
woodOut
 62
7
100
AcDbLine
 10
56.038113
 20
183.518845
 30
0.0
 11
55.998393
 21
182.810415
 31
0.0
  0
LINE
  5
227
100
AcDbEntity
  8
woodOut
 62
7
100
AcDbLine
 10
55.998393
 20
182.810415
 30
0.0
 11
55.933903
 21
182.119035
 31
0.0
  0
LINE
  5
228
100
AcDbEntity
  8
woodOut
 62
7
100
AcDbLine
 10
55.933903
 20
182.119035
 30
0.0
 11
55.844253
 21
181.445835
 31
0.0
  0
LINE
  5
229
100
AcDbEntity
  8
woodOut
 62
7
100
AcDbLine
 10
55.844253
 20
181.445835
 30
0.0
 11
55.729068
 21
180.791985
 31
0.0
  0
LINE
  5
22a
100
AcDbEntity
  8
woodOut
 62
7
100
AcDbLine
 10
55.729068
 20
180.791985
 30
0.0
 11
55.587968
 21
180.158645
 31
0.0
  0
LINE
  5
22b
100
AcDbEntity
  8
woodOut
 62
7
100
AcDbLine
 10
55.587968
 20
180.158645
 30
0.0
 11
55.420573
 21
179.546955
 31
0.0
  0
LINE
  5
22c
100
AcDbEntity
  8
woodOut
 62
7
100
AcDbLine
 10
55.420573
 20
179.546955
 30
0.0
 11
55.226505
 21
178.958075
 31
0.0
  0
LINE
  5
22d
100
AcDbEntity
  8
woodOut
 62
7
100
AcDbLine
 10
55.226505
 20
178.958075
 30
0.0
 11
55.005383
 21
178.393155
 31
0.0
  0
LINE
  5
22e
100
AcDbEntity
  8
woodOut
 62
7
100
AcDbLine
 10
55.005383
 20
178.393155
 30
0.0
 11
54.756829
 21
177.853365
 31
0.0
  0
LINE
  5
22f
100
AcDbEntity
  8
woodOut
 62
7
100
AcDbLine
 10
54.756829
 20
177.853365
 30
0.0
 11
54.480463
 21
177.339845
 31
0.0
  0
LINE
  5
230
100
AcDbEntity
  8
woodOut
 62
7
100
AcDbLine
 10
54.480463
 20
177.339845
 30
0.0
 11
54.176561
 21
176.851655
 31
0.0
  0
LINE
  5
231
100
AcDbEntity
  8
woodOut
 62
7
100
AcDbLine
 10
54.176561
 20
176.851655
 30
0.0
 11
53.844736
 21
176.387745
 31
0.0
  0
LINE
  5
232
100
AcDbEntity
  8
woodOut
 62
7
100
AcDbLine
 10
53.844736
 20
176.387745
 30
0.0
 11
53.483619
 21
175.949115
 31
0.0
  0
LINE
  5
233
100
AcDbEntity
  8
woodOut
 62
7
100
AcDbLine
 10
53.483619
 20
175.949115
 30
0.0
 11
53.091839
 21
175.536755
 31
0.0
  0
LINE
  5
234
100
AcDbEntity
  8
woodOut
 62
7
100
AcDbLine
 10
53.091839
 20
175.536755
 30
0.0
 11
52.668025
 21
175.151665
 31
0.0
  0
LINE
  5
235
100
AcDbEntity
  8
woodOut
 62
7
100
AcDbLine
 10
52.668025
 20
175.151665
 30
0.0
 11
52.210808
 21
174.794825
 31
0.0
  0
LINE
  5
236
100
AcDbEntity
  8
woodOut
 62
7
100
AcDbLine
 10
52.210808
 20
174.794825
 30
0.0
 11
51.718818
 21
174.467255
 31
0.0
  0
LINE
  5
237
100
AcDbEntity
  8
woodOut
 62
7
100
AcDbLine
 10
51.718818
 20
174.467255
 30
0.0
 11
51.190683
 21
174.169935
 31
0.0
  0
LINE
  5
238
100
AcDbEntity
  8
woodOut
 62
7
100
AcDbLine
 10
51.190683
 20
174.169935
 30
0.0
 11
50.625034
 21
173.903865
 31
0.0
  0
LINE
  5
239
100
AcDbEntity
  8
woodOut
 62
7
100
AcDbLine
 10
50.625034
 20
173.903865
 30
0.0
 11
50.020501
 21
173.670035
 31
0.0
  0
LINE
  5
23a
100
AcDbEntity
  8
woodOut
 62
7
100
AcDbLine
 10
50.020501
 20
173.670035
 30
0.0
 11
49.375713
 21
173.469455
 31
0.0
  0
LINE
  5
23b
100
AcDbEntity
  8
woodOut
 62
7
100
AcDbLine
 10
49.375713
 20
173.469455
 30
0.0
 11
48.689300
 21
173.303105
 31
0.0
  0
LINE
  5
23c
100
AcDbEntity
  8
woodOut
 62
7
100
AcDbLine
 10
48.689300
 20
173.303105
 30
0.0
 11
47.959892
 21
173.171995
 31
0.0
  0
LINE
  5
23d
100
AcDbEntity
  8
woodOut
 62
7
100
AcDbLine
 10
47.959892
 20
173.171995
 30
0.0
 11
47.186119
 21
173.077095
 31
0.0
  0
LINE
  5
23e
100
AcDbEntity
  8
woodOut
 62
7
100
AcDbLine
 10
47.186119
 20
173.077095
 30
0.0
 11
46.366609
 21
173.019395
 31
0.0
  0
LINE
  5
23f
100
AcDbEntity
  8
woodOut
 62
7
100
AcDbLine
 10
46.366609
 20
173.019395
 30
0.0
 11
45.500000
 21
173.000000
 31
0.0
  0
LINE
  5
240
100
AcDbEntity
  8
woodOut
 62
7
100
AcDbLine
 10
45.500000
 20
173.000000
 30
0.0
 11
43.250000
 21
173.000000
 31
0.0
  0
LINE
  5
241
100
AcDbEntity
  8
woodOut
 62
7
100
AcDbLine
 10
43.250000
 20
173.000000
 30
0.0
 11
41.000000
 21
173.000000
 31
0.0
  0
LINE
  5
242
100
AcDbEntity
  8
woodOut
 62
7
100
AcDbLine
 10
41.000000
 20
173.000000
 30
0.0
 11
38.750000
 21
173.000000
 31
0.0
  0
LINE
  5
243
100
AcDbEntity
  8
woodOut
 62
7
100
AcDbLine
 10
38.750000
 20
173.000000
 30
0.0
 11
36.500000
 21
173.000000
 31
0.0
  0
LINE
  5
244
100
AcDbEntity
  8
woodOut
 62
7
100
AcDbLine
 10
36.500000
 20
173.000000
 30
0.0
 11
34.250000
 21
173.000000
 31
0.0
  0
LINE
  5
245
100
AcDbEntity
  8
woodOut
 62
7
100
AcDbLine
 10
34.250000
 20
173.000000
 30
0.0
 11
32.000000
 21
173.000000
 31
0.0
  0
LINE
  5
246
100
AcDbEntity
  8
woodOut
 62
7
100
AcDbLine
 10
32.000000
 20
173.000000
 30
0.0
 11
29.750000
 21
173.000000
 31
0.0
  0
LINE
  5
247
100
AcDbEntity
  8
woodOut
 62
7
100
AcDbLine
 10
29.750000
 20
173.000000
 30
0.0
 11
27.500000
 21
173.000000
 31
0.0
  0
LINE
  5
248
100
AcDbEntity
  8
woodOut
 62
7
100
AcDbLine
 10
27.500000
 20
173.000000
 30
0.0
 11
25.250000
 21
173.000000
 31
0.0
  0
LINE
  5
249
100
AcDbEntity
  8
woodOut
 62
7
100
AcDbLine
 10
25.250000
 20
173.000000
 30
0.0
 11
23.000000
 21
173.000000
 31
0.0
  0
LINE
  5
24a
100
AcDbEntity
  8
woodOut
 62
7
100
AcDbLine
 10
23.000000
 20
173.000000
 30
0.0
 11
20.750000
 21
173.000000
 31
0.0
  0
LINE
  5
24b
100
AcDbEntity
  8
woodOut
 62
7
100
AcDbLine
 10
20.750000
 20
173.000000
 30
0.0
 11
18.500000
 21
173.000000
 31
0.0
  0
LINE
  5
24c
100
AcDbEntity
  8
woodOut
 62
7
100
AcDbLine
 10
18.500000
 20
173.000000
 30
0.0
 11
16.250000
 21
173.000000
 31
0.0
  0
LINE
  5
24d
100
AcDbEntity
  8
woodOut
 62
7
100
AcDbLine
 10
16.250000
 20
173.000000
 30
0.0
 11
14.000000
 21
173.000000
 31
0.0
  0
LINE
  5
24e
100
AcDbEntity
  8
woodOut
 62
7
100
AcDbLine
 10
14.000000
 20
173.000000
 30
0.0
 11
11.750000
 21
173.000000
 31
0.0
  0
LINE
  5
24f
100
AcDbEntity
  8
woodOut
 62
7
100
AcDbLine
 10
11.750000
 20
173.000000
 30
0.0
 11
9.500000
 21
173.000000
 31
0.0
  0
LINE
  5
250
100
AcDbEntity
  8
woodOut
 62
7
100
AcDbLine
 10
9.500000
 20
173.000000
 30
0.0
 11
9.500000
 21
169.812500
 31
0.0
  0
LINE
  5
251
100
AcDbEntity
  8
woodOut
 62
7
100
AcDbLine
 10
9.500000
 20
169.812500
 30
0.0
 11
9.500000
 21
166.625000
 31
0.0
  0
LINE
  5
252
100
AcDbEntity
  8
woodOut
 62
7
100
AcDbLine
 10
9.500000
 20
166.625000
 30
0.0
 11
9.500000
 21
163.437500
 31
0.0
  0
LINE
  5
253
100
AcDbEntity
  8
woodOut
 62
7
100
AcDbLine
 10
9.500000
 20
163.437500
 30
0.0
 11
9.500000
 21
160.250000
 31
0.0
  0
LINE
  5
254
100
AcDbEntity
  8
woodOut
 62
7
100
AcDbLine
 10
9.500000
 20
160.250000
 30
0.0
 11
9.500000
 21
157.062500
 31
0.0
  0
LINE
  5
255
100
AcDbEntity
  8
woodOut
 62
7
100
AcDbLine
 10
9.500000
 20
157.062500
 30
0.0
 11
9.500000
 21
153.875000
 31
0.0
  0
LINE
  5
256
100
AcDbEntity
  8
woodOut
 62
7
100
AcDbLine
 10
9.500000
 20
153.875000
 30
0.0
 11
9.500000
 21
150.687500
 31
0.0
  0
LINE
  5
257
100
AcDbEntity
  8
woodOut
 62
7
100
AcDbLine
 10
9.500000
 20
150.687500
 30
0.0
 11
9.500000
 21
147.500000
 31
0.0
  0
LINE
  5
258
100
AcDbEntity
  8
woodOut
 62
7
100
AcDbLine
 10
9.500000
 20
147.500000
 30
0.0
 11
9.500000
 21
144.312500
 31
0.0
  0
LINE
  5
259
100
AcDbEntity
  8
woodOut
 62
7
100
AcDbLine
 10
9.500000
 20
144.312500
 30
0.0
 11
9.500000
 21
141.125000
 31
0.0
  0
LINE
  5
25a
100
AcDbEntity
  8
woodOut
 62
7
100
AcDbLine
 10
9.500000
 20
141.125000
 30
0.0
 11
9.500000
 21
137.937500
 31
0.0
  0
LINE
  5
25b
100
AcDbEntity
  8
woodOut
 62
7
100
AcDbLine
 10
9.500000
 20
137.937500
 30
0.0
 11
9.500000
 21
134.750000
 31
0.0
  0
LINE
  5
25c
100
AcDbEntity
  8
woodOut
 62
7
100
AcDbLine
 10
9.500000
 20
134.750000
 30
0.0
 11
9.500000
 21
131.562500
 31
0.0
  0
LINE
  5
25d
100
AcDbEntity
  8
woodOut
 62
7
100
AcDbLine
 10
9.500000
 20
131.562500
 30
0.0
 11
9.500000
 21
128.375000
 31
0.0
  0
LINE
  5
25e
100
AcDbEntity
  8
woodOut
 62
7
100
AcDbLine
 10
9.500000
 20
128.375000
 30
0.0
 11
9.500000
 21
125.187500
 31
0.0
  0
LINE
  5
25f
100
AcDbEntity
  8
woodOut
 62
7
100
AcDbLine
 10
9.500000
 20
125.187500
 30
0.0
 11
9.500000
 21
122.000000
 31
0.0
  0
ENDSEC
  0
SECTION
  2
OBJECTS
  0
DICTIONARY
  5
C
330
0
100
AcDbDictionary
  3
ACAD_GROUP
350
D
  3
ACAD_MLINESTYLE
350
17
  0
DICTIONARY
  5
D
330
C
100
AcDbDictionary
  0
DICTIONARY
  5
1A
330
C
100
AcDbDictionary
  0
DICTIONARY
  5
17
330
C
100
AcDbDictionary
  3
STANDARD
350
18
  0
DICTIONARY
  5
19
330
C
100
AcDbDictionary
  0
ENDSEC
  0
EOF
